<?xml version="1.0" standalone="no"?>
<!DOCTYPE svg PUBLIC "-//W3C//DTD SVG 20010904//EN"
 "http://www.w3.org/TR/2001/REC-SVG-20010904/DTD/svg10.dtd">
<svg version="1.0" xmlns="http://www.w3.org/2000/svg"
 width="1920.000000pt" height="1080.000000pt" viewBox="0 0 1920.000000 1080.000000"
 preserveAspectRatio="xMidYMid meet">

<g transform="translate(0.000000,1080.000000) scale(0.100000,-0.100000)"
fill="#000000" stroke="none">
<path d="M0 5400 l0 -5400 9600 0 9600 0 0 5400 0 5400 -1415 0 -1416 0 -24
-25 c-14 -13 -25 -29 -25 -35 0 -16 -70 -83 -70 -68 0 8 -5 6 -11 -5 -5 -9 -7
-21 -4 -27 3 -5 -4 -14 -15 -20 -16 -9 -20 -8 -20 5 0 9 -4 13 -10 10 -6 -4
-5 -14 3 -27 10 -17 9 -22 -7 -32 -10 -6 -31 -21 -46 -33 -15 -13 -35 -23 -44
-23 -9 0 -16 -8 -16 -17 0 -11 -19 -27 -50 -42 -27 -14 -47 -28 -44 -33 3 -4
0 -8 -6 -8 -6 0 -8 -4 -5 -10 6 -10 -20 -15 -57 -12 -11 1 -18 -5 -18 -16 0
-10 -15 -26 -32 -36 -38 -22 -117 -105 -118 -123 0 -22 -33 -53 -55 -53 -12 0
-32 -11 -44 -24 -13 -14 -45 -30 -75 -37 -28 -6 -53 -15 -56 -18 -3 -4 -41
-17 -85 -30 -44 -13 -99 -31 -122 -42 -31 -13 -43 -15 -47 -6 -5 9 -7 9 -12 0
-3 -7 -17 -13 -30 -13 -17 0 -24 -6 -24 -20 0 -11 -7 -20 -15 -20 -9 0 -19
-10 -24 -22 -9 -23 -85 -84 -112 -90 -7 -2 -22 -13 -32 -25 -11 -14 -30 -23
-46 -23 -15 0 -32 -5 -39 -12 -9 -9 -12 -9 -12 0 0 7 -9 12 -20 12 -13 0 -20
-7 -20 -20 0 -12 -7 -20 -17 -20 -10 0 -38 -10 -63 -22 -25 -11 -56 -20 -70
-19 -14 1 -36 -7 -49 -18 -13 -12 -29 -21 -35 -21 -6 0 -17 -9 -24 -20 -7 -12
-17 -18 -22 -15 -5 3 -15 -3 -22 -15 -7 -11 -18 -20 -24 -20 -6 0 -21 -11 -34
-25 -13 -14 -34 -25 -47 -25 -13 0 -26 -7 -30 -16 -9 -25 -52 -64 -70 -64 -9
0 -25 -8 -36 -17 -15 -13 -18 -14 -12 -3 6 11 3 10 -12 -2 -11 -10 -32 -18
-46 -18 -22 0 -27 -5 -27 -24 0 -18 -8 -27 -32 -36 -18 -7 -27 -14 -20 -17 23
-9 13 -33 -15 -33 -53 0 -152 -22 -170 -38 -10 -10 -37 -26 -60 -37 -24 -11
-43 -25 -43 -31 0 -7 -16 -15 -36 -18 -19 -4 -44 -16 -55 -27 -10 -10 -26 -19
-34 -19 -8 0 -15 -7 -15 -16 0 -10 -7 -14 -22 -13 -13 2 -29 0 -36 -5 -7 -4
-16 -5 -19 -2 -3 3 -18 -1 -32 -8 -14 -7 -37 -18 -51 -23 -14 -6 -46 -20 -73
-32 -26 -11 -54 -21 -61 -21 -8 0 -16 -3 -18 -7 -2 -5 -24 -19 -50 -32 -27
-13 -48 -28 -48 -32 0 -5 -8 -9 -18 -9 -19 0 -325 -152 -501 -248 -52 -29 -98
-52 -103 -52 -4 0 -8 -4 -8 -8 0 -5 -18 -15 -40 -22 -22 -7 -40 -17 -40 -22 0
-4 -7 -8 -15 -8 -8 0 -29 -9 -47 -20 -18 -11 -39 -20 -46 -20 -7 0 -38 -16
-68 -35 -30 -19 -56 -35 -59 -35 -2 0 -3 12 -2 27 2 21 -4 29 -26 37 -24 9
-30 7 -38 -7 -6 -9 -21 -17 -34 -17 -45 0 -245 -172 -245 -210 0 -25 -32 -71
-60 -85 -64 -33 -146 -9 -175 51 -19 40 -19 67 0 104 25 48 62 70 119 70 57 0
52 -5 134 131 39 64 40 68 25 95 -8 16 -21 36 -29 45 -20 22 -18 40 10 96 13
26 32 73 42 103 l18 55 12 -80 c7 -44 13 -87 13 -95 1 -13 2 -13 11 0 16 24
12 179 -4 195 -19 19 -2 96 32 148 14 22 27 48 29 59 4 25 33 81 46 90 6 3 12
15 13 25 1 10 7 32 13 48 34 94 53 153 58 173 3 12 9 22 13 22 4 0 11 15 14
34 4 18 18 62 31 96 14 35 25 72 25 82 0 10 4 18 10 18 5 0 16 22 24 49 8 26
18 57 24 67 17 34 32 90 33 125 1 34 16 93 18 74 1 -5 8 4 16 20 7 17 14 23
15 15 1 -8 8 5 15 30 23 79 54 159 65 170 10 10 31 45 36 63 4 9 10 17 15 17
5 0 6 7 2 16 -8 22 28 98 40 82 6 -9 7 -6 4 10 -3 12 -1 22 4 22 5 0 9 13 9
29 0 16 6 36 13 43 14 13 23 38 37 98 4 19 11 43 15 53 7 16 -303 17 -6419 17
l-6426 0 0 -5400z m17420 4922 l165 -68 0 -49 0 -48 -165 -68 c-91 -38 -171
-68 -178 -69 -10 0 -12 15 -10 56 l3 57 98 35 97 36 -100 40 -100 39 0 54 c0
36 4 53 13 53 6 0 86 -31 177 -68z m90 -452 l40 0 0 -45 0 -45 -40 0 -40 0 0
-96 c0 -115 8 -134 55 -134 34 0 35 -1 35 -38 0 -21 -5 -43 -12 -50 -17 -17
-91 -15 -134 3 -51 21 -64 61 -64 200 l0 115 -25 0 c-23 0 -25 4 -25 45 0 41
2 45 24 45 22 0 25 5 28 41 3 40 5 42 58 63 l55 22 3 -63 3 -63 39 0z m-2061
-8 c63 -34 72 -65 69 -247 l-3 -160 -57 -3 c-53 -3 -58 -1 -58 18 l0 21 -26
-20 c-33 -26 -120 -29 -164 -6 -56 29 -77 113 -44 176 20 39 78 65 165 74 62
7 66 9 61 29 -8 34 -22 46 -53 46 -19 0 -34 -8 -45 -25 -14 -22 -23 -25 -75
-25 l-59 0 6 28 c19 76 75 111 179 112 50 0 80 -5 104 -18z m437 -8 c39 -28
63 -63 70 -101 l7 -33 -61 0 c-54 0 -60 2 -66 23 -7 31 -48 50 -81 37 -72 -28
-72 -218 0 -236 34 -9 72 9 87 41 10 22 17 25 66 25 l55 0 -7 -32 c-14 -71
-72 -119 -150 -126 -78 -6 -121 4 -162 40 -43 38 -52 54 -64 120 -20 103 19
201 95 246 53 30 168 28 211 -4z m408 12 c40 -17 81 -68 91 -113 l7 -33 -60 0
c-50 0 -60 3 -65 19 -2 10 -16 27 -30 36 -22 14 -30 15 -54 3 -15 -7 -33 -24
-40 -38 -17 -34 -16 -125 2 -160 27 -53 102 -50 127 5 10 22 17 25 66 25 l55
0 -7 -32 c-8 -43 -48 -92 -89 -112 -42 -20 -136 -21 -180 -2 -103 42 -146 200
-87 316 34 66 90 99 173 100 32 0 73 -6 91 -14z m441 -9 c56 -32 85 -86 85
-164 l0 -63 -130 0 c-120 0 -130 -1 -130 -19 0 -10 9 -30 21 -45 28 -36 89
-37 117 -1 17 21 28 25 71 25 59 0 64 -11 31 -66 -44 -71 -176 -97 -267 -53
-137 66 -134 315 5 389 53 28 145 27 197 -3z m466 6 c48 -29 59 -74 59 -247 0
-84 -2 -155 -4 -157 -2 -2 -29 -2 -60 -1 l-56 4 0 137 c0 158 -8 181 -65 181
-57 0 -65 -23 -65 -182 l0 -138 -60 0 -60 0 0 205 0 205 60 0 c53 0 60 -2 60
-20 0 -18 2 -18 36 5 44 30 112 33 155 8z m1109 -42 l0 -58 -41 -6 c-74 -10
-83 -29 -88 -172 l-3 -125 -59 0 -59 0 0 205 0 205 60 0 60 0 0 -32 0 -32 16
23 c17 24 66 50 97 51 14 0 17 -9 17 -59z m313 45 c66 -27 107 -102 107 -193
l0 -43 -136 0 -136 0 7 -27 c11 -44 34 -63 77 -63 29 0 45 7 62 25 19 20 33
25 75 25 50 0 52 -1 46 -22 -20 -71 -91 -118 -178 -118 -136 0 -206 72 -207
211 0 134 77 219 197 219 29 0 68 -6 86 -14z m-883 -146 c0 -147 0 -150 24
-165 29 -19 72 -11 86 15 6 10 10 82 10 159 l0 141 65 0 65 0 0 -205 0 -205
-65 0 c-51 0 -65 3 -65 15 0 12 -6 11 -32 -5 -40 -24 -107 -26 -148 -5 -53 27
-60 56 -60 240 l0 165 60 0 60 0 0 -150z m-16591 -553 c96 -336 92 -323 100
-307 4 8 41 131 81 273 l74 257 109 0 c59 0 106 -3 104 -7 -2 -5 -61 -182
-131 -395 l-127 -388 -128 0 -129 0 -128 383 c-70 210 -129 388 -132 395 -3 9
25 12 119 12 l124 0 64 -223z m1125 -149 c65 -205 121 -383 123 -395 5 -23 5
-23 -114 -23 l-118 0 -20 73 -20 72 -132 3 c-119 2 -132 1 -137 -15 -3 -10
-12 -44 -21 -75 l-16 -58 -105 0 c-57 0 -104 3 -104 7 0 8 241 765 247 776 2
4 71 7 152 7 l147 0 118 -372z m498 67 l3 -306 145 -2 145 -2 3 -87 3 -88
-266 0 -265 0 0 395 0 395 115 0 115 0 2 -305z m656 50 c3 -288 5 -309 37
-341 20 -20 34 -24 80 -24 120 0 125 13 125 355 l0 265 116 0 115 0 -3 -292
c-3 -280 -4 -295 -25 -339 -31 -62 -78 -107 -143 -138 -50 -24 -66 -26 -180
-26 -114 0 -130 2 -180 26 -66 31 -115 78 -144 139 -20 42 -21 64 -24 338 l-3
293 113 -3 113 -3 3 -250z m1222 170 l0 -85 -162 -2 -163 -3 -3 -24 c-2 -13
-1 -44 3 -68 l6 -43 125 0 124 0 0 -80 0 -80 -125 0 -125 0 0 -70 0 -70 168
-2 167 -3 3 -87 3 -88 -286 0 -285 0 0 395 0 395 275 0 275 0 0 -85z m9302
-135 c-4 -41 -2 -50 12 -50 9 0 16 -8 16 -20 0 -11 -6 -20 -14 -20 -8 0 -23
-11 -34 -25 -11 -14 -27 -25 -36 -25 -9 0 -16 -6 -16 -14 0 -7 -9 -16 -20 -19
-16 -4 -20 0 -20 19 0 17 6 24 20 24 17 0 20 7 20 40 0 22 -4 40 -10 40 -5 0
-10 9 -10 20 0 11 5 20 10 20 6 0 10 9 10 20 0 13 7 20 20 20 11 0 20 5 20 10
0 6 8 10 19 10 16 0 17 -6 13 -50z m324 -321 c-3 -17 -6 -44 -6 -60 0 -16 -4
-29 -10 -29 -5 0 -10 9 -10 20 0 15 -7 20 -25 20 -21 0 -25 5 -25 30 0 23 4
30 20 30 11 0 20 5 20 10 0 6 10 10 21 10 19 0 21 -4 15 -31z m-156 -29 c0
-13 -7 -20 -20 -20 -11 0 -20 -5 -20 -11 0 -5 -5 -7 -12 -3 -9 6 -9 9 0 12 7
2 12 12 12 23 0 12 7 19 20 19 13 0 20 -7 20 -20z m-12711 -366 c67 -19 122
-53 156 -98 31 -40 65 -125 65 -161 l0 -25 -114 0 -114 0 -7 30 c-15 68 -84
109 -161 94 -91 -17 -140 -112 -132 -254 8 -139 68 -205 181 -197 46 3 63 9
87 32 16 15 34 43 41 62 l11 33 110 0 111 0 -6 -45 c-14 -101 -80 -185 -182
-231 -108 -50 -294 -45 -406 12 -61 31 -133 112 -160 182 -33 83 -33 262 0
344 74 190 295 284 520 222z m1807 -5 c107 -34 186 -126 201 -234 l6 -45 -114
0 -115 0 -14 42 c-20 56 -57 82 -118 82 -99 0 -158 -68 -169 -192 -13 -159 53
-262 167 -262 67 0 110 26 134 82 l20 48 108 0 108 0 0 -28 c0 -60 -32 -126
-90 -184 -48 -48 -68 -60 -129 -78 -60 -19 -89 -21 -174 -18 -125 6 -195 30
-266 94 -64 57 -98 127 -113 232 -22 151 20 290 114 378 113 106 276 136 444
83z m-925 2 c166 -52 257 -174 267 -356 10 -191 -65 -322 -226 -398 -56 -26
-80 -31 -168 -35 -88 -4 -114 -1 -171 17 -122 39 -212 127 -250 241 -24 73
-24 216 0 287 39 112 132 204 251 245 72 25 215 24 297 -1z m1489 -143 c0
-179 -13 -181 135 15 l100 132 118 3 c64 1 117 0 117 -3 0 -3 -61 -83 -137
-177 -75 -95 -136 -177 -136 -183 0 -6 58 -91 130 -190 71 -99 137 -192 147
-207 l18 -28 -130 0 -130 0 -108 160 c-60 87 -112 159 -116 160 -5 0 -8 -72
-8 -160 l0 -160 -110 0 -110 0 0 395 0 395 110 0 110 0 0 -152z m1051 136 c40
-12 66 -28 101 -64 53 -55 68 -96 68 -191 0 -162 -107 -249 -307 -249 l-83 0
0 -135 0 -135 -115 0 -115 0 0 395 0 395 198 0 c152 0 211 -4 253 -16z m529
-379 l0 -395 -115 0 -115 0 0 395 0 395 115 0 115 0 0 -395z m760 310 l0 -85
-100 0 -100 0 0 -310 0 -310 -115 0 -115 0 0 310 0 310 -105 0 -105 0 0 85 0
85 320 0 320 0 0 -85z m-3900 -2700 l0 -155 -40 0 c-22 0 -40 4 -40 9 0 5 -12
3 -27 -4 -67 -33 -123 14 -123 102 0 47 4 59 29 84 31 30 67 37 102 19 18 -10
19 -7 19 38 0 58 3 62 47 62 l33 0 0 -155z m798 126 c7 -47 -59 -64 -73 -19
-9 26 13 50 44 46 19 -2 27 -10 29 -27z m1782 -126 l0 -155 -35 0 -35 0 0 155
0 155 35 0 35 0 0 -155z m1560 68 l0 -86 30 41 c24 33 36 42 60 42 38 0 38
-14 0 -64 l-29 -38 34 -51 c19 -29 35 -55 35 -59 0 -5 -18 -8 -39 -8 -35 0
-41 4 -65 43 l-25 42 -1 -42 0 -43 -40 0 -40 0 0 155 0 155 40 0 40 0 0 -87z
m510 72 c14 -17 5 -51 -16 -59 -35 -13 -73 41 -47 67 12 12 50 7 63 -8z
m-1187 -20 c24 -16 47 -54 47 -80 0 -11 -12 -15 -39 -15 -30 0 -42 5 -55 25
-20 30 -56 33 -80 6 -27 -30 -24 -110 4 -133 30 -24 46 -23 76 7 17 17 36 25
59 25 40 0 44 -13 20 -59 -39 -76 -209 -72 -248 7 -46 91 -17 189 68 228 36
17 114 12 148 -11z m-4613 -130 l0 -145 -45 0 -45 0 0 145 0 145 45 0 45 0 0
-145z m3229 58 c13 -49 26 -92 29 -97 3 -6 17 33 32 85 l27 94 41 3 41 3 -13
-43 c-7 -24 -28 -89 -47 -146 l-34 -103 -49 3 -49 3 -48 143 -48 142 47 0 47
0 24 -87z m-2829 37 c0 -13 7 -20 20 -20 16 0 20 -7 20 -30 0 -23 -4 -30 -20
-30 -17 0 -20 -7 -20 -50 0 -47 5 -55 33 -51 4 0 7 -12 7 -29 0 -28 -2 -30
-39 -30 -57 0 -71 19 -71 95 0 47 -4 64 -15 69 -8 3 -15 15 -15 26 0 11 7 23
15 26 8 4 15 15 15 25 0 15 7 19 35 19 28 0 35 -4 35 -20z m1390 0 c0 -13 7
-20 20 -20 16 0 20 -7 20 -30 0 -23 -4 -30 -20 -30 -17 0 -20 -7 -20 -50 0
-47 5 -55 33 -51 14 2 7 -57 -7 -62 -20 -8 -77 9 -88 25 -4 7 -8 41 -8 76 0
48 -3 62 -15 62 -9 0 -15 9 -15 25 0 14 7 28 15 31 8 4 15 15 15 25 0 15 7 19
35 19 28 0 35 -4 35 -20z m910 0 c0 -13 7 -20 20 -20 16 0 20 -7 20 -30 0 -24
-4 -30 -21 -30 -18 0 -20 -5 -17 -52 2 -43 6 -53 21 -52 12 1 17 -6 17 -26 0
-33 -21 -43 -65 -32 -38 11 -55 43 -55 110 0 28 -4 52 -10 52 -5 0 -10 14 -10
30 0 17 5 30 10 30 6 0 10 9 10 20 0 17 7 20 40 20 33 0 40 -3 40 -20z m3240
0 c0 -13 7 -20 20 -20 16 0 20 -7 20 -30 0 -23 -4 -30 -20 -30 -17 0 -20 -7
-20 -50 0 -47 5 -55 33 -51 14 2 7 -57 -8 -63 -25 -9 -75 5 -85 25 -6 10 -10
45 -10 78 0 48 -3 61 -15 61 -10 0 -15 10 -15 30 0 20 5 30 15 30 8 0 15 9 15
20 0 16 7 20 35 20 28 0 35 -4 35 -20z m-5814 -35 c5 -13 8 -13 27 0 23 16 65
20 83 7 24 -16 34 -54 34 -131 l0 -81 -35 0 -35 0 0 63 c0 74 -18 109 -47 91
-14 -9 -19 -26 -21 -83 l-3 -71 -39 0 -40 0 0 104 c0 74 4 106 13 109 25 11
58 7 63 -8z m430 0 c5 -13 8 -13 27 0 34 24 47 19 47 -19 0 -29 -4 -35 -27
-41 -37 -9 -43 -20 -43 -87 l0 -58 -40 0 -40 0 0 94 c0 52 3 101 6 110 8 21
63 21 70 1z m299 -15 c45 -43 45 -122 -1 -165 -64 -60 -178 -26 -198 59 -10
42 11 95 48 117 42 27 117 21 151 -11z m417 -46 c2 -61 7 -79 21 -88 30 -18
47 17 47 96 l0 68 35 0 35 0 0 -110 0 -110 -35 0 c-19 0 -35 4 -35 9 0 6 -15
4 -34 -4 -37 -15 -59 -12 -88 13 -15 12 -18 32 -18 109 l0 93 35 0 34 0 3 -76z
m369 47 c40 -40 38 -61 -5 -61 -22 0 -36 6 -40 16 -4 10 -15 14 -33 12 -24 -3
-28 -8 -31 -41 -2 -21 2 -45 9 -53 17 -20 47 -17 59 6 15 27 70 28 70 1 0 -50
-70 -85 -139 -70 -50 11 -73 39 -78 96 -4 39 -1 53 17 76 44 56 124 64 171 18z
m309 -81 l0 -110 -35 0 -35 0 0 110 0 110 35 0 35 0 0 -110z m221 94 c65 -33
75 -131 18 -178 -57 -48 -154 -35 -185 26 -54 104 60 208 167 152z m169 0 c0
-14 2 -14 22 0 31 22 74 20 98 -4 17 -17 20 -33 20 -110 l0 -90 -35 0 -35 0 0
63 c0 74 -18 109 -47 91 -14 -9 -19 -26 -21 -83 l-3 -71 -34 0 -34 0 -3 106
c-2 58 -1 108 1 110 2 2 19 4 38 4 23 0 33 -5 33 -16z m610 1 c38 -20 50 -43
50 -98 0 -55 -27 -93 -78 -106 -82 -23 -152 25 -152 104 0 91 95 144 180 100z
m638 -9 c13 -13 18 -39 21 -107 l3 -90 -48 2 c-27 1 -59 -1 -70 -5 -24 -7 -74
9 -86 27 -14 22 -8 64 12 82 10 9 40 20 65 22 29 4 45 10 45 20 0 22 -31 28
-45 10 -7 -10 -26 -17 -44 -17 -40 0 -42 30 -3 60 22 18 37 21 80 18 32 -3 60
-12 70 -22z m270 -59 c2 -57 7 -79 18 -84 29 -11 43 17 46 90 l3 72 35 0 35 0
3 -107 3 -108 -41 0 c-22 0 -40 4 -40 9 0 5 -13 3 -29 -5 -36 -18 -76 -10 -96
19 -16 22 -22 177 -8 191 4 4 21 6 38 4 l30 -3 3 -78z m351 69 c30 -16 51 -53
51 -91 0 -24 -2 -25 -75 -25 -41 0 -75 -4 -75 -8 0 -26 61 -44 75 -22 7 12 75
14 75 2 0 -21 -34 -52 -66 -61 -102 -28 -186 53 -153 148 21 61 105 89 168 57z
m667 -5 c59 -36 70 -124 20 -170 -67 -63 -183 -35 -201 50 -22 100 91 175 181
120z m253 4 c28 -14 41 -33 41 -61 0 -20 -66 -19 -74 1 -7 18 -37 20 -54 3 -7
-7 -12 -23 -12 -36 0 -57 45 -82 73 -41 20 28 74 24 69 -6 -2 -11 -14 -31 -27
-44 -18 -19 -33 -23 -75 -23 -45 0 -57 4 -82 29 -30 31 -39 82 -23 132 16 51
106 76 164 46z m401 -1 c0 -14 2 -14 22 0 68 48 146 -16 135 -111 -8 -76 -69
-118 -128 -89 l-29 14 0 -44 c0 -44 0 -44 -35 -44 l-35 0 0 145 0 145 35 0
c25 0 35 -4 35 -16z m270 -94 l0 -110 -35 0 -35 0 0 110 0 110 35 0 35 0 0
-110z m-4770 -305 c0 -42 11 -58 25 -35 10 17 54 11 75 -10 41 -41 15 -140
-36 -140 -8 0 -25 5 -37 11 -16 9 -22 9 -25 0 -2 -6 -8 -11 -13 -11 -5 0 -9
52 -9 115 0 70 4 115 10 115 6 0 10 -20 10 -45z m638 13 c6 -6 12 -25 12 -43
0 -26 -10 -43 -46 -79 l-46 -46 46 0 c34 0 46 -4 46 -15 0 -12 -14 -15 -65
-15 -36 0 -65 3 -65 6 0 3 22 31 49 62 52 62 64 84 55 107 -9 23 -61 19 -69
-5 -3 -11 -13 -20 -21 -20 -17 0 -17 5 -3 31 19 36 72 44 107 17z m201 -17
c24 -43 16 -127 -14 -156 -30 -31 -66 -32 -100 -2 -54 46 -37 173 25 187 31 8
78 -7 89 -29z m169 16 c26 -21 13 -66 -34 -117 l-47 -50 47 0 c34 0 46 -4 46
-15 0 -12 -14 -15 -65 -15 -36 0 -65 3 -65 6 0 4 22 32 48 63 53 61 64 83 56
106 -9 23 -65 19 -71 -5 -3 -11 -12 -20 -19 -20 -17 0 -17 5 -3 31 18 35 72
43 107 16z m167 9 c33 -14 43 -31 47 -81 3 -50 -4 -78 -27 -100 -52 -53 -125
-14 -132 71 -4 56 11 93 47 111 31 16 24 16 65 -1z m-2171 -18 c14 -23 -1 -36
-17 -14 -9 12 -23 17 -47 14 -30 -3 -35 -7 -35 -28 0 -21 7 -27 41 -35 51 -12
74 -31 74 -59 -1 -65 -99 -87 -137 -30 -22 35 -8 42 21 11 30 -32 56 -34 81
-7 25 27 13 47 -37 60 -24 7 -49 17 -55 22 -18 15 -16 54 3 73 22 21 93 17
108 -7z m456 -13 c0 -8 7 -15 15 -15 8 0 15 -4 15 -10 0 -5 -7 -10 -15 -10
-12 0 -15 -13 -15 -56 0 -47 3 -57 20 -61 21 -6 18 -23 -5 -23 -29 0 -45 31
-45 85 0 33 -5 56 -12 59 -10 5 -10 7 0 12 6 3 12 12 12 20 0 8 7 14 15 14 8
0 15 -7 15 -15z m-285 -40 c41 -40 33 -55 -29 -55 -62 0 -72 -7 -50 -38 18
-26 46 -28 69 -6 18 18 30 13 22 -10 -3 -8 -20 -17 -38 -21 -71 -16 -119 77
-68 131 29 31 63 30 94 -1z m88 13 c4 -10 7 -10 18 0 18 16 50 15 77 -4 17
-12 22 -25 22 -60 0 -72 -37 -97 -102 -69 -15 6 -18 2 -18 -29 0 -20 -4 -36
-10 -36 -6 0 -10 42 -10 105 0 93 9 130 23 93z m380 -6 c9 -10 18 -29 19 -43
3 -22 -1 -24 -55 -29 -57 -5 -58 -5 -42 -27 19 -27 42 -29 67 -6 20 18 34 12
25 -11 -10 -25 -66 -31 -96 -9 -35 27 -42 92 -12 122 26 26 72 27 94 3z m87 8
c0 -6 10 -5 25 2 17 8 32 8 47 1 15 -6 31 -6 49 0 34 13 57 4 70 -30 13 -35 8
-115 -8 -121 -10 -3 -13 14 -13 61 0 57 -3 66 -20 72 -35 11 -50 -12 -50 -77
0 -83 -23 -74 -30 13 -4 48 -9 65 -21 67 -31 6 -49 -26 -49 -84 0 -30 -4 -54
-10 -54 -6 0 -10 33 -10 80 0 47 4 80 10 80 6 0 10 -4 10 -10z m539 -7 c11
-10 22 -29 23 -43 3 -24 0 -25 -49 -25 -62 -1 -72 -8 -48 -35 21 -24 48 -26
65 -5 14 17 30 20 30 5 0 -18 -49 -42 -74 -36 -38 9 -56 34 -56 77 0 68 60
102 109 62z m91 7 c0 -7 7 -7 21 0 32 18 35 3 6 -24 -22 -21 -27 -34 -27 -76
0 -27 -4 -50 -10 -50 -6 0 -10 33 -10 80 0 47 4 80 10 80 6 0 10 -5 10 -10z
m9560 -1307 c0 -7 -4 -13 -10 -13 -5 0 -10 5 -10 11 0 8 -5 8 -15 -1 -14 -12
-22 0 -9 13 11 10 44 3 44 -10z m-103 -32 c19 -5 33 -6 35 0 2 4 13 6 25 3 13
-4 20 -10 17 -16 -3 -5 -14 -6 -25 -3 -10 4 -19 2 -19 -4 0 -7 -8 -7 -27 0
-14 5 -32 8 -40 5 -14 -6 -18 6 -6 17 8 8 2 9 40 -2z m-187 -22 c0 -4 -7 -6
-15 -3 -8 4 -15 10 -15 15 0 4 7 6 15 3 8 -4 15 -10 15 -15z m76 -5 c-4 -9 -2
-22 3 -28 14 -17 -11 -47 -30 -35 -10 7 -11 11 -2 17 16 10 -1 37 -17 27 -8
-5 -11 -4 -6 3 3 5 3 12 -1 15 -5 2 -2 2 5 1 6 -2 12 1 12 6 0 6 9 10 21 10
15 0 19 -4 15 -16z m104 -24 c0 -5 -4 -10 -10 -10 -5 0 -10 5 -10 10 0 6 5 10
10 10 6 0 10 -4 10 -10z m70 -10 c0 -5 -2 -10 -4 -10 -3 0 -8 5 -11 10 -3 6
-1 10 4 10 6 0 11 -4 11 -10z m-103 -6 c-3 -3 -12 -4 -19 -1 -8 3 -5 6 6 6 11
1 17 -2 13 -5z m105 -54 c6 0 3 -6 -7 -14 -11 -8 -20 -27 -21 -42 -1 -16 -3
-32 -3 -36 -1 -5 -8 -8 -16 -8 -9 0 -12 -6 -9 -15 7 -18 26 -19 41 -4 8 8 8
20 3 34 -7 19 -5 24 16 28 13 2 24 0 24 -4 0 -5 -4 -9 -9 -9 -5 0 -7 -9 -4
-20 3 -11 -4 -36 -16 -55 -23 -40 -26 -55 -11 -55 6 0 10 9 10 20 0 18 3 19
20 10 11 -6 34 -8 52 -5 34 6 51 15 28 15 -8 0 2 14 21 31 20 17 41 28 51 25
11 -2 18 1 18 11 0 8 5 11 10 8 21 -13 9 -34 -23 -40 -30 -6 -33 -10 -34 -41
-1 -40 8 -43 33 -9 25 33 34 31 34 -7 0 -29 3 -33 28 -33 15 0 33 4 40 9 9 5
15 1 19 -13 7 -26 23 -28 23 -2 0 11 5 23 10 26 6 4 10 -5 10 -19 0 -14 -4
-26 -10 -26 -5 0 -10 -11 -10 -25 0 -30 -20 -33 -27 -5 -3 11 -13 21 -22 21
-35 3 -57 2 -74 -6 -15 -6 -16 -10 -5 -17 10 -7 10 -11 1 -15 -17 -6 -16 -21
1 -38 10 -10 16 -11 25 -2 15 15 14 47 -1 47 -9 0 -9 3 -1 11 13 13 33 4 33
-15 0 -8 9 -16 20 -19 12 -3 20 -14 20 -26 0 -34 20 -24 37 19 17 44 24 48 43
25 10 -13 9 -15 -10 -15 -17 0 -21 -4 -17 -20 3 -14 -1 -24 -15 -31 -15 -8
-18 -17 -13 -39 5 -24 3 -29 -17 -32 -33 -4 -30 -33 4 -31 18 1 28 -4 31 -18
3 -10 1 -19 -4 -19 -5 0 -9 -7 -9 -16 0 -9 7 -14 18 -12 10 2 16 11 14 21 -2
13 4 17 25 17 15 0 34 -4 42 -9 13 -8 13 -12 0 -27 -13 -16 -12 -17 14 -12 21
4 27 1 27 -12 0 -14 -6 -17 -21 -13 -18 5 -20 3 -15 -15 7 -21 6 -22 -120 -18
-104 3 -128 6 -136 20 -11 20 -48 21 -48 1 0 -11 -13 -15 -55 -15 -29 0 -76
-4 -102 -9 -77 -15 -530 -24 -538 -11 -4 7 2 14 14 17 16 4 19 11 15 28 -6 24
10 43 21 25 5 -8 11 -7 21 1 7 6 20 9 28 6 10 -4 12 2 7 26 -9 45 -7 67 4 68
16 1 35 20 35 35 0 12 -4 12 -20 2 -10 -7 -23 -9 -27 -5 -4 5 -2 12 5 16 7 4
10 15 6 24 -3 10 -1 17 6 17 6 0 8 -5 5 -10 -9 -15 17 -22 71 -18 l49 3 -32
19 c-38 23 -51 56 -22 56 10 0 19 5 19 10 0 6 -10 10 -22 10 -13 0 -29 4 -37
9 -11 7 -9 10 9 16 18 6 20 9 9 16 -8 5 -9 9 -3 9 6 0 17 -7 24 -15 10 -12 16
-10 40 17 25 27 35 31 77 30 26 0 53 4 58 8 11 9 40 8 51 -2 3 -4 19 -2 35 4
23 8 35 7 55 -7 29 -19 48 -9 42 20 -5 26 -36 44 -47 27 -4 -7 -15 -10 -24 -6
-10 3 -24 1 -32 -6 -10 -8 -15 -9 -15 -2 0 6 5 14 10 17 6 3 10 15 10 26 0 10
5 19 11 19 5 0 8 -4 5 -8 -3 -5 2 -9 10 -9 10 0 14 7 11 19 -3 10 -1 18 5 18
5 0 7 4 4 9 -4 5 4 7 16 3 20 -5 21 -4 10 11 -15 18 -8 37 14 37 8 0 14 5 14
10 0 7 -6 7 -19 0 -24 -12 -51 -13 -51 -1 0 5 13 12 30 16 16 4 33 11 37 17 4
7 9 3 14 -10 5 -12 14 -22 21 -22z m35 8 c-3 -8 -6 -5 -6 6 -1 11 2 17 5 13 3
-3 4 -12 1 -19z m-275 -29 c15 -14 16 -18 4 -28 -14 -12 -11 -51 4 -51 5 0 10
10 12 23 2 14 9 21 21 20 15 -1 18 4 14 23 -3 19 -1 22 12 15 9 -5 22 -6 29
-4 15 6 15 2 0 -34 -6 -15 -10 -34 -9 -40 1 -7 -5 -13 -14 -13 -17 0 -20 -16
-5 -25 6 -3 10 -10 10 -16 0 -5 -4 -9 -10 -9 -5 0 -10 7 -10 15 0 21 -34 37
-49 22 -9 -9 -13 -7 -17 11 -4 12 -10 22 -15 22 -12 0 -11 -17 1 -25 8 -5 7
-11 -1 -21 -15 -18 -40 -18 -33 0 4 12 0 13 -22 7 -27 -7 -48 -34 -22 -29 7 2
13 -4 13 -12 0 -8 -6 -16 -12 -16 -7 -1 -18 -2 -24 -3 -6 0 -9 -8 -5 -16 3 -9
0 -15 -10 -15 -12 0 -13 7 -9 34 6 29 4 35 -15 41 -18 6 -19 9 -9 16 9 5 17 3
22 -6 12 -22 27 -18 27 6 0 17 4 20 24 15 29 -7 43 9 26 29 -10 12 -9 15 4 15
13 0 14 5 5 26 -5 15 -8 29 -5 31 2 2 9 -10 15 -28 9 -27 13 -30 26 -19 15 13
8 31 -20 53 -6 4 -4 11 5 17 10 6 16 6 19 -3 2 -7 12 -19 23 -28z m423 11 c-3
-5 3 -15 15 -22 11 -7 20 -18 20 -25 0 -16 -1 -16 -50 3 -31 12 -43 14 -54 5
-11 -9 -15 -9 -19 1 -4 10 -8 10 -16 -2 -5 -8 -13 -11 -18 -7 -11 12 19 27 40
21 11 -3 17 0 17 10 0 19 5 20 32 5 18 -10 20 -9 15 5 -4 10 -1 16 9 16 8 0
12 -4 9 -10z m-55 -94 c0 -2 -7 -9 -15 -16 -12 -10 -15 -10 -15 4 0 9 7 16 15
16 8 0 15 -2 15 -4z m152 -21 c0 -5 -5 -11 -11 -13 -6 -2 -11 4 -11 13 0 9 5
15 11 13 6 -2 11 -8 11 -13z m-517 -25 c3 -5 1 -10 -4 -10 -6 0 -11 5 -11 10
0 6 2 10 4 10 3 0 8 -4 11 -10z m480 -11 c11 -17 -1 -21 -15 -4 -8 9 -8 15 -2
15 6 0 14 -5 17 -11z m-755 -79 c0 -5 -4 -10 -10 -10 -5 0 -10 5 -10 10 0 6 5
10 10 10 6 0 10 -4 10 -10z m70 -50 c0 -5 -12 -10 -26 -10 -14 0 -23 4 -19 10
3 6 15 10 26 10 10 0 19 -4 19 -10z m865 -70 c-3 -5 -10 -10 -16 -10 -5 0 -9
5 -9 10 0 6 7 10 16 10 8 0 12 -4 9 -10z m-925 -146 c0 -14 -3 -14 -15 -4 -8
7 -15 14 -15 16 0 2 7 4 15 4 8 0 15 -7 15 -16z m1044 -59 c6 -17 -18 -24 -71
-23 -44 2 -42 12 5 25 53 15 59 15 66 -2z m-1464 -279 c0 -13 7 -26 15 -30 8
-3 15 -13 15 -22 0 -11 -10 -4 -30 21 -28 35 -31 55 -9 55 5 0 9 -11 9 -24z
m120 -95 c0 -9 -8 -11 -27 -6 -16 4 -30 9 -33 11 -7 7 23 24 32 18 4 -3 8 1 8
8 0 18 20 -12 20 -31z m-60 -61 c8 -5 11 -10 5 -10 -5 0 -17 5 -25 10 -8 5
-10 10 -5 10 6 0 17 -5 25 -10z m80 -20 c12 -8 9 -10 -12 -10 -15 0 -30 5 -33
10 -8 13 25 13 45 0z m1760 -270 c0 -5 -4 -10 -10 -10 -5 0 -10 5 -10 10 0 6
5 10 10 10 6 0 10 -4 10 -10z m20 -75 c14 -16 10 -18 -14 -9 -9 3 -16 10 -16
15 0 14 16 11 30 -6z m-320 -774 c21 -6 22 -8 8 -14 -28 -10 -21 -25 15 -36
l32 -9 -41 -1 c-34 -1 -45 4 -58 24 -29 44 -17 53 44 36z m102 -13 c-20 -20
-15 -41 8 -35 11 3 23 1 26 -4 5 -9 -17 -13 -46 -9 -17 2 -60 39 -60 52 0 4
19 8 42 8 33 0 39 -3 30 -12z m42 -9 c-3 -5 -10 -7 -15 -3 -5 3 -7 10 -3 15 3
5 10 7 15 3 5 -3 7 -10 3 -15z m-708 -40 c11 -10 25 -19 31 -19 5 0 18 -9 27
-19 10 -11 23 -17 30 -15 7 3 19 -2 26 -11 7 -8 18 -15 24 -15 21 0 126 -71
126 -86 0 -18 -11 -18 -57 2 -60 26 -65 29 -64 37 1 10 -37 47 -49 47 -5 0
-10 -11 -10 -25 0 -27 -9 -32 -27 -14 -8 8 -13 5 -18 -10 -12 -38 -48 -25 -80
29 -5 9 -18 29 -28 43 -10 14 -21 41 -24 60 l-5 36 38 -10 c22 -6 48 -19 60
-30z m-516 17 c0 -17 -22 -26 -59 -26 -36 0 -70 -23 -50 -35 27 -17 74 -16 88
2 23 30 7 -47 -25 -118 -32 -70 -42 -63 -43 29 -1 32 -6 54 -13 57 -7 3 -98 1
-203 -3 l-190 -7 -5 -157 c-3 -86 -7 -159 -10 -162 -3 -3 -46 -8 -96 -12 -76
-6 -97 -4 -130 11 -21 10 -40 20 -42 21 -3 2 -22 94 -36 171 -3 18 -1 35 4 38
16 10 12 42 -6 49 -23 9 -32 0 -40 -42 -14 -77 -23 -66 -24 26 0 73 -3 92 -14
92 -14 0 -18 -11 -32 -93 -10 -56 -21 -33 -29 59 l-7 81 54 5 c43 5 128 3 203
-2 6 -1 78 2 160 5 83 3 215 8 294 10 79 2 145 6 148 8 2 3 26 5 53 6 36 0 50
-3 50 -13z m170 -17 c0 -6 9 -8 20 -4 30 10 45 -4 23 -22 -17 -14 -17 -14 0
-9 24 8 103 -13 118 -30 9 -11 6 -19 -14 -38 -14 -13 -29 -21 -32 -18 -3 4 -3
-1 1 -11 4 -13 1 -17 -14 -17 -11 0 -22 -5 -24 -12 -3 -9 -19 -8 -63 4 -33 9
-62 15 -66 13 -3 -3 -9 -41 -13 -86 -4 -45 -13 -93 -20 -108 -7 -14 -11 -32
-9 -38 6 -16 -28 -17 -62 -1 -18 8 -25 19 -25 39 0 22 -4 27 -16 22 -12 -4
-14 0 -8 23 10 45 39 108 58 127 10 9 33 17 52 17 31 0 34 3 34 28 0 26 -2 28
-35 24 -32 -4 -35 -2 -35 21 0 34 35 75 68 80 51 8 62 7 62 -4z m1093 4 c-7
-2 -19 -2 -25 0 -7 3 -2 5 12 5 14 0 19 -2 13 -5z m-2245 -47 c29 -88 27 -206
-2 -206 -19 0 -26 23 -26 85 0 66 -7 71 -105 74 -38 1 -82 3 -97 5 -16 2 -28
0 -28 -5 0 -4 -14 -9 -32 -11 -29 -3 -32 -6 -32 -38 -1 -27 4 -37 21 -45 43
-19 65 -127 41 -206 -9 -31 -16 -39 -34 -39 -17 0 -22 4 -17 16 3 9 1 19 -6
23 -16 10 -59 167 -66 240 -3 30 -10 71 -16 89 -6 18 -9 36 -6 38 12 12 48
-19 54 -47 6 -30 23 -41 23 -14 0 8 9 15 21 15 15 0 19 5 14 19 -12 38 35 49
195 47 l85 -1 13 -39z m-450 12 c-2 -17 -13 -25 -46 -33 -24 -5 -44 -13 -45
-17 -1 -3 8 -18 21 -33 19 -21 29 -25 52 -20 27 6 30 4 39 -32 13 -53 23 -133
17 -133 -3 0 -15 18 -26 40 -11 22 -21 40 -23 40 -1 0 0 -38 2 -85 1 -47 0
-97 -3 -110 -6 -24 -10 -25 -81 -25 l-75 0 0 48 c0 26 -5 54 -10 62 -5 8 -10
11 -10 5 0 -5 -5 -3 -10 5 -11 17 -12 155 -2 240 l7 55 82 0 c45 0 85 4 89 8
14 14 25 7 22 -15z m-220 -9 c1 -8 -2 -28 -7 -42 -9 -23 -14 -26 -43 -20 -33
6 -63 23 -40 23 7 0 12 11 12 23 0 31 3 33 42 32 22 0 34 -5 36 -16z m-108
-18 c0 -16 -7 -35 -16 -42 -15 -12 -16 -34 -12 -176 l5 -163 -83 0 c-46 0 -84
2 -84 4 0 19 16 36 34 37 16 1 17 2 4 6 -34 9 -34 53 1 115 32 58 32 62 -1 59
-21 -3 -22 5 -5 44 41 94 64 130 84 130 12 0 25 3 29 8 4 4 16 7 26 7 13 0 18
-8 18 -29z m3086 -3 c36 -13 43 -27 36 -79 -3 -32 -7 -36 -30 -33 -25 3 -51
27 -89 82 -14 20 -14 25 -2 33 19 12 46 11 85 -3z m-3341 -215 c-5 -30 -8 -32
-21 -18 -11 10 -14 30 -12 66 4 70 -14 74 -47 10 -14 -28 -32 -51 -39 -51 -17
0 -32 38 -19 50 4 4 35 31 68 59 l60 51 8 -67 c5 -36 6 -81 2 -100z m2305 72
c0 -13 5 -27 10 -30 6 -3 10 1 10 9 0 21 39 21 46 1 4 -8 4 -21 1 -29 -5 -12
-12 -12 -44 -1 -34 12 -38 17 -41 50 -2 24 0 35 7 30 6 -3 11 -17 11 -30z m30
19 c0 -8 -4 -12 -10 -9 -5 3 -10 10 -10 16 0 5 5 9 10 9 6 0 10 -7 10 -16z
m-102 -37 c6 -5 12 -6 12 -1 0 5 5 2 10 -7 6 -10 6 -29 -1 -52 l-10 -36 -44
30 c-44 30 -55 55 -34 76 11 11 46 6 67 -10z m-1178 -139 c0 -31 -19 -68 -36
-68 -6 0 -3 133 4 144 9 15 31 -38 32 -76z m-1189 39 c-16 -16 -26 0 -10 19 9
11 15 12 17 4 2 -6 -1 -17 -7 -23z m2414 -37 c3 -5 1 -10 -4 -10 -6 0 -11 5
-11 10 0 6 2 10 4 10 3 0 8 -4 11 -10z m-2318 -22 c-3 -8 -6 -5 -6 6 -1 11 2
17 5 13 3 -3 4 -12 1 -19z m651 -18 c-1 -16 -4 -27 -8 -25 -9 6 -19 53 -12 59
11 11 21 -6 20 -34z"/>
<path d="M15302 9623 c-22 -9 -34 -41 -22 -63 8 -15 21 -20 49 -20 43 0 58 13
67 58 l7 32 -44 -1 c-24 0 -50 -3 -57 -6z"/>
<path d="M16594 9782 c-11 -7 -34 -45 -34 -56 0 -3 32 -6 70 -6 62 0 70 2 70
19 0 11 -7 27 -16 35 -16 16 -71 21 -90 8z"/>
<path d="M18515 9790 c-23 -9 -39 -26 -48 -52 -6 -16 1 -18 68 -18 81 0 91 9
58 48 -22 25 -51 33 -78 22z"/>
<path d="M1972 9135 c-53 -180 -62 -213 -62 -224 0 -12 156 -16 163 -3 2 4
-15 72 -38 152 l-42 145 -21 -70z"/>
<path d="M2089 8291 c-82 -26 -120 -88 -127 -202 -6 -98 15 -166 64 -208 42
-37 69 -45 138 -39 66 6 99 29 132 96 24 48 26 60 22 146 -3 81 -7 99 -31 135
-15 22 -40 47 -57 56 -37 19 -107 27 -141 16z"/>
<path d="M4610 8189 l0 -101 55 4 c83 7 109 31 113 100 3 50 0 58 -24 77 -20
16 -41 21 -85 21 l-59 0 0 -101z"/>
<path d="M2069 5656 c-15 -32 -4 -73 22 -81 38 -12 67 33 50 79 -14 35 -57 36
-72 2z"/>
<path d="M1812 5668 c-26 -26 -7 -98 27 -98 28 0 43 25 39 67 -3 32 -7 38 -28
41 -14 2 -31 -3 -38 -10z"/>
<path d="M3144 5656 c-14 -57 17 -103 54 -80 21 13 28 70 11 90 -19 23 -58 18
-65 -10z"/>
<path d="M3927 5673 c-13 -12 -7 -81 8 -93 37 -31 80 24 57 75 -11 24 -49 35
-65 18z"/>
<path d="M4550 5595 c-10 -12 -9 -16 4 -21 22 -8 46 2 46 21 0 19 -34 20 -50
0z"/>
<path d="M5192 5678 c-21 -21 -13 -28 28 -28 22 0 40 4 40 8 0 14 -23 32 -40
32 -9 0 -21 -5 -28 -12z"/>
<path d="M5844 5656 c-9 -35 -1 -68 19 -80 36 -23 67 23 53 80 -5 19 -13 24
-36 24 -23 0 -31 -5 -36 -24z"/>
<path d="M6612 5668 c-27 -27 -4 -98 32 -98 30 0 46 51 30 94 -7 19 -45 21
-62 4z"/>
<path d="M2114 5255 c-21 -32 -11 -72 21 -87 49 -22 84 41 49 90 -20 29 -50
28 -70 -3z"/>
<path d="M2830 5311 c-18 -34 -12 -109 10 -131 41 -41 90 -8 90 63 0 23 -7 53
-16 65 -20 28 -69 30 -84 3z"/>
<path d="M3200 5311 c-18 -34 -12 -109 10 -131 40 -40 80 -16 87 53 7 60 -15
97 -57 97 -19 0 -33 -7 -40 -19z"/>
<path d="M1202 5268 c-21 -21 -13 -28 28 -28 22 0 40 4 40 8 0 14 -23 32 -40
32 -9 0 -21 -5 -28 -12z"/>
<path d="M1374 5255 c-21 -32 -11 -72 21 -87 51 -23 89 57 47 95 -26 24 -49
21 -68 -8z"/>
<path d="M1672 5268 c-21 -21 -13 -28 28 -28 22 0 40 4 40 8 0 14 -23 32 -40
32 -9 0 -21 -5 -28 -12z"/>
<path d="M2295 5260 c-18 -20 -17 -20 28 -20 48 0 56 7 35 28 -18 18 -43 15
-63 -8z"/>
<path d="M12070 3620 c-18 -24 -81 -27 -104 -5 -8 8 -17 15 -20 15 -3 0 -6 -7
-6 -15 0 -8 9 -15 20 -15 22 0 27 -15 8 -24 -7 -3 3 -4 24 -1 23 4 38 1 40 -6
6 -19 44 -1 56 27 21 45 9 61 -18 24z"/>
<path d="M11928 3535 c2 -14 8 -25 13 -25 5 0 9 11 9 25 0 14 -6 25 -14 25 -9
0 -12 -8 -8 -25z"/>
<path d="M12110 3526 c0 -22 6 -36 16 -40 13 -5 15 -1 10 19 -4 14 -2 25 4 25
5 0 10 7 10 15 0 8 -9 15 -20 15 -16 0 -20 -7 -20 -34z"/>
<path d="M11718 3543 c7 -3 16 -2 19 1 4 3 -2 6 -13 5 -11 0 -14 -3 -6 -6z"/>
<path d="M12225 3480 c4 -14 2 -20 -9 -20 -9 0 -13 -6 -10 -15 5 -13 8 -13 21
0 8 8 19 15 24 15 5 0 9 5 9 10 0 6 -7 10 -16 10 -8 0 -12 5 -9 10 3 6 1 10
-5 10 -7 0 -9 -8 -5 -20z"/>
<path d="M12086 3465 c-3 -8 -1 -15 4 -15 6 0 10 7 10 15 0 8 -2 15 -4 15 -2
0 -6 -7 -10 -15z"/>
<path d="M11791 3454 c9 -11 9 -14 0 -14 -8 0 -11 -12 -9 -32 6 -66 105 -69
119 -3 4 17 7 24 8 18 1 -17 21 -17 21 0 0 7 -10 13 -22 14 -13 1 -47 8 -76
16 -45 13 -51 13 -41 1z"/>
<path d="M11562 3417 c-9 -11 -10 -17 -2 -22 15 -9 23 -1 18 21 -3 15 -4 16
-16 1z"/>
<path d="M11598 3423 c7 -3 16 -2 19 1 4 3 -2 6 -13 5 -11 0 -14 -3 -6 -6z"/>
<path d="M12188 3358 c-22 -22 -22 -28 -4 -28 8 0 18 9 21 21 9 27 4 30 -17 7z"/>
<path d="M12072 3361 c4 -13 18 -16 19 -4 0 4 -5 9 -11 12 -7 2 -11 -2 -8 -8z"/>
<path d="M12128 3353 c6 -2 18 -2 25 0 6 3 1 5 -13 5 -14 0 -19 -2 -12 -5z"/>
<path d="M12230 3350 c0 -5 5 -10 10 -10 6 0 10 5 10 10 0 6 -4 10 -10 10 -5
0 -10 -4 -10 -10z"/>
<path d="M11555 3310 l-30 -8 33 -1 c17 0 34 -1 37 -1 9 0 7 14 -2 16 -4 1
-21 -2 -38 -6z"/>
<path d="M12145 3301 c-7 -12 12 -24 25 -16 11 7 4 25 -10 25 -5 0 -11 -4 -15
-9z"/>
<path d="M12330 3290 c-9 -17 -7 -17 20 -7 35 13 38 22 10 24 -11 1 -24 -7
-30 -17z"/>
<path d="M12068 3283 c7 -3 16 -2 19 1 4 3 -2 6 -13 5 -11 0 -14 -3 -6 -6z"/>
<path d="M9961 1408 c-16 -32 -6 -95 10 -65 6 9 9 34 7 55 l-3 37 -14 -27z"/>
</g>
</svg>
