<svg width="94" height="93" viewBox="0 0 94 93" fill="none" xmlns="http://www.w3.org/2000/svg">
<rect x="14" y="23" width="21" height="4" rx="2" fill="white"/>
<rect x="14" y="37" width="33" height="4" rx="2" fill="white"/>
<rect x="14" y="51" width="33" height="4" rx="2" fill="white"/>
<path d="M2 90V3C2 2.44772 2.44771 2 3 2H50.4615L72 21.0714V90C72 90.5523 71.5523 91 71 91H3C2.44772 91 2 90.5523 2 90Z" stroke="white" stroke-width="3"/>
<rect x="70.5" y="40" width="3" height="30" fill="#454545"/>
<mask id="path-6-inside-1" fill="white">
<path d="M77.0322 39.7485L85.4252 47.4573L67.754 66.6969C67.1936 67.307 66.2447 67.3473 65.6346 66.787L59.4511 61.1076C58.841 60.5472 58.8006 59.5983 59.361 58.9882L77.0322 39.7485Z"/>
</mask>
<path d="M77.0322 39.7485L85.4252 47.4573L67.754 66.6969C67.1936 67.307 66.2447 67.3473 65.6346 66.787L59.4511 61.1076C58.841 60.5472 58.8006 59.5983 59.361 58.9882L77.0322 39.7485Z" stroke="white" stroke-width="6" mask="url(#path-6-inside-1)"/>
<path d="M59.0399 64.3541L63.1081 68.1784L57.2868 70.3175L59.0399 64.3541Z" stroke="white" stroke-width="3"/>
<path d="M80.0122 36.5155C81.514 34.8954 84.0448 34.7995 85.665 36.3013L88.0997 38.5583C89.7198 40.0601 89.8157 42.5909 88.3139 44.2111L86.6893 45.9637L78.3875 38.2682L80.0122 36.5155Z" fill="white"/>
</svg>
