<svg width="178" height="93" viewBox="0 0 178 93" fill="none" xmlns="http://www.w3.org/2000/svg">
<path d="M48.1229 45.945C40.7824 37.0978 27.6597 35.8762 18.8124 43.2167C9.9651 50.5572 8.7436 63.6799 16.0841 72.5272" stroke="white" stroke-width="3"/>
<path d="M161.724 72.5267C169.065 63.6792 167.843 50.5565 158.995 43.2163C150.147 35.8762 137.025 37.0981 129.685 45.9457" stroke="white" stroke-width="3"/>
<path d="M130.471 45.7566C130.471 21.5905 111.86 2 88.9023 2C65.9445 2 47.3335 21.5905 47.3335 45.7566" stroke="white" stroke-width="3"/>
<path d="M89.9654 56.006C89.3797 55.4202 88.4299 55.4202 87.8441 56.006L78.2978 65.5515C77.712 66.1373 77.712 67.087 78.2977 67.6728C78.8835 68.2587 79.8332 68.2587 80.419 67.6729L88.9047 59.188L97.3896 67.6736C97.9754 68.2594 98.9251 68.2594 99.5109 67.6737C100.097 67.0879 100.097 66.1382 99.511 65.5524L89.9654 56.006ZM90.4033 93.0001L90.4047 57.0667L87.4047 57.0666L87.4033 92.9999L90.4033 93.0001Z" fill="white"/>
</svg>
