<svg width="76" height="94" viewBox="0 0 76 94" fill="none" xmlns="http://www.w3.org/2000/svg">
<path fill-rule="evenodd" clip-rule="evenodd" d="M22.4172 0.773853C23.1843 0.461059 24.0597 0.829352 24.3725 1.59646L27.3334 8.85771C27.6462 9.62481 27.2779 10.5002 26.5108 10.813C25.7437 11.1258 24.8682 10.7575 24.5554 9.99044L21.5946 2.72918C21.2818 1.96208 21.6501 1.08665 22.4172 0.773853ZM39.3658 4.61579C39.3658 3.78736 38.6943 3.11579 37.8658 3.11579C37.0374 3.11579 36.3658 3.78736 36.3658 4.61579V7.2552C36.3658 8.08363 37.0374 8.7552 37.8658 8.7552C38.6943 8.7552 39.3658 8.08363 39.3658 7.2552V4.61579ZM55.4284 69.0648C60.7229 62.5771 65.1369 53.8615 65.1369 42.8337C65.1369 27.6176 52.8018 15.2825 37.5857 15.2825C22.3696 15.2825 10.0345 27.6176 10.0345 42.8337C10.0345 53.495 14.1601 61.9953 19.2183 68.4107V80.5046C19.2183 82.1614 20.5614 83.5046 22.2183 83.5046H23.1541V92C23.1541 93.1046 24.0495 94 25.1541 94H50.0172C51.1218 94 52.0172 93.1046 52.0172 92V83.5046H52.4284C54.0853 83.5046 55.4284 82.1614 55.4284 80.5046V69.0648ZM22.5585 67.761H52.6129C57.8106 61.5996 62.1369 53.327 62.1369 42.8337C62.1369 29.2745 51.145 18.2825 37.5857 18.2825C24.0265 18.2825 13.0345 29.2745 13.0345 42.8337C13.0345 53.327 17.3609 61.5996 22.5585 67.761ZM14.7711 13.3163C14.1838 12.732 13.2341 12.7343 12.6498 13.3216C12.0654 13.9088 12.0678 14.8586 12.655 15.4429L14.9347 17.7113C15.5219 18.2956 16.4717 18.2933 17.056 17.7061C17.6403 17.1188 17.638 16.1691 17.0508 15.5847L14.7711 13.3163ZM0.759946 24.0474C1.05333 23.2727 1.91921 22.8825 2.69395 23.1759L9.6941 25.8267C10.4688 26.1201 10.8591 26.986 10.5657 27.7607C10.2723 28.5355 9.40641 28.9257 8.63167 28.6323L1.63152 25.9814C0.85678 25.688 0.466564 24.8222 0.759946 24.0474ZM7.18919 41.421C8.01545 41.3612 8.63675 40.6429 8.57691 39.8166C8.51707 38.9903 7.79874 38.369 6.97248 38.4289L3.24919 38.6985C2.42292 38.7584 1.80162 39.4767 1.86146 40.303C1.9213 41.1292 2.63963 41.7506 3.4659 41.6907L7.18919 41.421ZM53.3176 0.773853C54.0847 1.08665 54.453 1.96208 54.1402 2.72918L51.1794 9.99044C50.8666 10.7575 49.9912 11.1258 49.2241 10.813C48.457 10.5002 48.0887 9.62481 48.4015 8.85771L51.3623 1.59646C51.6751 0.829352 52.5505 0.461059 53.3176 0.773853ZM63.0805 15.4425C63.6676 14.858 63.6696 13.9083 63.0851 13.3212C62.5005 12.7342 61.5508 12.7321 60.9637 13.3167L58.6856 15.5851C58.0986 16.1696 58.0965 17.1194 58.6811 17.7064C59.2656 18.2935 60.2153 18.2955 60.8024 17.711L63.0805 15.4425ZM74.9751 24.0473C75.2685 24.822 74.8784 25.688 74.1037 25.9814L67.105 28.6322C66.3303 28.9257 65.4644 28.5355 65.171 27.7608C64.8775 26.9861 65.2677 26.1202 66.0424 25.8268L73.041 23.1759C73.8158 22.8825 74.6817 23.2726 74.9751 24.0473ZM68.7624 38.4289C67.9362 38.3691 67.2179 38.9904 67.158 39.8167C67.0982 40.6429 67.7196 41.3612 68.5458 41.421L72.2706 41.6907C73.0969 41.7505 73.8152 41.1292 73.875 40.3029C73.9349 39.4767 73.3135 38.7584 72.4873 38.6985L68.7624 38.4289Z" fill="white"/>
</svg>
