<?xml version="1.0" encoding="UTF-8"?>
<svg width="40px" height="39px" viewBox="0 0 40 39" version="1.1" xmlns="http://www.w3.org/2000/svg" xmlns:xlink="http://www.w3.org/1999/xlink">
    <!-- Generator: Sketch 53.2 (72643) - https://sketchapp.com -->
    <title>Group 5 Copy 2</title>
    <desc>Created with Sketch.</desc>
    <g id="Page-1" stroke="none" stroke-width="1" fill="none" fill-rule="evenodd">
        <g id="Landing2-Copy" transform="translate(-765.000000, -191.000000)">
            <g id="Group-5-Copy-2" transform="translate(765.000000, 191.000000)">
                <path d="M20.0003488,0.5 C8.95470323,0.5 0,9.00630527 0,19.4996686 C0,21.7757051 0.422095477,23.9582875 1.19442555,25.9798109 L1.19442555,38.5 L7.30957738,34.1852075 C10.7623882,36.8814557 15.1821813,38.5 20.0003488,38.5 C31.0459945,38.5 40,29.9930319 40,19.4996686 C40,9.00630527 31.0459945,0.5 20.0003488,0.5 Z" id="Stroke-1" fill="#343434"></path>
                <path d="M19.8799411,26.5 C19.4732794,26.5 19.1181192,26.3694615 18.8144606,26.1083845 C18.5114708,25.8479701 18.3603103,25.4828599 18.3603103,25.0137165 C18.3603103,24.5975836 18.50612,24.2477139 18.7997458,23.9634448 C19.0933717,23.6791757 19.4532138,23.5373724 19.8799411,23.5373724 C20.2999799,23.5373724 20.6531336,23.6791757 20.9400709,23.9634448 C21.2270082,24.2477139 21.3701425,24.5975836 21.3701425,25.0137165 C21.3701425,25.4762336 21.2203197,25.8393559 20.9200054,26.1030834 C20.619691,26.3681362 20.2732259,26.5 19.8799411,26.5 M15,15.6414498 C15,15.0139374 15.2033309,14.3784733 15.6093238,13.7337324 C16.0166544,13.0903167 16.6092569,12.556898 17.3898067,12.1341388 C18.1696876,11.7120422 19.0799946,11.5 20.11939,11.5 C21.0865494,11.5 21.940004,11.6769227 22.6804227,12.0301056 C23.4201726,12.3832884 23.9913718,12.8643592 24.3953582,13.4719928 C24.7986757,14.0796263 25,14.7396077 25,15.4532624 C25,16.0145116 24.8849575,16.5068472 24.6555414,16.9296064 C24.4247876,17.351703 24.1518962,17.7168132 23.8348605,18.0242744 C23.5178249,18.331073 22.9499699,18.847926 22.1299579,19.5748332 C21.9032172,19.7789239 21.7219584,19.9591598 21.5848438,20.1142157 C21.4483981,20.2699342 21.3460638,20.4117374 21.2798475,20.5409507 C21.2129623,20.6695013 21.1614608,20.7987145 21.1246739,20.9272651 C21.0885559,21.0558157 21.0337101,21.2817732 20.9594676,21.6051376 C20.8337235,22.292287 20.4364257,22.636193 19.7702495,22.636193 C19.4231155,22.636193 19.1314962,22.5235455 18.8947228,22.2989133 C18.6586182,22.074281 18.5395626,21.7409772 18.5395626,21.298339 C18.5395626,20.7430534 18.6265133,20.2633079 18.7997458,19.8571145 C18.9736472,19.4502584 19.2030633,19.0937624 19.4900007,18.7869638 C19.776938,18.4795026 20.1635342,18.115055 20.6497893,17.6922958 C21.0765166,17.3218845 21.3848572,17.0435791 21.574811,16.854729 C21.7647649,16.6665415 21.9252893,16.4571498 22.0550465,16.2258912 C22.1848037,15.9946327 22.2496823,15.7441578 22.2496823,15.4724787 C22.2496823,14.9450236 22.0517022,14.4990723 21.6550732,14.13595 C21.2584443,13.772165 20.7467728,13.5906039 20.11939,13.5906039 C19.3869975,13.5906039 18.8465654,13.7741529 18.5001003,14.1405884 C18.1529664,14.5070239 17.8593405,15.047069 17.6198916,15.760061 C17.393151,16.5068472 16.9630794,16.8792464 16.3296769,16.8792464 C15.9564578,16.8792464 15.6414287,16.7493705 15.3845897,16.4889561 C15.1284195,16.2278791 15,15.9449353 15,15.6414498" id="Fill-3" fill="#FFFFFF"></path>
            </g>
        </g>
    </g>
</svg>