<svg width="722" height="561" viewBox="0 0 722 561" fill="none" xmlns="http://www.w3.org/2000/svg">
<g clip-path="url(#clip0)">
<ellipse cx="369" cy="477" rx="286" ry="27" fill="#E8E7E7"/>
<path d="M416.815 128.682H240.776V254.546H416.815V128.682Z" fill="white" stroke="#A5A5A5" stroke-width="2" stroke-miterlimit="10" stroke-linecap="round" stroke-linejoin="round"/>
<path d="M415.362 130.135H242.327V140.86H415.362V130.135Z" fill="#3F3F3F"/>
<path d="M285.744 466.758L286.85 427.966L302.263 428.026L301.185 466.768L285.744 466.758Z" fill="#B1B0B0"/>
<path d="M533.042 294.556L528.537 285.096" stroke="white" stroke-width="1.902" stroke-miterlimit="10"/>
<path d="M526.207 294.328L522.848 287.273" stroke="white" stroke-width="1.902" stroke-miterlimit="10"/>
<path d="M313.769 353.324L307.68 454.107H283.49L287.305 351.456C287.516 344.035 293.79 338.233 301.217 338.591H301.218C308.876 338.961 314.629 345.714 313.769 353.324Z" fill="#202020"/>
<path d="M361.925 466.758L360.819 427.966L345.406 428.026L346.484 466.768L361.925 466.758Z" fill="#B1B0B0"/>
<path d="M335.931 353.324L342.02 454.107H365.273L362.394 351.456C362.182 344.035 355.908 338.233 348.481 338.591C340.822 338.961 335.07 345.714 335.931 353.324Z" fill="#202020"/>
<path d="M560.564 278H163.28C163.02 278 162.89 278 162.78 278.006C160.744 278.118 159.118 279.744 159.006 281.78C159 281.89 159 282.02 159 282.28V287.72C159 287.98 159 288.11 159.006 288.22C159.118 290.256 160.744 291.882 162.78 291.994C162.89 292 163.02 292 163.28 292H564.5L564.842 282.433C564.851 282.165 564.856 282.03 564.854 281.918C564.811 279.828 563.166 278.124 561.079 278.006C560.967 278 560.833 278 560.564 278Z" fill="#BDBDBD"/>
<path d="M467.831 292.371H456.974V456.616H467.831V292.371Z" fill="#BDBDBD"/>
<path d="M552.088 317.091H468.612V344.201H552.088V317.091Z" fill="#BDBDBD" stroke="#686868" stroke-miterlimit="10"/>
<path d="M510.244 333.894C512.041 333.894 513.497 332.439 513.497 330.644C513.497 328.85 512.041 327.395 510.244 327.395C508.447 327.395 506.99 328.85 506.99 330.644C506.99 332.439 508.447 333.894 510.244 333.894Z" fill="#BDBDBD" stroke="#686868" stroke-miterlimit="10"/>
<path d="M510.243 332.017C511.002 332.017 511.618 331.402 511.618 330.644C511.618 329.886 511.002 329.271 510.243 329.271C509.484 329.271 508.869 329.886 508.869 330.644C508.869 331.402 509.484 332.017 510.243 332.017Z" fill="#BDBDBD" stroke="#686868" stroke-miterlimit="10"/>
<path d="M552.088 346.524H468.612V373.634H552.088V346.524Z" fill="#BDBDBD" stroke="#686868" stroke-miterlimit="10"/>
<path d="M510.244 363.326C512.041 363.326 513.497 361.871 513.497 360.076C513.497 358.281 512.041 356.826 510.244 356.826C508.447 356.826 506.99 358.281 506.99 360.076C506.99 361.871 508.447 363.326 510.244 363.326Z" fill="#BDBDBD" stroke="#686868" stroke-miterlimit="10"/>
<path d="M510.243 361.449C511.002 361.449 511.618 360.835 511.618 360.077C511.618 359.319 511.002 358.704 510.243 358.704C509.484 358.704 508.869 359.319 508.869 360.077C508.869 360.835 509.484 361.449 510.243 361.449Z" fill="#BDBDBD" stroke="#686868" stroke-miterlimit="10"/>
<path d="M552.088 375.958H468.612V403.067H552.088V375.958Z" fill="#BDBDBD" stroke="#686868" stroke-miterlimit="10"/>
<path d="M510.244 392.76C512.041 392.76 513.497 391.305 513.497 389.51C513.497 387.715 512.041 386.26 510.244 386.26C508.447 386.26 506.99 387.715 506.99 389.51C506.99 391.305 508.447 392.76 510.244 392.76Z" fill="#BDBDBD" stroke="#686868" stroke-miterlimit="10"/>
<path d="M510.243 390.883C511.002 390.883 511.618 390.268 511.618 389.51C511.618 388.752 511.002 388.138 510.243 388.138C509.484 388.138 508.869 388.752 508.869 389.51C508.869 390.268 509.484 390.883 510.243 390.883Z" fill="#BDBDBD" stroke="#686868" stroke-miterlimit="10"/>
<path d="M552.088 405.391H468.612V432.501H552.088V405.391Z" fill="#BDBDBD" stroke="#686868" stroke-miterlimit="10"/>
<path d="M510.244 422.192C512.041 422.192 513.497 420.737 513.497 418.942C513.497 417.147 512.041 415.692 510.244 415.692C508.447 415.692 506.99 417.147 506.99 418.942C506.99 420.737 508.447 422.192 510.244 422.192Z" fill="#BDBDBD" stroke="#686868" stroke-miterlimit="10"/>
<path d="M510.243 420.314C511.002 420.314 511.618 419.7 511.618 418.942C511.618 418.184 511.002 417.569 510.243 417.569C509.484 417.569 508.869 418.184 508.869 418.942C508.869 419.7 509.484 420.314 510.243 420.314Z" fill="#BDBDBD" stroke="#686868" stroke-miterlimit="10"/>
<path d="M170.034 288.993H158.572V456.616H170.034V288.993Z" fill="#BDBDBD"/>
<path d="M564.599 292.092H552.531V459.715H564.599V292.092Z" fill="#BDBDBD"/>
<path d="M454.623 249.813H433.489V276.127H454.623V249.813Z" fill="#767676" stroke="#767676" stroke-miterlimit="10" stroke-linecap="round" stroke-linejoin="round"/>
<path d="M458.889 268.682H454.852V255.708H461.991L458.889 268.682Z" stroke="#767676" stroke-miterlimit="10" stroke-linecap="round" stroke-linejoin="round"/>
<path d="M454.815 249.098C454.815 248.832 450.064 248.614 444.206 248.614C438.346 248.614 433.595 248.833 433.595 249.098C433.595 249.371 438.346 249.59 444.206 249.59C450.064 249.59 454.815 249.37 454.815 249.098Z" fill="#BCBDBD"/>
<path opacity="0.15" d="M446.156 250.317H433.489V276.14H446.156V250.317Z" fill="#4D4D4D" stroke="#4D4D4D" stroke-miterlimit="10" stroke-linecap="round" stroke-linejoin="round"/>
<path d="M407.121 156.076H347.566V207.105H407.121V156.076Z" fill="white" stroke="#D4D4D4" stroke-width="0.5" stroke-miterlimit="10" stroke-linecap="round" stroke-linejoin="round"/>
<path d="M374.939 180.012L389.34 180.079C389.302 187.969 382.77 194.43 374.871 194.393C366.973 194.356 360.505 187.834 360.542 179.944C360.579 172.18 366.902 165.777 374.675 165.633L374.939 180.012Z" fill="#CCF0EF"/>
<path d="M378.836 176.524L378.579 162.143C382.328 162.161 386.251 163.642 388.925 166.268C391.602 168.889 393.146 172.626 393.232 176.37L378.836 176.524Z" fill="#74CDE8"/>
<path d="M263.032 208.446C263.032 208.446 262.74 156.881 262.993 152.304" stroke="#BABABA" stroke-width="0.25" stroke-miterlimit="10"/>
<path d="M262.746 208.305C262.746 208.305 334.364 208.011 340.719 208.263" stroke="#BABABA" stroke-width="0.25" stroke-miterlimit="10"/>
<path d="M334.619 199.672L329.476 195.49C322.421 190.308 319.074 200.174 313.529 192.771L311.618 190.398C310.349 188.82 308.063 188.521 306.428 189.714L304.216 191.33C302.113 192.865 299.575 193.695 296.968 193.695H294.08C293.276 193.695 292.492 193.949 291.842 194.425L287.629 197.503C285.902 198.764 284.697 198.934 281.931 196.614C281.931 196.614 278.929 194.179 278.86 194.092C277.387 192.301 274.312 192.304 272.987 194.092C272.669 194.522 272.336 194.905 271.975 195.299L268.001 199.672" stroke="#9C9C9C" stroke-width="0.5" stroke-miterlimit="10"/>
<path d="M267.96 184.18L273.103 179.998C280.159 174.815 283.505 184.681 289.051 177.278L290.962 174.907C292.231 173.329 294.516 173.03 296.152 174.223L298.364 175.838C300.466 177.373 303.005 178.203 305.612 178.203H308.501C309.305 178.203 310.088 178.458 310.739 178.934L314.952 182.012C316.679 183.272 317.884 183.443 320.65 181.123C320.65 181.123 323.652 178.687 323.722 178.601C325.194 176.81 328.268 176.812 329.593 178.601C329.912 179.031 330.244 179.413 330.605 179.808L334.579 184.181" stroke="#9C9C9C" stroke-width="0.5" stroke-miterlimit="10"/>
<path d="M262.746 199.008C262.746 199.008 334.364 198.715 340.719 198.968" stroke="#BABABA" stroke-width="0.25" stroke-miterlimit="10"/>
<path d="M262.746 183.517C262.746 183.517 334.364 183.225 340.719 183.476" stroke="#BABABA" stroke-width="0.25" stroke-miterlimit="10"/>
<path d="M334.618 161.013L329.476 165.196C322.421 170.378 319.074 160.512 313.529 167.915L311.618 170.286C310.349 171.864 308.063 172.164 306.428 170.971L304.216 169.355C302.113 167.82 299.575 166.99 296.968 166.99H294.08C293.276 166.99 292.492 166.736 291.842 166.259L287.629 163.181C285.902 161.92 284.697 161.749 281.931 164.07C281.931 164.07 278.929 166.506 278.86 166.591C277.387 168.382 274.312 168.38 272.987 166.591C272.669 166.161 272.336 165.779 271.975 165.384L268.001 161.011" stroke="#9C9C9C" stroke-width="0.5" stroke-miterlimit="10"/>
<path d="M262.746 168.026C262.746 168.026 334.363 167.733 340.719 167.986" stroke="#BABABA" stroke-width="0.25" stroke-miterlimit="10"/>
<path d="M323.292 184.911C315.866 184.911 309.846 178.898 309.846 171.48V142.895H336.74V171.48C336.738 178.898 330.718 184.911 323.292 184.911Z" fill="#DEA194"/>
<path d="M340.795 140.431C344.868 143.432 351.913 129.774 347.944 126.539C343.976 123.304 341.351 129.235 341.351 129.235L341.252 134.257L340.67 138.963L340.444 140.411L340.795 140.431Z" fill="#DEA194"/>
<path d="M305.23 140.431C301.158 143.433 294.112 129.775 298.081 126.539C302.049 123.304 304.541 129.298 304.541 129.298L304.772 134.259L305.355 138.964L305.58 140.413L305.23 140.431Z" fill="#DEA194"/>
<path d="M340.445 98.8616C321.327 90.4038 317.938 93.6342 317.462 99.628C317.629 97.5318 314.815 98.572 314.815 98.572C306.739 100.738 296.907 105.446 305.315 108.781C306.439 112.086 301.243 105.446 301.887 119.4L304.672 133.07H304.673C304.981 136.366 305.435 140.085 306.108 143.672C307.129 149.116 310.45 153.87 315.192 156.805C319.895 159.714 325.878 159.644 330.511 156.625L331.307 156.104C335.685 153.251 338.781 148.822 339.882 143.749C340.533 140.745 341.179 137.013 341.612 132.775L344.022 120.471C344.981 117.527 344.962 115.066 344.311 113.049C346.232 110.217 349.485 103.608 342.41 98.6086" fill="#202020"/>
<path d="M358.893 313.259H287.825L290.15 277.266H355.792L358.893 313.259Z" fill="#202020"/>
<path d="M305.59 198.668C305.59 189.562 298.2 182.179 289.082 182.179C280.994 182.179 274.276 187.994 272.861 195.666L272.847 195.663L265.811 227.804L297.84 235.216L304.841 203.591C305.328 202.035 305.59 200.383 305.59 198.668Z" fill="#F3F3F1"/>
<path d="M339.52 198.668C339.52 189.562 346.913 182.179 356.028 182.179C364.118 182.179 370.835 187.994 372.252 195.666L372.265 195.663L379.3 227.804L347.269 235.216L340.269 203.591C339.783 202.035 339.52 200.383 339.52 198.668Z" fill="#F3F3F1"/>
<path d="M335.249 171.757L322.93 171.933L310.939 171.757L285.248 182.723L290.15 277.266H322.93H356.037L360.939 182.723L335.249 171.757Z" fill="#F3F3F1"/>
<path d="M281.929 267.346H368.12" stroke="#202020" stroke-width="1.932" stroke-miterlimit="10"/>
<path d="M281.929 254.908H368.12" stroke="#202020" stroke-width="1.932" stroke-miterlimit="10"/>
<path d="M281.929 242.471H368.12" stroke="#202020" stroke-width="1.932" stroke-miterlimit="10"/>
<path d="M281.929 230.033H368.12" stroke="#202020" stroke-width="1.932" stroke-miterlimit="10"/>
<path d="M281.929 217.596H368.12" stroke="#202020" stroke-width="1.932" stroke-miterlimit="10"/>
<path d="M281.929 205.159H368.12" stroke="#202020" stroke-width="1.932" stroke-miterlimit="10"/>
<path d="M281.929 192.722H368.12" stroke="#202020" stroke-width="1.932" stroke-miterlimit="10"/>
<path d="M281.929 180.284H368.12" stroke="#202020" stroke-width="1.932" stroke-miterlimit="10"/>
<path d="M385.552 264.669C386.667 268.985 384.565 273.19 380.862 274.065L371.227 276.338C367.524 277.209 363.619 274.424 362.503 270.107L342.785 193.885C341.668 189.571 345.937 179.307 351.254 178.214L371.131 185.739C374.702 188.245 376.555 189.774 377.673 194.091L385.552 264.669Z" fill="#697FC7"/>
<path d="M259.892 264.838C258.749 269.133 260.572 273.244 263.961 274.021L272.783 276.041C276.174 276.817 279.847 273.966 280.993 269.67L301.206 193.808C302.352 189.512 299.51 179.407 294.64 178.454L275.295 186.419C271.935 188.981 270.185 190.539 269.04 194.836L259.892 264.838Z" fill="#697FC7"/>
<path d="M322.93 171.932L310.939 171.757L285.248 182.723L290.15 277.266H322.93H356.035L360.939 182.723L335.249 171.757L322.93 171.932Z" fill="#697FC7"/>
<path d="M346.333 200.683C346.333 216.898 350.918 230.02 356.584 230.02" stroke="#516AAA" stroke-miterlimit="10"/>
<path d="M296.87 200.683C296.87 216.898 292.285 230.02 286.619 230.02" stroke="#516AAA" stroke-miterlimit="10"/>
<path d="M339.52 169.734C339.52 171.445 341.233 174.381 339.52 174.381H307.276C305.563 174.381 307.276 171.445 307.276 169.734C307.276 168.023 308.665 166.636 310.378 166.636H336.418C338.131 166.636 339.52 168.023 339.52 169.734Z" fill="#4C67B2"/>
<path d="M364.964 274.386C369.101 276.971 370.624 276.723 376.538 275.084C382.455 273.443 384.533 272.849 385.849 268.315" fill="#4C67B2"/>
<path d="M279.135 273.37C276.959 275.282 276.669 277.316 268.089 274.857C262.141 273.152 261.115 273.675 259.59 268.217" fill="#4C67B2"/>
<path d="M323.093 174.381V277.266" stroke="#516AAA" stroke-miterlimit="10"/>
<path d="M330.269 473.9H318.104V479.305H330.269V473.9Z" fill="#979797"/>
<path d="M328.839 492.449C328.839 495.017 326.757 497.096 324.187 497.096C321.617 497.096 319.534 495.017 319.534 492.449V485.219C319.534 482.652 321.617 480.571 324.187 480.571C326.758 480.571 328.839 482.652 328.839 485.219V492.449Z" fill="#7B7B7B"/>
<path d="M366.926 329.075C366.926 332.745 364.149 335.72 360.722 335.72H287.825C284.398 335.72 281.62 332.745 281.62 329.075L266.111 227.826C266.111 224.157 268.889 221.182 272.315 221.182H373.131C376.558 221.182 379.335 224.157 379.335 227.826L366.926 329.075Z" fill="#A0A0A0" stroke="#838585" stroke-width="5" stroke-miterlimit="10"/>
<path d="M372.446 339.763H275.065V364.574H372.446V339.763Z" fill="#A0A0A0" stroke="#838585" stroke-width="5" stroke-miterlimit="10" stroke-linecap="round" stroke-linejoin="round"/>
<path d="M329 396H319V455H329V396Z" fill="#7B7B7B"/>
<path d="M333.579 364.453H314.191V395.829H333.579V364.453Z" fill="#979797" stroke="#7B7B7B" stroke-miterlimit="10"/>
<path d="M269.47 478.249C269.47 466.698 278.845 457.336 290.408 457.336H361.196C372.76 457.336 382.134 466.698 382.134 478.249" stroke="#868787" stroke-width="4" stroke-miterlimit="10" stroke-linecap="round" stroke-linejoin="round"/>
<path d="M385.537 492.449C385.537 495.017 383.455 497.096 380.883 497.096C378.313 497.096 376.23 495.017 376.23 492.449V485.219C376.23 482.652 378.313 480.571 380.883 480.571C383.455 480.571 385.537 482.652 385.537 485.219V492.449Z" fill="#7B7B7B"/>
<path d="M273.863 492.449C273.863 495.017 271.78 497.096 269.21 497.096C266.639 497.096 264.557 495.017 264.557 492.449V485.219C264.557 482.652 266.639 480.571 269.21 480.571C271.78 480.571 273.863 482.652 273.863 485.219V492.449Z" fill="#7B7B7B"/>
<path d="M326.892 460.24H321.481V480.571H326.892V460.24Z" fill="#979797"/>
<path d="M279.503 323.31C280.18 326.222 278.364 329.13 275.449 329.804C272.533 330.48 269.622 328.665 268.945 325.754L259.789 286.326C259.114 283.414 260.928 280.506 263.843 279.83C266.759 279.156 269.671 280.971 270.347 283.882L279.503 323.31Z" fill="#838585" stroke="#838585" stroke-width="5" stroke-miterlimit="10" stroke-linecap="round" stroke-linejoin="round"/>
<path d="M368.359 323.31C367.684 326.222 369.499 329.13 372.415 329.804C375.33 330.48 378.242 328.665 378.918 325.754L388.072 286.326C388.75 283.414 386.933 280.506 384.019 279.83C381.101 279.156 378.19 280.971 377.515 283.882L368.359 323.31Z" fill="#838585" stroke="#838585" stroke-width="5" stroke-miterlimit="10" stroke-linecap="round" stroke-linejoin="round"/>
<path d="M356.765 480.76C356.765 482.339 355.376 483.618 353.663 483.618H353.231C351.517 483.618 350.128 482.339 350.128 480.76V467.805C350.128 466.225 351.517 464.945 353.231 464.945H353.663C355.376 464.945 356.765 466.225 356.765 467.805V480.76Z" fill="#767676" stroke="#767676" stroke-miterlimit="10"/>
<path d="M361.204 484.842C361.204 485.931 358.888 486.812 356.03 486.812H350.86C348.005 486.812 345.688 485.93 345.688 484.842V482.868C345.688 481.778 348.005 480.896 350.86 480.896H356.03C358.888 480.896 361.204 481.779 361.204 482.868V484.842Z" fill="#282828" stroke="#282828" stroke-miterlimit="10"/>
<path d="M363.347 471.093C363.347 467.615 364.62 464.797 356.718 464.797H350.096C343.469 464.797 343.469 465.734 343.469 471.093V477.388C343.469 480.864 346.437 483.684 350.096 483.684H356.718C360.379 483.684 363.347 480.863 363.347 477.388V471.093Z" fill="#874914" stroke="#874914" stroke-miterlimit="10"/>
<path d="M300.714 483.282C300.714 484.371 298.398 485.252 295.54 485.252H290.371C287.515 485.252 285.197 484.37 285.197 483.282V481.308C285.197 480.218 287.515 479.337 290.371 479.337H295.54C298.398 479.337 300.714 480.219 300.714 481.308V483.282Z" fill="#282828" stroke="#282828" stroke-miterlimit="10"/>
<path d="M302.857 469.521C302.857 466.044 304.129 463.226 296.228 463.226H289.606C282.978 463.226 282.979 464.164 282.979 469.521V475.817C282.979 479.294 285.947 482.113 289.606 482.113H296.228C299.889 482.113 302.857 479.293 302.857 475.817V469.521Z" fill="#874914" stroke="#874914" stroke-miterlimit="10"/>
<path d="M548.999 273.715C548.999 275.426 547.61 276.814 545.898 276.814H482.476C480.764 276.814 479.374 275.426 479.374 273.715V262.551C479.374 260.84 480.764 259.453 482.476 259.453H545.898C547.61 259.453 548.999 260.84 548.999 262.551V273.715Z" fill="#613A14"/>
<path d="M488.745 259.453V276.814" stroke="white" stroke-miterlimit="10"/>
<path d="M491.847 259.453V276.814" stroke="#B5B5B5" stroke-miterlimit="10"/>
<path d="M494.948 259.453V276.814" stroke="white" stroke-miterlimit="10"/>
<path d="M538.377 259.453V276.814" stroke="#B5B5B5" stroke-miterlimit="10"/>
<path d="M541.479 259.453V276.814" stroke="white" stroke-miterlimit="10"/>
<path d="M515.887 274.009C519.099 274.009 521.704 271.408 521.704 268.2C521.704 264.992 519.099 262.391 515.887 262.391C512.675 262.391 510.071 264.992 510.071 268.2C510.071 271.408 512.675 274.009 515.887 274.009Z" fill="#4E2D0F"/>
<path d="M548.999 255.126C548.999 256.837 547.61 258.225 545.898 258.225H482.476C480.764 258.225 479.374 256.837 479.374 255.126V243.963C479.374 242.251 480.764 240.864 482.476 240.864H545.898C547.61 240.864 548.999 242.251 548.999 243.963V255.126Z" fill="#393026"/>
<path d="M488.745 240.863V258.225" stroke="white" stroke-miterlimit="10"/>
<path d="M491.847 240.863V258.225" stroke="#B5B5B5" stroke-miterlimit="10"/>
<path d="M494.948 240.863V258.225" stroke="white" stroke-miterlimit="10"/>
<path d="M538.377 240.863V258.225" stroke="#B5B5B5" stroke-miterlimit="10"/>
<path d="M541.479 240.863V258.225" stroke="white" stroke-miterlimit="10"/>
<path d="M515.887 255.419C519.099 255.419 521.704 252.818 521.704 249.61C521.704 246.402 519.099 243.801 515.887 243.801C512.675 243.801 510.071 246.402 510.071 249.61C510.071 252.818 512.675 255.419 515.887 255.419Z" fill="#6F6962"/>
<path d="M249.091 135.497H253.011" stroke="#ACACAC" stroke-width="0.5" stroke-miterlimit="10" stroke-linecap="round" stroke-linejoin="round"/>
<path d="M249.091 133.948H253.011" stroke="#ACACAC" stroke-width="0.5" stroke-miterlimit="10" stroke-linecap="round" stroke-linejoin="round"/>
<path d="M249.091 137.047H253.011" stroke="#ACACAC" stroke-width="0.5" stroke-miterlimit="10" stroke-linecap="round" stroke-linejoin="round"/>
<path d="M599.053 345.697C599.053 345.697 594.025 315.42 557.888 313.615C557.888 313.615 545.494 320.863 533.809 318.344C522.127 315.826 559.883 350.864 586.993 352.011L599.909 351.608L599.053 345.697Z" fill="#B1F8B8" stroke="#88F174" stroke-miterlimit="10"/>
<path d="M596.406 349.685C596.406 349.685 571.105 332.268 584.829 298.834C584.829 298.834 596.665 290.711 599.35 279.077C602.033 267.444 617.738 316.471 607.255 341.469L601.399 352.971L596.406 349.685Z" fill="#B1F8B8" stroke="#88F174" stroke-miterlimit="10"/>
<path d="M599.357 351.82C587.789 322.139 539.158 330.844 533.259 318.56" stroke="#88F174" stroke-miterlimit="10" stroke-linecap="round" stroke-linejoin="round"/>
<path d="M601.399 352.971C579.416 329.895 607.978 289.631 599.349 279.077" stroke="#88F174" stroke-miterlimit="10" stroke-linecap="round" stroke-linejoin="round"/>
<path d="M598.34 348.054C598.34 348.054 585.364 320.233 614.161 298.359C614.161 298.359 628.489 297.345 636.705 288.677C644.922 280.006 633.584 330.221 611.859 346.464L600.975 353.414L598.34 348.054Z" fill="#AFF8B6" stroke="#88F174" stroke-miterlimit="10"/>
<path d="M597.536 349.772C597.536 349.772 577.839 326.218 545.772 342.954C545.772 342.954 538.764 355.473 527.415 359.218C516.066 362.962 566.393 374.055 590.349 361.322L601.274 354.434L597.536 349.772Z" fill="#AFF8B6" stroke="#88F174" stroke-miterlimit="10"/>
<path d="M600.977 353.413C594.858 327.198 640.148 303.716 637.922 289.322" stroke="#88F174" stroke-miterlimit="10" stroke-linecap="round" stroke-linejoin="round"/>
<path d="M600.267 352.95C574.438 334.267 538.293 367.909 526.671 360.776" stroke="#88F174" stroke-miterlimit="10" stroke-linecap="round" stroke-linejoin="round"/>
<path d="M599.779 350.681C599.779 350.681 602.619 351.58 600.269 349.221C601.01 349.964 615.11 400.016 599.627 418.034H590.704C589.208 419.487 609.726 389.873 599.779 350.681Z" fill="#88F174" stroke="#88F174" stroke-miterlimit="10" stroke-linecap="round" stroke-linejoin="round"/>
<path d="M607.08 459.976H581.844L569.117 418.189H618.85L607.08 459.976Z" fill="#EDCF83" stroke="#E7A731" stroke-width="2" stroke-miterlimit="10" stroke-linecap="round" stroke-linejoin="round"/>
<path d="M593.543 459.387H582.433L569.707 418.777H593.543V459.387Z" fill="#F0C676"/>
<rect x="90" y="72" width="1" height="413" fill="#D2D2D2"/>
</g>
<defs>
<clipPath id="clip0">
<rect width="722" height="561" fill="white"/>
</clipPath>
</defs>
</svg>
