<?xml version="1.0" encoding="UTF-8"?>
<svg width="31px" height="36px" viewBox="0 0 31 36" version="1.1" xmlns="http://www.w3.org/2000/svg" xmlns:xlink="http://www.w3.org/1999/xlink">
    <!-- Generator: Sketch 53.2 (72643) - https://sketchapp.com -->
    <title>Group 11 Copy</title>
    <desc>Created with Sketch.</desc>
    <g id="Page-1" stroke="none" stroke-width="1" fill="none" fill-rule="evenodd">
        <g id="Landing2-Copy" transform="translate(-485.000000, -583.000000)" stroke="#343434">
            <g id="Group-11-Copy" transform="translate(486.000000, 583.000000)">
                <path d="M19,10.131847 C19,15.3779596 14.7467969,19.6315789 9.5,19.6315789 C4.25320314,19.6315789 0,15.3779596 0,10.131847 C0,4.88519825 4.25320314,0.631578947 9.5,0.631578947 C14.7467969,0.631578947 19,4.88519825 19,10.131847 Z" id="Stroke-1" fill="#343434"></path>
                <path d="M24,28.6315789 C24,31.9450036 21.3134247,34.6315789 18,34.6315789 C14.6860274,34.6315789 12,31.9450036 12,28.6315789 C12,25.3176063 14.6860274,22.6315789 18,22.6315789 C21.3134247,22.6315789 24,25.3176063 24,28.6315789 Z" id="Stroke-3" fill="#343434"></path>
                <path d="M29.4500185,15.9500185 C29.4500185,17.8830859 27.8834873,19.4500185 25.9497599,19.4500185 C24.0170669,19.4500185 22.4500185,17.8830859 22.4500185,15.9500185 C22.4500185,14.0174683 24.0170669,12.4500185 25.9497599,12.4500185 C27.8834873,12.4500185 29.4500185,14.0174683 29.4500185,15.9500185 Z" id="Stroke-5" fill="#343434"></path>
                <path d="M11.4500185,14.4500185 L16.4500185,25.4500185" id="Stroke-7" stroke-width="2"></path>
                <path d="M20.4500185,25.4500185 L25.9500185,15.9500185" id="Stroke-9" stroke-width="2"></path>
            </g>
        </g>
    </g>
</svg>