<svg width="92" height="28" viewBox="0 0 92 28" fill="none" xmlns="http://www.w3.org/2000/svg">
<path d="M8.728 27.252C7.072 27.252 5.584 26.964 4.264 26.388C2.968 25.788 1.948 24.972 1.204 23.94C0.46 22.884 0.0760001 21.672 0.0520001 20.304H3.544C3.664 21.48 4.144 22.476 4.984 23.292C5.848 24.084 7.096 24.48 8.728 24.48C10.288 24.48 11.512 24.096 12.4 23.328C13.312 22.536 13.768 21.528 13.768 20.304C13.768 19.344 13.504 18.564 12.976 17.964C12.448 17.364 11.788 16.908 10.996 16.596C10.204 16.284 9.136 15.948 7.792 15.588C6.136 15.156 4.804 14.724 3.796 14.292C2.812 13.86 1.96 13.188 1.24 12.276C0.544 11.34 0.196 10.092 0.196 8.532C0.196 7.164 0.544 5.952 1.24 4.896C1.936 3.84 2.908 3.024 4.156 2.448C5.428 1.872 6.88 1.584 8.512 1.584C10.864 1.584 12.784 2.172 14.272 3.348C15.784 4.524 16.636 6.084 16.828 8.028H13.228C13.108 7.068 12.604 6.228 11.716 5.508C10.828 4.764 9.652 4.392 8.188 4.392C6.82 4.392 5.704 4.752 4.84 5.472C3.976 6.168 3.544 7.152 3.544 8.424C3.544 9.336 3.796 10.08 4.3 10.656C4.828 11.232 5.464 11.676 6.208 11.988C6.976 12.276 8.044 12.612 9.412 12.996C11.068 13.452 12.4 13.908 13.408 14.364C14.416 14.796 15.28 15.48 16 16.416C16.72 17.328 17.08 18.576 17.08 20.16C17.08 21.384 16.756 22.536 16.108 23.616C15.46 24.696 14.5 25.572 13.228 26.244C11.956 26.916 10.456 27.252 8.728 27.252ZM20.6769 17.064C20.6769 15.048 21.0849 13.284 21.9009 11.772C22.7169 10.236 23.8329 9.048 25.2489 8.208C26.6889 7.368 28.2849 6.948 30.0369 6.948C31.7649 6.948 33.2649 7.32 34.5369 8.064C35.8089 8.808 36.7569 9.744 37.3809 10.872V7.272H40.6929V27H37.3809V23.328C36.7329 24.48 35.7609 25.44 34.4649 26.208C33.1929 26.952 31.7049 27.324 30.0009 27.324C28.2489 27.324 26.6649 26.892 25.2489 26.028C23.8329 25.164 22.7169 23.952 21.9009 22.392C21.0849 20.832 20.6769 19.056 20.6769 17.064ZM37.3809 17.1C37.3809 15.612 37.0809 14.316 36.4809 13.212C35.8809 12.108 35.0649 11.268 34.0329 10.692C33.0249 10.092 31.9089 9.792 30.6849 9.792C29.4609 9.792 28.3449 10.08 27.3369 10.656C26.3289 11.232 25.5249 12.072 24.9249 13.176C24.3249 14.28 24.0249 15.576 24.0249 17.064C24.0249 18.576 24.3249 19.896 24.9249 21.024C25.5249 22.128 26.3289 22.98 27.3369 23.58C28.3449 24.156 29.4609 24.444 30.6849 24.444C31.9089 24.444 33.0249 24.156 34.0329 23.58C35.0649 22.98 35.8809 22.128 36.4809 21.024C37.0809 19.896 37.3809 18.588 37.3809 17.1ZM49.505 0.36V27H46.229V0.36H49.505ZM73.0884 16.38C73.0884 17.004 73.0524 17.664 72.9804 18.36H57.2124C57.3324 20.304 57.9924 21.828 59.1924 22.932C60.4164 24.012 61.8924 24.552 63.6204 24.552C65.0364 24.552 66.2124 24.228 67.1484 23.58C68.1084 22.908 68.7804 22.02 69.1644 20.916H72.6924C72.1644 22.812 71.1084 24.36 69.5244 25.56C67.9404 26.736 65.9724 27.324 63.6204 27.324C61.7484 27.324 60.0684 26.904 58.5804 26.064C57.1164 25.224 55.9644 24.036 55.1244 22.5C54.2844 20.94 53.8644 19.14 53.8644 17.1C53.8644 15.06 54.2724 13.272 55.0884 11.736C55.9044 10.2 57.0444 9.024 58.5084 8.208C59.9964 7.368 61.7004 6.948 63.6204 6.948C65.4924 6.948 67.1484 7.356 68.5884 8.172C70.0284 8.988 71.1324 10.116 71.9004 11.556C72.6924 12.972 73.0884 14.58 73.0884 16.38ZM69.7044 15.696C69.7044 14.448 69.4284 13.38 68.8764 12.492C68.3244 11.58 67.5684 10.896 66.6084 10.44C65.6724 9.96 64.6284 9.72 63.4764 9.72C61.8204 9.72 60.4044 10.248 59.2284 11.304C58.0764 12.36 57.4164 13.824 57.2484 15.696H69.7044ZM84.3966 27.324C82.8846 27.324 81.5286 27.072 80.3286 26.568C79.1286 26.04 78.1806 25.32 77.4846 24.408C76.7886 23.472 76.4046 22.404 76.3326 21.204H79.7166C79.8126 22.188 80.2686 22.992 81.0846 23.616C81.9246 24.24 83.0166 24.552 84.3606 24.552C85.6086 24.552 86.5926 24.276 87.3126 23.724C88.0326 23.172 88.3926 22.476 88.3926 21.636C88.3926 20.772 88.0086 20.136 87.2406 19.728C86.4726 19.296 85.2846 18.876 83.6766 18.468C82.2126 18.084 81.0126 17.7 80.0766 17.316C79.1646 16.908 78.3726 16.32 77.7006 15.552C77.0526 14.76 76.7286 13.728 76.7286 12.456C76.7286 11.448 77.0286 10.524 77.6286 9.684C78.2286 8.844 79.0806 8.184 80.1846 7.704C81.2886 7.2 82.5486 6.948 83.9646 6.948C86.1486 6.948 87.9126 7.5 89.2566 8.604C90.6006 9.708 91.3206 11.22 91.4166 13.14H88.1406C88.0686 12.108 87.6486 11.28 86.8806 10.656C86.1366 10.032 85.1286 9.72 83.8566 9.72C82.6806 9.72 81.7446 9.972 81.0486 10.476C80.3526 10.98 80.0046 11.64 80.0046 12.456C80.0046 13.104 80.2086 13.644 80.6166 14.076C81.0486 14.484 81.5766 14.82 82.2006 15.084C82.8486 15.324 83.7366 15.6 84.8646 15.912C86.2806 16.296 87.4326 16.68 88.3206 17.064C89.2086 17.424 89.9646 17.976 90.5886 18.72C91.2366 19.464 91.5726 20.436 91.5966 21.636C91.5966 22.716 91.2966 23.688 90.6966 24.552C90.0966 25.416 89.2446 26.1 88.1406 26.604C87.0606 27.084 85.8126 27.324 84.3966 27.324Z" fill="#00B0F0"/>
</svg>
