<svg width="559" height="435" viewBox="0 0 559 435" fill="none" xmlns="http://www.w3.org/2000/svg">
<g clip-path="url(#clip0)">
<path fill-rule="evenodd" clip-rule="evenodd" d="M201.05 325.753C203.274 326.033 205.422 326.608 207.448 327.444L212.15 323.501L220.228 329.651L217.682 335.236C219.028 336.965 220.155 338.884 221.017 340.955L227.127 341.493L228.491 351.556L222.746 353.704C222.469 355.931 221.892 358.079 221.055 360.105L224.997 364.81L218.848 372.889L213.264 370.343C211.535 371.688 209.617 372.815 207.546 373.679L207.009 379.79L196.948 381.155L194.801 375.408C192.575 375.131 190.428 374.554 188.402 373.717L183.698 377.66L175.62 371.511L178.166 365.924C176.821 364.195 175.696 362.276 174.832 360.207L168.723 359.668L167.359 349.605L173.103 347.457C173.381 345.231 173.957 343.081 174.794 341.056L170.852 336.352L176.999 328.271L182.584 330.817C184.313 329.473 186.23 328.346 188.301 327.482L188.839 321.372L198.899 320.007L201.05 325.753ZM198.032 339.629C191.113 339.877 186.191 346.341 187.797 353.08C188.983 358.064 193.622 361.593 198.742 361.408C205.657 361.155 210.572 354.696 208.971 347.962C207.788 342.978 203.15 339.447 198.032 339.629Z" fill="#E0E0E0"/>
<path d="M56.9515 110.948V77.0859C75.5227 77.0859 90.8042 92.3716 90.8042 110.948C90.8042 129.524 75.5227 144.809 56.9515 144.809C38.676 144.809 23.53 130.006 23.1074 111.731L56.9515 110.948Z" fill="#CEF2F1"/>
<path d="M48.6984 101.82L14.8457 102.585C14.8457 93.7674 18.2888 84.5234 24.4368 78.2041C30.5839 71.8847 39.3612 68.2104 48.1735 67.9697L48.6984 101.82Z" fill="#6ECFEA"/>
<path fill-rule="evenodd" clip-rule="evenodd" d="M515.333 27.7004C517.08 27.9203 518.767 28.3714 520.358 29.0282L524.051 25.932L530.395 30.7625L528.396 35.1476C529.453 36.5066 530.34 38.0125 531.017 39.6397L535.815 40.0624L536.886 47.9654L532.373 49.6523C532.156 51.3999 531.703 53.0878 531.045 54.679L534.142 58.3741L529.314 64.719L524.928 62.7203C523.57 63.7761 522.064 64.6622 520.438 65.3388L520.016 70.1381L512.113 71.2109L510.429 66.6969C508.681 66.4789 506.993 66.0259 505.402 65.3692L501.708 68.4653L495.364 63.6349L497.362 59.2479C496.307 57.8898 495.423 56.3839 494.745 54.7567L489.947 54.334L488.875 46.431L493.388 44.7441C493.606 42.9965 494.059 41.3077 494.715 39.7165L491.618 36.0223L496.447 29.6764L500.832 31.6761C502.191 30.6194 503.696 29.7342 505.323 29.0576L505.744 24.2574L513.645 23.1855L515.333 27.7004ZM512.963 38.5991C507.529 38.7934 503.665 43.8703 504.924 49.1633C505.857 53.0764 509.501 55.8503 513.52 55.7035C518.952 55.5054 522.812 50.4313 521.554 45.144C520.624 41.23 516.982 38.4551 512.963 38.5991Z" fill="#E0E0E0"/>
<path d="M559 416.909C559 417.046 434.702 417.156 281.409 417.156C128.061 417.156 3.79004 417.046 3.79004 416.909C3.79004 416.771 128.061 416.661 281.409 416.661C434.702 416.661 559 416.772 559 416.909Z" fill="#263238"/>
<path d="M515.448 45.2158H79.5815V346.611H515.448V45.2158Z" fill="#FAFAFA"/>
<path d="M515.448 346.609C515.446 344.979 515.37 228.571 515.25 45.2161L515.448 45.4142C394.579 45.4274 243.324 45.4445 79.6168 45.4625H79.5817L79.8281 45.2161C79.8205 152.874 79.8129 255.136 79.8063 346.609L79.5817 346.386C336.819 346.518 513.443 346.609 515.448 346.609C513.445 346.611 336.819 346.703 79.5808 346.835H79.3553V346.609C79.3487 255.135 79.3411 152.873 79.3335 45.2161V44.9688H79.5808H79.6158C243.323 44.9868 394.578 45.0029 515.447 45.0171H515.646V45.2161C515.526 228.572 515.449 344.982 515.448 346.609Z" fill="#263238"/>
<path d="M515.448 45.2158H79.5815V62.7049H515.448V45.2158Z" fill="#3D3D3D"/>
<path d="M92.0182 53.6282C92.0182 55.1114 90.8158 56.3131 89.334 56.3131C87.8512 56.3131 86.6489 55.1114 86.6489 53.6282C86.6489 52.145 87.8512 50.9424 89.334 50.9424C90.8158 50.9424 92.0182 52.145 92.0182 53.6282Z" fill="white"/>
<path d="M101.702 53.6282C101.702 55.1114 100.499 56.3131 99.0176 56.3131C97.5348 56.3131 96.3325 55.1114 96.3325 53.6282C96.3325 52.145 97.5348 50.9424 99.0176 50.9424C100.499 50.9424 101.702 52.145 101.702 53.6282Z" fill="white"/>
<path d="M111.386 53.6282C111.386 55.1114 110.184 56.3131 108.702 56.3131C107.219 56.3131 106.017 55.1114 106.017 53.6282C106.017 52.145 107.219 50.9424 108.702 50.9424C110.184 50.9424 111.386 52.145 111.386 53.6282Z" fill="white"/>
<path d="M499.856 327.667C499.854 326.577 499.801 291.686 499.71 229.769L499.856 229.914C409.947 229.937 263.105 229.974 97.4746 230.014H97.4509L97.6982 229.768C97.6963 263.304 97.6944 296.067 97.6935 327.666L97.4509 327.423C326.914 327.563 497.462 327.665 499.856 327.667C497.464 327.668 326.914 327.77 97.4509 327.908H97.2084V327.667C97.2074 296.068 97.2065 263.305 97.2046 229.769V229.521H97.4509H97.4746C263.105 229.563 409.948 229.6 499.856 229.622H500.001V229.768C499.91 291.686 499.858 326.578 499.856 327.667Z" fill="#E0E0E0"/>
<path d="M292.905 221.549C292.905 221.549 292.89 220.696 292.885 219.056C292.879 217.414 292.871 214.983 292.862 211.81C292.849 205.458 292.833 196.132 292.811 184.201C292.787 160.361 292.751 126.124 292.707 84.5062L292.906 84.7052C238.743 84.7185 171.301 84.7346 98.362 84.7526H98.3459L98.5932 84.5062C98.5847 133.53 98.5771 180.068 98.5705 221.549L98.3459 221.326C155.787 221.372 204.399 221.41 238.659 221.436C255.801 221.462 269.352 221.484 278.623 221.496C283.258 221.508 286.822 221.516 289.236 221.524C290.438 221.529 291.35 221.533 291.972 221.536C292.586 221.542 292.905 221.549 292.905 221.549C292.905 221.549 292.604 221.56 291.997 221.564C291.382 221.567 290.477 221.571 289.286 221.577C286.883 221.582 283.333 221.592 278.718 221.604C269.458 221.617 255.925 221.638 238.805 221.664C204.509 221.69 155.846 221.729 98.345 221.775H98.1204V221.55C98.1138 180.069 98.1062 133.531 98.0986 84.5071V84.2598H98.345H98.3611C171.301 84.2768 238.743 84.2939 292.905 84.3072H293.105V84.5071C293.062 126.176 293.026 160.457 293.001 184.327C292.978 196.238 292.962 205.549 292.95 211.891C292.939 215.049 292.931 217.465 292.927 219.099C292.921 220.725 292.905 221.549 292.905 221.549Z" fill="#E0E0E0"/>
<path d="M119.381 195.633L133.393 175.358C136.243 171.235 141.918 170.245 145.995 173.162L147.963 174.57C152.854 178.068 159.731 175.862 161.675 170.171L168.479 150.261C171.247 142.164 182.696 142.164 185.463 150.261L188.756 159.896C191.396 167.624 202.145 168.096 205.453 160.629L208.307 154.185C211.155 147.754 219.953 146.949 223.92 152.754C228.09 158.855 237.432 157.585 239.822 150.592L243.004 141.278C245.929 132.72 258.238 133.369 260.246 142.186L272.422 195.633C272.423 195.633 119.809 195.205 119.381 195.633Z" fill="#7797A0"/>
<path d="M118.986 196.157L130.372 162.84C133.04 155.032 144.03 154.897 146.889 162.637L152.343 177.398C154.703 183.788 163.127 185.162 167.396 179.854L171.814 174.359C174.75 170.707 180.038 170.011 183.82 172.777L194.108 180.304C195.61 181.403 197.423 181.995 199.282 181.995H212.376C214.237 181.995 216.05 182.587 217.551 183.685L227.293 190.813C231.289 193.737 236.912 192.773 239.706 188.685L248.849 175.306C248.965 175.135 249.086 174.97 249.212 174.811C252.883 170.163 260.236 171.145 262.902 176.433L272.686 195.843C272.686 195.843 118.986 195.528 118.986 196.157Z" fill="#6ECFEA"/>
<path d="M272.633 195.842L260.737 186.154C244.42 174.149 236.683 197.001 223.855 179.854L219.437 174.36C216.501 170.707 211.213 170.011 207.432 172.777L202.318 176.518C197.453 180.077 191.584 181.996 185.556 181.996H178.874C177.015 181.996 175.202 182.588 173.699 183.686L163.957 190.814C159.961 193.737 157.175 194.131 150.779 188.76C150.779 188.76 143.837 183.116 143.674 182.916C140.269 178.771 133.16 178.773 130.094 182.916C129.357 183.911 128.587 184.797 127.755 185.713L118.566 195.843C118.566 195.843 272.633 195.212 272.633 195.842Z" fill="#79B6C6"/>
<path d="M161.245 118.909C161.245 119.046 155.801 119.157 149.086 119.157C142.371 119.157 136.928 119.046 136.928 118.909C136.928 118.773 142.371 118.663 149.086 118.663C155.801 118.662 161.245 118.773 161.245 118.909Z" fill="#263238"/>
<path d="M134.272 116.828H130.11V120.99H134.272V116.828Z" fill="#C3DBE0"/>
<path d="M207.118 118.909C207.118 119.046 201.674 119.157 194.96 119.157C188.244 119.157 182.801 119.046 182.801 118.909C182.801 118.773 188.244 118.663 194.96 118.663C201.674 118.662 207.118 118.773 207.118 118.909Z" fill="#263238"/>
<path d="M180.145 116.828H175.983V120.99H180.145V116.828Z" fill="#6ECFEA"/>
<path d="M252.991 118.909C252.991 119.046 247.547 119.157 240.833 119.157C234.117 119.157 228.674 119.046 228.674 118.909C228.674 118.773 234.117 118.663 240.833 118.663C247.547 118.662 252.991 118.773 252.991 118.909Z" fill="#263238"/>
<path d="M226.018 116.828H221.856V120.99H226.018V116.828Z" fill="#79B6C6"/>
<path d="M253.595 310.93L263.609 296.647C264.775 294.982 267.087 294.618 268.709 295.842L273.976 299.819C275.697 301.119 278.168 300.617 279.245 298.75L294.442 272.423C295.71 270.227 298.795 270.003 300.366 271.995L309.854 284.029C311.385 285.97 314.373 285.818 315.699 283.733L322.632 272.831C324.078 270.558 327.42 270.63 328.767 272.963L334.491 282.881C335.837 285.213 339.176 285.287 340.624 283.017L360.197 252.33C361.592 250.146 364.766 250.112 366.206 252.267L398.546 300.655C399.842 302.595 402.617 302.801 404.185 301.074L423.831 279.44C425.211 277.921 427.58 277.867 429.029 279.32L444.657 295.009C446.324 296.684 449.125 296.317 450.307 294.271L478.264 245.832C480.101 242.652 484.961 243.955 484.961 247.626V310.931H253.595V310.93Z" fill="#00B0F0"/>
<path d="M484.373 318.843C484.366 318.843 484.36 318.751 484.355 318.564C484.351 318.362 484.346 318.084 484.339 317.714C484.331 316.931 484.32 315.769 484.306 314.181L484.372 314.245C471.01 314.351 424.528 314.427 369.325 314.427C314.106 314.427 267.629 314.351 254.268 314.245L254.333 314.181C254.319 315.769 254.308 316.93 254.302 317.714C254.294 318.085 254.288 318.363 254.285 318.564C254.279 318.751 254.274 318.843 254.268 318.843C254.263 318.843 254.257 318.751 254.251 318.564C254.248 318.362 254.242 318.084 254.235 317.714C254.228 316.931 254.217 315.769 254.203 314.181L254.202 314.117L254.268 314.117C267.628 314.011 314.105 313.935 369.325 313.935C424.528 313.935 471.01 314.011 484.372 314.117L484.435 314.117V314.181C484.421 315.769 484.412 316.93 484.403 317.714C484.396 318.085 484.391 318.363 484.388 318.564C484.384 318.751 484.378 318.843 484.373 318.843Z" fill="#263238"/>
<path d="M279.836 318.474C279.7 318.474 279.59 318.034 279.59 317.494C279.59 316.951 279.7 316.513 279.836 316.513C279.973 316.513 280.082 316.951 280.082 317.494C280.083 318.034 279.974 318.474 279.836 318.474Z" fill="#263238"/>
<path d="M305.404 318.474C305.267 318.474 305.156 318.034 305.156 317.494C305.156 316.951 305.267 316.513 305.404 316.513C305.541 316.513 305.651 316.951 305.651 317.494C305.651 318.034 305.54 318.474 305.404 318.474Z" fill="#263238"/>
<path d="M330.97 318.474C330.833 318.474 330.723 318.034 330.723 317.494C330.723 316.951 330.833 316.513 330.97 316.513C331.107 316.513 331.218 316.951 331.218 317.494C331.218 318.034 331.107 318.474 330.97 318.474Z" fill="#263238"/>
<path d="M356.539 318.474C356.4 318.474 356.291 318.034 356.291 317.494C356.291 316.951 356.4 316.513 356.539 316.513C356.675 316.513 356.785 316.951 356.785 317.494C356.784 318.034 356.674 318.474 356.539 318.474Z" fill="#263238"/>
<path d="M382.105 318.474C381.967 318.474 381.856 318.034 381.856 317.494C381.856 316.951 381.967 316.513 382.105 316.513C382.241 316.513 382.352 316.951 382.352 317.494C382.352 318.034 382.24 318.474 382.105 318.474Z" fill="#263238"/>
<path d="M407.671 318.474C407.534 318.474 407.424 318.034 407.424 317.494C407.424 316.951 407.534 316.513 407.671 316.513C407.809 316.513 407.918 316.951 407.918 317.494C407.918 318.034 407.809 318.474 407.671 318.474Z" fill="#263238"/>
<path d="M433.239 318.474C433.102 318.474 432.991 318.034 432.991 317.494C432.991 316.951 433.102 316.513 433.239 316.513C433.376 316.513 433.486 316.951 433.486 317.494C433.485 318.034 433.375 318.474 433.239 318.474Z" fill="#263238"/>
<path d="M458.805 318.474C458.668 318.474 458.558 318.034 458.558 317.494C458.558 316.951 458.668 316.513 458.805 316.513C458.942 316.513 459.053 316.951 459.053 317.494C459.053 318.034 458.942 318.474 458.805 318.474Z" fill="#263238"/>
<path d="M501.125 190.154C501.125 190.154 501.111 189.586 501.105 188.494C501.101 187.397 501.094 185.778 501.085 183.659C501.073 179.411 501.06 173.161 501.038 165.118C501.018 149.044 500.983 125.807 500.942 97.1194L501.123 97.3004C450.421 97.3175 381.878 97.3402 306.576 97.3658H306.561L306.808 97.1194C306.803 129.875 306.798 161.349 306.794 190.154L306.561 189.921C363.246 189.967 411.855 190.006 446.304 190.033C463.54 190.06 477.232 190.081 486.622 190.097C491.316 190.11 494.935 190.119 497.388 190.126C498.608 190.133 499.537 190.136 500.169 190.14C500.798 190.145 501.125 190.154 501.125 190.154C501.125 190.154 500.818 190.164 500.199 190.169C499.573 190.172 498.654 190.176 497.444 190.183C495.002 190.189 491.401 190.199 486.728 190.212C477.349 190.227 463.675 190.249 446.462 190.276C411.975 190.304 363.311 190.343 306.563 190.388L306.329 190.389V190.154C306.325 161.349 306.322 129.875 306.317 97.1194V96.8721H306.563H306.577C381.879 96.8977 450.423 96.9214 501.125 96.9384H501.305V97.1194C501.264 125.853 501.231 149.128 501.208 165.229C501.188 173.254 501.173 179.491 501.163 183.729C501.153 185.834 501.146 187.441 501.143 188.531C501.138 189.61 501.125 190.154 501.125 190.154Z" fill="#E0E0E0"/>
<path d="M457.09 137.687H323.064C321.83 137.687 320.831 136.686 320.831 135.453C320.831 134.219 321.831 133.219 323.064 133.219H457.089C458.322 133.219 459.321 134.219 459.321 135.453C459.322 136.686 458.322 137.687 457.09 137.687Z" fill="#E0E0E0"/>
<path d="M457.09 119.994H323.064C321.83 119.994 320.831 118.993 320.831 117.76C320.831 116.525 321.831 115.525 323.064 115.525H457.089C458.322 115.525 459.321 116.525 459.321 117.76C459.322 118.993 458.322 119.994 457.09 119.994Z" fill="#E0E0E0"/>
<path d="M383.624 137.687H323.064C321.83 137.687 320.831 136.686 320.831 135.453C320.831 134.219 321.831 133.219 323.064 133.219H383.624C384.857 133.219 385.856 134.219 385.856 135.453C385.857 136.686 384.857 137.687 383.624 137.687Z" fill="#545454"/>
<path d="M474.08 136.406H473.09V137.687H472.367V136.406H469.472V135.884L472.136 132.474H472.941L470.388 135.765H472.39V134.633H473.09V135.765H474.08V136.406Z" fill="#263238"/>
<path d="M478.161 136.122C478.161 137.024 477.519 137.746 476.188 137.746C475.451 137.746 474.722 137.508 474.273 137.113L474.616 136.524C474.966 136.852 475.546 137.083 476.18 137.083C476.968 137.083 477.416 136.718 477.416 136.153C477.416 135.564 477.042 135.199 475.838 135.199H474.653L474.929 132.473H477.869V133.121H475.555L475.414 134.551H475.995C477.549 134.551 478.161 135.199 478.161 136.122Z" fill="#263238"/>
<path d="M478.623 133.852C478.623 133.003 479.113 132.43 479.835 132.43C480.557 132.43 481.04 132.995 481.04 133.852C481.04 134.709 480.557 135.275 479.835 135.275C479.113 135.275 478.623 134.7 478.623 133.852ZM480.566 133.852C480.566 133.227 480.29 132.854 479.835 132.854C479.388 132.854 479.106 133.233 479.106 133.852C479.106 134.47 479.388 134.849 479.835 134.849C480.29 134.849 480.566 134.478 480.566 133.852ZM482.977 132.474H483.551L479.991 137.688H479.418L482.977 132.474ZM481.928 136.31C481.928 135.46 482.412 134.887 483.132 134.887C483.855 134.887 484.347 135.46 484.347 136.31C484.347 137.159 483.854 137.732 483.132 137.732C482.412 137.732 481.928 137.159 481.928 136.31ZM483.864 136.31C483.864 135.692 483.58 135.312 483.133 135.312C482.68 135.312 482.405 135.684 482.405 136.31C482.405 136.935 482.68 137.308 483.133 137.308C483.58 137.308 483.864 136.928 483.864 136.31Z" fill="#263238"/>
<path d="M457.09 154.072H323.064C321.83 154.072 320.831 153.071 320.831 151.838C320.831 150.603 321.831 149.604 323.064 149.604H457.089C458.322 149.604 459.321 150.603 459.321 151.838C459.322 153.071 458.322 154.072 457.09 154.072Z" fill="#E0E0E0"/>
<path d="M403.356 154.072H323.202C321.537 154.072 320.83 153.071 320.83 151.838C320.83 150.603 321.537 149.604 322.408 149.604H402.562C404.131 149.604 405.128 150.603 405.128 151.838C405.128 153.667 403.433 154.072 403.356 154.072Z" fill="#545454"/>
<path d="M473.343 148.859V149.366L471.235 154.073H470.446L472.509 149.508H470.126V150.438H469.411V148.859H473.343Z" fill="#263238"/>
<path d="M473.849 151.467C473.849 149.768 474.758 148.801 475.979 148.801C477.191 148.801 478.099 149.768 478.099 151.467C478.099 153.165 477.191 154.133 475.979 154.133C474.758 154.133 473.849 153.165 473.849 151.467ZM477.356 151.467C477.356 150.133 476.789 149.463 475.979 149.463C475.159 149.463 474.594 150.133 474.594 151.467C474.594 152.8 475.159 153.47 475.979 153.47C476.789 153.47 477.356 152.799 477.356 151.467Z" fill="#263238"/>
<path d="M478.734 150.237C478.734 149.388 479.225 148.814 479.947 148.814C480.669 148.814 481.152 149.38 481.152 150.237C481.152 151.093 480.669 151.659 479.947 151.659C479.225 151.659 478.734 151.085 478.734 150.237ZM480.678 150.237C480.678 149.611 480.402 149.239 479.947 149.239C479.5 149.239 479.218 149.618 479.218 150.237C479.218 150.855 479.5 151.234 479.947 151.234C480.402 151.235 480.678 150.863 480.678 150.237ZM483.089 148.859H483.663L480.103 154.072H479.531L483.089 148.859ZM482.04 152.694C482.04 151.845 482.524 151.272 483.244 151.272C483.967 151.272 484.459 151.845 484.459 152.694C484.459 153.544 483.966 154.117 483.244 154.117C482.524 154.118 482.04 153.545 482.04 152.694ZM483.976 152.694C483.976 152.076 483.692 151.696 483.245 151.696C482.791 151.696 482.517 152.069 482.517 152.694C482.517 153.32 482.791 153.692 483.245 153.692C483.692 153.692 483.976 153.312 483.976 152.694Z" fill="#263238"/>
<path d="M457.09 170.069H323.064C321.83 170.069 320.831 169.068 320.831 167.835C320.831 166.6 321.831 165.601 323.064 165.601H457.089C458.322 165.601 459.321 166.6 459.321 167.835C459.322 169.068 458.322 170.069 457.09 170.069Z" fill="#E0E0E0"/>
<path d="M372.846 170.069H323.064C321.83 170.069 320.831 169.068 320.831 167.835C320.831 166.6 321.831 165.601 323.064 165.601H372.846C374.079 165.601 375.078 166.6 375.078 167.835C375.079 169.068 374.079 170.069 372.846 170.069Z" fill="#545454"/>
<path d="M473.201 168.505C473.201 169.406 472.559 170.129 471.228 170.129C470.491 170.129 469.761 169.891 469.313 169.495L469.656 168.907C470.006 169.236 470.586 169.466 471.219 169.466C472.008 169.466 472.456 169.101 472.456 168.535C472.456 167.947 472.082 167.582 470.878 167.582H469.693L469.969 164.855H472.909V165.504H470.595L470.454 166.934H471.035C472.59 166.934 473.201 167.582 473.201 168.505Z" fill="#263238"/>
<path d="M473.82 167.463C473.82 165.764 474.728 164.797 475.95 164.797C477.161 164.797 478.07 165.764 478.07 167.463C478.07 169.161 477.161 170.129 475.95 170.129C474.728 170.129 473.82 169.161 473.82 167.463ZM477.326 167.463C477.326 166.129 476.76 165.459 475.95 165.459C475.13 165.459 474.565 166.129 474.565 167.463C474.565 168.796 475.13 169.466 475.95 169.466C476.76 169.465 477.326 168.795 477.326 167.463Z" fill="#263238"/>
<path d="M478.705 166.233C478.705 165.384 479.196 164.811 479.918 164.811C480.64 164.811 481.123 165.376 481.123 166.233C481.123 167.089 480.64 167.656 479.918 167.656C479.196 167.656 478.705 167.081 478.705 166.233ZM480.648 166.233C480.648 165.608 480.373 165.235 479.918 165.235C479.471 165.235 479.188 165.614 479.188 166.233C479.188 166.851 479.471 167.23 479.918 167.23C480.373 167.231 480.648 166.859 480.648 166.233ZM483.06 164.855H483.634L480.074 170.068H479.502L483.06 164.855ZM482.011 168.691C482.011 167.842 482.495 167.269 483.215 167.269C483.938 167.269 484.43 167.842 484.43 168.691C484.43 169.541 483.937 170.114 483.215 170.114C482.495 170.114 482.011 169.541 482.011 168.691ZM483.946 168.691C483.946 168.074 483.662 167.693 483.216 167.693C482.762 167.693 482.487 168.066 482.487 168.691C482.487 169.317 482.762 169.689 483.216 169.689C483.662 169.688 483.946 169.308 483.946 168.691Z" fill="#263238"/>
<path d="M411.795 119.994H323.065C321.832 119.994 320.831 118.993 320.831 117.76C320.831 116.525 321.833 115.525 323.065 115.525H411.795C413.028 115.525 414.027 116.525 414.027 117.76C414.027 118.993 413.028 119.994 411.795 119.994Z" fill="#6ECFEA"/>
<path d="M473.582 118.407C473.582 119.413 472.77 120.053 471.735 120.053C470.335 120.053 469.546 119.114 469.546 117.454C469.546 115.674 470.551 114.721 472.01 114.721C472.503 114.721 472.971 114.817 473.306 115.026L473.023 115.607C472.755 115.429 472.398 115.361 472.025 115.361C470.968 115.361 470.291 116.024 470.291 117.327C470.291 117.387 470.291 117.446 470.298 117.514C470.595 117.066 471.146 116.828 471.794 116.828C472.83 116.828 473.582 117.446 473.582 118.407ZM472.859 118.437C472.859 117.826 472.398 117.431 471.667 117.431C470.96 117.431 470.469 117.871 470.469 118.444C470.469 118.981 470.901 119.45 471.704 119.45C472.383 119.45 472.859 119.055 472.859 118.437Z" fill="#263238"/>
<path d="M474.14 117.387C474.14 115.688 475.049 114.721 476.27 114.721C477.482 114.721 478.39 115.688 478.39 117.387C478.39 119.085 477.482 120.053 476.27 120.053C475.049 120.053 474.14 119.085 474.14 117.387ZM477.647 117.387C477.647 116.053 477.08 115.383 476.27 115.383C475.45 115.383 474.885 116.053 474.885 117.387C474.885 118.72 475.45 119.39 476.27 119.39C477.08 119.39 477.647 118.72 477.647 117.387Z" fill="#263238"/>
<path d="M479.025 116.158C479.025 115.309 479.516 114.735 480.238 114.735C480.96 114.735 481.443 115.301 481.443 116.158C481.443 117.015 480.96 117.58 480.238 117.58C479.516 117.58 479.025 117.006 479.025 116.158ZM480.969 116.158C480.969 115.532 480.693 115.16 480.238 115.16C479.791 115.16 479.509 115.539 479.509 116.158C479.509 116.776 479.791 117.155 480.238 117.155C480.693 117.155 480.969 116.783 480.969 116.158ZM483.38 114.78H483.954L480.394 119.993H479.822L483.38 114.78ZM482.331 118.615C482.331 117.766 482.815 117.193 483.535 117.193C484.258 117.193 484.75 117.766 484.75 118.615C484.75 119.464 484.257 120.038 483.535 120.038C482.815 120.038 482.331 119.464 482.331 118.615ZM484.267 118.615C484.267 117.997 483.982 117.617 483.536 117.617C483.082 117.617 482.808 117.99 482.808 118.615C482.808 119.241 483.082 119.613 483.536 119.613C483.982 119.613 484.267 119.233 484.267 118.615Z" fill="#263238"/>
<path d="M453.965 199.687C453.965 199.823 421.161 199.933 380.703 199.933C340.233 199.933 307.436 199.823 307.436 199.687C307.436 199.55 340.233 199.44 380.703 199.44C421.161 199.44 453.965 199.55 453.965 199.687Z" fill="#E0E0E0"/>
<path d="M453.965 208.377C453.965 208.514 421.161 208.625 380.703 208.625C340.233 208.625 307.436 208.514 307.436 208.377C307.436 208.241 340.233 208.131 380.703 208.131C421.161 208.13 453.965 208.24 453.965 208.377Z" fill="#E0E0E0"/>
<path d="M453.965 216.237C453.965 216.374 421.161 216.484 380.703 216.484C340.233 216.484 307.436 216.374 307.436 216.237C307.436 216.099 340.233 215.989 380.703 215.989C421.161 215.989 453.965 216.099 453.965 216.237Z" fill="#E0E0E0"/>
<path d="M124.234 305.253C122.779 305.253 121.6 304.074 121.6 302.62V253.198C121.6 251.743 122.779 250.564 124.234 250.564C125.688 250.564 126.867 251.743 126.867 253.198V302.62C126.867 304.074 125.688 305.253 124.234 305.253Z" fill="#E0E0E0"/>
<path d="M124.234 305.487C122.779 305.487 121.6 304.307 121.6 302.853V270.993C121.6 269.537 122.779 268.358 124.234 268.358C125.688 268.358 126.867 269.537 126.867 270.993V302.853C126.867 304.307 125.688 305.487 124.234 305.487Z" fill="#00B0F0"/>
<path d="M122.576 307.549V311.942H122.124V307.951H121.09V307.549H122.576Z" fill="#263238"/>
<path d="M123.623 309.745C123.623 308.345 124.357 307.512 125.373 307.512C126.389 307.512 127.13 308.346 127.13 309.745C127.13 311.145 126.389 311.979 125.373 311.979C124.356 311.979 123.623 311.146 123.623 309.745ZM126.665 309.745C126.665 308.572 126.138 307.925 125.373 307.925C124.607 307.925 124.079 308.572 124.079 309.745C124.079 310.919 124.607 311.565 125.373 311.565C126.138 311.565 126.665 310.919 126.665 309.745Z" fill="#263238"/>
<path d="M134.761 305.253C133.307 305.253 132.127 304.074 132.127 302.62V253.198C132.127 251.743 133.307 250.564 134.761 250.564C136.215 250.564 137.394 251.743 137.394 253.198V302.62C137.394 304.074 136.215 305.253 134.761 305.253Z" fill="#E0E0E0"/>
<path d="M134.761 305.486C133.307 305.486 132.127 304.306 132.127 302.852V260.957C132.127 259.503 133.307 258.322 134.761 258.322C136.215 258.322 137.394 259.503 137.394 260.957V302.852C137.394 304.306 136.215 305.486 134.761 305.486Z" fill="#00B0F0"/>
<path d="M134.133 311.54V311.942H131.053V311.622L132.878 309.833C133.374 309.345 133.468 309.049 133.468 308.748C133.468 308.24 133.11 307.926 132.439 307.926C131.924 307.926 131.529 308.083 131.24 308.415L130.92 308.139C131.259 307.737 131.805 307.511 132.477 307.511C133.367 307.511 133.932 307.965 133.932 308.697C133.932 309.117 133.8 309.494 133.21 310.071L131.718 311.54H134.133Z" fill="#263238"/>
<path d="M134.67 309.745C134.67 308.345 135.404 307.512 136.421 307.512C137.437 307.512 138.177 308.346 138.177 309.745C138.177 311.145 137.437 311.979 136.421 311.979C135.404 311.979 134.67 311.146 134.67 309.745ZM137.713 309.745C137.713 308.572 137.186 307.925 136.421 307.925C135.655 307.925 135.128 308.572 135.128 309.745C135.128 310.919 135.655 311.565 136.421 311.565C137.185 311.565 137.713 310.919 137.713 309.745Z" fill="#263238"/>
<path d="M145.288 305.253C143.833 305.253 142.654 304.074 142.654 302.62V253.198C142.654 251.743 143.833 250.564 145.288 250.564C146.742 250.564 147.921 251.743 147.921 253.198V302.62C147.922 304.074 146.742 305.253 145.288 305.253Z" fill="#E0E0E0"/>
<path d="M145.288 305.487C143.833 305.487 142.654 304.307 142.654 302.853V278.518C142.654 277.063 143.833 275.885 145.288 275.885C146.742 275.885 147.921 277.063 147.921 278.518V302.853C147.922 304.307 146.742 305.487 145.288 305.487Z" fill="#00B0F0"/>
<path d="M144.605 310.68C144.605 311.414 144.071 311.979 143.011 311.979C142.377 311.979 141.768 311.76 141.43 311.414L141.65 311.056C141.932 311.352 142.44 311.565 143.011 311.565C143.739 311.565 144.14 311.226 144.14 310.679C144.14 310.151 143.77 309.806 142.954 309.806H142.641V309.475L143.858 307.949H141.612V307.547H144.435V307.867L143.193 309.43C144.133 309.482 144.605 309.978 144.605 310.68Z" fill="#263238"/>
<path d="M145.235 309.745C145.235 308.345 145.969 307.512 146.986 307.512C148.001 307.512 148.742 308.346 148.742 309.745C148.742 311.145 148.001 311.979 146.986 311.979C145.969 311.979 145.235 311.146 145.235 309.745ZM148.278 309.745C148.278 308.572 147.751 307.925 146.986 307.925C146.22 307.925 145.692 308.572 145.692 309.745C145.692 310.919 146.22 311.565 146.986 311.565C147.751 311.565 148.278 310.919 148.278 309.745Z" fill="#263238"/>
<path d="M155.816 305.253C154.362 305.253 153.183 304.074 153.183 302.62V253.198C153.183 251.743 154.362 250.564 155.816 250.564C157.27 250.564 158.449 251.743 158.449 253.198V302.62C158.449 304.074 157.27 305.253 155.816 305.253Z" fill="#E0E0E0"/>
<path d="M155.816 305.486C154.362 305.486 153.183 304.306 153.183 302.852V260.957C153.183 259.503 154.362 258.322 155.816 258.322C157.27 258.322 158.449 259.503 158.449 260.957V302.852C158.449 304.306 157.27 305.486 155.816 305.486Z" fill="#00B0F0"/>
<path d="M155.838 310.787H154.96V311.942H154.508V310.787H152.029V310.461L154.357 307.549H154.859L152.613 310.385H154.52V309.369H154.96V310.385H155.838V310.787Z" fill="#263238"/>
<path d="M156.248 309.745C156.248 308.345 156.982 307.512 157.999 307.512C159.015 307.512 159.756 308.346 159.756 309.745C159.756 311.145 159.015 311.979 157.999 311.979C156.982 311.979 156.248 311.146 156.248 309.745ZM159.291 309.745C159.291 308.572 158.764 307.925 157.999 307.925C157.233 307.925 156.706 308.572 156.706 309.745C156.706 310.919 157.233 311.565 157.999 311.565C158.764 311.565 159.291 310.919 159.291 309.745Z" fill="#263238"/>
<path d="M166.343 305.253C164.889 305.253 163.71 304.074 163.71 302.62V253.198C163.71 251.743 164.889 250.564 166.343 250.564C167.798 250.564 168.976 251.743 168.976 253.198V302.62C168.976 304.074 167.798 305.253 166.343 305.253Z" fill="#E0E0E0"/>
<path d="M166.343 305.486C164.889 305.486 163.71 304.306 163.71 302.853V268.985C163.71 267.53 164.889 266.351 166.343 266.351C167.798 266.351 168.976 267.53 168.976 268.985V302.853C168.976 304.306 167.798 305.486 166.343 305.486Z" fill="#00B0F0"/>
<path d="M166.109 310.649C166.109 311.396 165.589 311.979 164.516 311.979C163.882 311.979 163.28 311.76 162.941 311.415L163.161 311.057C163.443 311.352 163.944 311.565 164.51 311.565C165.257 311.565 165.652 311.2 165.652 310.668C165.652 310.103 165.3 309.751 164.183 309.751H163.248L163.474 307.549H165.877V307.95H163.869L163.719 309.349H164.283C165.607 309.349 166.109 309.872 166.109 310.649Z" fill="#263238"/>
<path d="M166.677 309.745C166.677 308.345 167.411 307.512 168.428 307.512C169.443 307.512 170.184 308.346 170.184 309.745C170.184 311.145 169.443 311.979 168.428 311.979C167.411 311.979 166.677 311.146 166.677 309.745ZM169.72 309.745C169.72 308.572 169.193 307.925 168.428 307.925C167.662 307.925 167.134 308.572 167.134 309.745C167.134 310.919 167.662 311.565 168.428 311.565C169.193 311.565 169.72 310.919 169.72 309.745Z" fill="#263238"/>
<path d="M176.87 305.253C175.416 305.253 174.237 304.074 174.237 302.62V253.198C174.237 251.743 175.416 250.564 176.87 250.564C178.325 250.564 179.504 251.743 179.504 253.198V302.62C179.504 304.074 178.325 305.253 176.87 305.253Z" fill="#E0E0E0"/>
<path d="M176.87 305.253C175.416 305.253 174.237 304.074 174.237 302.852V278.517C174.237 276.83 175.416 275.651 176.87 275.651C178.325 275.651 179.504 276.83 179.504 278.285V302.62C179.504 304.074 178.325 305.253 176.87 305.253Z" fill="#00B0F0"/>
<path d="M176.526 310.631C176.526 311.452 175.879 311.98 175.027 311.98C173.859 311.98 173.226 311.171 173.226 309.784C173.226 308.291 174.041 307.512 175.233 307.512C175.628 307.512 175.999 307.582 176.275 307.751L176.093 308.114C175.867 307.966 175.566 307.908 175.24 307.908C174.292 307.908 173.683 308.516 173.683 309.709C173.683 309.808 173.69 309.934 173.702 310.067C173.922 309.583 174.436 309.314 175.045 309.314C175.917 309.313 176.526 309.828 176.526 310.631ZM176.08 310.642C176.08 310.066 175.654 309.694 174.976 309.694C174.305 309.694 173.847 310.109 173.847 310.656C173.847 311.139 174.248 311.597 175.008 311.597C175.642 311.597 176.08 311.226 176.08 310.642Z" fill="#263238"/>
<path d="M177.043 309.745C177.043 308.345 177.777 307.512 178.794 307.512C179.81 307.512 180.55 308.346 180.55 309.745C180.55 311.145 179.81 311.979 178.794 311.979C177.777 311.979 177.043 311.146 177.043 309.745ZM180.086 309.745C180.086 308.572 179.559 307.925 178.794 307.925C178.028 307.925 177.501 308.572 177.501 309.745C177.501 310.919 178.028 311.565 178.794 311.565C179.559 311.565 180.086 310.919 180.086 309.745Z" fill="#263238"/>
<path d="M187.399 305.253C185.944 305.253 184.766 304.074 184.766 302.62V253.198C184.766 251.743 185.944 250.564 187.399 250.564C188.853 250.564 190.033 251.743 190.033 253.198V302.62C190.033 304.074 188.853 305.253 187.399 305.253Z" fill="#E0E0E0"/>
<path d="M187.399 305.487C185.944 305.487 184.766 304.307 184.766 302.853V258.449C184.766 256.994 185.944 255.815 187.399 255.815C188.853 255.815 190.033 256.994 190.033 258.449V302.853C190.033 304.307 188.853 305.487 187.399 305.487Z" fill="#00B0F0"/>
<path d="M186.837 307.549V307.868L184.999 311.942H184.509L186.316 307.951H184.057V308.772H183.612V307.549H186.837Z" fill="#263238"/>
<path d="M187.305 309.745C187.305 308.345 188.039 307.512 189.056 307.512C190.071 307.512 190.812 308.346 190.812 309.745C190.812 311.145 190.071 311.979 189.056 311.979C188.039 311.979 187.305 311.146 187.305 309.745ZM190.348 309.745C190.348 308.572 189.821 307.925 189.056 307.925C188.29 307.925 187.762 308.572 187.762 309.745C187.762 310.919 188.29 311.565 189.056 311.565C189.821 311.565 190.348 310.919 190.348 309.745Z" fill="#263238"/>
<path d="M197.926 305.253C196.472 305.253 195.293 304.074 195.293 302.62V253.198C195.293 251.743 196.472 250.564 197.926 250.564C199.38 250.564 200.56 251.743 200.56 253.198V302.62C200.56 304.074 199.38 305.253 197.926 305.253Z" fill="#E0E0E0"/>
<path d="M197.926 305.487C196.472 305.487 195.293 304.307 195.293 302.853V283.535C195.293 282.081 196.472 280.902 197.926 280.902C199.38 280.902 200.56 282.081 200.56 283.535V302.853C200.56 304.307 199.38 305.487 197.926 305.487Z" fill="#00B0F0"/>
<path d="M197.402 310.719C197.402 311.497 196.743 311.98 195.696 311.98C194.641 311.98 194.001 311.497 194.001 310.719C194.001 310.19 194.303 309.82 194.848 309.637C194.403 309.461 194.158 309.13 194.158 308.671C194.158 307.955 194.767 307.51 195.696 307.51C196.624 307.51 197.246 307.955 197.246 308.671C197.246 309.129 196.994 309.461 196.543 309.637C197.095 309.82 197.402 310.198 197.402 310.719ZM196.938 310.712C196.938 310.172 196.473 309.832 195.696 309.832C194.918 309.832 194.459 310.171 194.459 310.712C194.459 311.257 194.918 311.596 195.696 311.596C196.473 311.596 196.938 311.258 196.938 310.712ZM195.696 309.475C196.38 309.475 196.787 309.169 196.787 308.691C196.787 308.196 196.354 307.894 195.696 307.894C195.03 307.894 194.61 308.195 194.61 308.685C194.61 309.169 195.011 309.475 195.696 309.475Z" fill="#263238"/>
<path d="M198.026 309.745C198.026 308.345 198.761 307.512 199.777 307.512C200.793 307.512 201.534 308.346 201.534 309.745C201.534 311.145 200.793 311.979 199.777 311.979C198.761 311.979 198.026 311.146 198.026 309.745ZM201.07 309.745C201.07 308.572 200.543 307.925 199.777 307.925C199.012 307.925 198.484 308.572 198.484 309.745C198.484 310.919 199.012 311.565 199.777 311.565C200.543 311.565 201.07 310.919 201.07 309.745Z" fill="#263238"/>
<path d="M208.454 305.253C206.999 305.253 205.82 304.074 205.82 302.62V253.198C205.82 251.743 206.999 250.564 208.454 250.564C209.908 250.564 211.087 251.743 211.087 253.198V302.62C211.087 304.074 209.908 305.253 208.454 305.253Z" fill="#E0E0E0"/>
<path d="M208.454 305.254C206.999 305.254 205.82 304.075 205.82 302.852V296.08C205.82 294.392 206.999 293.213 208.454 293.213C209.908 293.213 211.087 294.392 211.087 295.847V302.621C211.087 304.075 209.908 305.254 208.454 305.254Z" fill="#00B0F0"/>
<path d="M207.661 309.708C207.661 311.201 206.845 311.979 205.653 311.979C205.258 311.979 204.889 311.91 204.612 311.74L204.794 311.377C205.02 311.526 205.321 311.583 205.647 311.583C206.595 311.583 207.203 310.975 207.203 309.782C207.203 309.684 207.198 309.558 207.184 309.425C206.964 309.908 206.45 310.178 205.842 310.178C204.969 310.178 204.361 309.663 204.361 308.859C204.361 308.038 205.007 307.511 205.861 307.511C207.028 307.512 207.661 308.32 207.661 309.708ZM207.039 308.835C207.039 308.351 206.638 307.894 205.879 307.894C205.245 307.894 204.805 308.264 204.805 308.849C204.805 309.425 205.233 309.797 205.91 309.797C206.583 309.797 207.039 309.381 207.039 308.835Z" fill="#263238"/>
<path d="M208.31 309.745C208.31 308.345 209.044 307.512 210.061 307.512C211.077 307.512 211.818 308.346 211.818 309.745C211.818 311.145 211.077 311.979 210.061 311.979C209.044 311.979 208.31 311.146 208.31 309.745ZM211.353 309.745C211.353 308.572 210.826 307.925 210.061 307.925C209.295 307.925 208.768 308.572 208.768 309.745C208.768 310.919 209.295 311.565 210.061 311.565C210.826 311.565 211.353 310.919 211.353 309.745Z" fill="#263238"/>
<path d="M218.981 305.253C217.527 305.253 216.347 304.074 216.347 302.62V253.198C216.347 251.743 217.527 250.564 218.981 250.564C220.435 250.564 221.614 251.743 221.614 253.198V302.62C221.614 304.074 220.435 305.253 218.981 305.253Z" fill="#E0E0E0"/>
<path d="M218.981 305.253C217.527 305.253 216.347 304.074 216.347 302.852V278.517C216.347 276.83 217.527 275.651 218.981 275.651C220.435 275.651 221.614 276.83 221.614 278.285V302.62C221.614 304.074 220.435 305.253 218.981 305.253Z" fill="#00B0F0"/>
<path d="M215.208 307.549V311.942H214.756V307.951H213.722V307.549H215.208Z" fill="#263238"/>
<path d="M216.254 309.745C216.254 308.345 216.989 307.512 218.005 307.512C219.021 307.512 219.762 308.346 219.762 309.745C219.762 311.145 219.021 311.979 218.005 311.979C216.988 311.979 216.254 311.146 216.254 309.745ZM219.297 309.745C219.297 308.572 218.77 307.925 218.004 307.925C217.239 307.925 216.711 308.572 216.711 309.745C216.711 310.919 217.239 311.565 218.004 311.565C218.77 311.565 219.297 310.919 219.297 309.745Z" fill="#263238"/>
<path d="M220.404 309.745C220.404 308.345 221.139 307.512 222.155 307.512C223.171 307.512 223.912 308.346 223.912 309.745C223.912 311.145 223.171 311.979 222.155 311.979C221.139 311.979 220.404 311.146 220.404 309.745ZM223.448 309.745C223.448 308.572 222.921 307.925 222.155 307.925C221.39 307.925 220.862 308.572 220.862 309.745C220.862 310.919 221.39 311.565 222.155 311.565C222.921 311.565 223.448 310.919 223.448 309.745Z" fill="#263238"/>
<path d="M240.796 315.582C240.659 315.582 240.549 299.318 240.549 279.257C240.549 259.191 240.659 242.929 240.796 242.929C240.932 242.929 241.042 259.191 241.042 279.257C241.042 299.318 240.932 315.582 240.796 315.582Z" fill="#BCBCBC"/>
<path d="M302.062 247.668C302.062 247.806 292.036 247.917 279.672 247.917C267.302 247.917 257.279 247.806 257.279 247.668C257.279 247.532 267.302 247.421 279.672 247.421C292.036 247.421 302.062 247.532 302.062 247.668Z" fill="#263238"/>
<path d="M78.1939 319.002C62.9095 319.002 49.7323 307.436 48.0723 291.9C46.2958 275.274 58.3731 260.304 74.9943 258.527C83.0477 257.667 90.9505 259.993 97.252 265.078C103.554 270.165 107.498 277.4 108.359 285.454C110.136 302.08 98.0583 317.052 81.437 318.829C80.3484 318.944 79.2645 319.002 78.1939 319.002ZM78.2659 262.892C77.3402 262.892 76.4108 262.942 75.4775 263.041C61.3452 264.553 51.0767 277.282 52.586 291.417C54.0962 305.553 66.8253 315.829 80.9548 314.313C95.0871 312.802 105.356 300.072 103.845 285.937C103.114 279.089 99.759 272.937 94.402 268.612C89.7737 264.877 84.1288 262.892 78.2659 262.892Z" fill="#757575"/>
<path d="M123.13 347.026C122.487 347.026 121.851 346.756 121.401 346.229L92.7354 312.579C91.9224 311.624 92.0371 310.191 92.9912 309.378C93.9452 308.565 95.3778 308.68 96.1907 309.635L124.857 343.283C125.669 344.238 125.555 345.671 124.601 346.484C124.174 346.848 123.65 347.026 123.13 347.026Z" fill="#757575"/>
<path d="M413.826 390.024L414.306 407.253C414.306 407.253 431.973 412.551 432.372 415.724L399.011 417.855L397.161 391.043L413.826 390.024Z" fill="#666565"/>
<path d="M403.898 406.464C403.264 406.682 402.864 407.436 403.054 408.08C403.246 408.724 404.01 409.136 404.649 408.93C405.287 408.723 405.795 407.832 405.532 407.213C405.27 406.597 404.347 406.161 403.777 406.514" fill="#E0E0E0"/>
<path d="M399.012 417.855L398.932 415.146L430.947 414.116C430.947 414.116 432.473 414.668 432.373 415.724L399.012 417.855Z" fill="white"/>
<path d="M414.837 407.047C414.842 407.21 414.031 407.337 413.264 407.911C412.481 408.467 412.113 409.199 411.958 409.143C411.807 409.122 411.986 408.133 412.928 407.454C413.865 406.764 414.861 406.895 414.837 407.047Z" fill="#263238"/>
<path d="M418.427 408.272C418.476 408.427 417.786 408.749 417.277 409.475C416.747 410.184 416.656 410.939 416.493 410.942C416.341 410.978 416.167 410.03 416.818 409.141C417.459 408.247 418.413 408.116 418.427 408.272Z" fill="#263238"/>
<path d="M420.683 412.334C420.538 412.378 420.258 411.578 420.62 410.658C420.975 409.737 421.72 409.335 421.798 409.468C421.897 409.595 421.434 410.106 421.148 410.865C420.847 411.617 420.844 412.308 420.683 412.334Z" fill="#263238"/>
<path d="M414.292 403.133C414.232 403.285 413.471 403.11 412.554 403.231C411.634 403.333 410.939 403.687 410.843 403.554C410.743 403.443 411.403 402.795 412.485 402.668C413.565 402.53 414.362 402.999 414.292 403.133Z" fill="#263238"/>
<path d="M414.131 399.66C414.137 399.726 413.5 399.87 412.458 399.759C411.94 399.701 411.327 399.573 410.676 399.332C410.352 399.211 410.017 399.064 409.685 398.885C409.524 398.795 409.335 398.707 409.155 398.524C408.964 398.366 408.832 397.94 409.023 397.662C409.178 397.394 409.474 397.264 409.714 397.243C409.959 397.221 410.162 397.257 410.346 397.29C410.722 397.356 411.078 397.459 411.407 397.581C412.062 397.83 412.605 398.164 413.011 398.494C413.832 399.162 414.136 399.754 414.081 399.789C414.012 399.847 413.601 399.362 412.775 398.819C412.365 398.55 411.844 398.277 411.232 398.075C410.927 397.976 410.598 397.895 410.254 397.841C409.894 397.77 409.595 397.786 409.514 397.95C409.486 398.012 409.483 398.036 409.563 398.134C409.646 398.224 409.794 398.309 409.952 398.397C410.26 398.572 410.566 398.72 410.867 398.846C411.467 399.097 412.036 399.259 412.522 399.363C413.496 399.566 414.128 399.571 414.131 399.66Z" fill="#263238"/>
<path d="M413.934 399.908C413.876 399.936 413.518 399.374 413.39 398.321C413.328 397.799 413.342 397.162 413.501 396.477C413.582 396.137 413.7 395.784 413.862 395.434C414.036 395.093 414.246 394.636 414.873 394.523C415.202 394.489 415.492 394.73 415.601 394.945C415.726 395.162 415.76 395.356 415.812 395.546C415.898 395.933 415.915 396.315 415.885 396.672C415.825 397.39 415.572 397.998 415.281 398.444C414.684 399.35 414.017 399.588 413.999 399.533C413.939 399.455 414.488 399.105 414.933 398.241C415.152 397.817 415.336 397.262 415.362 396.639C415.374 396.328 415.347 395.999 415.268 395.674C415.194 395.322 415.043 395.045 414.911 395.09C414.745 395.099 414.48 395.384 414.362 395.674C414.21 395.985 414.094 396.3 414.006 396.608C413.835 397.223 413.782 397.806 413.789 398.295C413.806 399.277 414.02 399.877 413.934 399.908Z" fill="#263238"/>
<path d="M343.226 389.271L341.216 411.404L334.579 428.454C334.1 429.682 334.762 431.059 336.02 431.452C336.725 431.672 337.486 431.543 338.074 431.095C341.811 428.247 355.506 417.702 355.562 416.074C355.628 414.189 359.232 392.867 359.232 392.867L343.226 389.271Z" fill="#605F5F"/>
<path d="M336.021 431.453L355.733 414.585L355.625 415.52C355.534 416.33 355.161 417.08 354.567 417.636C352.977 419.124 348.499 423.138 338.141 431.104C337.538 431.567 336.74 431.701 336.021 431.453Z" fill="white"/>
<path d="M352.014 406.945C351.416 407.265 351.14 408.08 351.436 408.691C351.731 409.3 352.558 409.588 353.16 409.279C353.762 408.971 354.124 407.999 353.763 407.429C353.402 406.856 352.412 406.57 351.901 407.014" fill="white"/>
<path d="M342.167 422.38C342.033 422.428 341.669 421.215 340.426 420.442C339.208 419.634 337.953 419.805 337.939 419.668C337.926 419.61 338.226 419.472 338.75 419.456C339.271 419.438 340.01 419.596 340.689 420.031C341.367 420.469 341.818 421.074 342.019 421.555C342.225 422.039 342.223 422.369 342.167 422.38Z" fill="#263238"/>
<path d="M340.257 425.158C340.141 425.242 339.515 424.443 338.41 423.987C337.316 423.503 336.305 423.604 336.286 423.462C336.235 423.341 337.351 422.994 338.601 423.537C339.856 424.066 340.379 425.112 340.257 425.158Z" fill="#263238"/>
<path d="M345.525 418.923C345.41 419.018 344.451 417.784 342.797 416.923C341.155 416.034 339.595 415.934 339.609 415.785C339.586 415.665 341.262 415.544 343.024 416.492C344.797 417.419 345.637 418.873 345.525 418.923Z" fill="#263238"/>
<path d="M346.698 412.246C346.624 412.371 345.461 411.723 343.88 411.484C342.303 411.225 340.998 411.484 340.967 411.342C340.919 411.227 342.26 410.728 343.956 411.004C345.654 411.263 346.78 412.152 346.698 412.246Z" fill="#263238"/>
<path d="M347.453 405.764C347.368 405.883 346.228 405.008 344.543 404.893C342.859 404.741 341.594 405.426 341.531 405.295C341.501 405.244 341.774 404.995 342.315 404.759C342.853 404.522 343.674 404.337 344.581 404.408C345.488 404.482 346.268 404.793 346.762 405.112C347.261 405.43 347.491 405.719 347.453 405.764Z" fill="#263238"/>
<path d="M344.722 403.665C344.694 403.662 344.676 403.361 344.785 402.826C344.895 402.297 345.14 401.528 345.699 400.715C345.985 400.331 346.292 399.831 346.943 399.611C347.266 399.499 347.715 399.609 347.944 399.931C348.172 400.244 348.212 400.616 348.179 400.967C347.998 402.366 346.64 403.585 345.041 403.606C343.439 403.6 342.107 402.533 341.619 401.251C341.517 400.922 341.466 400.527 341.681 400.173C341.892 399.816 342.357 399.718 342.667 399.808C343.312 399.98 343.681 400.406 344.034 400.73C344.726 401.429 345.123 402.126 345.345 402.618C345.569 403.111 345.626 403.409 345.599 403.418C345.515 403.468 345.164 402.271 343.796 400.979C343.449 400.678 343.051 400.301 342.584 400.206C342.357 400.155 342.148 400.225 342.046 400.402C341.941 400.57 341.955 400.852 342.047 401.112C342.463 402.162 343.682 403.135 345.037 403.12C346.385 403.114 347.577 402.04 347.734 400.917C347.768 400.645 347.727 400.365 347.599 400.187C347.474 400.012 347.263 399.943 347.05 400.004C346.6 400.128 346.26 400.559 345.979 400.918C344.863 402.432 344.817 403.698 344.722 403.665Z" fill="#263238"/>
<path d="M338.189 231.121L336.871 403.736L361.139 405.285L366.247 261.096L395.333 404.471L417.391 402.148L393.929 231.095L338.189 231.121Z" fill="#444444"/>
<path d="M367.693 90.9691C359.497 90.3303 352.361 96.534 351.868 104.743C351.455 111.575 349.837 119.197 351.129 122.688C354.346 131.393 361.597 130.074 361.597 130.074C361.597 130.074 359.022 134.289 358.8 137.227C358.357 143.143 362.886 148.26 368.81 148.532C374.619 148.799 379.542 144.302 379.803 138.492L381.248 106.3C381.604 98.3678 375.606 91.5851 367.693 90.9691Z" fill="#AD8274"/>
<path d="M360.653 131.791C360.653 131.791 364.251 132.218 369.617 128.846C369.617 128.846 367.404 135.305 359.432 134.586L360.653 131.791Z" fill="#AA6550"/>
<path d="M380.511 109.046C380.648 108.987 386 107.421 385.825 112.885C385.65 118.347 380.204 117.045 380.199 116.888C380.195 116.731 380.511 109.046 380.511 109.046Z" fill="#B78876"/>
<path d="M381.934 114.871C381.957 114.854 382.027 114.94 382.186 115.02C382.341 115.096 382.608 115.154 382.897 115.057C383.48 114.863 383.995 113.963 384.053 112.978C384.083 112.482 383.994 112.005 383.831 111.608C383.678 111.202 383.427 110.915 383.14 110.854C382.853 110.779 382.641 110.945 382.569 111.097C382.491 111.248 382.522 111.358 382.493 111.366C382.476 111.38 382.379 111.271 382.429 111.047C382.457 110.939 382.525 110.812 382.656 110.711C382.79 110.609 382.984 110.561 383.186 110.589C383.607 110.632 383.973 111.032 384.153 111.468C384.356 111.907 384.468 112.443 384.435 113.001C384.364 114.101 383.769 115.113 382.971 115.316C382.584 115.403 382.267 115.277 382.106 115.144C381.94 115.004 381.915 114.88 381.934 114.871Z" fill="#AA6550"/>
<path d="M353.927 107.59C354.067 107.739 354.933 107.1 356.159 107.102C357.385 107.088 358.287 107.72 358.419 107.57C358.485 107.503 358.341 107.235 357.948 106.949C357.563 106.664 356.904 106.388 356.14 106.391C355.374 106.395 354.733 106.677 354.362 106.965C353.984 107.255 353.856 107.524 353.927 107.59Z" fill="#263238"/>
<path d="M365.994 107.819C366.134 107.968 367 107.328 368.226 107.331C369.452 107.317 370.354 107.949 370.486 107.798C370.552 107.732 370.411 107.464 370.016 107.177C369.631 106.893 368.971 106.616 368.207 106.619C367.441 106.624 366.8 106.905 366.429 107.193C366.052 107.483 365.924 107.752 365.994 107.819Z" fill="#263238"/>
<path d="M361.538 116.925C361.544 116.855 360.779 116.723 359.545 116.565C359.23 116.532 358.934 116.471 358.881 116.256C358.807 116.03 358.939 115.692 359.091 115.327C359.387 114.568 359.695 113.773 360.019 112.94C361.306 109.54 362.238 106.744 362.101 106.694C361.963 106.643 360.809 109.357 359.52 112.757C359.211 113.595 358.913 114.394 358.632 115.159C358.514 115.515 358.309 115.919 358.469 116.389C358.554 116.624 358.784 116.794 358.985 116.848C359.186 116.909 359.361 116.912 359.516 116.922C360.761 116.989 361.533 116.995 361.538 116.925Z" fill="#263238"/>
<path d="M365.151 117.776C364.951 117.764 364.947 119.097 363.808 120.043C362.67 120.992 361.248 120.842 361.238 121.029C361.219 121.112 361.555 121.288 362.154 121.304C362.743 121.324 363.6 121.135 364.299 120.556C364.995 119.976 365.294 119.202 365.34 118.655C365.391 118.098 365.242 117.768 365.151 117.776Z" fill="#263238"/>
<path d="M365.676 103.006C365.797 103.34 367.023 103.182 368.463 103.356C369.906 103.5 371.068 103.922 371.259 103.622C371.344 103.479 371.142 103.165 370.672 102.842C370.207 102.519 369.465 102.212 368.599 102.117C367.735 102.022 366.943 102.158 366.417 102.372C365.891 102.586 365.623 102.848 365.676 103.006Z" fill="#263238"/>
<path d="M354.378 104.036C354.594 104.315 355.439 104.026 356.455 104.012C357.472 103.962 358.333 104.199 358.531 103.907C358.618 103.766 358.483 103.486 358.107 103.223C357.735 102.959 357.116 102.744 356.417 102.765C355.719 102.788 355.112 103.04 354.758 103.325C354.399 103.612 354.282 103.899 354.378 104.036Z" fill="#263238"/>
<path d="M381.136 108.793C381.205 109.629 381.177 110.595 380.998 111.415C380.821 112.235 380.355 113.035 379.605 113.41C378.233 114.095 376.509 113.045 375.896 111.64C375.28 110.235 375.451 108.629 375.592 107.101C375.784 105.019 375.899 102.903 375.498 100.85C375.098 98.7976 372.189 99.3529 371.277 99.5093C364.576 100.659 365.763 101.34 362.965 100.615C361.785 100.309 359.878 98.6971 358.799 99.4022C357.827 100.037 353.422 102.265 352.275 102.086C351.128 101.907 351.85 97.1732 353.909 96.0739C355.027 95.4777 357.983 93.1028 358.964 92.3029C359.946 91.5021 361.21 91.142 362.454 90.905C365.905 90.2483 369.555 90.4132 372.819 91.7125C376.082 93.0109 378.967 95.4787 380.34 98.7113C381.93 102.451 381.722 104.734 381.264 108.792" fill="#263238"/>
<path d="M269.871 150.639L281.521 152.986L297.543 163.194L292.079 173.598C292.079 173.598 286.446 172.026 284.801 170.572C283.155 169.118 281.335 168.955 281.335 168.955C281.335 168.955 281.446 171.53 279.495 171.086C277.545 170.64 274.291 170.087 274.843 167.341C274.843 167.341 273.393 166.947 273.474 165.025C273.474 165.025 271.865 164.905 272.301 162.238C272.736 159.571 274.662 156.13 279.975 157.097C280.251 157.154 280.617 156.627 280.135 156.446L271.92 154.508C271.92 154.508 266.776 152.475 269.871 150.639Z" fill="#AD8274"/>
<path d="M275.621 162.113C275.643 162.049 276.388 162.235 277.573 162.589C278.168 162.789 278.859 162.928 279.663 163.298C280.051 163.5 280.462 163.845 280.606 164.378C280.757 164.931 280.467 165.514 280.048 165.841C279.145 166.522 278.065 166.312 277.301 166.2C276.487 166.08 275.757 165.928 275.155 165.758C273.95 165.419 273.262 165.058 273.285 165.002C273.311 164.931 274.038 165.173 275.236 165.419C275.836 165.542 276.555 165.656 277.361 165.749C277.769 165.789 278.191 165.863 278.595 165.836C278.999 165.81 279.433 165.703 279.737 165.456C280.051 165.206 280.225 164.826 280.138 164.497C280.053 164.155 279.767 163.873 279.446 163.697C278.774 163.359 278.021 163.152 277.46 162.92C276.304 162.48 275.599 162.178 275.621 162.113Z" fill="#AA6550"/>
<path d="M278.465 160.608C278.451 160.748 277.754 160.766 277.073 161.208C276.381 161.631 276.064 162.252 275.931 162.205C275.796 162.189 275.958 161.322 276.811 160.791C277.658 160.251 278.51 160.479 278.465 160.608Z" fill="#AA6550"/>
<path d="M279.694 165.716C279.716 165.695 279.817 165.729 279.963 165.873C280.141 166.021 280.174 166.374 280.215 166.665C280.274 167.022 280.218 167.507 279.881 167.91C279.541 168.35 278.871 168.44 278.368 168.353C277.365 168.2 276.462 168.054 275.816 167.838C275.174 167.63 274.818 167.4 274.843 167.342C274.871 167.275 275.264 167.385 275.902 167.5C276.534 167.62 277.442 167.712 278.43 167.863C278.906 167.931 279.306 167.873 279.541 167.607C279.789 167.348 279.878 166.988 279.868 166.697C279.863 166.337 279.897 166.127 279.807 165.985C279.73 165.833 279.667 165.74 279.694 165.716Z" fill="#AA6550"/>
<path d="M279.605 167.857C279.596 167.798 279.818 167.695 280.174 167.797C280.526 167.894 280.923 168.208 281.217 168.629C281.567 169.151 281.445 169.699 281.342 170C281.224 170.32 281.086 170.478 281.026 170.455C280.959 170.431 280.98 170.228 281 169.928C281.019 169.633 281.027 169.216 280.814 168.914C280.554 168.545 280.271 168.263 280.034 168.117C279.801 167.966 279.609 167.931 279.605 167.857Z" fill="#AA6550"/>
<path d="M288.562 161.831L282.936 161.598L277.031 162.75C277.031 162.75 276.545 163.823 279.279 164.554C282.013 165.284 284.541 164.803 284.541 164.803C284.541 164.803 286.976 168.356 290.143 169.175" fill="#AD8274"/>
<path d="M290.144 169.173C290.137 169.196 289.959 169.164 289.622 169.081C289.292 168.985 288.814 168.808 288.252 168.494C287.121 167.873 285.68 166.694 284.362 164.926L284.582 165.016C282.676 165.311 280.377 165.311 278.111 164.408C277.783 164.26 277.456 164.089 277.178 163.819C276.916 163.553 276.639 163.162 276.809 162.648L276.847 162.536L276.986 162.509C279.159 162.103 281.165 161.726 282.899 161.401L282.923 161.396L282.945 161.397C284.654 161.491 286.059 161.578 287.036 161.653C288.014 161.728 288.563 161.789 288.562 161.83C288.559 161.87 288.006 161.886 287.027 161.88C286.047 161.873 284.638 161.845 282.928 161.796L282.974 161.793C281.246 162.143 279.246 162.549 277.078 162.989L277.255 162.849C277.202 162.989 277.308 163.279 277.521 163.465C277.728 163.669 278.016 163.825 278.313 163.958C280.412 164.803 282.695 164.837 284.501 164.589L284.642 164.569L284.721 164.679C285.955 166.403 287.329 167.614 288.383 168.273C289.44 168.952 290.165 169.107 290.144 169.173Z" fill="#AA6550"/>
<path d="M281.699 158.536C281.626 158.647 281.086 158.402 280.678 157.823C280.266 157.246 280.214 156.654 280.343 156.623C280.478 156.583 280.721 157.039 281.08 157.537C281.433 158.041 281.78 158.422 281.699 158.536Z" fill="#AA6550"/>
<path d="M343.424 232.455C353.096 236.633 364.412 237.877 377.186 236.522L386.541 141.222L379.909 136.128L364.624 147.491L359.388 136.541L347.117 154.174L343.424 232.455Z" fill="#F5F5F5"/>
<path d="M359.482 237.045C359.473 237.047 359.456 236.97 359.428 236.821C359.401 236.64 359.366 236.418 359.323 236.148C359.234 235.513 359.113 234.646 358.96 233.55C358.866 232.416 358.794 231.024 358.692 229.411C358.609 227.796 358.614 225.955 358.568 223.92C358.511 215.782 359.057 204.551 359.963 192.178C360.87 179.799 361.99 168.619 362.893 160.537C363.34 156.496 363.751 153.232 364.061 150.979C364.207 149.851 364.353 148.979 364.448 148.389C364.497 148.118 364.535 147.898 364.565 147.718C364.595 147.567 364.616 147.49 364.624 147.491C364.633 147.493 364.63 147.572 364.617 147.724C364.597 147.906 364.576 148.129 364.548 148.403C364.476 149.037 364.377 149.905 364.252 151.002C364.008 153.305 363.664 156.565 363.241 160.574C362.427 168.662 361.362 179.842 360.455 192.214C359.55 204.58 358.951 215.797 358.919 223.92C358.942 225.95 358.912 227.789 358.97 229.401C359.041 231 359.104 232.383 359.154 233.532C359.267 234.629 359.356 235.497 359.423 236.132C359.445 236.406 359.464 236.629 359.48 236.811C359.489 236.965 359.491 237.043 359.482 237.045Z" fill="#263238"/>
<path d="M372.347 251.085C372.347 251.085 365.222 176.59 369.643 168.267C373.064 161.824 378.357 148.368 380.572 142.619C381.233 140.901 381.184 138.99 380.434 137.308L379.907 136.129L386.539 141.223L400.158 148.544L391.939 211.657L401.246 243.677L372.347 251.085Z" fill="#9B9A9A"/>
<path d="M370.513 229.516C376.303 228.307 373.804 231.67 379.656 230.817C382.819 230.358 382.979 228.507 385.583 226.653C388.186 224.798 392.132 223.252 395.327 223.316L394.03 218.854L369.812 219.756L370.513 229.516Z" fill="black"/>
<path d="M337.147 152.144L339.504 211.656L334.731 244.966L346.66 249.375L351.876 157.331C351.935 153.909 352.701 150.537 354.126 147.426L358.8 137.226L342.974 142.617L337.147 152.144Z" fill="#9B9A9A"/>
<path d="M400.159 148.544C400.159 148.544 407.63 155.012 409.31 163.697C410.536 170.035 414.142 192.275 415.144 203.694C415.768 210.79 410.788 217.194 403.743 218.233C403.638 218.25 403.53 218.263 403.421 218.279C392.587 219.759 374.403 217.713 374.403 217.713L377.575 203.874C377.575 203.874 393.66 201.55 396.548 199.607L392.713 173.936C392.713 173.936 395.862 149.283 400.159 148.544Z" fill="#9B9A9A"/>
<path d="M298.591 161.198L324.928 177.888C324.928 177.888 334.414 150.011 340.508 143.456L347.844 140.959L341.154 194.45C340.651 197.474 338.894 200.146 336.317 201.806C332.368 204.35 327.232 204.069 323.585 201.109L291.359 174.969L298.591 161.198Z" fill="#9B9A9A"/>
<path d="M401.357 208.285C401.275 208.276 401.317 207.675 401.197 206.733C401.082 205.791 400.743 204.508 400.03 203.252C399.31 201.999 398.377 201.055 397.626 200.477C396.876 199.894 396.337 199.624 396.371 199.55C396.391 199.5 396.99 199.657 397.828 200.191C398.665 200.72 399.699 201.682 400.458 203.007C401.212 204.335 401.515 205.714 401.544 206.703C401.578 207.696 401.41 208.294 401.357 208.285Z" fill="#263238"/>
<path d="M398.533 210.114C398.376 210.089 399.094 207.575 398.464 204.521C397.88 201.455 396.258 199.406 396.393 199.323C396.437 199.286 396.901 199.742 397.461 200.628C398.022 201.51 398.631 202.849 398.946 204.425C399.257 206.001 399.203 207.471 399.023 208.499C398.843 209.531 398.587 210.131 398.533 210.114Z" fill="#263238"/>
<path d="M398.322 151.15C398.389 151.236 396.992 152.028 395.448 154.01C393.891 155.959 392.386 159.194 391.934 162.995C391.484 166.802 391.936 170.292 392.282 172.784C392.458 173.951 392.608 174.941 392.728 175.743C392.832 176.443 392.877 176.833 392.844 176.839C392.81 176.846 392.701 176.468 392.539 175.78C392.377 175.09 392.162 174.087 391.937 172.839C391.503 170.352 390.987 166.826 391.443 162.935C391.906 159.043 393.511 155.733 395.176 153.791C396 152.81 396.788 152.126 397.372 151.718C397.954 151.306 398.308 151.128 398.322 151.15Z" fill="#263238"/>
<path d="M396.75 199.387C397.994 200.847 398.591 202.782 398.671 204.699C398.751 206.615 398.342 208.524 397.755 210.349C397.645 210.688 397.537 211.081 397.728 211.38C397.976 211.763 398.588 211.724 398.928 211.422C399.266 211.118 399.402 210.655 399.523 210.216C399.295 210.472 399.623 210.908 399.967 210.886C400.308 210.864 400.567 210.574 400.753 210.285C401.81 208.64 401.722 206.455 400.975 204.647C400.23 202.838 398.908 201.334 397.562 199.915" fill="black"/>
<path d="M330.302 188.321C330.201 188.396 328.568 186.276 327.079 183.346C325.578 180.42 324.819 177.855 324.94 177.817C325.077 177.767 326.035 180.23 327.518 183.122C328.989 186.018 330.422 188.239 330.302 188.321Z" fill="#263238"/>
<path d="M326.609 190.329C326.546 190.347 326.281 189.67 325.949 188.547C325.615 187.424 325.221 185.852 324.898 184.093C324.576 182.333 324.384 180.724 324.298 179.556C324.209 178.388 324.215 177.662 324.281 177.656C324.423 177.645 324.736 180.513 325.384 184.004C326.021 187.495 326.747 190.289 326.609 190.329Z" fill="#263238"/>
<path d="M339.505 159.631C339.642 159.631 339.752 171.278 339.752 185.643C339.752 200.012 339.642 211.656 339.505 211.656C339.368 211.656 339.258 200.012 339.258 185.643C339.258 171.278 339.368 159.631 339.505 159.631Z" fill="#263238"/>
<path d="M355.544 138.336C355.557 138.346 355.446 138.504 355.23 138.796C354.983 139.132 354.671 139.558 354.286 140.084C353.482 141.215 352.334 142.869 351.101 145.033C349.889 147.194 348.468 149.862 347.726 153.067C347.431 154.656 347.242 156.429 346.976 158.226C346.19 160.121 348.055 161.354 349.574 162.383L349.956 162.64L349.532 162.82C349.03 163.033 348.499 163.42 347.991 163.805C347.312 164.333 346.66 164.896 346.069 165.437L346.146 165.238C346.443 169.004 347.091 172.561 347.516 175.783C347.969 178.99 348.375 181.872 348.718 184.305C349.035 186.675 349.292 188.606 349.481 190.009C349.555 190.64 349.616 191.152 349.663 191.554C349.7 191.908 349.712 192.094 349.694 192.097C349.679 192.099 349.637 191.917 349.568 191.569C349.498 191.169 349.409 190.662 349.298 190.035C349.076 188.638 348.766 186.715 348.386 184.355C348.013 181.926 347.572 179.049 347.079 175.848C346.627 172.622 345.964 169.096 345.655 165.276L345.646 165.157L345.734 165.077C346.337 164.523 346.992 163.956 347.69 163.415C348.22 163.017 348.738 162.623 349.353 162.361L349.31 162.798C348.487 162.264 347.691 161.692 347.04 160.945C346.73 160.567 346.425 160.138 346.355 159.588C346.327 159.461 346.349 159.3 346.357 159.179L346.404 158.838L346.502 158.162C346.777 156.363 346.968 154.65 347.29 152.972C347.665 151.323 348.26 149.84 348.88 148.493C349.503 147.148 350.163 145.937 350.809 144.863C352.09 142.706 353.285 141.074 354.138 139.973C354.567 139.424 354.91 139.007 355.156 138.736C355.398 138.463 355.531 138.325 355.544 138.336Z" fill="#9B9A9A"/>
<path d="M384.742 140.082C384.759 140.078 384.801 140.215 384.872 140.479C384.95 140.743 385.027 141.139 385.106 141.653C385.26 142.683 385.314 144.203 385.091 146.054C384.868 147.903 384.355 150.063 383.668 152.412C383.023 154.77 382.125 157.336 380.965 159.914C379.933 162.242 378.832 164.413 377.822 166.405L377.772 166.505L377.663 166.527C376.876 166.686 376.114 166.839 375.378 166.988L375.5 166.632C376.016 167.243 376.507 167.825 376.976 168.383L377.071 168.495L376.995 168.617C375.649 170.779 374.525 172.586 373.687 173.932C373.31 174.514 372.997 174.996 372.744 175.388C372.521 175.72 372.394 175.89 372.376 175.879C372.358 175.869 372.45 175.677 372.641 175.326C372.869 174.919 373.151 174.418 373.49 173.812C374.29 172.445 375.365 170.607 376.651 168.409L376.67 168.644C376.194 168.095 375.693 167.518 375.169 166.916L374.928 166.638L375.291 166.56C376.024 166.404 376.785 166.243 377.57 166.075L377.411 166.198C378.401 164.197 379.489 162.026 380.515 159.714C381.669 157.147 382.562 154.633 383.232 152.284C383.939 149.95 384.48 147.824 384.747 146.006C385.007 144.189 385.007 142.698 384.915 141.675C384.827 140.651 384.692 140.093 384.742 140.082Z" fill="#263238"/>
<path d="M329.166 187.885C327.989 184.527 326.369 181.142 324.927 177.887L323.733 177.13C322.758 180.114 323.132 183.381 324.182 186.34C324.278 186.606 324.409 186.901 324.678 186.994C325.028 187.115 325.404 186.785 325.477 186.421C325.55 186.056 325.413 185.687 325.276 185.34C326.051 186.721 326.94 188.037 327.934 189.27C328.088 189.462 328.265 189.663 328.504 189.718C328.894 189.807 329.271 189.447 329.35 189.055C329.429 188.664 329.298 188.263 329.166 187.885Z" fill="black"/>
<path d="M349.072 190.726C346.8 184.295 344.512 177.806 343.612 171.045C343.414 169.552 343.287 168.013 343.674 166.559C344.061 165.103 345.052 163.731 346.481 163.26C345.675 162.389 345.657 160.903 346.443 160.013C347.366 160.995 348.29 161.978 349.214 162.96C347.777 162.94 346.571 164.186 346.154 165.562C345.735 166.936 345.922 168.413 346.113 169.838C347.057 176.88 348.002 183.922 348.947 190.964" fill="black"/>
<path d="M379.308 168.163C380.684 163.345 382.06 158.527 383.436 153.709C382.28 156.472 381.123 159.235 379.966 161.998C379.481 163.156 378.981 164.336 378.148 165.275C377.315 166.213 376.073 166.881 374.83 166.701C375.549 167.19 376.269 167.68 376.986 168.17C375.44 170.659 373.922 173.391 372.375 175.881L375.698 176.16C376.96 174.155 378.083 172.373 379.344 170.368C378.973 169.703 378.603 169.037 378.231 168.372C378.59 168.302 378.95 168.233 379.308 168.163Z" fill="black"/>
<path d="M358.8 137.227L358.977 134.915L363.258 140.959L364.623 147.492L368.124 140.959L380.199 133.939V140.083L377.891 146.051L373.392 149.526L368.239 151.785L362.112 150.639L358.41 148.544L357.587 144.211L358.8 137.227Z" fill="#F5F5F5"/>
<path d="M362.957 140.871C363.024 140.901 362.704 141.712 362.33 143.074C361.968 144.429 361.516 146.368 361.617 148.531L361.661 149.464L361.166 148.68C361.07 148.529 360.968 148.367 360.866 148.203C359.658 146.14 359.095 144.081 358.481 142.696C357.905 141.291 357.402 140.491 357.467 140.449C357.514 140.412 358.128 141.158 358.799 142.552C359.502 143.927 360.126 145.972 361.287 147.949C361.387 148.106 361.484 148.262 361.577 148.408L361.125 148.558C361.031 146.291 361.555 144.327 362.008 142.974C362.473 141.615 362.905 140.847 362.957 140.871Z" fill="#263238"/>
<path d="M380.2 137.934C380.217 137.934 380.226 138.018 380.231 138.182C380.248 138.348 380.214 138.587 380.158 138.896C380.021 139.507 379.611 140.346 378.876 141.184C378.148 142.028 377.123 142.869 375.92 143.684C374.692 144.456 373.459 145.403 372.158 146.451C370.993 147.375 369.874 148.268 368.75 148.962L368.306 149.234L368.4 148.721C368.596 147.636 368.54 146.561 368.502 145.622C368.452 144.678 368.373 143.846 368.303 143.156C368.164 141.778 368.067 140.968 368.123 140.959C368.173 140.95 368.366 141.744 368.586 143.12C368.694 143.808 368.81 144.642 368.891 145.596C368.958 146.551 369.045 147.625 368.853 148.81L368.504 148.57C369.583 147.883 370.687 146.989 371.849 146.065C373.139 145.024 374.436 144.048 375.667 143.306C376.865 142.524 377.884 141.732 378.617 140.95C379.353 140.173 379.784 139.409 379.971 138.843C380.15 138.275 380.149 137.933 380.2 137.934Z" fill="#263238"/>
<path d="M394.801 218.81C394.801 218.824 394.668 218.839 394.415 218.862C394.117 218.881 393.747 218.905 393.291 218.932C392.31 218.984 390.874 219.032 389.063 219.066C387.251 219.096 385.065 219.11 382.577 219.082C381.332 219.068 380.014 219.044 378.63 219C377.936 218.97 377.227 218.94 376.503 218.91C376.141 218.883 375.774 218.857 375.403 218.832L374.842 218.773C374.744 218.757 374.652 218.751 374.55 218.727C374.494 218.713 374.456 218.713 374.39 218.69L374.296 218.658C374.281 218.672 374.118 218.537 374.109 218.445L374.104 218.391L374.113 218.358C374.939 214.617 375.847 210.516 376.799 206.215C376.978 205.407 377.158 204.607 377.332 203.82L377.369 203.654L377.537 203.63C384.945 202.543 391.698 201.432 396.474 199.438L396.365 199.633C395.905 196.318 395.527 193.61 395.257 191.671C395.143 190.768 395.052 190.046 394.983 189.498C394.926 189.001 394.904 188.737 394.923 188.735C394.941 188.733 394.998 188.99 395.089 189.483C395.182 190.026 395.306 190.745 395.46 191.641C395.769 193.574 396.201 196.273 396.729 199.579L396.752 199.717L396.62 199.775C391.794 201.864 385.026 203.018 377.609 204.117L377.814 203.927C377.639 204.713 377.46 205.515 377.281 206.322C376.316 210.62 375.397 214.719 374.559 218.458L374.357 218.404C380.282 218.673 385.46 218.783 389.061 218.786C390.829 218.785 392.25 218.785 393.287 218.784C393.742 218.785 394.113 218.785 394.412 218.785C394.667 218.789 394.8 218.797 394.801 218.81Z" fill="#263238"/>
<path d="M397.839 181.841L389.643 201.731L377.574 203.874L374.337 218.407L382.309 218.869L382.25 219.402L350.969 220.292L364.204 181.841H397.839Z" fill="#353535"/>
<path d="M359.793 175.251L364.203 181.839L350.97 220.292L346.661 212.918L359.793 175.251Z" fill="#353535"/>
<path d="M397.839 181.84L393.007 177.147L359.793 175.251L364.204 181.84H397.839Z" fill="#EBEBEB"/>
<path d="M364.204 181.84C364.333 181.885 361.473 190.529 357.821 201.146C354.164 211.766 351.097 220.337 350.968 220.293C350.841 220.248 353.698 211.606 357.353 200.985C361.008 190.368 364.075 181.795 364.204 181.84Z" fill="#263238"/>
<path d="M377.126 204.97L371.396 204.476C371.396 204.476 369.175 200.792 367.717 199.507C366.259 198.222 358.724 194.615 358.724 194.615C358.724 194.615 357.622 195.934 358.724 197.26C359.219 197.855 362.782 199.86 362.782 199.86C363.206 201.328 361.939 202.728 360.438 202.452C358.231 202.047 355.661 201.589 355.32 201.589C354.945 201.589 352.74 199.504 351.123 197.922C350.152 196.973 348.423 197.88 348.808 199.181C348.847 199.316 348.911 199.428 349.001 199.507C349.001 199.507 346.677 199.425 348.751 202.551C348.751 202.551 348.272 205.437 349.974 206.759C349.974 206.759 350.707 210.247 351.802 211.449C352.896 212.651 363.583 214.936 363.583 214.936L374.716 216.016L377.126 204.97Z" fill="#B78876"/>
<path d="M359.482 205.763C359.477 205.826 358.752 205.868 357.569 205.809C356.404 205.733 354.703 205.571 353.076 204.628C351.459 203.654 350.538 202.197 349.946 201.193C349.36 200.164 349.077 199.493 349.131 199.462C349.194 199.425 349.589 200.04 350.242 201.007C350.899 201.954 351.838 203.311 353.328 204.204C354.829 205.079 356.46 205.3 357.603 205.462C358.759 205.608 359.487 205.69 359.482 205.763Z" fill="#AA6550"/>
<path d="M358.38 208.24C358.393 208.305 357.719 208.454 356.634 208.377C356.094 208.341 355.452 208.26 354.751 208.103C354.058 207.928 353.264 207.736 352.548 207.204C351.864 206.68 351.363 206.066 350.909 205.519C350.503 205.013 350.112 204.526 349.735 204.055C349.074 203.213 348.689 202.671 348.741 202.627C348.794 202.583 349.272 203.045 349.999 203.829C350.362 204.218 350.795 204.693 351.256 205.226C351.722 205.751 352.228 206.339 352.844 206.809C353.445 207.262 354.199 207.472 354.859 207.661C355.531 207.836 356.15 207.951 356.672 208.03C357.718 208.193 358.37 208.17 358.38 208.24Z" fill="#AA6550"/>
<path d="M356.879 210.993C356.846 211.191 354.934 210.789 352.677 210.158C352.302 210.074 352.069 209.835 351.849 209.656C351.633 209.463 351.442 209.263 351.27 209.066C350.924 208.671 350.649 208.288 350.443 207.949C350.028 207.27 349.913 206.78 349.974 206.759C350.041 206.732 350.263 207.151 350.731 207.751C350.965 208.052 351.256 208.398 351.605 208.757C351.777 208.937 351.966 209.12 352.168 209.292C352.376 209.457 352.583 209.645 352.798 209.678C353.952 209.989 354.963 210.313 355.701 210.551C356.437 210.797 356.879 210.939 356.879 210.993Z" fill="#AA6550"/>
</g>
<defs>
<clipPath id="clip0">
<rect width="559" height="435" fill="white"/>
</clipPath>
</defs>
</svg>
