<?xml version="1.0" encoding="iso-8859-1"?>
<!-- Generator: Adobe Illustrator 19.0.0, SVG Export Plug-In . SVG Version: 6.00 Build 0)  -->
<svg version="1.1" id="Capa_1" xmlns="http://www.w3.org/2000/svg" xmlns:xlink="http://www.w3.org/1999/xlink" x="0px" y="0px"
	 viewBox="0 0 480 480" style="enable-background:new 0 0 480 480;" xml:space="preserve">
<g>
	<g>
		<path d="M376,64h96c4.424,0,8-3.576,8-8V8c0-4.424-3.576-8-8-8h-96c-4.424,0-8,3.576-8,8v16h-40c-4.424,0-8,3.576-8,8v72h-24V88
			c0-4.424-3.576-8-8-8h-96c-4.424,0-8,3.576-8,8v16h-40c-4.424,0-8,3.576-8,8v120h-24v-16c0-4.424-3.576-8-8-8H8
			c-4.424,0-8,3.576-8,8v48c0,4.424,3.576,8,8,8h96c4.424,0,8-3.576,8-8v-16h24v40v120c0,4.424,3.576,8,8,8h40v16
			c0,4.424,3.576,8,8,8h96c4.424,0,8-3.576,8-8v-16h32v32c0,4.424,3.576,8,8,8h32v16c0,4.424,3.576,8,8,8h96c4.424,0,8-3.576,8-8
			v-48c0-4.424-3.576-8-8-8h-96c-4.424,0-8,3.576-8,8v16h-24v-32v-32h24v16c0,4.424,3.576,8,8,8h96c4.424,0,8-3.576,8-8v-48
			c0-4.424-3.576-8-8-8h-96c-4.424,0-8,3.576-8,8v16h-32c-4.424,0-8,3.576-8,8v32h-32v-16c0-4.424-3.576-8-8-8h-96
			c-4.424,0-8,3.576-8,8v16h-32V296h32v16c0,4.424,3.576,8,8,8h96c4.424,0,8-3.576,8-8v-16h72v16c0,4.424,3.576,8,8,8h96
			c4.424,0,8-3.576,8-8v-48c0-4.424-3.576-8-8-8h-96c-4.424,0-8,3.576-8,8v16h-72v-16c0-4.424-3.576-8-8-8h-96c-4.424,0-8,3.576-8,8
			v16h-32v-40V120h32v16c0,4.424,3.576,8,8,8h96c4.424,0,8-3.576,8-8v-16h24v72c0,4.424,3.576,8,8,8h40v16c0,4.424,3.576,8,8,8h96
			c4.424,0,8-3.576,8-8v-48c0-4.424-3.576-8-8-8h-96c-4.424,0-8,3.576-8,8v16h-32v-64h32v16c0,4.424,3.576,8,8,8h96
			c4.424,0,8-3.576,8-8V88c0-4.424-3.576-8-8-8h-96c-4.424,0-8,3.576-8,8v16h-32V40h32v16C368,60.424,371.576,64,376,64z M384,16h80
			v32h-80V16z M96,256H16v-32h80V256z M384,432h80v32h-80V432z M384,352h80v32h-80V352z M200,392h80v32h-80V392z M384,272h80v32h-80
			V272z M200,272h80v32h-80V272z M280,128h-80V96h80V128z M384,176h80v32h-80V176z M384,96h80v32h-80V96z"/>
	</g>
</g>
<g>
	<g>
		<rect x="48" y="160" width="16" height="16"/>
	</g>
</g>
<g>
	<g>
		<rect x="48" y="128" width="16" height="16"/>
	</g>
</g>
<g>
	<g>
		<rect x="16" y="128" width="16" height="16"/>
	</g>
</g>
<g>
	<g>
		<rect x="80" y="128" width="16" height="16"/>
	</g>
</g>
<g>
	<g>
		<rect x="48" y="304" width="16" height="16"/>
	</g>
</g>
<g>
	<g>
		<rect x="48" y="336" width="16" height="16"/>
	</g>
</g>
<g>
	<g>
		<rect x="80" y="336" width="16" height="16"/>
	</g>
</g>
<g>
	<g>
		<rect x="16" y="336" width="16" height="16"/>
	</g>
</g>
<g>
</g>
<g>
</g>
<g>
</g>
<g>
</g>
<g>
</g>
<g>
</g>
<g>
</g>
<g>
</g>
<g>
</g>
<g>
</g>
<g>
</g>
<g>
</g>
<g>
</g>
<g>
</g>
<g>
</g>
</svg>
