<svg width="25" height="22" viewBox="0 0 25 22" fill="none" xmlns="http://www.w3.org/2000/svg">
<mask id="path-1-inside-1" fill="white">
<path fill-rule="evenodd" clip-rule="evenodd" d="M4.08462 15.7687C3.38953 14.3261 3 12.7085 3 11C3 4.92487 7.92487 0 14 0C20.0751 0 25 4.92487 25 11C25 17.0751 20.0751 22 14 22C12.2668 22 10.6273 21.5992 9.16897 20.8851L0.25 22L4.08462 15.7687Z"/>
</mask>
<path d="M4.08462 15.7687L4.9855 15.3347L5.22281 15.8272L4.93628 16.2928L4.08462 15.7687ZM9.16897 20.8851L9.04494 19.8929L9.34087 19.8559L9.60872 19.987L9.16897 20.8851ZM0.25 22L0.374035 22.9923L-1.69388 23.2508L-0.601658 21.4759L0.25 22ZM4 11C4 12.555 4.35424 14.0245 4.9855 15.3347L3.18374 16.2028C2.42481 14.6277 2 12.8621 2 11H4ZM14 1C8.47715 1 4 5.47715 4 11H2C2 4.37258 7.37258 -1 14 -1V1ZM24 11C24 5.47715 19.5228 1 14 1V-1C20.6274 -1 26 4.37258 26 11H24ZM14 21C19.5228 21 24 16.5228 24 11H26C26 17.6274 20.6274 23 14 23V21ZM9.60872 19.987C10.9331 20.6355 12.4226 21 14 21V23C12.1111 23 10.3214 22.5628 8.72922 21.7832L9.60872 19.987ZM9.293 21.8774L0.374035 22.9923L0.125965 21.0077L9.04494 19.8929L9.293 21.8774ZM-0.601658 21.4759L3.23296 15.2446L4.93628 16.2928L1.10166 22.5241L-0.601658 21.4759Z" fill="#fff" mask="url(#path-1-inside-1)"/>
</svg>
