<svg width="22" height="22" viewBox="0 0 22 22" fill="none" xmlns="http://www.w3.org/2000/svg">
<rect x="0.5" y="5.13159" width="21" height="16.3684" rx="1.5" stroke="white"/>
<rect x="4.63135" width="1.15789" height="3.47368" rx="0.578947" fill="white"/>
<rect x="16.2104" width="1.15789" height="3.47368" rx="0.578947" fill="white"/>
<path d="M18.624 9.388V17H17.623V11.324L15.093 17H14.389L11.848 11.313V17H10.847V9.388H11.925L14.741 15.68L17.557 9.388H18.624Z" fill="white"/>
<path d="M5.64645 16.3535C5.84171 16.5488 6.15829 16.5488 6.35355 16.3535L9.53553 13.1715C9.7308 12.9762 9.7308 12.6597 9.53553 12.4644C9.34027 12.2691 9.02369 12.2691 8.82843 12.4644L6 15.2928L3.17157 12.4644C2.97631 12.2691 2.65973 12.2691 2.46447 12.4644C2.2692 12.6597 2.2692 12.9762 2.46447 13.1715L5.64645 16.3535ZM5.5 10.3608L5.5 15.9999L6.5 15.9999L6.5 10.3608L5.5 10.3608Z" fill="white"/>
</svg>
