<svg width="22" height="22" viewBox="0 0 22 22" fill="none" xmlns="http://www.w3.org/2000/svg">
<rect x="0.5" y="5.13159" width="21" height="16.3684" rx="1.5" stroke="white"/>
<rect x="4.63159" width="1.15789" height="3.47368" rx="0.578947" fill="white"/>
<rect x="16.2104" width="1.15789" height="3.47368" rx="0.578947" fill="white"/>
<path d="M14.234 9.333C15.07 9.333 15.7923 9.49067 16.401 9.806C17.017 10.114 17.4863 10.5577 17.809 11.137C18.139 11.7163 18.304 12.3983 18.304 13.183C18.304 13.9677 18.139 14.6497 17.809 15.229C17.4863 15.801 17.017 16.241 16.401 16.549C15.7923 16.8497 15.07 17 14.234 17H11.847V9.333H14.234ZM14.234 16.175C15.224 16.175 15.9793 15.9147 16.5 15.394C17.0207 14.866 17.281 14.129 17.281 13.183C17.281 12.2297 17.017 11.4853 16.489 10.95C15.9683 10.4147 15.2167 10.147 14.234 10.147H12.848V16.175H14.234Z" fill="white"/>
<path d="M6.64645 16.3535C6.84171 16.5488 7.15829 16.5488 7.35355 16.3535L10.5355 13.1715C10.7308 12.9762 10.7308 12.6597 10.5355 12.4644C10.3403 12.2691 10.0237 12.2691 9.82843 12.4644L7 15.2928L4.17157 12.4644C3.97631 12.2691 3.65973 12.2691 3.46447 12.4644C3.2692 12.6597 3.2692 12.9762 3.46447 13.1715L6.64645 16.3535ZM6.5 10.3608L6.5 15.9999L7.5 15.9999L7.5 10.3608L6.5 10.3608Z" fill="white"/>
</svg>
