<svg width="22" height="22" viewBox="0 0 22 22" fill="none" xmlns="http://www.w3.org/2000/svg">
<rect x="0.5" y="5.13159" width="21" height="16.3684" rx="1.5" stroke="white"/>
<rect x="4.63135" width="1.15789" height="3.47368" rx="0.578947" fill="white"/>
<rect x="16.2104" width="1.15789" height="3.47368" rx="0.578947" fill="white"/>
<path d="M18.78 8.636L16.056 13.844V17H14.964V13.844L12.228 8.636H13.44L15.504 12.872L17.568 8.636H18.78Z" fill="white"/>
<path d="M6.64645 16.3535C6.84171 16.5488 7.15829 16.5488 7.35355 16.3535L10.5355 13.1715C10.7308 12.9762 10.7308 12.6597 10.5355 12.4644C10.3403 12.2691 10.0237 12.2691 9.82843 12.4644L7 15.2928L4.17157 12.4644C3.97631 12.2691 3.65973 12.2691 3.46447 12.4644C3.2692 12.6597 3.2692 12.9762 3.46447 13.1715L6.64645 16.3535ZM6.5 10.3608L6.5 15.9999L7.5 15.9999L7.5 10.3608L6.5 10.3608Z" fill="white"/>
</svg>
