<svg width="26" height="26" viewBox="0 0 26 26" fill="none" xmlns="http://www.w3.org/2000/svg">
<rect x="0.5" y="5.77368" width="19.538" height="19.538" rx="1.5" fill="#5A5A5A" stroke="#FFF"/>
<rect x="14.0625" y="3" width="9.375" height="9.375" fill="#5A5A5A"/>
<path d="M23.4983 3.25947C23.5208 2.98424 23.3158 2.74294 23.0406 2.72052L18.5555 2.35517C18.2802 2.33275 18.0389 2.53769 18.0165 2.81292C17.9941 3.08815 18.199 3.32945 18.4743 3.35187L22.4611 3.67663L22.1363 7.66342C22.1139 7.93865 22.3188 8.17995 22.594 8.20237C22.8693 8.22479 23.1106 8.01984 23.133 7.74461L23.4983 3.25947ZM13.3237 12.0935L23.3237 3.59996L22.6763 2.83778L12.6763 11.3313L13.3237 12.0935Z" fill="#FFF"/>
</svg>
