<svg width="18" height="20" viewBox="0 0 18 20" fill="none" xmlns="http://www.w3.org/2000/svg">
<rect x="4.30005" y="11.1002" width="9.4" height="5.4" rx="0.5" stroke="white"/>
<rect x="7" y="1.00018" width="0.8" height="2.90133" rx="0.4" fill="white"/>
<rect x="5.35205" y="12.2002" width="3.62667" height="0.8" rx="0.4" fill="white"/>
<path d="M1 18.0002V2.40021C1 1.84792 1.44771 1.40021 2 1.40021H12.0769L17 5.17164V18.0002C17 18.5525 16.5523 19.0002 16 19.0002H2C1.44772 19.0002 1 18.5525 1 18.0002Z" stroke="white"/>
<path d="M5.052 1.50018H11.3053V6.52818C11.3053 6.80433 11.0815 7.02818 10.8053 7.02818H5.552C5.27586 7.02818 5.052 6.80432 5.052 6.52818V1.50018Z" stroke="white"/>
</svg>
