<svg width="13" height="23" viewBox="0 0 13 23" fill="none" xmlns="http://www.w3.org/2000/svg">
<path d="M3.64645 22.6333C3.84171 22.8286 4.15829 22.8286 4.35355 22.6333L7.53553 19.4514C7.7308 19.2561 7.7308 18.9395 7.53553 18.7443C7.34027 18.549 7.02369 18.549 6.82843 18.7443L4 21.5727L1.17157 18.7443C0.97631 18.549 0.659728 18.549 0.464466 18.7443C0.269203 18.9395 0.269203 19.2561 0.464465 19.4514L3.64645 22.6333ZM3.5 7.27979L3.5 22.2798L4.5 22.2798L4.5 7.27979L3.5 7.27979Z" fill="#FFF"/>
<path d="M9.35355 0.646445C9.15829 0.451183 8.84171 0.451183 8.64645 0.646445L5.46447 3.82843C5.2692 4.02369 5.2692 4.34027 5.46447 4.53553C5.65973 4.73079 5.97631 4.73079 6.17157 4.53553L9 1.70711L11.8284 4.53553C12.0237 4.73079 12.3403 4.73079 12.5355 4.53553C12.7308 4.34027 12.7308 4.02369 12.5355 3.82843L9.35355 0.646445ZM9.5 16L9.5 0.999999H8.5L8.5 16H9.5Z" fill="#FFF"/>
</svg>
