<svg width="17" height="23" viewBox="0 0 17 23" fill="none" xmlns="http://www.w3.org/2000/svg">
<path fill-rule="evenodd" clip-rule="evenodd" d="M1.5 4C0.671574 4 0 4.67157 0 5.5V10.4578C0 11.2845 0.668848 11.9553 1.49552 11.9578L6.43696 11.9725C7.26713 11.975 7.94144 11.3027 7.94144 10.4725V8.27547V7.05492H6.94144V8.27547V10.4725C6.94144 10.7493 6.71667 10.9734 6.43994 10.9725L1.49851 10.9578C1.22295 10.957 1 10.7334 1 10.4578V5.5C1 5.25918 1.17026 5.05812 1.39697 5.01063V5H1.5H6.94144H7.94144V4.75356C7.94144 4.68215 7.93129 4.61111 7.91129 4.54256C7.81751 4.22104 7.52279 4 7.18787 4H1.5Z" fill="white"/>
<path fill-rule="evenodd" clip-rule="evenodd" d="M15.4414 19.9727C16.2698 19.9727 16.9414 19.3011 16.9414 18.4727V13.5149C16.9414 12.6882 16.2726 12.0173 15.4459 12.0149L10.5044 12.0001C9.67427 11.9976 8.99997 12.6699 8.99997 13.5001V15.6972V16.9177H9.99997V15.6972V13.5001C9.99997 13.2234 10.2247 12.9993 10.5015 13.0001L15.4429 13.0149C15.7185 13.0157 15.9414 13.2393 15.9414 13.5149V18.4727C15.9414 18.7135 15.7711 18.9145 15.5444 18.962V18.9727H15.4414H9.99997H8.99997V19.2191C8.99997 19.2905 9.01012 19.3615 9.03012 19.4301C9.1239 19.7516 9.41862 19.9727 9.75353 19.9727H15.4414Z" fill="white"/>
<path fill-rule="evenodd" clip-rule="evenodd" d="M11.5 4C11.0546 4 10.8315 4.53857 11.1465 4.85355C11.2402 4.94732 11.3674 5 11.5 5H12.625H15H15C15.5523 5 16 5.44772 16 6V8.49999C16 8.49999 16 8.5 16 8.5C16 8.5 16 8.50001 16 8.50001V9.49999C16 9.49999 16 9.5 16 9.5C16 9.5 16 9.50001 16 9.50001V10C16 10.2761 16.2239 10.5 16.5 10.5C16.7762 10.5 17 10.2761 17 10V9V8.5V4.5C17 4.22386 16.7762 4 16.5 4H15H11.5Z" fill="white"/>
<path d="M10.6464 4.14645C10.4512 4.34171 10.4512 4.65829 10.6464 4.85355L13.8284 8.03553C14.0237 8.2308 14.3403 8.2308 14.5355 8.03553C14.7308 7.84027 14.7308 7.52369 14.5355 7.32843L11.7071 4.5L14.5355 1.67157C14.7308 1.47631 14.7308 1.15973 14.5355 0.964466C14.3403 0.769204 14.0237 0.769204 13.8284 0.964466L10.6464 4.14645ZM12 4H11V5H12V4Z" fill="white"/>
<path fill-rule="evenodd" clip-rule="evenodd" d="M5.499 19.5C5.94445 19.5 6.16753 18.9614 5.85255 18.6464C5.75878 18.5527 5.63161 18.5 5.499 18.5H4.374H1.99902H1.999C1.44671 18.5 0.998998 18.0523 0.998998 17.5V15C0.998998 15 0.999003 15 0.999011 15C0.999018 15 0.999023 15 0.999023 15V14C0.999023 14 0.999018 14 0.999011 14C0.999003 14 0.998998 14 0.998998 14V13.5C0.998998 13.2239 0.77514 13 0.498998 13C0.222855 13 -0.00100231 13.2239 -0.00100231 13.5V14.5V15V19C-0.00100231 19.2761 0.222855 19.5 0.498998 19.5H1.999H5.499Z" fill="white"/>
<path d="M6.35355 18.6464C6.54882 18.8417 6.54882 19.1583 6.35355 19.3536L3.17157 22.5355C2.97631 22.7308 2.65973 22.7308 2.46447 22.5355C2.2692 22.3403 2.2692 22.0237 2.46447 21.8284L5.29289 19L2.46447 16.1716C2.2692 15.9763 2.2692 15.6597 2.46447 15.4645C2.65973 15.2692 2.97631 15.2692 3.17157 15.4645L6.35355 18.6464ZM5 18.5H6V19.5H5V18.5Z" fill="white"/>
</svg>
