<svg width="76" height="40" viewBox="0 0 76 40" fill="none" xmlns="http://www.w3.org/2000/svg">
<path d="M20.4271 19.8334C17.2812 16.0418 11.6572 15.5183 7.86546 18.6642C4.07377 21.8101 3.55027 27.4341 6.69618 31.2258" stroke="white"/>
<path d="M69.1138 31.2253C72.2595 27.4335 71.7358 21.8095 67.944 18.6637C64.1522 15.5179 58.5282 16.0416 55.3824 19.8334" stroke="white"/>
<path d="M55.7193 19.7528C55.7193 9.39593 47.7431 1 37.9041 1C28.065 1 20.0889 9.39593 20.0889 19.7528" stroke="white"/>
<path d="M38.259 24.2465C38.0637 24.0512 37.7471 24.0512 37.5519 24.2464L34.3697 27.4283C34.1745 27.6235 34.1745 27.9401 34.3697 28.1354C34.565 28.3307 34.8816 28.3307 35.0768 28.1354L37.9054 25.3071L40.7337 28.1356C40.9289 28.3309 41.2455 28.3309 41.4408 28.1357C41.6361 27.9404 41.6361 27.6238 41.4408 27.4286L38.259 24.2465ZM38.4048 40L38.4054 24.6L37.4054 24.6L37.4048 40L38.4048 40Z" fill="white"/>
</svg>
