<svg width="40" height="40" viewBox="0 0 40 40" fill="none" xmlns="http://www.w3.org/2000/svg">
<rect width="1.53846" height="40" rx="0.769231" fill="white"/>
<rect y="40" width="1.53846" height="40" rx="0.769231" transform="rotate(-90 0 40)" fill="white"/>
<path d="M7.69238 25.6154C7.69238 25.0631 8.1401 24.6154 8.69238 24.6154H11.3078C11.8601 24.6154 12.3078 25.0631 12.3078 25.6154V35.3846H7.69238V25.6154Z" fill="white"/>
<path d="M18.4614 21C18.4614 20.4477 18.9091 20 19.4614 20H22.0768C22.6291 20 23.0768 20.4477 23.0768 21V35.3846H18.4614V21Z" fill="white"/>
<path d="M29.2307 13.3077C29.2307 12.7555 29.6784 12.3077 30.2307 12.3077H32.8461C33.3984 12.3077 33.8461 12.7555 33.8461 13.3077V35.3847H29.2307V13.3077Z" fill="white"/>
<path d="M28.1088 6.44531C28.1567 6.17336 27.9751 5.91404 27.7032 5.86608L23.2716 5.08467C22.9996 5.03671 22.7403 5.2183 22.6923 5.49025C22.6444 5.76219 22.826 6.02152 23.0979 6.06947L27.0371 6.76407L26.3425 10.7033C26.2946 10.9752 26.4762 11.2346 26.7481 11.2825C27.0201 11.3305 27.2794 11.1489 27.3274 10.8769L28.1088 6.44531ZM6.51628 21.7433L27.9032 6.76806L27.3296 5.94891L5.9427 20.9242L6.51628 21.7433Z" fill="white"/>
</svg>
