<?xml version="1.0" encoding="UTF-8"?>
<svg width="20px" height="20px" viewBox="0 0 20 20" version="1.1" xmlns="http://www.w3.org/2000/svg" xmlns:xlink="http://www.w3.org/1999/xlink">
    <!-- Generator: Sketch 53.2 (72643) - https://sketchapp.com -->
    <title>Group 5 Copy</title>
    <desc>Created with Sketch.</desc>
    <g id="Page-1" stroke="none" stroke-width="1" fill="none" fill-rule="evenodd">
        <g id="Landing2-Copy-23" transform="translate(-598.000000, -261.000000)" stroke="#FFFFFF">
            <g id="Group-5-Copy" transform="translate(598.000000, 261.000000)">
                <path d="M11.5167,1.187 L11.5167,1.187 C12.8207,-0.256 15.2147,0.735 15.1167,2.678 C15.0537,3.902 16.0627,4.911 17.2867,4.848 C19.2297,4.75 20.2217,7.144 18.7777,8.448 C17.8687,9.269 17.8687,10.696 18.7777,11.517 C20.2217,12.821 19.2297,15.215 17.2867,15.117 C16.0627,15.054 15.0537,16.063 15.1167,17.287 C15.2147,19.229 12.8207,20.221 11.5167,18.778 C10.6957,17.868 9.2687,17.868 8.4477,18.778 C7.1437,20.221 4.7487,19.229 4.8477,17.287 C4.9107,16.063 3.9017,15.054 2.6777,15.117 C0.7357,15.215 -0.2563,12.821 1.1867,11.517 C2.0967,10.696 2.0967,9.269 1.1867,8.448 C-0.2563,7.144 0.7357,4.75 2.6777,4.848 C3.9017,4.911 4.9107,3.902 4.8477,2.678 C4.7487,0.735 7.1437,-0.256 8.4477,1.187 C9.2687,2.096 10.6957,2.096 11.5167,1.187 Z" id="Stroke-1"></path>
                <path d="M12.9572,9.9819 C12.9572,11.6259 11.6252,12.9569 9.9822,12.9569 C8.3392,12.9569 7.0082,11.6259 7.0082,9.9819 C7.0082,8.3389 8.3392,7.0069 9.9822,7.0069 C11.6252,7.0069 12.9572,8.3389 12.9572,9.9819 Z" id="Stroke-3"></path>
            </g>
        </g>
    </g>
</svg>