<?xml version="1.0" encoding="UTF-8"?>
<svg width="146px" height="165px" viewBox="0 0 146 165" version="1.1" xmlns="http://www.w3.org/2000/svg" xmlns:xlink="http://www.w3.org/1999/xlink">
    <!-- Generator: Sketch 53.2 (72643) - https://sketchapp.com -->
    <title>logo</title>
    <desc>Created with Sketch.</desc>
    <defs>
        <polygon id="path-1" points="0.000423076923 0.241153846 142.684808 0.241153846 142.684808 165 0.000423076923 165"></polygon>
    </defs>
    <g id="Page-1" stroke="none" stroke-width="1" fill="none" fill-rule="evenodd">
        <g id="Home" transform="translate(-567.000000, -122.000000)">
            <g id="logo" transform="translate(566.239796, 122.000000)">
                <circle id="Oval" fill="#FF9E6A" cx="71" cy="82" r="15"></circle>
                <g id="Group-6" stroke-width="1">
                    <g id="Group-3" transform="translate(0.760204, 0.000000)">
                        <mask id="mask-2" fill="white">
                            <use xlink:href="#path-1"></use>
                        </mask>
                        <g id="Clip-2"></g>
                        <path d="M71.3430385,0.2409 C27.1958077,25.7287462 0.000423076923,72.8332846 0.000423076923,123.809823 L71.3430385,165.000592 L142.684808,123.809823 C142.684808,72.8332846 115.490269,25.7287462 71.3430385,0.2409 M71.3430385,6.14028462 C91.1058077,18.1252077 107.604115,34.9670538 119.172731,55.0056692 C130.748115,75.0544385 137.085808,97.7762077 137.577423,120.897362 L71.3430385,159.137592 L5.10780769,120.897362 C5.60026923,97.7762077 11.9379615,75.0544385 23.5133462,55.0056692 C35.0819615,34.9670538 51.5794231,18.1252077 71.3430385,6.14028462" id="Fill-1" fill="#FFFFFF" mask="url(#mask-2)"></path>
                    </g>
                    <polyline id="Stroke-4" stroke="#FFFFFF" points="71.7602041 165 71.7602041 82.2262836 146.760204 39"></polyline>
                </g>
            </g>
        </g>
    </g>
</svg>