<?xml version="1.0" encoding="UTF-8"?>
<svg width="68px" height="72px" viewBox="0 0 68 72" version="1.1" xmlns="http://www.w3.org/2000/svg" xmlns:xlink="http://www.w3.org/1999/xlink">
    <!-- Generator: Sketch 53.2 (72643) - https://sketchapp.com -->
    <title>Group Copy 3</title>
    <desc>Created with Sketch.</desc>
    <g id="Page-1" stroke="none" stroke-width="1" fill="none" fill-rule="evenodd">
        <g id="Landing2-Copy-23" transform="translate(-448.000000, -274.000000)">
            <g id="Group-Copy-3" transform="translate(445.500000, 273.500000)">
                <circle id="Oval-Copy-3" fill="#FF8D00" cx="36.5" cy="36.5" r="6.5"></circle>
                <path d="M44,4.33012702 L60.6099272,13.919873 C65.2509434,16.5993649 68.1099272,21.5512702 68.1099272,26.910254 L68.1099272,46.089746 C68.1099272,51.4487298 65.2509434,56.4006351 60.6099272,59.080127 L44,68.669873 C39.3589838,71.3493649 33.6410162,71.3493649 29,68.669873 L12.3900728,59.080127 C7.74905661,56.4006351 4.89007276,51.4487298 4.89007276,46.089746 L4.89007276,26.910254 C4.89007276,21.5512702 7.74905661,16.5993649 12.3900728,13.919873 L29,4.33012702 C33.6410162,1.65063509 39.3589838,1.65063509 44,4.33012702 Z" id="Polygon-Copy-7" stroke="#FFFFFF" stroke-width="3" transform="translate(36.500000, 36.500000) rotate(-180.000000) translate(-36.500000, -36.500000) "></path>
            </g>
        </g>
    </g>
</svg>