<svg width="21" height="21" viewBox="0 0 21 21" fill="none" xmlns="http://www.w3.org/2000/svg">
<circle cx="10.5" cy="10.5" r="10" stroke="white"/>
<path d="M14.378 12.326C14.378 12.774 14.266 13.2033 14.042 13.614C13.818 14.0153 13.4867 14.3513 13.048 14.622C12.6187 14.8927 12.1007 15.0467 11.494 15.084V16.218H10.738V15.084C9.88867 15.0093 9.198 14.7387 8.666 14.272C8.134 13.796 7.86333 13.194 7.854 12.466H9.212C9.24933 12.858 9.394 13.1987 9.646 13.488C9.90733 13.7773 10.2713 13.9593 10.738 14.034V10.534C10.1127 10.3753 9.60867 10.212 9.226 10.044C8.84333 9.876 8.51667 9.61467 8.246 9.26C7.97533 8.90533 7.84 8.42933 7.84 7.832C7.84 7.076 8.10133 6.45067 8.624 5.956C9.156 5.46133 9.86067 5.186 10.738 5.13V3.968H11.494V5.13C12.2873 5.19533 12.9267 5.452 13.412 5.9C13.8973 6.33867 14.1773 6.91267 14.252 7.622H12.894C12.8473 7.29533 12.7027 7.00133 12.46 6.74C12.2173 6.46933 11.8953 6.292 11.494 6.208V9.624C12.11 9.78267 12.6093 9.946 12.992 10.114C13.384 10.2727 13.7107 10.5293 13.972 10.884C14.2427 11.2387 14.378 11.7193 14.378 12.326ZM9.142 7.762C9.142 8.21933 9.27733 8.56933 9.548 8.812C9.81867 9.05467 10.2153 9.25533 10.738 9.414V6.18C10.2527 6.22667 9.86533 6.38533 9.576 6.656C9.28667 6.91733 9.142 7.286 9.142 7.762ZM11.494 14.048C11.998 13.992 12.39 13.81 12.67 13.502C12.9593 13.194 13.104 12.8253 13.104 12.396C13.104 11.9387 12.964 11.5887 12.684 11.346C12.404 11.094 12.0073 10.8933 11.494 10.744V14.048Z" fill="white"/>
</svg>
