<svg width="24" height="24" viewBox="0 0 24 24" fill="none" xmlns="http://www.w3.org/2000/svg">
<circle cx="12" cy="12" r="11.5" stroke="white" stroke-dasharray="3 3"/>
<path d="M15.378 14.326C15.378 14.774 15.266 15.2033 15.042 15.614C14.818 16.0153 14.4867 16.3513 14.048 16.622C13.6187 16.8927 13.1007 17.0467 12.494 17.084V18.218H11.738V17.084C10.8887 17.0093 10.198 16.7387 9.666 16.272C9.134 15.796 8.86333 15.194 8.854 14.466H10.212C10.2493 14.858 10.394 15.1987 10.646 15.488C10.9073 15.7773 11.2713 15.9593 11.738 16.034V12.534C11.1127 12.3753 10.6087 12.212 10.226 12.044C9.84333 11.876 9.51667 11.6147 9.246 11.26C8.97533 10.9053 8.84 10.4293 8.84 9.832C8.84 9.076 9.10133 8.45067 9.624 7.956C10.156 7.46133 10.8607 7.186 11.738 7.13V5.968H12.494V7.13C13.2873 7.19533 13.9267 7.452 14.412 7.9C14.8973 8.33867 15.1773 8.91267 15.252 9.622H13.894C13.8473 9.29533 13.7027 9.00133 13.46 8.74C13.2173 8.46933 12.8953 8.292 12.494 8.208V11.624C13.11 11.7827 13.6093 11.946 13.992 12.114C14.384 12.2727 14.7107 12.5293 14.972 12.884C15.2427 13.2387 15.378 13.7193 15.378 14.326ZM10.142 9.762C10.142 10.2193 10.2773 10.5693 10.548 10.812C10.8187 11.0547 11.2153 11.2553 11.738 11.414V8.18C11.2527 8.22667 10.8653 8.38533 10.576 8.656C10.2867 8.91733 10.142 9.286 10.142 9.762ZM12.494 16.048C12.998 15.992 13.39 15.81 13.67 15.502C13.9593 15.194 14.104 14.8253 14.104 14.396C14.104 13.9387 13.964 13.5887 13.684 13.346C13.404 13.094 13.0073 12.8933 12.494 12.744V16.048Z" fill="white"/>
</svg>
