<svg id="Capa_1" enable-background="new 0 0 512 512" height="512" viewBox="0 0 512 512" width="512" xmlns="http://www.w3.org/2000/svg" fill="#3b3b3b"><path d="m269.034 187.464c10.704 8.674 18.929 17.537 36.95 15.512-7.991-19.117-27.134-33.437-49.984-33.437-23.536 0-43.29 15.213-50.795 35.517 33.647 12.011 54.079-9.222 63.829-17.592z"/><path d="m256 324.665c-8.16 0-16.05-1.2-23.525-3.393l22.955 33.458 22.295-32.944c-6.939 1.867-14.218 2.879-21.725 2.879z"/><path d="m256 294.665c28.94 0 54.116-20.99 54.116-62.016-14.207 1.954-28.268-.821-40.313-7.362-20.156 12.949-44.855 16.666-67.919 10.288 0 37.431 25.497 59.09 54.116 59.09z"/><path d="m194.42 350.35v28.251c15.475 7.804 32.617 12.768 50.74 14.191l-43.87-63.933c-4.32 6.061-6.87 13.481-6.87 21.491z"/><path d="m471.127 194.521c-5.064-17.819-12.286-34.729-21.359-50.436l11.916-43.007-52.196-52.196-43.632 12.089c-16.15-9.127-33.546-16.3-51.872-21.207l-22.509-39.764h-73.816l-23.031 40.686c-16.622 4.734-32.446 11.354-47.245 19.594l-46.304-12.83-52.196 52.196 12.653 45.665c-8.745 15.361-15.729 31.853-20.663 49.211l-40.873 23.137v73.816l40.097 22.698c4.759 17.636 11.617 34.407 20.297 50.031l-12.944 46.717 52.196 52.196 46.078-12.767c15.183 8.624 31.47 15.526 48.602 20.431l23.333 41.219h73.816l22.806-40.288c18.84-5.073 36.702-12.532 53.226-22.057l43.414 12.029 52.196-52.196-12.204-44.045c9.008-15.975 16.105-33.167 20.989-51.27l40.098-22.698v-73.816zm-215.127 228.699c-92.205 0-167.22-75.015-167.22-167.22s75.015-167.22 167.22-167.22 167.22 75.015 167.22 167.22-75.015 167.22-167.22 167.22z"/><path d="m265.836 392.864c18.494-1.316 35.983-6.314 51.744-14.262v-28.252c0-8.49-2.87-16.33-7.68-22.58z"/><path d="m256 118.78c-75.663 0-137.22 61.557-137.22 137.22 0 40.501 17.642 76.954 45.64 102.094v-7.744c0-22.514 11.155-42.478 28.226-54.654-40.243-46.139-24.929-156.157 63.354-156.157 88.324 0 103.573 110.045 63.354 156.157 17.071 12.176 28.226 32.14 28.226 54.654v7.744c27.997-25.14 45.64-61.593 45.64-102.094 0-75.663-61.557-137.22-137.22-137.22z"/></svg>