<svg width="34" height="34" viewBox="0 0 34 34" fill="none" xmlns="http://www.w3.org/2000/svg">
<rect x="0.5" y="0.5" width="33" height="33" rx="1.5" stroke="white"/>
<path d="M24.846 19.83H20.59L19.806 22H18.462L21.99 12.298H23.46L26.974 22H25.63L24.846 19.83ZM24.482 18.794L22.718 13.866L20.954 18.794H24.482Z" fill="white"/>
<path d="M9 10C9 9.44772 9.44772 9 10 9C10.5523 9 11 9.44772 11 10V23H9V10Z" fill="white"/>
<path d="M6.1716 21.9714C5.91125 21.7111 5.91125 21.2889 6.1716 21.0286C6.6923 20.5079 7.53652 20.5079 8.05722 21.0286L11.357 24.3284L9.94284 25.7426L6.1716 21.9714Z" fill="white"/>
<path d="M12.3787 20.5713C12.639 20.3109 13.0612 20.3109 13.3215 20.5713C13.8422 21.092 13.8422 21.9362 13.3215 22.4569L10.0217 25.7567L8.60746 24.3425L12.3787 20.5713Z" fill="white"/>
</svg>
