<svg width="34" height="34" viewBox="0 0 34 34" fill="none" xmlns="http://www.w3.org/2000/svg">
<rect x="0.5" y="0.5" width="33" height="33" rx="1.5" stroke="white"/>
<path d="M27.6418 12.242L24.8138 22H23.3858L21.1178 14.146L18.7658 22L17.3518 22.014L14.6218 12.242H15.9798L18.1078 20.516L20.4598 12.242H21.8878L24.1278 20.488L26.2698 12.242H27.6418Z" fill="white"/>
<path d="M9 10C9 9.44772 9.44772 9 10 9C10.5523 9 11 9.44772 11 10V23H9V10Z" fill="white"/>
<path d="M6.1716 21.9714C5.91125 21.7111 5.91125 21.2889 6.1716 21.0286C6.6923 20.5079 7.53652 20.5079 8.05722 21.0286L11.357 24.3284L9.94284 25.7426L6.1716 21.9714Z" fill="white"/>
<path d="M12.3782 20.572C12.6386 20.3116 13.0607 20.3116 13.321 20.572C13.8417 21.0927 13.8417 21.9369 13.321 22.4576L10.0212 25.7574L8.60697 24.3432L12.3782 20.572Z" fill="white"/>
</svg>
