<svg width="34" height="34" viewBox="0 0 34 34" fill="none" xmlns="http://www.w3.org/2000/svg">
<rect x="0.5" y="0.5" width="33" height="33" rx="1.5" stroke="white"/>
<path d="M22.116 12.242C23.18 12.242 24.0993 12.4427 24.874 12.844C25.658 13.236 26.2553 13.8007 26.666 14.538C27.086 15.2753 27.296 16.1433 27.296 17.142C27.296 18.1407 27.086 19.0087 26.666 19.746C26.2553 20.474 25.658 21.034 24.874 21.426C24.0993 21.8087 23.18 22 22.116 22H19.078V12.242H22.116ZM22.116 20.95C23.376 20.95 24.3373 20.6187 25 19.956C25.6627 19.284 25.994 18.346 25.994 17.142C25.994 15.9287 25.658 14.9813 24.986 14.3C24.3233 13.6187 23.3667 13.278 22.116 13.278H20.352V20.95H22.116Z" fill="white"/>
<path d="M9 10C9 9.44772 9.44772 9 10 9C10.5523 9 11 9.44772 11 10V23H9V10Z" fill="white"/>
<path d="M6.1716 21.9714C5.91125 21.7111 5.91125 21.2889 6.1716 21.0286C6.6923 20.5079 7.53652 20.5079 8.05722 21.0286L11.357 24.3284L9.94284 25.7426L6.1716 21.9714Z" fill="white"/>
<path d="M12.3787 20.5713C12.639 20.3109 13.0612 20.3109 13.3215 20.5713C13.8422 21.092 13.8422 21.9362 13.3215 22.4569L10.0217 25.7567L8.60746 24.3425L12.3787 20.5713Z" fill="white"/>
</svg>
