<?xml version="1.0" encoding="UTF-8"?>
<svg width="211px" height="235px" viewBox="0 0 211 235" version="1.1" xmlns="http://www.w3.org/2000/svg" xmlns:xlink="http://www.w3.org/1999/xlink">
    <!-- Generator: sketchtool 53.2 (72643) - https://sketchapp.com -->
    <title>D9827FC0-D134-412A-957F-D886B920DE83</title>
    <desc>Created with sketchtool.</desc>
    <defs>
        <polygon id="path-1" points="0.000208989795 0.119124192 70.4828565 0.119124192 70.4828565 81.506026 0.000208989795 81.506026"></polygon>
    </defs>
    <g id="Page-1" stroke="none" stroke-width="1" fill="none" fill-rule="evenodd">
        <g id="Landing2-Copy-4" transform="translate(-537.000000, -308.000000)">
            <g id="Group-6" transform="translate(537.277913, 304.000000)">
                <path d="M120.222087,8.66025404 L195.444173,52.089746 C204.726205,57.4487298 210.444173,67.3525404 210.444173,78.0705081 L210.444173,164.929492 C210.444173,175.64746 204.726205,185.55127 195.444173,190.910254 L120.222087,234.339746 C110.940054,239.69873 99.5041189,239.69873 90.2220866,234.339746 L15,190.910254 C5.7179677,185.55127 -9.34720234e-14,175.64746 -8.52651283e-14,164.929492 L-1.20792265e-13,78.0705081 C-1.26864571e-13,67.3525404 5.7179677,57.4487298 15,52.089746 L90.2220866,8.66025404 C99.5041189,3.30127019 110.940054,3.30127019 120.222087,8.66025404 Z" id="Polygon" fill="#242424"></path>
                <text id="Get-started" font-family="ArialMT, Arial" font-size="15" font-weight="normal" letter-spacing="0.5357147" fill="#FFFFFF">
                    <tspan x="65.6748256" y="169.65075">Get Started</tspan>
                </text>
                <g id="logo-copy" transform="translate(69.210038, 57.000000)">
                    <ellipse id="Oval" fill="#FF9E6A" cx="35.0722884" cy="40.5060241" rx="7.40963839" ry="7.40963855"></ellipse>
                    <g id="Group-6">
                        <g id="Group-3" transform="translate(0.375522, 0.000000)">
                            <mask id="mask-2" fill="white">
                                <use xlink:href="#path-1"></use>
                            </mask>
                            <g id="Clip-2"></g>
                            <path d="M35.2417417,0.118998793 C13.4340736,12.7093804 0.000208989795,35.9778869 0.000208989795,61.1590681 L35.2417417,81.5063152 L70.4828565,61.1590681 C70.4828565,35.9778869 57.0494098,12.7093804 35.2417417,0.118998793 M35.2417422,3.03315258 C45.0040741,8.95341605 53.1538406,17.2728826 58.8684579,27.1714762 C64.586419,37.0750855 67.7170864,48.2990925 67.9599325,59.7203859 L35.2417422,78.6101392 L2.5231339,59.7203859 C2.76639803,48.2990925 5.89706535,37.0750855 11.6150265,27.1714762 C17.3296438,17.2728826 25.4789923,8.95341605 35.2417422,3.03315258" id="Fill-1" fill="#FFFFFF" mask="url(#mask-2)"></path>
                        </g>
                        <polyline id="Stroke-4" stroke="#FFFFFF" points="35.4478091 81.5060241 35.4478091 40.6178027 72.496001 19.2650602"></polyline>
                    </g>
                </g>
            </g>
        </g>
    </g>
</svg>