<?xml version="1.0" encoding="UTF-8"?>
<svg width="204px" height="224px" viewBox="0 0 204 224" version="1.1" xmlns="http://www.w3.org/2000/svg" xmlns:xlink="http://www.w3.org/1999/xlink">
    <!-- Generator: Sketch 53.2 (72643) - https://sketchapp.com -->
    <title>Group 2</title>
    <desc>Created with Sketch.</desc>
    <g id="Page-1" stroke="none" stroke-width="1" fill="none" fill-rule="evenodd">
        <g id="Landing2-Copy-6" transform="translate(-797.000000, -313.000000)">
            <g id="Group-2" transform="translate(782.000000, 308.795918)">
                <path d="M131.923274,8.55734434 L203.248246,49.4567037 C212.573491,54.8040108 218.324972,64.7320135 218.324972,75.4816127 L218.324972,156.926551 C218.324972,167.67615 212.573491,177.604152 203.248246,182.95146 L131.923274,223.850819 C122.680318,229.15094 111.319682,229.15094 102.076726,223.850819 L30.7517537,182.95146 C21.426509,177.604152 15.6750278,167.67615 15.6750278,156.926551 L15.6750278,75.4816127 C15.6750278,64.7320135 21.426509,54.8040108 30.7517537,49.4567037 L102.076726,8.55734434 C111.319682,3.25722309 122.680318,3.25722309 131.923274,8.55734434 Z" id="Polygon-Copy-4" fill="#FFFFFF"></path>
                <text id="Create-or-continue-w" font-family="ArialMT, Arial" font-size="15" font-weight="normal" letter-spacing="0.5357147" fill="#000000">
                    <tspan x="53.4756868" y="136.204082">Create or continue </tspan>
                    <tspan x="62.8228548" y="158.204082">with your deals</tspan>
                </text>
                <text id="My-projects" font-family="ArialMT, Arial" font-size="15" font-weight="normal" letter-spacing="0.5357147" fill="#000000">
                    <tspan x="88.711284" y="102.2040816">My Deals</tspan>
                </text>
                <g id="Group-11-Copy-2" transform="translate(102.000000, 45.204082)" stroke="#343434">
                    <path d="M19,10.131847 C19,15.3779596 14.7467969,19.6315789 9.5,19.6315789 C4.25320314,19.6315789 0,15.3779596 0,10.131847 C0,4.88519825 4.25320314,0.631578947 9.5,0.631578947 C14.7467969,0.631578947 19,4.88519825 19,10.131847 Z" id="Stroke-1" fill="#343434"></path>
                    <path d="M24,28.6315789 C24,31.9450036 21.3134247,34.6315789 18,34.6315789 C14.6860274,34.6315789 12,31.9450036 12,28.6315789 C12,25.3176063 14.6860274,22.6315789 18,22.6315789 C21.3134247,22.6315789 24,25.3176063 24,28.6315789 Z" id="Stroke-3" fill="#343434"></path>
                    <path d="M29.4500185,15.9500185 C29.4500185,17.8830859 27.8834873,19.4500185 25.9497599,19.4500185 C24.0170669,19.4500185 22.4500185,17.8830859 22.4500185,15.9500185 C22.4500185,14.0174683 24.0170669,12.4500185 25.9497599,12.4500185 C27.8834873,12.4500185 29.4500185,14.0174683 29.4500185,15.9500185 Z" id="Stroke-5" fill="#343434"></path>
                    <path d="M11.4500185,14.4500185 L16.4500185,25.4500185" id="Stroke-7" stroke-width="2"></path>
                    <path d="M20.4500185,25.4500185 L25.9500185,15.9500185" id="Stroke-9" stroke-width="2"></path>
                </g>
            </g>
        </g>
    </g>
</svg>