<svg width="413" height="500" viewBox="0 0 413 500" fill="none" xmlns="http://www.w3.org/2000/svg">
<g opacity="0.5">
<ellipse rx="161.138" ry="47.3934" transform="matrix(-1 0 0 1 161.137 452.607)" fill="white"/>
<path d="M0.999878 452.607C0.999878 458.656 5.17422 464.629 13.2338 470.233C21.2639 475.817 32.9489 480.886 47.4781 485.16C76.5234 493.702 116.708 499 161.137 499C205.566 499 245.751 493.702 274.797 485.16C289.326 480.886 301.011 475.817 309.041 470.233C317.101 464.629 321.275 458.656 321.275 452.607C321.275 446.557 317.101 440.585 309.041 434.98C301.011 429.396 289.326 424.327 274.797 420.054C245.751 411.511 205.566 406.213 161.137 406.213C116.708 406.213 76.5234 411.511 47.4781 420.054C32.9489 424.327 21.2639 429.396 13.2338 434.98C5.17422 440.585 0.999878 446.557 0.999878 452.607Z" stroke="#4C4C4C" stroke-opacity="0.15" stroke-width="2"/>
<ellipse rx="161.138" ry="47.3934" transform="matrix(-1 0 0 1 161.137 412.322)" fill="white"/>
<path d="M0.999878 412.322C0.999878 418.372 5.17422 424.344 13.2338 429.949C21.2639 435.533 32.9489 440.602 47.4781 444.875C76.5234 453.418 116.708 458.715 161.137 458.715C205.566 458.715 245.751 453.418 274.797 444.875C289.326 440.602 301.011 435.533 309.041 429.949C317.101 424.344 321.275 418.372 321.275 412.322C321.275 406.272 317.101 400.3 309.041 394.695C301.011 389.112 289.326 384.043 274.797 379.769C245.751 371.227 205.566 365.929 161.137 365.929C116.708 365.929 76.5234 371.227 47.4781 379.769C32.9489 384.043 21.2639 389.112 13.2338 394.695C5.17422 400.3 0.999878 406.272 0.999878 412.322Z" stroke="#4C4C4C" stroke-opacity="0.15" stroke-width="2"/>
<ellipse rx="161.138" ry="47.3934" transform="matrix(-1 0 0 1 161.137 358.61)" fill="white"/>
<path d="M0.999878 358.61C0.999878 364.659 5.17422 370.632 13.2338 376.236C21.2639 381.82 32.9489 386.889 47.4781 391.162C76.5234 399.705 116.708 405.003 161.137 405.003C205.566 405.003 245.751 399.705 274.797 391.162C289.326 386.889 301.011 381.82 309.041 376.236C317.101 370.632 321.275 364.659 321.275 358.61C321.275 352.56 317.101 346.587 309.041 340.983C301.011 335.399 289.326 330.33 274.797 326.057C245.751 317.514 205.566 312.216 161.137 312.216C116.708 312.216 76.5234 317.514 47.4781 326.057C32.9489 330.33 21.2639 335.399 13.2338 340.983C5.17422 346.587 0.999878 352.56 0.999878 358.61Z" stroke="#4C4C4C" stroke-opacity="0.15" stroke-width="2"/>
<ellipse rx="161.138" ry="47.3934" transform="matrix(-1 0 0 1 161.137 304.897)" fill="white"/>
<path d="M0.999878 304.897C0.999878 310.947 5.17422 316.92 13.2338 322.524C21.2639 328.108 32.9489 333.177 47.4781 337.45C76.5234 345.993 116.708 351.291 161.137 351.291C205.566 351.291 245.751 345.993 274.797 337.45C289.326 333.177 301.011 328.108 309.041 322.524C317.101 316.92 321.275 310.947 321.275 304.897C321.275 298.848 317.101 292.875 309.041 287.271C301.011 281.687 289.326 276.618 274.797 272.344C245.751 263.802 205.566 258.504 161.137 258.504C116.708 258.504 76.5234 263.802 47.4781 272.344C32.9489 276.618 21.2639 281.687 13.2338 287.271C5.17422 292.875 0.999878 298.848 0.999878 304.897Z" stroke="#4C4C4C" stroke-opacity="0.15" stroke-width="2"/>
<circle r="142.709" transform="matrix(-1 0 0 1 161.459 147.709)" stroke="white" stroke-width="10"/>
<path d="M207.316 175.578C207.316 181.878 205.741 187.8 202.591 193.344C199.567 198.888 195.031 203.55 188.983 207.33C183.061 211.11 176.005 213.378 167.815 214.134V229.443H155.53V214.134C143.686 213 134.11 209.283 126.802 202.983C119.494 196.683 115.84 188.367 115.84 178.035H138.898C139.276 182.949 140.851 187.044 143.623 190.32C146.395 193.47 150.364 195.486 155.53 196.368V154.788C147.088 152.646 140.221 150.504 134.929 148.362C129.637 146.094 125.101 142.566 121.321 137.778C117.667 132.99 115.84 126.438 115.84 118.122C115.84 107.664 119.494 99.033 126.802 92.229C134.11 85.299 143.686 81.267 155.53 80.133V64.824H167.815V80.133C178.903 81.141 187.786 84.669 194.464 90.717C201.268 96.639 205.111 104.829 205.993 115.287H182.935C182.557 111.381 181.045 107.916 178.399 104.892C175.753 101.742 172.225 99.6 167.815 98.466V139.29C176.257 141.306 183.124 143.448 188.416 145.716C193.708 147.858 198.181 151.323 201.835 156.111C205.489 160.773 207.316 167.262 207.316 175.578ZM137.764 116.988C137.764 122.154 139.276 126.186 142.3 129.084C145.45 131.982 149.86 134.313 155.53 136.077V97.899C150.112 98.529 145.765 100.482 142.489 103.758C139.339 107.034 137.764 111.444 137.764 116.988ZM167.815 196.368C173.359 195.486 177.706 193.281 180.856 189.753C184.006 186.099 185.581 181.752 185.581 176.712C185.581 171.672 184.006 167.766 180.856 164.994C177.832 162.096 173.485 159.765 167.815 158.001V196.368Z" fill="white"/>
<path d="M379.523 103.89C377.57 101.937 374.404 101.937 372.452 103.89L340.632 135.709C338.679 137.662 338.679 140.828 340.632 142.78C342.584 144.733 345.75 144.733 347.703 142.78L375.987 114.496L404.271 142.78C406.224 144.733 409.39 144.733 411.343 142.78C413.295 140.828 413.295 137.662 411.343 135.709L379.523 103.89ZM380.987 416.272L380.987 107.425H370.987L370.987 416.272H380.987Z" fill="white"/>
</g>
</svg>
