<svg width="500" height="520" viewBox="0 0 500 520" fill="none" xmlns="http://www.w3.org/2000/svg">
<rect x="421.053" y="344.561" width="61.4035" height="8.77193" rx="2" transform="rotate(90 421.053 344.561)" fill="white"/>
<rect x="359.649" y="397.193" width="61.4035" height="8.77193" rx="2" fill="white"/>
<rect y="20" width="19.2308" height="500" rx="2" fill="white"/>
<rect y="520" width="19.2308" height="500" rx="2" transform="rotate(-90 0 520)" fill="white"/>
<path d="M64.58 160.873L139.815 236.108C140.181 236.474 140.765 236.501 141.162 236.17L172.28 210.239C172.677 209.907 173.261 209.934 173.627 210.3L227.182 263.854L307.775 344.448C308.166 344.839 308.799 344.839 309.19 344.448L334.876 318.762C335.266 318.372 335.899 318.372 336.29 318.762L400.623 383.096" stroke="white" stroke-width="10"/>
<circle r="142.709" transform="matrix(-1 0 0 1 344.459 147.709)" stroke="white" stroke-width="10"/>
<path d="M390.316 175.578C390.316 181.878 388.741 187.8 385.591 193.344C382.567 198.888 378.031 203.55 371.983 207.33C366.061 211.11 359.005 213.378 350.815 214.134V229.443H338.53V214.134C326.686 213 317.11 209.283 309.802 202.983C302.494 196.683 298.84 188.367 298.84 178.035H321.898C322.276 182.949 323.851 187.044 326.623 190.32C329.395 193.47 333.364 195.486 338.53 196.368V154.788C330.088 152.646 323.221 150.504 317.929 148.362C312.637 146.094 308.101 142.566 304.321 137.778C300.667 132.99 298.84 126.438 298.84 118.122C298.84 107.664 302.494 99.033 309.802 92.229C317.11 85.299 326.686 81.267 338.53 80.133V64.824H350.815V80.133C361.903 81.141 370.786 84.669 377.464 90.717C384.268 96.639 388.111 104.829 388.993 115.287H365.935C365.557 111.381 364.045 107.916 361.399 104.892C358.753 101.742 355.225 99.6 350.815 98.466V139.29C359.257 141.306 366.124 143.448 371.416 145.716C376.708 147.858 381.181 151.323 384.835 156.111C388.489 160.773 390.316 167.262 390.316 175.578ZM320.764 116.988C320.764 122.154 322.276 126.186 325.3 129.084C328.45 131.982 332.86 134.313 338.53 136.077V97.899C333.112 98.529 328.765 100.482 325.489 103.758C322.339 107.034 320.764 111.444 320.764 116.988ZM350.815 196.368C356.359 195.486 360.706 193.281 363.856 189.753C367.006 186.099 368.581 181.752 368.581 176.712C368.581 171.672 367.006 167.766 363.856 164.994C360.832 162.096 356.485 159.765 350.815 158.001V196.368Z" fill="white"/>
</svg>
