<svg width="500" height="500" viewBox="0 0 500 500" fill="none" xmlns="http://www.w3.org/2000/svg">
<rect width="19.2308" height="500" rx="2" fill="white"/>
<rect y="500" width="19.2308" height="500" rx="2" transform="rotate(-90 0 500)" fill="white"/>
<path d="M96.1541 308.692C96.1541 308.14 96.6018 307.692 97.1541 307.692H152.846C153.399 307.692 153.846 308.14 153.846 308.692V442.307H96.1541V308.692Z" fill="white"/>
<path d="M230.769 251C230.769 250.448 231.217 250 231.769 250H287.462C288.014 250 288.462 250.448 288.462 251V442.308H230.769V251Z" fill="white"/>
<path d="M365.385 154.846C365.385 154.294 365.832 153.846 366.385 153.846H422.077C422.629 153.846 423.077 154.294 423.077 154.846V442.307H365.385V154.846Z" fill="white"/>
<path d="M350.13 80.3501C350.61 77.6306 348.794 75.0373 346.074 74.5578L301.758 66.7436C299.038 66.2641 296.445 68.0799 295.966 70.7994C295.486 73.5189 297.302 76.1122 300.021 76.5917L339.414 83.5376L332.468 122.93C331.988 125.649 333.804 128.243 336.524 128.722C339.243 129.202 341.836 127.386 342.316 124.666L350.13 80.3501ZM80.738 270.768L348.074 83.5776L342.338 75.3861L75.0022 262.577L80.738 270.768Z" fill="white"/>
</svg>
