<svg width="500" height="500" viewBox="0 0 500 500" fill="none" xmlns="http://www.w3.org/2000/svg">
<mask id="path-1-inside-1" fill="white">
<rect width="393.939" height="500" rx="2"/>
</mask>
<rect width="393.939" height="500" rx="2" stroke="white" stroke-width="20" mask="url(#path-1-inside-1)"/>
<circle r="116.134" transform="matrix(-1 0 0 1 378.866 337.134)" fill="#5A5A5A" stroke="white" stroke-width="10"/>
<path d="M429.816 365.578C429.816 371.878 428.241 377.8 425.091 383.344C422.067 388.888 417.531 393.55 411.483 397.33C405.561 401.11 398.505 403.378 390.315 404.134V419.443H378.03V404.134C366.186 403 356.61 399.283 349.302 392.983C341.994 386.683 338.34 378.367 338.34 368.035H361.398C361.776 372.949 363.351 377.044 366.123 380.32C368.895 383.47 372.864 385.486 378.03 386.368V344.788C369.588 342.646 362.721 340.504 357.429 338.362C352.137 336.094 347.601 332.566 343.821 327.778C340.167 322.99 338.34 316.438 338.34 308.122C338.34 297.664 341.994 289.033 349.302 282.229C356.61 275.299 366.186 271.267 378.03 270.133V254.824H390.315V270.133C401.403 271.141 410.286 274.669 416.964 280.717C423.768 286.639 427.611 294.829 428.493 305.287H405.435C405.057 301.381 403.545 297.916 400.899 294.892C398.253 291.742 394.725 289.6 390.315 288.466V329.29C398.757 331.306 405.624 333.448 410.916 335.716C416.208 337.858 420.681 341.323 424.335 346.111C427.989 350.773 429.816 357.262 429.816 365.578ZM360.264 306.988C360.264 312.154 361.776 316.186 364.8 319.084C367.95 321.982 372.36 324.313 378.03 326.077V287.899C372.612 288.529 368.265 290.482 364.989 293.758C361.839 297.034 360.264 301.444 360.264 306.988ZM390.315 386.368C395.859 385.486 400.206 383.281 403.356 379.753C406.506 376.099 408.081 371.752 408.081 366.712C408.081 361.672 406.506 357.766 403.356 354.994C400.332 352.096 395.985 349.765 390.315 348.001V386.368Z" fill="white"/>
<path d="M75.7575 303.03L166.667 212.121L204.545 250L287.879 166.667" stroke="white" stroke-width="10"/>
<path d="M323.182 136.364C323.182 133.602 320.943 131.364 318.182 131.364L273.182 131.364C270.421 131.364 268.182 133.602 268.182 136.364C268.182 139.125 270.421 141.364 273.182 141.364H313.182V181.364C313.182 184.125 315.421 186.364 318.182 186.364C320.943 186.364 323.182 184.125 323.182 181.364L323.182 136.364ZM261.111 200.505L321.718 139.899L314.646 132.828L254.04 193.434L261.111 200.505Z" fill="white"/>
</svg>
