<svg width="394" height="499" viewBox="0 0 394 499" fill="none" xmlns="http://www.w3.org/2000/svg">
<path fill-rule="evenodd" clip-rule="evenodd" d="M115.054 0.371425C117.611 -0.671221 120.529 0.556421 121.572 3.11344L137.49 42.1524C138.533 44.7094 137.305 47.6275 134.748 48.6702C132.191 49.7128 129.273 48.4852 128.231 45.9282L112.312 6.8892C111.27 4.33218 112.497 1.41407 115.054 0.371425ZM201.955 18.189C201.955 15.4276 199.716 13.189 196.955 13.189C194.193 13.189 191.955 15.4276 191.955 18.189V32.3794C191.955 35.1408 194.193 37.3794 196.955 37.3794C199.716 37.3794 201.955 35.1408 201.955 32.3794V18.189ZM291.374 364.692C319.84 329.812 343.573 282.953 343.573 223.662C343.573 141.855 277.256 75.5373 195.449 75.5373C113.642 75.5373 47.3239 141.855 47.3239 223.662C47.3239 280.979 69.5027 326.678 96.6962 361.169V439.323C96.6962 440.98 98.0394 442.323 99.6962 442.323H117.858V496.75C117.858 497.854 118.753 498.75 119.858 498.75H271.036C272.14 498.75 273.036 497.854 273.036 496.75V442.323H288.374C290.031 442.323 291.374 440.98 291.374 439.323V364.692ZM284.191 357.68C311.34 324.184 333.573 279.676 333.573 223.662C333.573 147.378 271.733 85.5373 195.449 85.5373C119.164 85.5373 57.3239 147.378 57.3239 223.662C57.3239 279.676 79.5567 324.184 106.706 357.68H284.191ZM70.6265 67.1383C68.6691 65.1905 65.5033 65.1984 63.5555 67.1558C61.6077 69.1133 61.6156 72.2791 63.573 74.2269L75.8294 86.4227C77.7869 88.3705 80.9527 88.3626 82.9005 86.4052C84.8482 84.4477 84.8404 81.2819 82.8829 79.3341L70.6265 67.1383ZM0.325396 123.745C1.30334 121.163 4.18961 119.862 6.77207 120.84L44.4073 135.092C46.9898 136.07 48.2905 138.956 47.3126 141.539C46.3346 144.121 43.4483 145.422 40.8659 144.444L3.23064 130.192C0.648178 129.214 -0.652543 126.328 0.325396 123.745ZM31.8013 213.011C34.5555 212.811 36.6265 210.417 36.427 207.662C36.2275 204.908 33.8331 202.837 31.0789 203.037L11.0612 204.487C8.30699 204.686 6.23597 207.08 6.43544 209.835C6.63492 212.589 9.02936 214.66 11.7836 214.46L31.8013 213.011ZM278.874 0.371425C281.431 1.41407 282.658 4.33218 281.616 6.8892L265.697 45.9282C264.655 48.4852 261.737 49.7128 259.179 48.6702C256.622 47.6275 255.395 44.7094 256.437 42.1524L272.356 3.11344C273.399 0.556421 276.317 -0.671221 278.874 0.371425ZM330.354 74.2257C332.311 72.2772 332.318 69.1114 330.369 67.1546C328.421 65.1978 325.255 65.1911 323.298 67.1395L311.05 79.3353C309.093 81.2838 309.086 84.4496 311.035 86.4064C312.983 88.3632 316.149 88.3699 318.106 86.4215L330.354 74.2257ZM393.6 123.745C394.578 126.327 393.278 129.214 390.695 130.192L353.069 144.444C350.486 145.422 347.6 144.122 346.622 141.539C345.644 138.957 346.944 136.07 349.526 135.092L387.153 120.84C389.736 119.862 392.622 121.163 393.6 123.745ZM362.84 203.037C360.086 202.837 357.692 204.908 357.492 207.663C357.293 210.417 359.364 212.811 362.118 213.011L382.144 214.46C384.898 214.66 387.293 212.589 387.492 209.834C387.692 207.08 385.621 204.686 382.866 204.486L362.84 203.037Z" fill="white"/>
</svg>
