<svg width="522" height="505" viewBox="0 0 522 505" fill="none" xmlns="http://www.w3.org/2000/svg">
<g opacity="0.5">
<path d="M90.4923 164.509C88.5397 162.556 85.3739 162.556 83.4213 164.509L51.6014 196.328C49.6488 198.281 49.6488 201.447 51.6014 203.399C53.5541 205.352 56.7199 205.352 58.6725 203.399L86.9568 175.115L115.241 203.399C117.194 205.352 120.36 205.352 122.312 203.399C124.265 201.447 124.265 198.281 122.312 196.328L90.4923 164.509ZM91.9568 450.653L91.9568 168.044H81.9568L81.9568 450.653H91.9568Z" fill="white"/>
<rect x="86.9568" y="439.782" width="304.348" height="10.8696" fill="white"/>
<path d="M358.698 364.696C358.698 364.144 358.25 363.696 357.698 363.696H305.35C304.797 363.696 304.35 364.144 304.35 364.696V439.783H358.698V364.696Z" fill="white"/>
<path d="M271.741 321.218C271.741 320.665 271.293 320.218 270.741 320.218H218.393C217.841 320.218 217.393 320.665 217.393 321.218V439.783H271.741V321.218Z" fill="white"/>
<path d="M184.784 266.869C184.784 266.317 184.336 265.869 183.784 265.869H131.436C130.884 265.869 130.436 266.317 130.436 266.869V439.782H184.784V266.869Z" fill="white"/>
<mask id="path-6-inside-1" fill="white">
<rect y="102.826" width="456.522" height="402.174" rx="2"/>
</mask>
<rect y="102.826" width="456.522" height="402.174" rx="2" stroke="white" stroke-width="20" mask="url(#path-6-inside-1)"/>
<circle cx="397.304" cy="124.566" r="60.2174" fill="white" stroke="#4C4C4C" stroke-width="10"/>
<path d="M376.247 219.606V244.13H428.957V222.462C440.669 217.226 460.34 206.375 472.693 191.682L495.59 204.424L516.871 157.385L491.842 144.682C493.04 138.342 493.327 131.796 493.327 125.093C493.327 118.39 492.637 111.848 491.439 105.504L516.017 92.8056L493.845 45.7657L472.7 58.5011C460.35 43.8149 440.669 32.957 428.96 27.7242V5H376.247V27.7279C358.678 32.9606 339.109 43.8185 326.759 58.5048L300.984 45.7694L278.259 92.8093L302.57 105.508C301.38 111.848 300.584 118.394 300.584 125.097C300.584 131.8 301.169 138.346 302.364 144.686L277.741 157.388L299.887 204.428L326.763 190.263" stroke="white" stroke-width="10" stroke-miterlimit="10" stroke-linecap="round" stroke-linejoin="round"/>
</g>
</svg>
