<svg width="549" height="538" viewBox="0 0 549 538" fill="none" xmlns="http://www.w3.org/2000/svg">
<ellipse rx="120" ry="35.2941" transform="matrix(-1 0 0 1 400 502.705)" fill="white"/>
<path d="M280.5 502.705C280.5 507.331 283.691 511.843 289.716 516.033C295.726 520.212 304.456 523.996 315.288 527.182C336.947 533.552 366.897 537.499 400 537.499C433.103 537.499 463.054 533.552 484.712 527.182C495.544 523.996 504.274 520.212 510.285 516.033C516.31 511.843 519.5 507.331 519.5 502.705C519.5 498.079 516.31 493.568 510.285 489.378C504.274 485.198 495.544 481.414 484.712 478.228C463.054 471.858 433.103 467.911 400 467.911C366.897 467.911 336.947 471.858 315.288 478.228C304.456 481.414 295.726 485.198 289.716 489.378C283.691 493.568 280.5 498.079 280.5 502.705Z" stroke="#4C4C4C" stroke-opacity="0.15"/>
<ellipse rx="120" ry="35.2941" transform="matrix(-1 0 0 1 400 474.471)" fill="white"/>
<path d="M280.5 474.471C280.5 479.097 283.691 483.608 289.716 487.798C295.726 491.978 304.456 495.762 315.288 498.948C336.947 505.318 366.897 509.265 400 509.265C433.103 509.265 463.054 505.318 484.712 498.948C495.544 495.762 504.274 491.978 510.285 487.798C516.31 483.608 519.5 479.097 519.5 474.471C519.5 469.844 516.31 465.333 510.285 461.143C504.274 456.963 495.544 453.179 484.712 449.993C463.054 443.623 433.103 439.676 400 439.676C366.897 439.676 336.947 443.623 315.288 449.993C304.456 453.179 295.726 456.963 289.716 461.143C283.691 465.333 280.5 469.844 280.5 474.471Z" stroke="#4C4C4C" stroke-opacity="0.15"/>
<ellipse rx="120" ry="35.2941" transform="matrix(-1 0 0 1 400 446.236)" fill="white"/>
<path d="M280.5 446.236C280.5 450.862 283.691 455.374 289.716 459.563C295.726 463.743 304.456 467.527 315.288 470.713C336.947 477.083 366.897 481.03 400 481.03C433.103 481.03 463.054 477.083 484.712 470.713C495.544 467.527 504.274 463.743 510.285 459.563C516.31 455.374 519.5 450.862 519.5 446.236C519.5 441.61 516.31 437.098 510.285 432.908C504.274 428.729 495.544 424.945 484.712 421.759C463.054 415.389 433.103 411.442 400 411.442C366.897 411.442 336.947 415.389 315.288 421.759C304.456 424.945 295.726 428.729 289.716 432.908C283.691 437.098 280.5 441.61 280.5 446.236Z" stroke="#4C4C4C" stroke-opacity="0.15"/>
<ellipse rx="120" ry="35.2941" transform="matrix(-1 0 0 1 400 418)" fill="white"/>
<path d="M280.5 418C280.5 422.626 283.691 427.138 289.716 431.328C295.726 435.507 304.456 439.291 315.288 442.477C336.947 448.847 366.897 452.794 400 452.794C433.103 452.794 463.054 448.847 484.712 442.477C495.544 439.291 504.274 435.507 510.285 431.328C516.31 427.138 519.5 422.626 519.5 418C519.5 413.374 516.31 408.862 510.285 404.672C504.274 400.493 495.544 396.709 484.712 393.523C463.054 387.153 433.103 383.206 400 383.206C366.897 383.206 336.947 387.153 315.288 393.523C304.456 396.709 295.726 400.493 289.716 404.672C283.691 408.862 280.5 413.374 280.5 418Z" stroke="#4C4C4C" stroke-opacity="0.15"/>
<ellipse rx="120" ry="35.2941" transform="matrix(-1 0 0 1 400 389.764)" fill="white"/>
<path d="M280.5 389.764C280.5 394.39 283.691 398.902 289.716 403.092C295.726 407.271 304.456 411.055 315.288 414.241C336.947 420.611 366.897 424.558 400 424.558C433.103 424.558 463.054 420.611 484.712 414.241C495.544 411.055 504.274 407.271 510.285 403.092C516.31 398.902 519.5 394.39 519.5 389.764C519.5 385.138 516.31 380.626 510.285 376.437C504.274 372.257 495.544 368.473 484.712 365.287C463.054 358.917 433.103 354.97 400 354.97C366.897 354.97 336.947 358.917 315.288 365.287C304.456 368.473 295.726 372.257 289.716 376.437C283.691 380.626 280.5 385.138 280.5 389.764Z" stroke="#4C4C4C" stroke-opacity="0.15"/>
<ellipse rx="120" ry="35.2941" transform="matrix(-1 0 0 1 400 361.529)" fill="white"/>
<path d="M280.5 361.529C280.5 366.155 283.691 370.667 289.716 374.856C295.726 379.036 304.456 382.82 315.288 386.006C336.947 392.376 366.897 396.323 400 396.323C433.103 396.323 463.054 392.376 484.712 386.006C495.544 382.82 504.274 379.036 510.285 374.856C516.31 370.667 519.5 366.155 519.5 361.529C519.5 356.903 516.31 352.391 510.285 348.201C504.274 344.022 495.544 340.238 484.712 337.052C463.054 330.682 433.103 326.735 400 326.735C366.897 326.735 336.947 330.682 315.288 337.052C304.456 340.238 295.726 344.022 289.716 348.201C283.691 352.391 280.5 356.903 280.5 361.529Z" stroke="#4C4C4C" stroke-opacity="0.15"/>
<ellipse rx="120" ry="35.2941" transform="matrix(-1 0 0 1 400 333.294)" fill="white"/>
<path d="M280.5 333.294C280.5 337.92 283.691 342.432 289.716 346.621C295.726 350.801 304.456 354.585 315.288 357.771C336.947 364.141 366.897 368.088 400 368.088C433.103 368.088 463.054 364.141 484.712 357.771C495.544 354.585 504.274 350.801 510.285 346.621C516.31 342.432 519.5 337.92 519.5 333.294C519.5 328.668 516.31 324.156 510.285 319.966C504.274 315.787 495.544 312.003 484.712 308.817C463.054 302.447 433.103 298.5 400 298.5C366.897 298.5 336.947 302.447 315.288 308.817C304.456 312.003 295.726 315.787 289.716 319.966C283.691 324.156 280.5 328.668 280.5 333.294Z" stroke="#4C4C4C" stroke-opacity="0.15"/>
<ellipse rx="120" ry="35.2941" transform="matrix(-1 0 0 1 400 305.058)" fill="white"/>
<path d="M280.5 305.058C280.5 309.684 283.691 314.196 289.716 318.386C295.726 322.565 304.456 326.349 315.288 329.535C336.947 335.905 366.897 339.852 400 339.852C433.103 339.852 463.053 335.905 484.712 329.535C495.544 326.349 504.274 322.565 510.284 318.386C516.309 314.196 519.5 309.684 519.5 305.058C519.5 300.432 516.309 295.92 510.284 291.731C504.274 287.551 495.544 283.767 484.712 280.581C463.053 274.211 433.103 270.264 400 270.264C366.897 270.264 336.947 274.211 315.288 280.581C304.456 283.767 295.726 287.551 289.716 291.731C283.691 295.92 280.5 300.432 280.5 305.058Z" stroke="#4C4C4C" stroke-opacity="0.15"/>
<ellipse rx="120" ry="35.2941" transform="matrix(-1 0 0 1 120.001 502.705)" fill="white"/>
<path d="M0.500595 502.705C0.500595 507.331 3.69113 511.843 9.71625 516.033C15.7266 520.212 24.4564 523.996 35.2889 527.182C56.9472 533.552 86.8974 537.499 120.001 537.499C153.104 537.499 183.054 533.552 204.712 527.182C215.545 523.996 224.275 520.212 230.285 516.033C236.31 511.843 239.501 507.331 239.501 502.705C239.501 498.079 236.31 493.568 230.285 489.378C224.275 485.198 215.545 481.414 204.712 478.228C183.054 471.858 153.104 467.911 120.001 467.911C86.8974 467.911 56.9472 471.858 35.2889 478.228C24.4564 481.414 15.7266 485.198 9.71625 489.378C3.69113 493.568 0.500595 498.079 0.500595 502.705Z" stroke="#4C4C4C" stroke-opacity="0.15"/>
<ellipse rx="120" ry="35.2941" transform="matrix(-1 0 0 1 120.001 474.471)" fill="white"/>
<path d="M0.500595 474.471C0.500595 479.097 3.69113 483.608 9.71625 487.798C15.7266 491.978 24.4564 495.762 35.2889 498.948C56.9472 505.318 86.8974 509.265 120.001 509.265C153.104 509.265 183.054 505.318 204.712 498.948C215.545 495.762 224.275 491.978 230.285 487.798C236.31 483.608 239.501 479.097 239.501 474.471C239.501 469.844 236.31 465.333 230.285 461.143C224.275 456.963 215.545 453.179 204.712 449.993C183.054 443.623 153.104 439.676 120.001 439.676C86.8974 439.676 56.9472 443.623 35.2889 449.993C24.4564 453.179 15.7266 456.963 9.71625 461.143C3.69113 465.333 0.500595 469.844 0.500595 474.471Z" stroke="#4C4C4C" stroke-opacity="0.15"/>
<ellipse rx="120" ry="35.2941" transform="matrix(-1 0 0 1 120.001 446.235)" fill="white"/>
<path d="M0.500595 446.235C0.500595 450.861 3.69113 455.373 9.71625 459.562C15.7266 463.742 24.4564 467.526 35.2889 470.712C56.9472 477.082 86.8974 481.029 120.001 481.029C153.104 481.029 183.054 477.082 204.712 470.712C215.545 467.526 224.275 463.742 230.285 459.562C236.31 455.373 239.501 450.861 239.501 446.235C239.501 441.609 236.31 437.097 230.285 432.907C224.275 428.728 215.545 424.944 204.712 421.758C183.054 415.388 153.104 411.441 120.001 411.441C86.8974 411.441 56.9472 415.388 35.2889 421.758C24.4564 424.944 15.7266 428.728 9.71625 432.907C3.69113 437.097 0.500595 441.609 0.500595 446.235Z" stroke="#4C4C4C" stroke-opacity="0.15"/>
<ellipse rx="120" ry="35.2941" transform="matrix(-1 0 0 1 120.001 418)" fill="white"/>
<path d="M0.500595 418C0.500595 422.626 3.69113 427.138 9.71625 431.328C15.7266 435.507 24.4564 439.291 35.2889 442.477C56.9472 448.847 86.8974 452.794 120.001 452.794C153.104 452.794 183.054 448.847 204.712 442.477C215.545 439.291 224.275 435.507 230.285 431.328C236.31 427.138 239.501 422.626 239.501 418C239.501 413.374 236.31 408.862 230.285 404.672C224.275 400.493 215.545 396.709 204.712 393.523C183.054 387.153 153.104 383.206 120.001 383.206C86.8974 383.206 56.9472 387.153 35.2889 393.523C24.4564 396.709 15.7266 400.493 9.71625 404.672C3.69113 408.862 0.500595 413.374 0.500595 418Z" stroke="#4C4C4C" stroke-opacity="0.15"/>
<ellipse rx="120" ry="35.2941" transform="matrix(-1 0 0 1 120.001 389.764)" fill="white"/>
<path d="M0.500595 389.764C0.500595 394.39 3.69113 398.902 9.71625 403.092C15.7266 407.271 24.4564 411.055 35.2889 414.241C56.9472 420.611 86.8974 424.558 120.001 424.558C153.104 424.558 183.054 420.611 204.712 414.241C215.545 411.055 224.275 407.271 230.285 403.092C236.31 398.902 239.501 394.39 239.501 389.764C239.501 385.138 236.31 380.626 230.285 376.437C224.275 372.257 215.545 368.473 204.712 365.287C183.054 358.917 153.104 354.97 120.001 354.97C86.8974 354.97 56.9472 358.917 35.2889 365.287C24.4564 368.473 15.7266 372.257 9.71625 376.437C3.69113 380.626 0.500595 385.138 0.500595 389.764Z" stroke="#4C4C4C" stroke-opacity="0.15"/>
<ellipse rx="120" ry="35.2941" transform="matrix(-1 0 0 1 120.001 361.529)" fill="white"/>
<path d="M0.500595 361.529C0.500595 366.155 3.69113 370.667 9.71625 374.856C15.7266 379.036 24.4564 382.82 35.2889 386.006C56.9472 392.376 86.8974 396.323 120.001 396.323C153.104 396.323 183.054 392.376 204.712 386.006C215.545 382.82 224.275 379.036 230.285 374.856C236.31 370.667 239.501 366.155 239.501 361.529C239.501 356.903 236.31 352.391 230.285 348.201C224.275 344.022 215.545 340.238 204.712 337.052C183.054 330.682 153.104 326.735 120.001 326.735C86.8974 326.735 56.9472 330.682 35.2889 337.052C24.4564 340.238 15.7266 344.022 9.71625 348.201C3.69113 352.391 0.500595 356.903 0.500595 361.529Z" stroke="#4C4C4C" stroke-opacity="0.15"/>
<ellipse rx="120" ry="35.2941" transform="matrix(-1 0 0 1 120.001 333.294)" fill="white"/>
<path d="M0.500595 333.294C0.500595 337.92 3.69113 342.432 9.71625 346.621C15.7266 350.801 24.4564 354.585 35.2889 357.771C56.9472 364.141 86.8974 368.088 120.001 368.088C153.104 368.088 183.054 364.141 204.712 357.771C215.545 354.585 224.275 350.801 230.285 346.621C236.31 342.432 239.501 337.92 239.501 333.294C239.501 328.668 236.31 324.156 230.285 319.966C224.275 315.787 215.545 312.003 204.712 308.817C183.054 302.447 153.104 298.5 120.001 298.5C86.8974 298.5 56.9472 302.447 35.2889 308.817C24.4564 312.003 15.7266 315.787 9.71625 319.966C3.69113 324.156 0.500595 328.668 0.500595 333.294Z" stroke="#4C4C4C" stroke-opacity="0.15"/>
<ellipse rx="120" ry="35.2941" transform="matrix(-1 0 0 1 120.001 305.058)" fill="white"/>
<path d="M0.500595 305.058C0.500595 309.684 3.69113 314.196 9.71625 318.386C15.7266 322.565 24.4564 326.349 35.2889 329.535C56.9472 335.905 86.8974 339.852 120.001 339.852C153.104 339.852 183.054 335.905 204.712 329.535C215.545 326.349 224.275 322.565 230.285 318.386C236.31 314.196 239.501 309.684 239.501 305.058C239.501 300.432 236.31 295.92 230.285 291.731C224.275 287.551 215.545 283.767 204.712 280.581C183.054 274.211 153.104 270.264 120.001 270.264C86.8974 270.264 56.9472 274.211 35.2889 280.581C24.4564 283.767 15.7266 287.551 9.71625 291.731C3.69113 295.92 0.500595 300.432 0.500595 305.058Z" stroke="#4C4C4C" stroke-opacity="0.15"/>
<ellipse rx="120" ry="35.2941" transform="matrix(-1 0 0 1 120.001 302.705)" fill="white"/>
<path d="M0.500595 302.705C0.500595 307.331 3.69113 311.843 9.71625 316.033C15.7266 320.212 24.4564 323.996 35.2889 327.182C56.9472 333.552 86.8974 337.499 120.001 337.499C153.104 337.499 183.054 333.552 204.712 327.182C215.545 323.996 224.275 320.212 230.285 316.033C236.31 311.843 239.501 307.331 239.501 302.705C239.501 298.079 236.31 293.568 230.285 289.378C224.275 285.198 215.545 281.414 204.712 278.228C183.054 271.858 153.104 267.911 120.001 267.911C86.8974 267.911 56.9472 271.858 35.2889 278.228C24.4564 281.414 15.7266 285.198 9.71625 289.378C3.69113 293.568 0.500595 298.079 0.500595 302.705Z" stroke="#4C4C4C" stroke-opacity="0.15"/>
<ellipse rx="120" ry="35.2941" transform="matrix(-1 0 0 1 120.001 274.471)" fill="white"/>
<path d="M0.500595 274.471C0.500595 279.097 3.69113 283.608 9.71625 287.798C15.7266 291.978 24.4564 295.762 35.2889 298.948C56.9472 305.318 86.8974 309.265 120.001 309.265C153.104 309.265 183.054 305.318 204.712 298.948C215.545 295.762 224.275 291.978 230.285 287.798C236.31 283.608 239.501 279.097 239.501 274.471C239.501 269.844 236.31 265.333 230.285 261.143C224.275 256.963 215.545 253.179 204.712 249.993C183.054 243.623 153.104 239.676 120.001 239.676C86.8974 239.676 56.9472 243.623 35.2889 249.993C24.4564 253.179 15.7266 256.963 9.71625 261.143C3.69113 265.333 0.500595 269.844 0.500595 274.471Z" stroke="#4C4C4C" stroke-opacity="0.15"/>
<ellipse rx="120" ry="35.2941" transform="matrix(-1 0 0 1 120.001 246.236)" fill="white"/>
<path d="M0.500595 246.236C0.500595 250.862 3.69113 255.374 9.71625 259.563C15.7266 263.743 24.4564 267.527 35.2889 270.713C56.9472 277.083 86.8974 281.03 120.001 281.03C153.104 281.03 183.054 277.083 204.712 270.713C215.545 267.527 224.275 263.743 230.285 259.563C236.31 255.374 239.501 250.862 239.501 246.236C239.501 241.61 236.31 237.098 230.285 232.908C224.275 228.729 215.545 224.945 204.712 221.759C183.054 215.389 153.104 211.442 120.001 211.442C86.8974 211.442 56.9472 215.389 35.2889 221.759C24.4564 224.945 15.7266 228.729 9.71625 232.908C3.69113 237.098 0.500595 241.61 0.500595 246.236Z" stroke="#4C4C4C" stroke-opacity="0.15"/>
<ellipse rx="120" ry="35.2941" transform="matrix(-1 0 0 1 120.001 218)" fill="white"/>
<path d="M0.500595 218C0.500595 222.626 3.69113 227.138 9.71625 231.328C15.7266 235.507 24.4564 239.291 35.2889 242.477C56.9472 248.847 86.8974 252.794 120.001 252.794C153.104 252.794 183.054 248.847 204.712 242.477C215.545 239.291 224.275 235.507 230.285 231.328C236.31 227.138 239.501 222.626 239.501 218C239.501 213.374 236.31 208.862 230.285 204.672C224.275 200.493 215.545 196.709 204.712 193.523C183.054 187.153 153.104 183.206 120.001 183.206C86.8974 183.206 56.9472 187.153 35.2889 193.523C24.4564 196.709 15.7266 200.493 9.71625 204.672C3.69113 208.862 0.500595 213.374 0.500595 218Z" stroke="#4C4C4C" stroke-opacity="0.15"/>
<ellipse rx="120" ry="35.2941" transform="matrix(-1 0 0 1 120.001 189.764)" fill="white"/>
<path d="M0.500595 189.764C0.500595 194.39 3.69113 198.902 9.71625 203.092C15.7266 207.271 24.4564 211.055 35.2889 214.241C56.9472 220.611 86.8974 224.558 120.001 224.558C153.104 224.558 183.054 220.611 204.712 214.241C215.545 211.055 224.275 207.271 230.285 203.092C236.31 198.902 239.501 194.39 239.501 189.764C239.501 185.138 236.31 180.626 230.285 176.437C224.275 172.257 215.545 168.473 204.712 165.287C183.054 158.917 153.104 154.97 120.001 154.97C86.8974 154.97 56.9472 158.917 35.2889 165.287C24.4564 168.473 15.7266 172.257 9.71625 176.437C3.69113 180.626 0.500595 185.138 0.500595 189.764Z" stroke="#4C4C4C" stroke-opacity="0.15"/>
<ellipse rx="120" ry="35.2941" transform="matrix(-1 0 0 1 120.001 161.529)" fill="white"/>
<path d="M0.500595 161.529C0.500595 166.155 3.69113 170.667 9.71625 174.856C15.7266 179.036 24.4564 182.82 35.2889 186.006C56.9472 192.376 86.8974 196.323 120.001 196.323C153.104 196.323 183.054 192.376 204.712 186.006C215.545 182.82 224.275 179.036 230.285 174.856C236.31 170.667 239.501 166.155 239.501 161.529C239.501 156.903 236.31 152.391 230.285 148.201C224.275 144.022 215.545 140.238 204.712 137.052C183.054 130.682 153.104 126.735 120.001 126.735C86.8974 126.735 56.9472 130.682 35.2889 137.052C24.4564 140.238 15.7266 144.022 9.71625 148.201C3.69113 152.391 0.500595 156.903 0.500595 161.529Z" stroke="#4C4C4C" stroke-opacity="0.15"/>
<ellipse rx="120" ry="35.2941" transform="matrix(-1 0 0 1 120.001 133.294)" fill="white"/>
<path d="M0.500595 133.294C0.500595 137.92 3.69113 142.432 9.71625 146.621C15.7266 150.801 24.4564 154.585 35.2889 157.771C56.9472 164.141 86.8974 168.088 120.001 168.088C153.104 168.088 183.054 164.141 204.712 157.771C215.545 154.585 224.275 150.801 230.285 146.621C236.31 142.432 239.501 137.92 239.501 133.294C239.501 128.668 236.31 124.156 230.285 119.966C224.275 115.787 215.545 112.003 204.712 108.817C183.054 102.447 153.104 98.4998 120.001 98.4998C86.8974 98.4998 56.9472 102.447 35.2889 108.817C24.4564 112.003 15.7266 115.787 9.71625 119.966C3.69113 124.156 0.500595 128.668 0.500595 133.294Z" stroke="#4C4C4C" stroke-opacity="0.15"/>
<ellipse rx="120" ry="35.2941" transform="matrix(-1 0 0 1 120 105.058)" fill="white"/>
<path d="M0.499985 105.058C0.499985 109.684 3.69052 114.196 9.71564 118.386C15.726 122.565 24.4558 126.349 35.2883 129.535C56.9466 135.905 86.8968 139.852 120 139.852C153.103 139.852 183.053 135.905 204.712 129.535C215.544 126.349 224.274 122.565 230.284 118.386C236.309 114.196 239.5 109.684 239.5 105.058C239.5 100.432 236.309 95.9204 230.284 91.7307C224.274 87.5513 215.544 83.7673 204.712 80.5813C183.053 74.2112 153.103 70.2642 120 70.2642C86.8968 70.2642 56.9466 74.2112 35.2883 80.5813C24.4558 83.7673 15.726 87.5513 9.71564 91.7307C3.69052 95.9204 0.499985 100.432 0.499985 105.058Z" stroke="#4C4C4C" stroke-opacity="0.15"/>
<circle r="142.709" transform="matrix(-1 0 0 1 400.459 147.709)" stroke="white" stroke-width="10"/>
<path d="M446.316 175.578C446.316 181.878 444.741 187.8 441.591 193.344C438.567 198.888 434.031 203.55 427.983 207.33C422.061 211.11 415.005 213.378 406.815 214.134V229.443H394.53V214.134C382.686 213 373.11 209.283 365.802 202.983C358.494 196.683 354.84 188.367 354.84 178.035H377.898C378.276 182.949 379.851 187.044 382.623 190.32C385.395 193.47 389.364 195.486 394.53 196.368V154.788C386.088 152.646 379.221 150.504 373.929 148.362C368.637 146.094 364.101 142.566 360.321 137.778C356.667 132.99 354.84 126.438 354.84 118.122C354.84 107.664 358.494 99.033 365.802 92.229C373.11 85.299 382.686 81.267 394.53 80.133V64.824H406.815V80.133C417.903 81.141 426.786 84.669 433.464 90.717C440.268 96.639 444.111 104.829 444.993 115.287H421.935C421.557 111.381 420.045 107.916 417.399 104.892C414.753 101.742 411.225 99.6 406.815 98.466V139.29C415.257 141.306 422.124 143.448 427.416 145.716C432.708 147.858 437.181 151.323 440.835 156.111C444.489 160.773 446.316 167.262 446.316 175.578ZM376.764 116.988C376.764 122.154 378.276 126.186 381.3 129.084C384.45 131.982 388.86 134.313 394.53 136.077V97.899C389.112 98.529 384.765 100.482 381.489 103.758C378.339 107.034 376.764 111.444 376.764 116.988ZM406.815 196.368C412.359 195.486 416.706 193.281 419.856 189.753C423.006 186.099 424.581 181.752 424.581 176.712C424.581 171.672 423.006 167.766 419.856 164.994C416.832 162.096 412.485 159.765 406.815 158.001V196.368Z" fill="white"/>
</svg>
