<svg width="413" height="505" viewBox="0 0 413 505" fill="none" xmlns="http://www.w3.org/2000/svg">
<ellipse rx="95.1493" ry="27.9851" transform="matrix(-1 0 0 1 317.165 477.015)" fill="white"/>
<path d="M222.515 477.015C222.515 480.632 225.011 484.182 229.778 487.498C234.531 490.803 241.441 493.799 250.025 496.324C267.186 501.371 290.924 504.5 317.165 504.5C343.406 504.5 367.143 501.371 384.304 496.324C392.888 493.799 399.798 490.803 404.551 487.498C409.319 484.182 411.814 480.632 411.814 477.015C411.814 473.398 409.319 469.848 404.551 466.533C399.798 463.228 392.888 460.231 384.304 457.706C367.143 452.659 343.406 449.53 317.165 449.53C290.924 449.53 267.186 452.659 250.025 457.706C241.441 460.231 234.531 463.228 229.778 466.533C225.011 469.848 222.515 473.398 222.515 477.015Z" stroke="#4C4C4C" stroke-opacity="0.15"/>
<ellipse rx="95.1493" ry="27.9851" transform="matrix(-1 0 0 1 317.165 454.16)" fill="white"/>
<path d="M222.515 454.16C222.515 457.777 225.011 461.328 229.778 464.643C234.531 467.948 241.441 470.945 250.025 473.469C267.186 478.517 290.924 481.646 317.165 481.646C343.406 481.646 367.143 478.517 384.304 473.469C392.888 470.945 399.798 467.948 404.551 464.643C409.319 461.328 411.814 457.777 411.814 454.16C411.814 450.544 409.319 446.993 404.551 443.678C399.798 440.373 392.888 437.376 384.304 434.852C367.143 429.804 343.406 426.675 317.165 426.675C290.924 426.675 267.186 429.804 250.025 434.852C241.441 437.376 234.531 440.373 229.778 443.678C225.011 446.993 222.515 450.544 222.515 454.16Z" stroke="#4C4C4C" stroke-opacity="0.15"/>
<ellipse rx="95.1493" ry="27.9851" transform="matrix(-1 0 0 1 317.165 431.772)" fill="white"/>
<path d="M222.515 431.772C222.515 435.389 225.011 438.939 229.778 442.254C234.531 445.56 241.441 448.556 250.025 451.081C267.186 456.128 290.924 459.257 317.165 459.257C343.406 459.257 367.143 456.128 384.304 451.081C392.888 448.556 399.798 445.56 404.551 442.254C409.319 438.939 411.814 435.389 411.814 431.772C411.814 428.155 409.319 424.605 404.551 421.289C399.798 417.984 392.888 414.988 384.304 412.463C367.143 407.416 343.406 404.287 317.165 404.287C290.924 404.287 267.186 407.416 250.025 412.463C241.441 414.988 234.531 417.984 229.778 421.289C225.011 424.605 222.515 428.155 222.515 431.772Z" stroke="#4C4C4C" stroke-opacity="0.15"/>
<ellipse rx="95.1493" ry="27.9851" transform="matrix(-1 0 0 1 317.165 409.384)" fill="white"/>
<path d="M222.515 409.384C222.515 413.001 225.011 416.552 229.778 419.867C234.531 423.172 241.441 426.168 250.025 428.693C267.186 433.74 290.924 436.869 317.165 436.869C343.406 436.869 367.143 433.74 384.304 428.693C392.888 426.168 399.798 423.172 404.551 419.867C409.319 416.552 411.814 413.001 411.814 409.384C411.814 405.767 409.319 402.217 404.551 398.902C399.798 395.597 392.888 392.6 384.304 390.075C367.143 385.028 343.406 381.899 317.165 381.899C290.924 381.899 267.186 385.028 250.025 390.075C241.441 392.6 234.531 395.597 229.778 398.902C225.011 402.217 222.515 405.767 222.515 409.384Z" stroke="#4C4C4C" stroke-opacity="0.15"/>
<ellipse rx="95.1493" ry="27.9851" transform="matrix(-1 0 0 1 317.165 386.997)" fill="white"/>
<path d="M222.515 386.997C222.515 390.614 225.011 394.164 229.778 397.479C234.531 400.784 241.441 403.781 250.025 406.305C267.186 411.353 290.924 414.482 317.165 414.482C343.406 414.482 367.143 411.353 384.304 406.305C392.888 403.781 399.798 400.784 404.551 397.479C409.319 394.164 411.814 390.614 411.814 386.997C411.814 383.38 409.319 379.829 404.551 376.514C399.798 373.209 392.888 370.212 384.304 367.688C367.143 362.64 343.406 359.511 317.165 359.511C290.924 359.511 267.186 362.64 250.025 367.688C241.441 370.212 234.531 373.209 229.778 376.514C225.011 379.829 222.515 383.38 222.515 386.997Z" stroke="#4C4C4C" stroke-opacity="0.15"/>
<ellipse rx="95.1493" ry="27.9851" transform="matrix(-1 0 0 1 317.165 364.608)" fill="white"/>
<path d="M222.515 364.608C222.515 368.225 225.011 371.775 229.778 375.091C234.531 378.396 241.441 381.392 250.025 383.917C267.186 388.964 290.924 392.093 317.165 392.093C343.406 392.093 367.143 388.964 384.304 383.917C392.888 381.392 399.798 378.396 404.551 375.091C409.319 371.775 411.814 368.225 411.814 364.608C411.814 360.991 409.319 357.441 404.551 354.126C399.798 350.821 392.888 347.824 384.304 345.299C367.143 340.252 343.406 337.123 317.165 337.123C290.924 337.123 267.186 340.252 250.025 345.299C241.441 347.824 234.531 350.821 229.778 354.126C225.011 357.441 222.515 360.991 222.515 364.608Z" stroke="#4C4C4C" stroke-opacity="0.15"/>
<ellipse rx="95.1493" ry="27.9851" transform="matrix(-1 0 0 1 317.165 342.22)" fill="white"/>
<path d="M222.515 342.22C222.515 345.837 225.011 349.388 229.778 352.703C234.531 356.008 241.441 359.005 250.025 361.529C267.186 366.577 290.924 369.706 317.165 369.706C343.406 369.706 367.143 366.577 384.304 361.529C392.888 359.005 399.798 356.008 404.551 352.703C409.319 349.388 411.814 345.837 411.814 342.22C411.814 338.603 409.319 335.053 404.551 331.738C399.798 328.433 392.888 325.436 384.304 322.912C367.143 317.864 343.406 314.735 317.165 314.735C290.924 314.735 267.186 317.864 250.025 322.912C241.441 325.436 234.531 328.433 229.778 331.738C225.011 335.053 222.515 338.603 222.515 342.22Z" stroke="#4C4C4C" stroke-opacity="0.15"/>
<ellipse rx="95.1493" ry="27.9851" transform="matrix(-1 0 0 1 317.165 319.832)" fill="white"/>
<path d="M222.515 319.832C222.515 323.449 225.011 326.999 229.778 330.315C234.531 333.62 241.441 336.616 250.025 339.141C267.186 344.188 290.924 347.317 317.165 347.317C343.406 347.317 367.143 344.188 384.304 339.141C392.888 336.616 399.798 333.62 404.551 330.315C409.319 326.999 411.814 323.449 411.814 319.832C411.814 316.215 409.319 312.665 404.551 309.349C399.798 306.044 392.888 303.048 384.304 300.523C367.143 295.476 343.406 292.347 317.165 292.347C290.924 292.347 267.186 295.476 250.025 300.523C241.441 303.048 234.531 306.044 229.778 309.349C225.011 312.665 222.515 316.215 222.515 319.832Z" stroke="#4C4C4C" stroke-opacity="0.15"/>
<ellipse rx="95.1493" ry="27.9851" transform="matrix(-1 0 0 1 95.1493 476.548)" fill="white"/>
<path d="M0.500076 476.548C0.500076 480.165 2.99524 483.715 7.76283 487.031C12.5157 490.336 19.4259 493.332 28.0097 495.857C45.1709 500.904 68.9085 504.033 95.1493 504.033C121.39 504.033 145.128 500.904 162.289 495.857C170.873 493.332 177.783 490.336 182.536 487.031C187.303 483.715 189.799 480.165 189.799 476.548C189.799 472.931 187.303 469.381 182.536 466.066C177.783 462.761 170.873 459.764 162.289 457.239C145.128 452.192 121.39 449.063 95.1493 449.063C68.9085 449.063 45.1709 452.192 28.0097 457.239C19.4259 459.764 12.5157 462.761 7.76283 466.066C2.99524 469.381 0.500076 472.931 0.500076 476.548Z" stroke="#4C4C4C" stroke-opacity="0.15"/>
<ellipse rx="95.1493" ry="27.9851" transform="matrix(-1 0 0 1 95.1493 454.16)" fill="white"/>
<path d="M0.500076 454.16C0.500076 457.777 2.99524 461.328 7.76283 464.643C12.5157 467.948 19.4259 470.945 28.0097 473.469C45.1709 478.517 68.9085 481.646 95.1493 481.646C121.39 481.646 145.128 478.517 162.289 473.469C170.873 470.945 177.783 467.948 182.536 464.643C187.303 461.328 189.799 457.777 189.799 454.16C189.799 450.544 187.303 446.993 182.536 443.678C177.783 440.373 170.873 437.376 162.289 434.852C145.128 429.804 121.39 426.675 95.1493 426.675C68.9085 426.675 45.1709 429.804 28.0097 434.852C19.4259 437.376 12.5157 440.373 7.76283 443.678C2.99524 446.993 0.500076 450.544 0.500076 454.16Z" stroke="#4C4C4C" stroke-opacity="0.15"/>
<ellipse rx="95.1493" ry="27.9851" transform="matrix(-1 0 0 1 95.1493 431.772)" fill="white"/>
<path d="M0.500076 431.772C0.500076 435.389 2.99524 438.939 7.76283 442.254C12.5157 445.56 19.4259 448.556 28.0097 451.081C45.1709 456.128 68.9085 459.257 95.1493 459.257C121.39 459.257 145.128 456.128 162.289 451.081C170.873 448.556 177.783 445.56 182.536 442.254C187.303 438.939 189.799 435.389 189.799 431.772C189.799 428.155 187.303 424.605 182.536 421.289C177.783 417.984 170.873 414.988 162.289 412.463C145.128 407.416 121.39 404.287 95.1493 404.287C68.9085 404.287 45.1709 407.416 28.0097 412.463C19.4259 414.988 12.5157 417.984 7.76283 421.289C2.99524 424.605 0.500076 428.155 0.500076 431.772Z" stroke="#4C4C4C" stroke-opacity="0.15"/>
<ellipse rx="95.1493" ry="27.9851" transform="matrix(-1 0 0 1 95.1493 409.384)" fill="white"/>
<path d="M0.500076 409.384C0.500076 413.001 2.99524 416.552 7.76283 419.867C12.5157 423.172 19.4259 426.168 28.0097 428.693C45.1709 433.74 68.9085 436.869 95.1493 436.869C121.39 436.869 145.128 433.74 162.289 428.693C170.873 426.168 177.783 423.172 182.536 419.867C187.303 416.552 189.799 413.001 189.799 409.384C189.799 405.767 187.303 402.217 182.536 398.902C177.783 395.597 170.873 392.6 162.289 390.075C145.128 385.028 121.39 381.899 95.1493 381.899C68.9085 381.899 45.1709 385.028 28.0097 390.075C19.4259 392.6 12.5157 395.597 7.76283 398.902C2.99524 402.217 0.500076 405.767 0.500076 409.384Z" stroke="#4C4C4C" stroke-opacity="0.15"/>
<ellipse rx="95.1493" ry="27.9851" transform="matrix(-1 0 0 1 95.1493 386.997)" fill="white"/>
<path d="M0.500076 386.997C0.500076 390.614 2.99524 394.164 7.76283 397.479C12.5157 400.784 19.4259 403.781 28.0097 406.305C45.1709 411.353 68.9085 414.482 95.1493 414.482C121.39 414.482 145.128 411.353 162.289 406.305C170.873 403.781 177.783 400.784 182.536 397.479C187.303 394.164 189.799 390.614 189.799 386.997C189.799 383.38 187.303 379.829 182.536 376.514C177.783 373.209 170.873 370.212 162.289 367.688C145.128 362.64 121.39 359.511 95.1493 359.511C68.9085 359.511 45.1709 362.64 28.0097 367.688C19.4259 370.212 12.5157 373.209 7.76283 376.514C2.99524 379.829 0.500076 383.38 0.500076 386.997Z" stroke="#4C4C4C" stroke-opacity="0.15"/>
<ellipse rx="95.1493" ry="27.9851" transform="matrix(-1 0 0 1 95.1493 364.608)" fill="white"/>
<path d="M0.500076 364.608C0.500076 368.225 2.99524 371.775 7.76283 375.091C12.5157 378.396 19.4259 381.392 28.0097 383.917C45.1709 388.964 68.9085 392.093 95.1493 392.093C121.39 392.093 145.128 388.964 162.289 383.917C170.873 381.392 177.783 378.396 182.536 375.091C187.303 371.775 189.799 368.225 189.799 364.608C189.799 360.991 187.303 357.441 182.536 354.126C177.783 350.821 170.873 347.824 162.289 345.299C145.128 340.252 121.39 337.123 95.1493 337.123C68.9085 337.123 45.1709 340.252 28.0097 345.299C19.4259 347.824 12.5157 350.821 7.76283 354.126C2.99524 357.441 0.500076 360.991 0.500076 364.608Z" stroke="#4C4C4C" stroke-opacity="0.15"/>
<ellipse rx="95.1493" ry="27.9851" transform="matrix(-1 0 0 1 95.1493 342.22)" fill="white"/>
<path d="M0.500076 342.22C0.500076 345.837 2.99524 349.388 7.76283 352.703C12.5157 356.008 19.4259 359.005 28.0097 361.529C45.1709 366.577 68.9085 369.706 95.1493 369.706C121.39 369.706 145.128 366.577 162.289 361.529C170.873 359.005 177.783 356.008 182.536 352.703C187.303 349.388 189.799 345.837 189.799 342.22C189.799 338.603 187.303 335.053 182.536 331.738C177.783 328.433 170.873 325.436 162.289 322.912C145.128 317.864 121.39 314.735 95.1493 314.735C68.9085 314.735 45.1709 317.864 28.0097 322.912C19.4259 325.436 12.5157 328.433 7.76283 331.738C2.99524 335.053 0.500076 338.603 0.500076 342.22Z" stroke="#4C4C4C" stroke-opacity="0.15"/>
<ellipse rx="95.1493" ry="27.9851" transform="matrix(-1 0 0 1 95.1493 319.832)" fill="white"/>
<path d="M0.500076 319.832C0.500076 323.449 2.99524 326.999 7.76283 330.315C12.5157 333.62 19.4259 336.616 28.0097 339.141C45.1709 344.188 68.9085 347.317 95.1493 347.317C121.39 347.317 145.128 344.188 162.289 339.141C170.873 336.616 177.783 333.62 182.536 330.315C187.303 326.999 189.799 323.449 189.799 319.832C189.799 316.215 187.303 312.665 182.536 309.349C177.783 306.044 170.873 303.048 162.289 300.523C145.128 295.476 121.39 292.347 95.1493 292.347C68.9085 292.347 45.1709 295.476 28.0097 300.523C19.4259 303.048 12.5157 306.044 7.76283 309.349C2.99524 312.665 0.500076 316.215 0.500076 319.832Z" stroke="#4C4C4C" stroke-opacity="0.15"/>
<ellipse rx="95.1493" ry="27.9851" transform="matrix(-1 0 0 1 95.1493 317.967)" fill="white"/>
<path d="M0.500076 317.967C0.500076 321.584 2.99524 325.134 7.76283 328.449C12.5157 331.754 19.4259 334.751 28.0097 337.275C45.1709 342.323 68.9085 345.452 95.1493 345.452C121.39 345.452 145.128 342.323 162.289 337.275C170.873 334.751 177.783 331.754 182.536 328.449C187.303 325.134 189.799 321.584 189.799 317.967C189.799 314.35 187.303 310.799 182.536 307.484C177.783 304.179 170.873 301.183 162.289 298.658C145.128 293.61 121.39 290.482 95.1493 290.482C68.9085 290.482 45.1709 293.61 28.0097 298.658C19.4259 301.183 12.5157 304.179 7.76283 307.484C2.99524 310.799 0.500076 314.35 0.500076 317.967Z" stroke="#4C4C4C" stroke-opacity="0.15"/>
<ellipse rx="95.1493" ry="27.9851" transform="matrix(-1 0 0 1 95.1493 295.578)" fill="white"/>
<path d="M0.500076 295.578C0.500076 299.195 2.99524 302.745 7.76283 306.061C12.5157 309.366 19.4259 312.362 28.0097 314.887C45.1709 319.934 68.9085 323.063 95.1493 323.063C121.39 323.063 145.128 319.934 162.289 314.887C170.873 312.362 177.783 309.366 182.536 306.061C187.303 302.745 189.799 299.195 189.799 295.578C189.799 291.961 187.303 288.411 182.536 285.096C177.783 281.791 170.873 278.794 162.289 276.269C145.128 271.222 121.39 268.093 95.1493 268.093C68.9085 268.093 45.1709 271.222 28.0097 276.269C19.4259 278.794 12.5157 281.791 7.76283 285.096C2.99524 288.411 0.500076 291.961 0.500076 295.578Z" stroke="#4C4C4C" stroke-opacity="0.15"/>
<ellipse rx="95.1493" ry="27.9851" transform="matrix(-1 0 0 1 95.1493 273.19)" fill="white"/>
<path d="M0.500076 273.19C0.500076 276.807 2.99524 280.358 7.76283 283.673C12.5157 286.978 19.4259 289.974 28.0097 292.499C45.1709 297.547 68.9085 300.675 95.1493 300.675C121.39 300.675 145.128 297.547 162.289 292.499C170.873 289.974 177.783 286.978 182.536 283.673C187.303 280.358 189.799 276.807 189.799 273.19C189.799 269.573 187.303 266.023 182.536 262.708C177.783 259.403 170.873 256.406 162.289 253.882C145.128 248.834 121.39 245.705 95.1493 245.705C68.9085 245.705 45.1709 248.834 28.0097 253.882C19.4259 256.406 12.5157 259.403 7.76283 262.708C2.99524 266.023 0.500076 269.573 0.500076 273.19Z" stroke="#4C4C4C" stroke-opacity="0.15"/>
<circle cx="237.873" cy="139.795" r="74.291" stroke="white" stroke-width="10"/>
<path d="M274.336 161.488C274.336 166.288 273.136 170.8 270.736 175.024C268.432 179.248 264.976 182.8 260.368 185.68C255.856 188.56 250.48 190.288 244.24 190.864V202.528H234.88V190.864C225.856 190 218.56 187.168 212.992 182.368C207.424 177.568 204.64 171.232 204.64 163.36H222.208C222.496 167.104 223.696 170.224 225.808 172.72C227.92 175.12 230.944 176.656 234.88 177.328V145.648C228.448 144.016 223.216 142.384 219.184 140.752C215.152 139.024 211.696 136.336 208.816 132.688C206.032 129.04 204.64 124.048 204.64 117.712C204.64 109.744 207.424 103.168 212.992 97.984C218.56 92.704 225.856 89.632 234.88 88.768V77.104H244.24V88.768C252.688 89.536 259.456 92.224 264.544 96.832C269.728 101.344 272.656 107.584 273.328 115.552H255.76C255.472 112.576 254.32 109.936 252.304 107.632C250.288 105.232 247.6 103.6 244.24 102.736V133.84C250.672 135.376 255.904 137.008 259.936 138.736C263.968 140.368 267.376 143.008 270.16 146.656C272.944 150.208 274.336 155.152 274.336 161.488ZM221.344 116.848C221.344 120.784 222.496 123.856 224.8 126.064C227.2 128.272 230.56 130.048 234.88 131.392V102.304C230.752 102.784 227.44 104.272 224.944 106.768C222.544 109.264 221.344 112.624 221.344 116.848ZM244.24 177.328C248.464 176.656 251.776 174.976 254.176 172.288C256.576 169.504 257.776 166.192 257.776 162.352C257.776 158.512 256.576 155.536 254.176 153.424C251.872 151.216 248.56 149.44 244.24 148.096V177.328Z" fill="white"/>
<path d="M155.2 215.919C166.817 225.623 188.405 240.861 209.933 246.37" stroke="white" stroke-width="10" stroke-miterlimit="10" stroke-linecap="round" stroke-linejoin="round"/>
<path d="M212.225 248.622V276.463H274.871V251.865C288.791 245.921 312.169 233.603 326.851 216.923L354.063 231.389L379.356 177.988L349.609 163.569C351.033 156.371 351.374 148.941 351.374 141.331C351.374 133.721 350.554 126.295 349.13 119.093L378.341 104.678L351.99 51.2776L326.86 65.7349C312.182 49.063 288.791 36.737 274.875 30.7967V5H212.225V30.8009C191.344 36.7412 168.087 49.0672 153.409 65.7391L122.775 51.2818L95.767 104.682L124.661 119.098C123.245 126.295 122.301 133.726 122.301 141.335C122.301 148.945 122.996 156.375 124.415 163.573L95.1509 177.993L121.472 231.393L153.413 215.312" stroke="white" stroke-width="10" stroke-miterlimit="10" stroke-linecap="round" stroke-linejoin="round"/>
</svg>
