<svg width="479" height="510" viewBox="0 0 479 510" fill="none" xmlns="http://www.w3.org/2000/svg">
<g opacity="0.5">
<path d="M228.718 147.526L143.842 323.886C131.421 349.7 100.412 360.544 74.6091 348.122L184.328 120.179" stroke="white" stroke-width="10" stroke-miterlimit="10" stroke-linecap="round" stroke-linejoin="round"/>
<path d="M234.41 149.633L318.293 323.886C330.714 349.7 361.713 360.544 387.515 348.122L277.807 120.179" stroke="white" stroke-width="10" stroke-miterlimit="10" stroke-linecap="round" stroke-linejoin="round"/>
<path d="M231.068 144.58C259.507 144.58 282.562 121.525 282.562 93.0854C282.562 64.6456 259.507 41.5906 231.068 41.5906C202.628 41.5906 179.573 64.6456 179.573 93.0854C179.573 121.525 202.628 144.58 231.068 144.58Z" stroke="white" stroke-width="10" stroke-miterlimit="10" stroke-linecap="round" stroke-linejoin="round"/>
<path d="M232.855 38.0943V5" stroke="white" stroke-width="10" stroke-miterlimit="10" stroke-linecap="round" stroke-linejoin="round"/>
<path d="M188.728 236.66H276.98" stroke="white" stroke-width="10" stroke-miterlimit="10" stroke-linecap="round" stroke-linejoin="round"/>
<path d="M122.54 236.66H78.4146" stroke="white" stroke-width="10" stroke-miterlimit="10" stroke-linecap="round" stroke-linejoin="round"/>
<path d="M343.168 236.66H376.263" stroke="white" stroke-width="10" stroke-miterlimit="10" stroke-linecap="round" stroke-linejoin="round"/>
<path d="M232.855 214.598V280.786" stroke="white" stroke-width="10" stroke-miterlimit="10" stroke-linecap="round" stroke-linejoin="round"/>
<path d="M462.926 505H16.0314C9.94209 505 5 500.058 5 493.969V398.436C5 392.336 9.94209 387.405 16.0314 387.405H462.926C469.027 387.405 473.958 392.336 473.958 398.436V493.969C473.958 500.058 469.016 505 462.926 505Z" stroke="white" stroke-width="10" stroke-miterlimit="10" stroke-linecap="round" stroke-linejoin="round"/>
<path d="M78.4146 501.415V468.321" stroke="white" stroke-width="10" stroke-miterlimit="10" stroke-linecap="round" stroke-linejoin="round"/>
<path d="M122.54 501.414V479.352" stroke="white" stroke-width="10" stroke-miterlimit="10" stroke-linecap="round" stroke-linejoin="round"/>
<path d="M166.665 501.415V468.321" stroke="white" stroke-width="10" stroke-miterlimit="10" stroke-linecap="round" stroke-linejoin="round"/>
<path d="M210.792 501.414V479.352" stroke="white" stroke-width="10" stroke-miterlimit="10" stroke-linecap="round" stroke-linejoin="round"/>
<path d="M265.95 501.415V468.321" stroke="white" stroke-width="10" stroke-miterlimit="10" stroke-linecap="round" stroke-linejoin="round"/>
<path d="M310.075 501.414V479.352" stroke="white" stroke-width="10" stroke-miterlimit="10" stroke-linecap="round" stroke-linejoin="round"/>
<path d="M354.2 501.415V468.321" stroke="white" stroke-width="10" stroke-miterlimit="10" stroke-linecap="round" stroke-linejoin="round"/>
<path d="M398.326 501.414V479.352" stroke="white" stroke-width="10" stroke-miterlimit="10" stroke-linecap="round" stroke-linejoin="round"/>
</g>
</svg>
