<svg width="470" height="511" viewBox="0 0 470 511" fill="none" xmlns="http://www.w3.org/2000/svg">
<path d="M134.928 292.465C110.323 252.028 100.598 185.415 122.8 148.548L177.191 237.987L247.959 244.283L274.919 178.536L220.528 89.1101C263.476 86.3516 318.726 125.279 343.311 165.723C369.613 208.973 361.794 248.014 324.223 284.063L420.018 435.946C433.273 457.732 427.79 485.263 406.01 498.512C384.218 511.754 357.257 503.949 344.009 482.169L248.167 330.212C209.675 340.326 161.164 335.581 134.928 292.465Z" stroke="white" stroke-width="10" stroke-miterlimit="10" stroke-linecap="round" stroke-linejoin="round"/>
<path d="M275.465 397.791V442.678H174.461V403.019C152.018 393.435 114.325 373.575 90.6534 346.682L46.7795 370.005L5.99978 283.908L53.961 260.659C51.6656 249.055 51.1153 237.074 51.1153 224.806C51.1153 212.537 52.4375 200.563 54.7328 188.952L7.63739 165.71L50.1219 79.6131L90.64 102.923C114.305 76.0425 152.018 56.1694 174.455 46.5919V5H275.465V46.5986C309.13 56.1761 346.628 76.0492 370.293 102.929L419.684 79.6198L463.229 165.716L416.643 188.959C418.925 200.563 420.449 212.543 420.449 224.812C420.449 237.081 419.328 249.061 417.039 260.666L464.222 283.915L421.785 370.011L370.286 344.084" stroke="white" stroke-width="10" stroke-miterlimit="10" stroke-linecap="round" stroke-linejoin="round"/>
</svg>
