<svg height="512" viewBox="0 0 60 60" width="512" xmlns="http://www.w3.org/2000/svg"><g id="Page-1" fill="none" fill-rule="evenodd"><g id="024---Server-Settings" fill="rgb(0,0,0)" fill-rule="nonzero"><circle id="Oval" cx="5" cy="11" r="1"/><path id="Shape" d="m5 14c-.55228475 0-1 .4477153-1 1v2c0 .5522847.44771525 1 1 1s1-.4477153 1-1v-2c0-.5522847-.44771525-1-1-1z"/><circle id="Oval" cx="5" cy="24" r="1"/><path id="Shape" d="m5 27c-.55228475 0-1 .4477153-1 1v2c0 .5522847.44771525 1 1 1s1-.4477153 1-1v-2c0-.5522847-.44771525-1-1-1z"/><circle id="Oval" cx="5" cy="37" r="1"/><path id="Shape" d="m5 40c-.55228475 0-1 .4477153-1 1v2c0 .5522847.44771525 1 1 1s1-.4477153 1-1v-2c0-.5522847-.44771525-1-1-1z"/><path id="Shape" d="m58.524 32.893-4.418-1.473c-.2857861-.8855796-.6401937-1.7475256-1.06-2.578l2.078-4.157c.4179266-.8300231.2566994-1.834469-.4-2.492l-2.917-2.913c-.6558793-.6585121-1.6602884-.8218143-2.491-.405l-4.158 2.079c-.8304744-.4198063-1.6924204-.7742139-2.578-1.06l-.58-1.741v-13.153c0-4.943-20.143-5-21-5s-21 .057-21 5v40c0 4.111 13.817 4.836 18.671 4.964-.1009819.6761682.1250244 1.3601249.609 1.843l2.913 2.913c.656477.6573471 1.6600906.8205199 2.491.405l4.158-2.079c.8304744.4198063 1.6924204.7742139 2.578 1.06l1.473 4.418c.2927688.881858 1.117814 1.4767612 2.047 1.476h4.12c.929186.0007612 1.7542312-.594142 2.047-1.476l1.473-4.418c.8855796-.2857861 1.7475256-.6401937 2.578-1.06l4.157 2.078c.8299226.4185746 1.8347672.2572833 2.492-.4l2.913-2.913c.6576378-.6563279.8208429-1.6601399.405-2.491l-2.079-4.158c.4198063-.8304744.7742139-1.6924204 1.06-2.578l4.418-1.473c.8832587-.2932305 1.4784888-1.1203422 1.476-2.051v-4.12c.0007612-.929186-.594142-1.7542312-1.476-2.047zm-29.016-12.244c-.036.014-.068.03-.1.047-.188.087-.381.165-.564.258l-4.157-2.078c-.8299226-.4185746-1.8347672-.2572833-2.492.4l-1.717 1.724c-11.505-.06-18.051-1.972-18.478-3v-10.638c5.109 2.599 18.309 2.638 19 2.638s13.891-.039 19-2.638v6.881c-.2904482-.1522843-.6121378-.2354445-.94-.243h-4.12c-.929186-.0007612-1.7542312.594142-2.047 1.476l-1.473 4.418c-.6511605.2151346-1.2895292.4672101-1.912.755zm-10.633 4.035 2.079 4.158c-.4198063.8304744-.7742139 1.6924204-1.06 2.578l-4.418 1.473c-.4611301.1565063-.854902.4659489-1.116.877-8.547-.608-12.051-2.152-12.36-2.803v-10.607c3.959 2.014 12.763 2.492 16.808 2.605-.2198455.55702-.1955337 1.1807813.067 1.719zm2.125-22.684c11.665 0 18.37 1.9 18.984 3-.614 1.1-7.319 3-18.984 3-11.8 0-18.523-1.942-19-2.943v-.019c.477-1.096 7.2-3.038 19-3.038zm-19 43v-11.637c2.822 1.451 8.069 2.1 12 2.39v3.307c-.0007612.929186.594142 1.7542312 1.476 2.047l4.418 1.473c.2857861.8855796.6401937 1.7475256 1.06 2.578l-1.41 2.821c-10.923-.149-17.137-2.001-17.544-2.979zm56-5.94c.0000517.0680382-.0434584.1284689-.108.15l-4.906 1.635c-.3106101.1036495-.5507974.3528017-.643.667-.3188065 1.095289-.7546532 2.1530556-1.3 3.155-.1572239.2875465-.1635753.6338822-.017.927l2.309 4.617c.0298073.0608608.0177637.1339256-.03.182l-2.913 2.913c-.0486277.0475961-.1220393.0592297-.183.029l-4.616-2.308c-.2931178-.1465753-.6394535-.1402239-.927.017-1.0019444.5453468-2.059711.9811935-3.155 1.3-.3141983.0922026-.5633505.3323899-.667.643l-1.634 4.905c-.0215311.0645416-.0819618.1080517-.15.108h-4.12c-.0680382.0000517-.1284689-.0434584-.15-.108l-1.635-4.906c-.1036495-.3106101-.3528017-.5507974-.667-.643-1.095289-.3188065-2.1530556-.7546532-3.155-1.3-.2875465-.1572239-.6338822-.1635753-.927-.017l-4.617 2.309c-.0607649.0304491-.1342224.0183407-.182-.03l-2.913-2.913c-.0481722-.0483364-.0598676-.1221382-.029-.183l2.308-4.616c.1465753-.2931178.1402239-.6394535-.017-.927-.5453468-1.0019444-.9811935-2.059711-1.3-3.155-.0922026-.3141983-.3323899-.5633505-.643-.667l-4.905-1.634c-.0645416-.0215311-.1080517-.0819618-.108-.15v-4.12c-.0000517-.0680382.0434584-.1284689.108-.15l4.906-1.635c.3106101-.1036495.5507974-.3528017.643-.667.3188065-1.095289.7546532-2.1530556 1.3-3.155.1572239-.2875465.1635753-.6338822.017-.927l-2.309-4.617c-.0298073-.0608608-.0177637-.1339256.03-.182l.894-.893.011-.014 2-2c.0483364-.0481722.1221382-.0598676.183-.029l4.616 2.308c.2931178.1465753.6394535.1402239.927-.017 1.0019444-.5453468 2.059711-.9811935 3.155-1.3.3141983-.0922026.5633505-.3323899.667-.643l1.635-4.906c.0204663-.0690442.0850302-.1155137.157-.113h4.12c.0680382-.0000517.1284689.0434584.15.108l1.635 4.906c.1036495.3106101.3528017.5507974.667.643 1.095289.3188065 2.1530556.7546532 3.155 1.3.2875465.1572239.6338822.1635753.927.017l4.617-2.309c.0608608-.0298073.1339256-.0177637.182.03l2.913 2.913c.0481722.0483364.0598676.1221382.029.183l-2.308 4.616c-.1465753.2931178-.1402239.6394535.017.927.5453468 1.0019444.9811935 2.059711 1.3 3.155.0922026.3141983.3323899.5633505.643.667l4.906 1.635c.0645416.0215311.1080517.0819618.108.15z"/><path id="Shape" d="m37 24c-7.1797017 0-13 5.8202983-13 13s5.8202983 13 13 13 13-5.8202983 13-13c-.008266-7.1762751-5.8237249-12.991734-13-13zm0 24c-4.4490847 0-8.4600839-2.680064-10.1626749-6.7904822-1.702591-4.1104183-.7614776-8.8417144 2.3845003-11.9876924 3.145978-3.1459779 7.8772741-4.0870913 11.9876924-2.3845003 4.1104182 1.702591 6.7904822 5.7135902 6.7904822 10.1626749-.0071635 6.0721626-4.9278374 10.9928365-11 11z"/><path id="Shape" d="m40 37c0-1.6568542-1.3431458-3-3-3s-3 1.3431458-3 3 1.3431458 3 3 3 3-1.3431458 3-3zm-4 0c0-.5522847.4477153-1 1-1s1 .4477153 1 1-.4477153 1-1 1-1-.4477153-1-1z"/><path id="Shape" d="m38 30c0-.5522847-.4477153-1-1-1-4.4162219.0049599-7.9950401 3.5837781-8 8 0 .5522847.4477153 1 1 1s1-.4477153 1-1c.0033074-3.3123376 2.6876624-5.9966926 6-6 .5522847 0 1-.4477153 1-1z"/><path id="Shape" d="m44 36c-.5522847 0-1 .4477153-1 1-.0033074 3.3123376-2.6876624 5.9966926-6 6-.5522847 0-1 .4477153-1 1s.4477153 1 1 1c4.4162219-.0049599 7.9950401-3.5837781 8-8 0-.2652165-.1053568-.5195704-.2928932-.7071068s-.4418903-.2928932-.7071068-.2928932z"/></g></g></svg>