<svg width="15" height="15" viewBox="0 0 15 15" fill="none" xmlns="http://www.w3.org/2000/svg">
<path d="M1.76079 1.44428C1.56727 1.24729 1.33055 1.16603 1.23205 1.26279C1.13356 1.35955 1.21059 1.59768 1.40411 1.79467L13.4047 14.0107C13.5982 14.2077 13.8349 14.2889 13.9334 14.1922C14.0319 14.0954 13.9549 13.8573 13.7614 13.6603L1.76079 1.44428Z" fill="white"/>
<path d="M13.7612 1.79448C13.9547 1.59749 14.0317 1.35936 13.9332 1.2626C13.8347 1.16584 13.598 1.2471 13.4045 1.44409L1.40397 13.6602C1.21046 13.8572 1.13343 14.0953 1.23192 14.1921C1.33042 14.2888 1.56714 14.2076 1.76066 14.0106L13.7612 1.79448Z" fill="white"/>
</svg>
