<?xml version="1.0" encoding="UTF-8"?>
<svg width="35px" height="36px" viewBox="0 0 35 36" version="1.1" xmlns="http://www.w3.org/2000/svg" xmlns:xlink="http://www.w3.org/1999/xlink">
    <!-- Generator: Sketch 53.2 (72643) - https://sketchapp.com -->
    <title>Group 5</title>
    <desc>Created with Sketch.</desc>
    <g id="Page-1" stroke="none" stroke-width="1" fill="none" fill-rule="evenodd">
        <g id="LAnding1-Copy" transform="translate(-357.000000, -105.000000)">
            <g id="Group-5" transform="translate(357.000000, 106.000000)">
                <path d="M33.8700519,17 C33.8700519,26.3895662 26.5127211,34 17.4370909,34 C8.36146076,34 1.0033852,26.3895662 1.0033852,17 C1.0033852,7.61120428 8.36146076,0 17.4370909,0 C26.5127211,0 33.8700519,7.61120428 33.8700519,17 Z" id="Stroke-1" stroke="#343434" stroke-width="2"></path>
                <path d="M23.9823847,15.4373921 L16.7188115,9.63134046 C15.8560091,8.94166958 14.5974809,9.08202035 13.9078101,9.94482268 C13.6244252,10.299347 13.4700519,10.7397162 13.4700519,11.1935823 L13.4700519,22.8061915 C13.4700519,23.910761 14.3654824,24.8061915 15.4700519,24.8061915 C15.9239471,24.8061915 16.3643428,24.6517983 16.7188778,24.3683802 L23.982451,18.5618227 C24.8452241,17.8721151 24.9855214,16.613581 24.2958138,15.750808 C24.2032726,15.6350457 24.0981508,15.5299284 23.9823847,15.4373921 Z" id="Fill-3" fill="#343434"></path>
            </g>
        </g>
    </g>
</svg>