<svg width="34" height="45" viewBox="0 0 34 45" fill="none" xmlns="http://www.w3.org/2000/svg">
<ellipse rx="12.7536" ry="4.1977" transform="matrix(-1 0 0 1 13.2102 40.3019)" fill="white"/>
<path d="M0.956568 40.3019C0.956568 40.6599 1.17675 41.0828 1.76588 41.5413C2.34864 41.9948 3.2231 42.4249 4.34834 42.7952C6.59346 43.5342 9.72665 43.9996 13.2102 43.9996C16.6938 43.9996 19.827 43.5342 22.0721 42.7952C23.1973 42.4249 24.0718 41.9948 24.6546 41.5413C25.2437 41.0828 25.4639 40.6599 25.4639 40.3019C25.4639 39.944 25.2437 39.5211 24.6546 39.0626C24.0718 38.6091 23.1973 38.179 22.0721 37.8087C19.827 37.0697 16.6938 36.6042 13.2102 36.6042C9.72665 36.6042 6.59346 37.0697 4.34834 37.8087C3.2231 38.179 2.34864 38.6091 1.76588 39.0626C1.17675 39.5211 0.956568 39.944 0.956568 40.3019Z" stroke="#4C4C4C" stroke-opacity="0.15"/>
<ellipse rx="12.7536" ry="4.1977" transform="matrix(-1 0 0 1 13.2102 36.7341)" fill="white"/>
<path d="M0.956568 36.7341C0.956568 37.092 1.17675 37.515 1.76588 37.9734C2.34864 38.4269 3.2231 38.857 4.34834 39.2274C6.59346 39.9663 9.72665 40.4318 13.2102 40.4318C16.6938 40.4318 19.827 39.9663 22.0721 39.2274C23.1973 38.857 24.0718 38.4269 24.6546 37.9734C25.2437 37.515 25.4639 37.092 25.4639 36.7341C25.4639 36.3761 25.2437 35.9532 24.6546 35.4947C24.0718 35.0413 23.1973 34.6112 22.0721 34.2408C19.827 33.5018 16.6938 33.0364 13.2102 33.0364C9.72665 33.0364 6.59346 33.5018 4.34834 34.2408C3.2231 34.6112 2.34864 35.0413 1.76588 35.4947C1.17675 35.9532 0.956568 36.3761 0.956568 36.7341Z" stroke="#4C4C4C" stroke-opacity="0.15"/>
<ellipse rx="12.7536" ry="4.1977" transform="matrix(-1 0 0 1 13.2102 31.9763)" fill="white"/>
<path d="M0.956568 31.9763C0.956568 32.3342 1.17675 32.7572 1.76588 33.2156C2.34864 33.6691 3.2231 34.0992 4.34834 34.4695C6.59346 35.2085 9.72665 35.674 13.2102 35.674C16.6938 35.674 19.827 35.2085 22.0721 34.4695C23.1973 34.0992 24.0718 33.6691 24.6546 33.2156C25.2437 32.7572 25.4639 32.3342 25.4639 31.9763C25.4639 31.6183 25.2437 31.1954 24.6546 30.7369C24.0718 30.2834 23.1973 29.8533 22.0721 29.483C19.827 28.744 16.6938 28.2786 13.2102 28.2786C9.72665 28.2786 6.59346 28.744 4.34834 29.483C3.2231 29.8533 2.34864 30.2834 1.76588 30.7369C1.17675 31.1954 0.956568 31.6183 0.956568 31.9763Z" stroke="#4C4C4C" stroke-opacity="0.15"/>
<ellipse rx="12.7536" ry="4.1977" transform="matrix(-1 0 0 1 13.2102 27.2192)" fill="white"/>
<path d="M0.956568 27.2192C0.956568 27.5771 1.17675 28.0001 1.76588 28.4585C2.34864 28.912 3.2231 29.3421 4.34834 29.7125C6.59346 30.4514 9.72665 30.9169 13.2102 30.9169C16.6938 30.9169 19.827 30.4514 22.0721 29.7125C23.1973 29.3421 24.0718 28.912 24.6546 28.4585C25.2437 28.0001 25.4639 27.5771 25.4639 27.2192C25.4639 26.8612 25.2437 26.4383 24.6546 25.9799C24.0718 25.5264 23.1973 25.0963 22.0721 24.7259C19.827 23.9869 16.6938 23.5215 13.2102 23.5215C9.72665 23.5215 6.59346 23.9869 4.34834 24.7259C3.2231 25.0963 2.34864 25.5264 1.76588 25.9799C1.17675 26.4383 0.956568 26.8612 0.956568 27.2192Z" stroke="#4C4C4C" stroke-opacity="0.15"/>
<path d="M2.01931 13.2967C2.01931 20.3004 7.08103 25.8795 13.2102 25.8795C19.3393 25.8795 24.401 20.3004 24.401 13.2967C24.401 6.29301 19.3393 0.713867 13.2102 0.713867C7.08103 0.713867 2.01931 6.29301 2.01931 13.2967Z" fill="#5A5A5A" stroke="white"/>
<path d="M15.8144 15.0581C15.8144 15.4421 15.7184 15.8101 15.5264 16.1621C15.3344 16.5061 15.0504 16.7941 14.6744 17.0261C14.3064 17.2581 13.8624 17.3901 13.3424 17.4221V18.3941H12.6944V17.4221C11.9664 17.3581 11.3744 17.1261 10.9184 16.7261C10.4624 16.3181 10.2304 15.8021 10.2224 15.1781H11.3864C11.4184 15.5141 11.5424 15.8061 11.7584 16.0541C11.9824 16.3021 12.2944 16.4581 12.6944 16.5221V13.5221C12.1584 13.3861 11.7264 13.2461 11.3984 13.1021C11.0704 12.9581 10.7904 12.7341 10.5584 12.4301C10.3264 12.1261 10.2104 11.7181 10.2104 11.2061C10.2104 10.5581 10.4344 10.0221 10.8824 9.5981C11.3384 9.1741 11.9424 8.9381 12.6944 8.8901V7.8941H13.3424V8.8901C14.0224 8.9461 14.5704 9.1661 14.9864 9.5501C15.4024 9.9261 15.6424 10.4181 15.7064 11.0261H14.5424C14.5024 10.7461 14.3784 10.4941 14.1704 10.2701C13.9624 10.0381 13.6864 9.8861 13.3424 9.8141V12.7421C13.8704 12.8781 14.2984 13.0181 14.6264 13.1621C14.9624 13.2981 15.2424 13.5181 15.4664 13.8221C15.6984 14.1261 15.8144 14.5381 15.8144 15.0581ZM11.3264 11.1461C11.3264 11.5381 11.4424 11.8381 11.6744 12.0461C11.9064 12.2541 12.2464 12.4261 12.6944 12.5621V9.7901C12.2784 9.8301 11.9464 9.9661 11.6984 10.1981C11.4504 10.4221 11.3264 10.7381 11.3264 11.1461ZM13.3424 16.5341C13.7744 16.4861 14.1104 16.3301 14.3504 16.0661C14.5984 15.8021 14.7224 15.4861 14.7224 15.1181C14.7224 14.7261 14.6024 14.4261 14.3624 14.2181C14.1224 14.0021 13.7824 13.8301 13.3424 13.7021V16.5341Z" fill="white"/>
<path d="M30.5686 9.37494C30.3734 9.17968 30.0568 9.17968 29.8615 9.37494L26.6796 12.5569C26.4843 12.7522 26.4843 13.0688 26.6796 13.264C26.8748 13.4593 27.1914 13.4593 27.3867 13.264L30.2151 10.4356L33.0435 13.264C33.2388 13.4593 33.5554 13.4593 33.7506 13.264C33.9459 13.0688 33.9459 12.7522 33.7506 12.5569L30.5686 9.37494ZM30.7151 37.0835L30.7151 9.7285H29.7151L29.7151 37.0835H30.7151Z" fill="white"/>
</svg>
