<svg width="338" height="510" viewBox="0 0 338 510" fill="none" xmlns="http://www.w3.org/2000/svg">
<path d="M315.138 40.4316L223.227 183.204L280.923 258.846C293.753 277.254 301.007 289.539 315.138 310.882C329.268 332.224 332.056 351.386 332.056 379.019C332.056 481.224 236.665 503.45 171.443 504.935C83.0536 506.948 5 461.999 5 379.019C5 348.451 6.44697 325.851 21.9612 302.412C31.5632 287.988 42.3812 267.316 53.325 253.479L110.56 182.114L24.0996 46.5115" stroke="white" stroke-width="10" stroke-miterlimit="10" stroke-linecap="round" stroke-linejoin="round"/>
<path d="M46.5329 5C76.4292 5 76.4292 67.3503 106.367 67.3503C136.348 67.3503 136.348 5 166.328 5C196.35 5 196.35 67.3503 226.372 67.3503C256.436 67.3503 256.436 5 286.458 5" stroke="white" stroke-width="10" stroke-miterlimit="10" stroke-linecap="round" stroke-linejoin="round"/>
<path d="M216.316 374.024C216.316 380.324 214.741 386.246 211.591 391.79C208.567 397.334 204.031 401.996 197.983 405.776C192.061 409.556 185.005 411.824 176.815 412.58V427.889H164.53V412.58C152.686 411.446 143.11 407.729 135.802 401.429C128.494 395.129 124.84 386.813 124.84 376.481H147.898C148.276 381.395 149.851 385.49 152.623 388.766C155.395 391.916 159.364 393.932 164.53 394.814V353.234C156.088 351.092 149.221 348.95 143.929 346.808C138.637 344.54 134.101 341.012 130.321 336.224C126.667 331.436 124.84 324.884 124.84 316.568C124.84 306.11 128.494 297.479 135.802 290.675C143.11 283.745 152.686 279.713 164.53 278.579V263.27H176.815V278.579C187.903 279.587 196.786 283.115 203.464 289.163C210.268 295.085 214.111 303.275 214.993 313.733H191.935C191.557 309.827 190.045 306.362 187.399 303.338C184.753 300.188 181.225 298.046 176.815 296.912V337.736C185.257 339.752 192.124 341.894 197.416 344.162C202.708 346.304 207.181 349.769 210.835 354.557C214.489 359.219 216.316 365.708 216.316 374.024ZM146.764 315.434C146.764 320.6 148.276 324.632 151.3 327.53C154.45 330.428 158.86 332.759 164.53 334.523V296.345C159.112 296.975 154.765 298.928 151.489 302.204C148.339 305.48 146.764 309.89 146.764 315.434ZM176.815 394.814C182.359 393.932 186.706 391.727 189.856 388.199C193.006 384.545 194.581 380.198 194.581 375.158C194.581 370.118 193.006 366.212 189.856 363.44C186.832 360.542 182.485 358.211 176.815 356.447V394.814Z" fill="white"/>
<path d="M277.567 176.369C277.567 183.12 272.283 188.571 265.742 188.571H69.8021C63.2609 188.571 57.9358 183.12 57.9358 176.369C57.9358 169.702 63.2609 164.209 69.8021 164.209H265.7C272.283 164.209 277.567 169.702 277.567 176.369Z" fill="white"/>
</svg>
