<svg width="42" height="40" viewBox="0 0 42 40" fill="none" xmlns="http://www.w3.org/2000/svg">
<ellipse rx="9.6" ry="2.82353" transform="matrix(-1 0 0 1 31.9999 37.1766)" fill="white"/>
<path d="M22.8999 37.1766C22.8999 37.3194 23.0012 37.5601 23.4397 37.8651C23.8636 38.1598 24.5095 38.4454 25.3527 38.6934C27.0325 39.1875 29.3828 39.5001 31.9999 39.5001C34.6169 39.5001 36.9672 39.1875 38.647 38.6934C39.4902 38.4454 40.1361 38.1598 40.56 37.8651C40.9985 37.5601 41.0999 37.3194 41.0999 37.1766C41.0999 37.0337 40.9985 36.793 40.56 36.488C40.1361 36.1933 39.4902 35.9077 38.647 35.6597C36.9672 35.1656 34.6169 34.853 31.9999 34.853C29.3828 34.853 27.0325 35.1656 25.3527 35.6597C24.5095 35.9077 23.8636 36.1933 23.4397 36.488C23.0012 36.793 22.8999 37.0337 22.8999 37.1766Z" stroke="#4C4C4C" stroke-opacity="0.15"/>
<ellipse rx="9.6" ry="2.82353" transform="matrix(-1 0 0 1 31.9999 34.9178)" fill="white"/>
<path d="M22.8999 34.9178C22.8999 35.0606 23.0012 35.3013 23.4397 35.6063C23.8636 35.901 24.5095 36.1866 25.3527 36.4346C27.0325 36.9287 29.3828 37.2413 31.9999 37.2413C34.6169 37.2413 36.9672 36.9287 38.647 36.4346C39.4902 36.1866 40.1361 35.901 40.56 35.6063C40.9985 35.3013 41.0999 35.0606 41.0999 34.9178C41.0999 34.7749 40.9985 34.5342 40.56 34.2292C40.1361 33.9345 39.4902 33.6489 38.647 33.4009C36.9672 32.9068 34.6169 32.5942 31.9999 32.5942C29.3828 32.5942 27.0325 32.9068 25.3527 33.4009C24.5095 33.6489 23.8636 33.9345 23.4397 34.2292C23.0012 34.5342 22.8999 34.7749 22.8999 34.9178Z" stroke="#4C4C4C" stroke-opacity="0.15"/>
<ellipse rx="9.6" ry="2.82353" transform="matrix(-1 0 0 1 31.9999 32.659)" fill="white"/>
<path d="M22.8999 32.659C22.8999 32.8018 23.0012 33.0426 23.4397 33.3475C23.8636 33.6423 24.5095 33.9278 25.3527 34.1758C27.0325 34.6699 29.3828 34.9825 31.9999 34.9825C34.6169 34.9825 36.9672 34.6699 38.647 34.1758C39.4902 33.9278 40.1361 33.6423 40.56 33.3475C40.9985 33.0426 41.0999 32.8018 41.0999 32.659C41.0999 32.5161 40.9985 32.2754 40.56 31.9704C40.1361 31.6757 39.4902 31.3901 38.647 31.1421C36.9672 30.6481 34.6169 30.3354 31.9999 30.3354C29.3828 30.3354 27.0325 30.6481 25.3527 31.1421C24.5095 31.3901 23.8636 31.6757 23.4397 31.9704C23.0012 32.2754 22.8999 32.5161 22.8999 32.659Z" stroke="#4C4C4C" stroke-opacity="0.15"/>
<ellipse rx="9.6" ry="2.82353" transform="matrix(-1 0 0 1 31.9999 30.4002)" fill="white"/>
<path d="M22.8999 30.4002C22.8999 30.5431 23.0012 30.7838 23.4397 31.0887C23.8636 31.3835 24.5095 31.669 25.3527 31.917C27.0325 32.4111 29.3828 32.7237 31.9999 32.7237C34.6169 32.7237 36.9672 32.4111 38.647 31.917C39.4902 31.669 40.1361 31.3835 40.56 31.0887C40.9985 30.7838 41.0999 30.5431 41.0999 30.4002C41.0999 30.2573 40.9985 30.0166 40.56 29.7117C40.1361 29.4169 39.4902 29.1313 38.647 28.8833C36.9672 28.3893 34.6169 28.0767 31.9999 28.0767C29.3828 28.0767 27.0325 28.3893 25.3527 28.8833C24.5095 29.1313 23.8636 29.4169 23.4397 29.7117C23.0012 30.0166 22.8999 30.2573 22.8999 30.4002Z" stroke="#4C4C4C" stroke-opacity="0.15"/>
<ellipse rx="9.6" ry="2.82353" transform="matrix(-1 0 0 1 31.9999 28.1414)" fill="white"/>
<path d="M22.8999 28.1414C22.8999 28.2843 23.0012 28.525 23.4397 28.8299C23.8636 29.1247 24.5095 29.4103 25.3527 29.6583C27.0325 30.1523 29.3828 30.4649 31.9999 30.4649C34.6169 30.4649 36.9672 30.1523 38.647 29.6583C39.4902 29.4103 40.1361 29.1247 40.56 28.8299C40.9985 28.525 41.0999 28.2843 41.0999 28.1414C41.0999 27.9985 40.9985 27.7578 40.56 27.4529C40.1361 27.1581 39.4902 26.8725 38.647 26.6245C36.9672 26.1305 34.6169 25.8179 31.9999 25.8179C29.3828 25.8179 27.0325 26.1305 25.3527 26.6245C24.5095 26.8725 23.8636 27.1581 23.4397 27.4529C23.0012 27.7578 22.8999 27.9985 22.8999 28.1414Z" stroke="#4C4C4C" stroke-opacity="0.15"/>
<ellipse rx="9.6" ry="2.82353" transform="matrix(-1 0 0 1 31.9999 25.8824)" fill="white"/>
<path d="M22.8999 25.8824C22.8999 26.0252 23.0012 26.2659 23.4397 26.5709C23.8636 26.8656 24.5095 27.1512 25.3527 27.3992C27.0325 27.8933 29.3828 28.2059 31.9999 28.2059C34.6169 28.2059 36.9672 27.8933 38.647 27.3992C39.4902 27.1512 40.1361 26.8656 40.56 26.5709C40.9985 26.2659 41.0999 26.0252 41.0999 25.8824C41.0999 25.7395 40.9985 25.4988 40.56 25.1938C40.1361 24.8991 39.4902 24.6135 38.647 24.3655C36.9672 23.8714 34.6169 23.5588 31.9999 23.5588C29.3828 23.5588 27.0325 23.8714 25.3527 24.3655C24.5095 24.6135 23.8636 24.8991 23.4397 25.1938C23.0012 25.4988 22.8999 25.7395 22.8999 25.8824Z" stroke="#4C4C4C" stroke-opacity="0.15"/>
<ellipse rx="9.6" ry="2.82353" transform="matrix(-1 0 0 1 31.9999 23.6236)" fill="white"/>
<path d="M22.8999 23.6236C22.8999 23.7664 23.0012 24.0072 23.4397 24.3121C23.8636 24.6069 24.5095 24.8924 25.3527 25.1404C27.0325 25.6345 29.3828 25.9471 31.9999 25.9471C34.6169 25.9471 36.9672 25.6345 38.647 25.1404C39.4902 24.8924 40.1361 24.6069 40.56 24.3121C40.9985 24.0072 41.0999 23.7664 41.0999 23.6236C41.0999 23.4807 40.9985 23.24 40.56 22.935C40.1361 22.6403 39.4902 22.3547 38.647 22.1067C36.9672 21.6127 34.6169 21.3 31.9999 21.3C29.3828 21.3 27.0325 21.6127 25.3527 22.1067C24.5095 22.3547 23.8636 22.6403 23.4397 22.935C23.0012 23.24 22.8999 23.4807 22.8999 23.6236Z" stroke="#4C4C4C" stroke-opacity="0.15"/>
<ellipse rx="9.6" ry="2.82353" transform="matrix(-1 0 0 1 32 21.3648)" fill="white"/>
<path d="M22.9 21.3648C22.9 21.5077 23.0013 21.7484 23.4398 22.0533C23.8637 22.3481 24.5096 22.6336 25.3528 22.8816C27.0327 23.3757 29.3829 23.6883 32 23.6883C34.617 23.6883 36.9673 23.3757 38.6471 22.8816C39.4903 22.6336 40.1363 22.3481 40.5601 22.0533C40.9987 21.7484 41.1 21.5077 41.1 21.3648C41.1 21.2219 40.9987 20.9812 40.5601 20.6763C40.1363 20.3815 39.4903 20.0959 38.6471 19.8479C36.9673 19.3539 34.617 19.0413 32 19.0413C29.3829 19.0413 27.0327 19.3539 25.3528 19.8479C24.5096 20.0959 23.8637 20.3815 23.4398 20.6763C23.0013 20.9812 22.9 21.2219 22.9 21.3648Z" stroke="#4C4C4C" stroke-opacity="0.15"/>
<ellipse rx="9.6" ry="2.82353" transform="matrix(-1 0 0 1 9.59995 37.1766)" fill="white"/>
<path d="M0.49995 37.1766C0.49995 37.3194 0.601255 37.5601 1.03982 37.8651C1.46367 38.1598 2.10962 38.4454 2.95281 38.6934C4.63264 39.1875 6.9829 39.5001 9.59995 39.5001C12.217 39.5001 14.5673 39.1875 16.2471 38.6934C17.0903 38.4454 17.7362 38.1598 18.1601 37.8651C18.5986 37.5601 18.7 37.3194 18.7 37.1766C18.7 37.0337 18.5986 36.793 18.1601 36.488C17.7362 36.1933 17.0903 35.9077 16.2471 35.6597C14.5673 35.1656 12.217 34.853 9.59995 34.853C6.9829 34.853 4.63264 35.1656 2.95281 35.6597C2.10962 35.9077 1.46367 36.1933 1.03982 36.488C0.601255 36.793 0.49995 37.0337 0.49995 37.1766Z" stroke="#4C4C4C" stroke-opacity="0.15"/>
<ellipse rx="9.6" ry="2.82353" transform="matrix(-1 0 0 1 9.59995 34.9178)" fill="white"/>
<path d="M0.49995 34.9178C0.49995 35.0606 0.601255 35.3013 1.03982 35.6063C1.46367 35.901 2.10962 36.1866 2.95281 36.4346C4.63264 36.9287 6.9829 37.2413 9.59995 37.2413C12.217 37.2413 14.5673 36.9287 16.2471 36.4346C17.0903 36.1866 17.7362 35.901 18.1601 35.6063C18.5986 35.3013 18.7 35.0606 18.7 34.9178C18.7 34.7749 18.5986 34.5342 18.1601 34.2292C17.7362 33.9345 17.0903 33.6489 16.2471 33.4009C14.5673 32.9068 12.217 32.5942 9.59995 32.5942C6.9829 32.5942 4.63264 32.9068 2.95281 33.4009C2.10962 33.6489 1.46367 33.9345 1.03982 34.2292C0.601255 34.5342 0.49995 34.7749 0.49995 34.9178Z" stroke="#4C4C4C" stroke-opacity="0.15"/>
<ellipse rx="9.6" ry="2.82353" transform="matrix(-1 0 0 1 9.59995 32.659)" fill="white"/>
<path d="M0.49995 32.659C0.49995 32.8018 0.601255 33.0426 1.03982 33.3475C1.46367 33.6423 2.10962 33.9278 2.95281 34.1758C4.63264 34.6699 6.9829 34.9825 9.59995 34.9825C12.217 34.9825 14.5673 34.6699 16.2471 34.1758C17.0903 33.9278 17.7362 33.6423 18.1601 33.3475C18.5986 33.0426 18.7 32.8018 18.7 32.659C18.7 32.5161 18.5986 32.2754 18.1601 31.9704C17.7362 31.6757 17.0903 31.3901 16.2471 31.1421C14.5673 30.6481 12.217 30.3354 9.59995 30.3354C6.9829 30.3354 4.63264 30.6481 2.95281 31.1421C2.10962 31.3901 1.46367 31.6757 1.03982 31.9704C0.601255 32.2754 0.49995 32.5161 0.49995 32.659Z" stroke="#4C4C4C" stroke-opacity="0.15"/>
<ellipse rx="9.6" ry="2.82353" transform="matrix(-1 0 0 1 9.59995 30.4002)" fill="white"/>
<path d="M0.49995 30.4002C0.49995 30.5431 0.601255 30.7838 1.03982 31.0887C1.46367 31.3835 2.10962 31.669 2.95281 31.917C4.63264 32.4111 6.9829 32.7237 9.59995 32.7237C12.217 32.7237 14.5673 32.4111 16.2471 31.917C17.0903 31.669 17.7362 31.3835 18.1601 31.0887C18.5986 30.7838 18.7 30.5431 18.7 30.4002C18.7 30.2573 18.5986 30.0166 18.1601 29.7117C17.7362 29.4169 17.0903 29.1313 16.2471 28.8833C14.5673 28.3893 12.217 28.0767 9.59995 28.0767C6.9829 28.0767 4.63264 28.3893 2.95281 28.8833C2.10962 29.1313 1.46367 29.4169 1.03982 29.7117C0.601255 30.0166 0.49995 30.2573 0.49995 30.4002Z" stroke="#4C4C4C" stroke-opacity="0.15"/>
<ellipse rx="9.6" ry="2.82353" transform="matrix(-1 0 0 1 9.59995 28.1414)" fill="white"/>
<path d="M0.49995 28.1414C0.49995 28.2843 0.601255 28.525 1.03982 28.8299C1.46367 29.1247 2.10962 29.4103 2.95281 29.6583C4.63264 30.1523 6.9829 30.4649 9.59995 30.4649C12.217 30.4649 14.5673 30.1523 16.2471 29.6583C17.0903 29.4103 17.7362 29.1247 18.1601 28.8299C18.5986 28.525 18.7 28.2843 18.7 28.1414C18.7 27.9985 18.5986 27.7578 18.1601 27.4529C17.7362 27.1581 17.0903 26.8725 16.2471 26.6245C14.5673 26.1305 12.217 25.8179 9.59995 25.8179C6.9829 25.8179 4.63264 26.1305 2.95281 26.6245C2.10962 26.8725 1.46367 27.1581 1.03982 27.4529C0.601255 27.7578 0.49995 27.9985 0.49995 28.1414Z" stroke="#4C4C4C" stroke-opacity="0.15"/>
<ellipse rx="9.6" ry="2.82353" transform="matrix(-1 0 0 1 9.59995 25.8824)" fill="white"/>
<path d="M0.49995 25.8824C0.49995 26.0252 0.601255 26.2659 1.03982 26.5709C1.46367 26.8656 2.10962 27.1512 2.95281 27.3992C4.63264 27.8933 6.9829 28.2059 9.59995 28.2059C12.217 28.2059 14.5673 27.8933 16.2471 27.3992C17.0903 27.1512 17.7362 26.8656 18.1601 26.5709C18.5986 26.2659 18.7 26.0252 18.7 25.8824C18.7 25.7395 18.5986 25.4988 18.1601 25.1938C17.7362 24.8991 17.0903 24.6135 16.2471 24.3655C14.5673 23.8714 12.217 23.5588 9.59995 23.5588C6.9829 23.5588 4.63264 23.8714 2.95281 24.3655C2.10962 24.6135 1.46367 24.8991 1.03982 25.1938C0.601255 25.4988 0.49995 25.7395 0.49995 25.8824Z" stroke="#4C4C4C" stroke-opacity="0.15"/>
<ellipse rx="9.6" ry="2.82353" transform="matrix(-1 0 0 1 9.59995 23.6236)" fill="white"/>
<path d="M0.49995 23.6236C0.49995 23.7664 0.601255 24.0072 1.03982 24.3121C1.46367 24.6069 2.10962 24.8924 2.95281 25.1404C4.63264 25.6345 6.9829 25.9471 9.59995 25.9471C12.217 25.9471 14.5673 25.6345 16.2471 25.1404C17.0903 24.8924 17.7362 24.6069 18.1601 24.3121C18.5986 24.0072 18.7 23.7664 18.7 23.6236C18.7 23.4807 18.5986 23.24 18.1601 22.935C17.7362 22.6403 17.0903 22.3547 16.2471 22.1067C14.5673 21.6127 12.217 21.3 9.59995 21.3C6.9829 21.3 4.63264 21.6127 2.95281 22.1067C2.10962 22.3547 1.46367 22.6403 1.03982 22.935C0.601255 23.24 0.49995 23.4807 0.49995 23.6236Z" stroke="#4C4C4C" stroke-opacity="0.15"/>
<ellipse rx="9.6" ry="2.82353" transform="matrix(-1 0 0 1 9.59995 21.3648)" fill="white"/>
<path d="M0.49995 21.3648C0.49995 21.5077 0.601255 21.7484 1.03982 22.0533C1.46367 22.3481 2.10962 22.6336 2.95281 22.8816C4.63264 23.3757 6.9829 23.6883 9.59995 23.6883C12.217 23.6883 14.5673 23.3757 16.2471 22.8816C17.0903 22.6336 17.7362 22.3481 18.1601 22.0533C18.5986 21.7484 18.7 21.5077 18.7 21.3648C18.7 21.2219 18.5986 20.9812 18.1601 20.6763C17.7362 20.3815 17.0903 20.0959 16.2471 19.8479C14.5673 19.3539 12.217 19.0413 9.59995 19.0413C6.9829 19.0413 4.63264 19.3539 2.95281 19.8479C2.10962 20.0959 1.46367 20.3815 1.03982 20.6763C0.601255 20.9812 0.49995 21.2219 0.49995 21.3648Z" stroke="#4C4C4C" stroke-opacity="0.15"/>
<ellipse rx="9.6" ry="2.82353" transform="matrix(-1 0 0 1 9.59995 21.1766)" fill="white"/>
<path d="M0.49995 21.1766C0.49995 21.3194 0.601255 21.5601 1.03982 21.8651C1.46367 22.1598 2.10962 22.4454 2.95281 22.6934C4.63264 23.1875 6.9829 23.5001 9.59995 23.5001C12.217 23.5001 14.5673 23.1875 16.2471 22.6934C17.0903 22.4454 17.7362 22.1598 18.1601 21.8651C18.5986 21.5601 18.7 21.3194 18.7 21.1766C18.7 21.0337 18.5986 20.793 18.1601 20.488C17.7362 20.1933 17.0903 19.9077 16.2471 19.6597C14.5673 19.1656 12.217 18.853 9.59995 18.853C6.9829 18.853 4.63264 19.1656 2.95281 19.6597C2.10962 19.9077 1.46367 20.1933 1.03982 20.488C0.601255 20.793 0.49995 21.0337 0.49995 21.1766Z" stroke="#4C4C4C" stroke-opacity="0.15"/>
<ellipse rx="9.6" ry="2.82353" transform="matrix(-1 0 0 1 9.59995 18.9178)" fill="white"/>
<path d="M0.49995 18.9178C0.49995 19.0606 0.601255 19.3013 1.03982 19.6063C1.46367 19.901 2.10962 20.1866 2.95281 20.4346C4.63264 20.9287 6.9829 21.2413 9.59995 21.2413C12.217 21.2413 14.5673 20.9287 16.2471 20.4346C17.0903 20.1866 17.7362 19.901 18.1601 19.6063C18.5986 19.3013 18.7 19.0606 18.7 18.9178C18.7 18.7749 18.5986 18.5342 18.1601 18.2292C17.7362 17.9345 17.0903 17.6489 16.2471 17.4009C14.5673 16.9068 12.217 16.5942 9.59995 16.5942C6.9829 16.5942 4.63264 16.9068 2.95281 17.4009C2.10962 17.6489 1.46367 17.9345 1.03982 18.2292C0.601255 18.5342 0.49995 18.7749 0.49995 18.9178Z" stroke="#4C4C4C" stroke-opacity="0.15"/>
<ellipse rx="9.6" ry="2.82353" transform="matrix(-1 0 0 1 9.59995 16.659)" fill="white"/>
<path d="M0.49995 16.659C0.49995 16.8018 0.601255 17.0426 1.03982 17.3475C1.46367 17.6423 2.10962 17.9278 2.95281 18.1758C4.63264 18.6699 6.9829 18.9825 9.59995 18.9825C12.217 18.9825 14.5673 18.6699 16.2471 18.1758C17.0903 17.9278 17.7362 17.6423 18.1601 17.3475C18.5986 17.0426 18.7 16.8018 18.7 16.659C18.7 16.5161 18.5986 16.2754 18.1601 15.9704C17.7362 15.6757 17.0903 15.3901 16.2471 15.1421C14.5673 14.6481 12.217 14.3354 9.59995 14.3354C6.9829 14.3354 4.63264 14.6481 2.95281 15.1421C2.10962 15.3901 1.46367 15.6757 1.03982 15.9704C0.601255 16.2754 0.49995 16.5161 0.49995 16.659Z" stroke="#4C4C4C" stroke-opacity="0.15"/>
<ellipse rx="9.6" ry="2.82353" transform="matrix(-1 0 0 1 9.59995 14.4002)" fill="white"/>
<path d="M0.49995 14.4002C0.49995 14.5431 0.601255 14.7838 1.03982 15.0887C1.46367 15.3835 2.10962 15.669 2.95281 15.917C4.63264 16.4111 6.9829 16.7237 9.59995 16.7237C12.217 16.7237 14.5673 16.4111 16.2471 15.917C17.0903 15.669 17.7362 15.3835 18.1601 15.0887C18.5986 14.7838 18.7 14.5431 18.7 14.4002C18.7 14.2573 18.5986 14.0166 18.1601 13.7117C17.7362 13.4169 17.0903 13.1313 16.2471 12.8833C14.5673 12.3893 12.217 12.0767 9.59995 12.0767C6.9829 12.0767 4.63264 12.3893 2.95281 12.8833C2.10962 13.1313 1.46367 13.4169 1.03982 13.7117C0.601255 14.0166 0.49995 14.2573 0.49995 14.4002Z" stroke="#4C4C4C" stroke-opacity="0.15"/>
<ellipse rx="9.6" ry="2.82353" transform="matrix(-1 0 0 1 9.59995 12.1414)" fill="white"/>
<path d="M0.49995 12.1414C0.49995 12.2843 0.601255 12.525 1.03982 12.8299C1.46367 13.1247 2.10962 13.4103 2.95281 13.6583C4.63264 14.1523 6.9829 14.4649 9.59995 14.4649C12.217 14.4649 14.5673 14.1523 16.2471 13.6583C17.0903 13.4103 17.7362 13.1247 18.1601 12.8299C18.5986 12.525 18.7 12.2843 18.7 12.1414C18.7 11.9985 18.5986 11.7578 18.1601 11.4529C17.7362 11.1581 17.0903 10.8725 16.2471 10.6245C14.5673 10.1305 12.217 9.81787 9.59995 9.81787C6.9829 9.81787 4.63264 10.1305 2.95281 10.6245C2.10962 10.8725 1.46367 11.1581 1.03982 11.4529C0.601255 11.7578 0.49995 11.9985 0.49995 12.1414Z" stroke="#4C4C4C" stroke-opacity="0.15"/>
<ellipse rx="9.6" ry="2.82353" transform="matrix(-1 0 0 1 9.59995 9.88237)" fill="white"/>
<path d="M0.49995 9.88237C0.49995 10.0252 0.601255 10.2659 1.03982 10.5709C1.46367 10.8656 2.10962 11.1512 2.95281 11.3992C4.63264 11.8933 6.9829 12.2059 9.59995 12.2059C12.217 12.2059 14.5673 11.8933 16.2471 11.3992C17.0903 11.1512 17.7362 10.8656 18.1601 10.5709C18.5986 10.2659 18.7 10.0252 18.7 9.88237C18.7 9.7395 18.5986 9.49879 18.1601 9.19383C17.7362 8.89909 17.0903 8.61351 16.2471 8.36551C14.5673 7.87145 12.217 7.55884 9.59995 7.55884C6.9829 7.55884 4.63264 7.87145 2.95281 8.36551C2.10962 8.61351 1.46367 8.89909 1.03982 9.19383C0.601255 9.49879 0.49995 9.7395 0.49995 9.88237Z" stroke="#4C4C4C" stroke-opacity="0.15"/>
<ellipse rx="9.6" ry="2.82353" transform="matrix(-1 0 0 1 9.59995 7.62358)" fill="white"/>
<path d="M0.49995 7.62358C0.49995 7.76645 0.601255 8.00715 1.03982 8.31212C1.46367 8.60685 2.10962 8.89244 2.95281 9.14043C4.63264 9.6345 6.9829 9.94711 9.59995 9.94711C12.217 9.94711 14.5673 9.6345 16.2471 9.14043C17.0903 8.89244 17.7362 8.60685 18.1601 8.31212C18.5986 8.00715 18.7 7.76645 18.7 7.62358C18.7 7.48071 18.5986 7.24001 18.1601 6.93504C17.7362 6.64031 17.0903 6.35472 16.2471 6.10672C14.5673 5.61266 12.217 5.30005 9.59995 5.30005C6.9829 5.30005 4.63264 5.61266 2.95281 6.10672C2.10962 6.35472 1.46367 6.64031 1.03982 6.93504C0.601255 7.24001 0.49995 7.48071 0.49995 7.62358Z" stroke="#4C4C4C" stroke-opacity="0.15"/>
<ellipse rx="9.6" ry="2.82353" transform="matrix(-1 0 0 1 9.59995 5.36479)" fill="white"/>
<path d="M0.49995 5.36479C0.49995 5.50766 0.601255 5.74836 1.03982 6.05333C1.46367 6.34806 2.10962 6.63365 2.95281 6.88164C4.63264 7.37571 6.9829 7.68832 9.59995 7.68832C12.217 7.68832 14.5673 7.37571 16.2471 6.88164C17.0903 6.63365 17.7362 6.34806 18.1601 6.05333C18.5986 5.74836 18.7 5.50766 18.7 5.36479C18.7 5.22192 18.5986 4.98122 18.1601 4.67625C17.7362 4.38152 17.0903 4.09593 16.2471 3.84794C14.5673 3.35387 12.217 3.04126 9.59995 3.04126C6.9829 3.04126 4.63264 3.35387 2.95281 3.84794C2.10962 4.09593 1.46367 4.38152 1.03982 4.67625C0.601255 4.98122 0.49995 5.22192 0.49995 5.36479Z" stroke="#4C4C4C" stroke-opacity="0.15"/>
<circle cx="32" cy="8.8" r="8.3" stroke="white"/>
<path d="M36.178 11.326C36.178 11.774 36.066 12.2033 35.842 12.614C35.618 13.0153 35.2867 13.3513 34.848 13.622C34.4187 13.8927 33.9007 14.0467 33.294 14.084V15.218H32.538V14.084C31.6887 14.0093 30.998 13.7387 30.466 13.272C29.934 12.796 29.6634 12.194 29.654 11.466H31.012C31.0494 11.858 31.194 12.1987 31.446 12.488C31.7074 12.7773 32.0714 12.9593 32.538 13.034V9.534C31.9127 9.37533 31.4087 9.212 31.026 9.044C30.6434 8.876 30.3167 8.61467 30.046 8.26C29.7754 7.90533 29.64 7.42933 29.64 6.832C29.64 6.076 29.9014 5.45067 30.424 4.956C30.956 4.46133 31.6607 4.186 32.538 4.13V2.968H33.294V4.13C34.0874 4.19533 34.7267 4.452 35.212 4.9C35.6974 5.33867 35.9774 5.91267 36.052 6.622H34.694C34.6474 6.29533 34.5027 6.00133 34.26 5.74C34.0174 5.46933 33.6954 5.292 33.294 5.208V8.624C33.91 8.78267 34.4094 8.946 34.792 9.114C35.184 9.27267 35.5107 9.52933 35.772 9.884C36.0427 10.2387 36.178 10.7193 36.178 11.326ZM30.942 6.762C30.942 7.21933 31.0774 7.56933 31.348 7.812C31.6187 8.05467 32.0154 8.25533 32.538 8.414V5.18C32.0527 5.22667 31.6654 5.38533 31.376 5.656C31.0867 5.91733 30.942 6.286 30.942 6.762ZM33.294 13.048C33.798 12.992 34.19 12.81 34.47 12.502C34.7594 12.194 34.904 11.8253 34.904 11.396C34.904 10.9387 34.764 10.5887 34.484 10.346C34.204 10.094 33.8074 9.89333 33.294 9.744V13.048Z" fill="white"/>
</svg>
