<svg width="125" height="52" viewBox="0 0 125 52" fill="none" xmlns="http://www.w3.org/2000/svg">
<path d="M62.9045 29.108C62.4485 29.108 62.0365 29.04 61.6685 28.904C61.3085 28.768 61.0005 28.584 60.7445 28.352C60.4885 28.112 60.2885 27.832 60.1445 27.512C60.0005 27.192 59.9205 26.844 59.9045 26.468H60.8645C60.8885 26.724 60.9445 26.964 61.0325 27.188C61.1285 27.404 61.2605 27.592 61.4285 27.752C61.5965 27.912 61.8045 28.04 62.0525 28.136C62.3005 28.224 62.5925 28.268 62.9285 28.268C63.6085 28.268 64.1045 28.12 64.4165 27.824C64.7285 27.52 64.8845 27.116 64.8845 26.612C64.8845 25.5 64.2805 24.944 63.0725 24.944H62.4245V24.068H63.0245C63.5845 24.068 63.9925 23.944 64.2485 23.696C64.5045 23.44 64.6325 23.076 64.6325 22.604C64.6325 22.196 64.5045 21.856 64.2485 21.584C63.9925 21.304 63.6005 21.164 63.0725 21.164C62.5365 21.164 62.1005 21.312 61.7645 21.608C61.4285 21.904 61.2325 22.296 61.1765 22.784H60.2645C60.2805 22.448 60.3565 22.132 60.4925 21.836C60.6365 21.532 60.8325 21.268 61.0805 21.044C61.3285 20.82 61.6205 20.644 61.9565 20.516C62.2925 20.38 62.6645 20.312 63.0725 20.312C63.4805 20.312 63.8445 20.376 64.1645 20.504C64.4845 20.624 64.7525 20.792 64.9685 21.008C65.1925 21.216 65.3605 21.456 65.4725 21.728C65.5925 22 65.6525 22.284 65.6525 22.58C65.6525 23.068 65.5245 23.464 65.2685 23.768C65.0125 24.064 64.6885 24.292 64.2965 24.452C64.8005 24.588 65.2005 24.832 65.4965 25.184C65.8005 25.536 65.9525 26.012 65.9525 26.612C65.9525 27.004 65.8765 27.356 65.7245 27.668C65.5725 27.972 65.3605 28.232 65.0885 28.448C64.8245 28.664 64.5045 28.828 64.1285 28.94C63.7525 29.052 63.3445 29.108 62.9045 29.108ZM70.6231 29.108C70.0391 29.108 69.5471 29.008 69.1471 28.808C68.7551 28.6 68.4391 28.32 68.1991 27.968C67.9591 27.608 67.7871 27.192 67.6831 26.72C67.5871 26.248 67.5391 25.744 67.5391 25.208V25.004C67.5391 24.236 67.6191 23.56 67.7791 22.976C67.9471 22.384 68.1791 21.892 68.4751 21.5C68.7791 21.108 69.1351 20.812 69.5431 20.612C69.9511 20.412 70.4031 20.312 70.8991 20.312C71.5711 20.312 72.1271 20.484 72.5671 20.828C73.0151 21.172 73.2951 21.692 73.4071 22.388H72.4111C72.3151 21.988 72.1471 21.684 71.9071 21.476C71.6671 21.268 71.3071 21.164 70.8271 21.164C70.1791 21.164 69.6471 21.452 69.2311 22.028C68.8151 22.604 68.5951 23.46 68.5711 24.596C68.7791 24.244 69.0711 23.964 69.4471 23.756C69.8311 23.54 70.2751 23.432 70.7791 23.432C71.2031 23.432 71.5871 23.504 71.9311 23.648C72.2831 23.792 72.5791 23.992 72.8191 24.248C73.0671 24.496 73.2551 24.792 73.3831 25.136C73.5191 25.48 73.5871 25.848 73.5871 26.24C73.5871 26.672 73.5151 27.064 73.3711 27.416C73.2351 27.768 73.0391 28.072 72.7831 28.328C72.5271 28.576 72.2151 28.768 71.8471 28.904C71.4871 29.04 71.0791 29.108 70.6231 29.108ZM70.6231 28.292C70.9031 28.292 71.1591 28.244 71.3911 28.148C71.6231 28.052 71.8231 27.92 71.9911 27.752C72.1591 27.576 72.2871 27.364 72.3751 27.116C72.4711 26.868 72.5191 26.592 72.5191 26.288C72.5191 25.664 72.3471 25.168 72.0031 24.8C71.6591 24.432 71.1951 24.248 70.6111 24.248C70.3231 24.248 70.0591 24.296 69.8191 24.392C69.5791 24.48 69.3711 24.608 69.1951 24.776C69.0191 24.944 68.8831 25.144 68.7871 25.376C68.6911 25.608 68.6431 25.864 68.6431 26.144C68.6431 26.848 68.8271 27.384 69.1951 27.752C69.5711 28.112 70.0471 28.292 70.6231 28.292ZM78.4588 28.244C79.2108 28.244 79.7748 27.964 80.1508 27.404C80.5348 26.844 80.7268 26.016 80.7268 24.92V24.44C80.7268 23.944 80.6748 23.496 80.5708 23.096C80.4668 22.688 80.3148 22.34 80.1148 22.052C79.9228 21.764 79.6828 21.544 79.3948 21.392C79.1148 21.232 78.7948 21.152 78.4348 21.152C77.7068 21.152 77.1388 21.44 76.7308 22.016C76.3228 22.584 76.1188 23.4 76.1188 24.464V24.944C76.1188 26.032 76.3308 26.856 76.7548 27.416C77.1788 27.968 77.7468 28.244 78.4588 28.244ZM78.4588 29.108C77.9468 29.108 77.4788 29.008 77.0548 28.808C76.6388 28.608 76.2828 28.328 75.9868 27.968C75.6908 27.608 75.4588 27.172 75.2908 26.66C75.1308 26.148 75.0508 25.58 75.0508 24.956V24.476C75.0508 23.844 75.1268 23.272 75.2788 22.76C75.4388 22.248 75.6628 21.812 75.9508 21.452C76.2468 21.084 76.6028 20.804 77.0188 20.612C77.4348 20.412 77.9068 20.312 78.4348 20.312C78.9628 20.312 79.4348 20.412 79.8508 20.612C80.2668 20.812 80.6148 21.096 80.8948 21.464C81.1828 21.832 81.4028 22.272 81.5548 22.784C81.7068 23.288 81.7828 23.844 81.7828 24.452V24.932C81.7828 25.556 81.7068 26.124 81.5548 26.636C81.4108 27.148 81.1948 27.588 80.9068 27.956C80.6268 28.324 80.2788 28.608 79.8628 28.808C79.4548 29.008 78.9868 29.108 78.4588 29.108ZM92.5384 20.42H93.5704L96.1264 27.992L98.6824 20.42H99.6664L96.7024 29H95.4544L92.5384 20.42ZM102.329 29.108C102.041 29.108 101.769 29.072 101.513 29C101.257 28.928 101.033 28.816 100.841 28.664C100.657 28.512 100.509 28.32 100.397 28.088C100.293 27.856 100.241 27.58 100.241 27.26C100.241 26.9 100.329 26.596 100.505 26.348C100.681 26.1 100.913 25.9 101.201 25.748C101.497 25.596 101.833 25.488 102.209 25.424C102.593 25.352 102.985 25.316 103.385 25.316H104.285V24.86C104.285 24.356 104.181 23.996 103.973 23.78C103.765 23.556 103.421 23.444 102.941 23.444C102.077 23.444 101.597 23.82 101.501 24.572H100.505C100.537 24.212 100.625 23.908 100.769 23.66C100.921 23.412 101.109 23.212 101.333 23.06C101.565 22.9 101.821 22.788 102.101 22.724C102.389 22.652 102.685 22.616 102.989 22.616C103.285 22.616 103.573 22.652 103.853 22.724C104.133 22.788 104.377 22.908 104.585 23.084C104.793 23.252 104.961 23.48 105.089 23.768C105.217 24.056 105.281 24.42 105.281 24.86V29H104.285V28.208C104.053 28.504 103.785 28.728 103.481 28.88C103.177 29.032 102.793 29.108 102.329 29.108ZM102.425 28.316C102.689 28.316 102.933 28.284 103.157 28.22C103.389 28.148 103.585 28.048 103.745 27.92C103.913 27.792 104.045 27.636 104.141 27.452C104.237 27.26 104.285 27.044 104.285 26.804V26.024H103.421C103.109 26.024 102.817 26.048 102.545 26.096C102.281 26.136 102.049 26.204 101.849 26.3C101.657 26.396 101.505 26.524 101.393 26.684C101.289 26.836 101.237 27.028 101.237 27.26C101.237 27.588 101.325 27.848 101.501 28.04C101.677 28.224 101.985 28.316 102.425 28.316ZM107.402 19.724H108.41V29H107.402V19.724ZM112.713 29.108C112.401 29.108 112.109 29.064 111.837 28.976C111.573 28.888 111.345 28.748 111.153 28.556C110.961 28.356 110.809 28.104 110.697 27.8C110.585 27.496 110.529 27.128 110.529 26.696V22.724H111.525V26.648C111.525 27.2 111.641 27.604 111.873 27.86C112.113 28.116 112.481 28.244 112.977 28.244C113.201 28.244 113.417 28.208 113.625 28.136C113.833 28.064 114.017 27.956 114.177 27.812C114.337 27.668 114.465 27.488 114.561 27.272C114.657 27.056 114.705 26.808 114.705 26.528V22.724H115.701V29H114.705V28.004C114.561 28.3 114.317 28.56 113.973 28.784C113.637 29 113.217 29.108 112.713 29.108ZM120.434 29.108C119.986 29.108 119.578 29.032 119.21 28.88C118.842 28.728 118.522 28.516 118.25 28.244C117.978 27.964 117.766 27.628 117.614 27.236C117.47 26.844 117.398 26.408 117.398 25.928V25.832C117.398 25.36 117.47 24.928 117.614 24.536C117.758 24.136 117.958 23.796 118.214 23.516C118.478 23.228 118.79 23.008 119.15 22.856C119.51 22.696 119.906 22.616 120.338 22.616C120.698 22.616 121.046 22.676 121.382 22.796C121.726 22.908 122.03 23.088 122.294 23.336C122.558 23.584 122.766 23.908 122.918 24.308C123.078 24.7 123.158 25.176 123.158 25.736V26.06H118.43C118.454 26.78 118.634 27.332 118.97 27.716C119.306 28.092 119.798 28.28 120.446 28.28C121.43 28.28 121.986 27.916 122.114 27.188H123.11C122.998 27.82 122.702 28.3 122.222 28.628C121.742 28.948 121.146 29.108 120.434 29.108ZM122.138 25.256C122.09 24.608 121.906 24.144 121.586 23.864C121.274 23.584 120.858 23.444 120.338 23.444C119.826 23.444 119.406 23.608 119.078 23.936C118.758 24.256 118.554 24.696 118.466 25.256H122.138Z" fill="white"/>
<path d="M84.4125 19.16C84.8659 19.16 85.2192 19.0067 85.4725 18.7C85.7259 18.3867 85.8525 17.96 85.8525 17.42V17.35C85.8525 16.81 85.7259 16.3867 85.4725 16.08C85.2192 15.7667 84.8659 15.61 84.4125 15.61C83.9592 15.61 83.6025 15.7633 83.3425 16.07C83.0892 16.3767 82.9625 16.8 82.9625 17.34V17.42C82.9625 17.96 83.0892 18.3867 83.3425 18.7C83.5959 19.0067 83.9525 19.16 84.4125 19.16ZM84.4025 20.1C84.0159 20.1 83.6592 20.0367 83.3325 19.91C83.0059 19.7833 82.7225 19.6033 82.4825 19.37C82.2425 19.1367 82.0559 18.8567 81.9225 18.53C81.7892 18.2033 81.7225 17.84 81.7225 17.44V17.36C81.7225 16.9533 81.7892 16.5867 81.9225 16.26C82.0625 15.9267 82.2525 15.6433 82.4925 15.41C82.7325 15.17 83.0159 14.9867 83.3425 14.86C83.6692 14.7267 84.0259 14.66 84.4125 14.66C84.7925 14.66 85.1459 14.7233 85.4725 14.85C85.7992 14.9767 86.0825 15.16 86.3225 15.4C86.5625 15.6333 86.7492 15.9133 86.8825 16.24C87.0225 16.5667 87.0925 16.93 87.0925 17.33V17.41C87.0925 17.8167 87.0225 18.1867 86.8825 18.52C86.7492 18.8467 86.5625 19.13 86.3225 19.37C86.0825 19.6033 85.7992 19.7833 85.4725 19.91C85.1459 20.0367 84.7892 20.1 84.4025 20.1Z" fill="white"/>
<path fill-rule="evenodd" clip-rule="evenodd" d="M36.7697 36.7693C30.7166 42.8224 20.9025 42.8224 14.8494 36.7693C8.79629 30.7162 8.79629 20.9021 14.8494 14.849C14.9677 14.7307 15.0874 14.6147 15.2086 14.501L14.5011 13.7936C14.3802 13.9075 14.2606 14.0236 14.1423 14.1419C7.69866 20.5855 7.69866 31.0327 14.1423 37.4764C20.586 43.92 31.0332 43.92 37.4768 37.4764C37.5951 37.3581 37.7112 37.2385 37.8251 37.1176L37.1177 36.4101C37.004 36.5313 36.888 36.651 36.7697 36.7693ZM17.6049 12.6547C23.588 8.91552 31.5677 9.64695 36.7697 14.849C41.9718 20.051 42.7032 28.0307 38.964 34.0138L39.6887 34.7385C43.8086 28.3486 43.0713 19.7363 37.4768 14.1419C31.8824 8.54742 23.2701 7.81014 16.8802 11.93L17.6049 12.6547Z" fill="white"/>
<path d="M43.2778 36.207H38.0396" stroke="white" stroke-miterlimit="10" stroke-linecap="round" stroke-linejoin="round"/>
<path d="M37.8301 35.998V30.7598" stroke="white" stroke-miterlimit="10" stroke-linecap="round" stroke-linejoin="round"/>
<path d="M15.7007 18.5293V13.291" stroke="white" stroke-miterlimit="10" stroke-linecap="round" stroke-linejoin="round"/>
<path d="M15.4912 13.082H10.2529" stroke="white" stroke-miterlimit="10" stroke-linecap="round" stroke-linejoin="round"/>
</svg>
