<svg width="39" height="45" viewBox="0 0 39 45" fill="none" xmlns="http://www.w3.org/2000/svg">
<rect x="0.86377" y="0.714111" width="30.1794" height="43.2857" rx="1.5" stroke="white"/>
<path d="M22.4496 31.08C22.4496 36.0463 26.0355 39.9739 30.3441 39.9739C34.6527 39.9739 38.2385 36.0463 38.2385 31.08C38.2385 26.1136 34.6527 22.186 30.3441 22.186C26.0355 22.186 22.4496 26.1136 22.4496 31.08Z" fill="#5A5A5A" stroke="white"/>
<path d="M31.8225 32.1421C31.8225 32.4301 31.7505 32.7061 31.6065 32.9701C31.4625 33.2281 31.2495 33.4441 30.9675 33.6181C30.6915 33.7921 30.3585 33.8911 29.9685 33.9151V34.6441H29.4825V33.9151C28.9365 33.8671 28.4925 33.6931 28.1505 33.3931C27.8085 33.0871 27.6345 32.7001 27.6285 32.2321H28.5015C28.5255 32.4841 28.6185 32.7031 28.7805 32.8891C28.9485 33.0751 29.1825 33.1921 29.4825 33.2401V30.9901C29.0805 30.8881 28.7565 30.7831 28.5105 30.6751C28.2645 30.5671 28.0545 30.3991 27.8805 30.1711C27.7065 29.9431 27.6195 29.6371 27.6195 29.2531C27.6195 28.7671 27.7875 28.3651 28.1235 28.0471C28.4655 27.7291 28.9185 27.5521 29.4825 27.5161V26.7691H29.9685V27.5161C30.4785 27.5581 30.8895 27.7231 31.2015 28.0111C31.5135 28.2931 31.6935 28.6621 31.7415 29.1181H30.8685C30.8385 28.9081 30.7455 28.7191 30.5895 28.5511C30.4335 28.3771 30.2265 28.2631 29.9685 28.2091V30.4051C30.3645 30.5071 30.6855 30.6121 30.9315 30.7201C31.1835 30.8221 31.3935 30.9871 31.5615 31.2151C31.7355 31.4431 31.8225 31.7521 31.8225 32.1421ZM28.4565 29.2081C28.4565 29.5021 28.5435 29.7271 28.7175 29.8831C28.8915 30.0391 29.1465 30.1681 29.4825 30.2701V28.1911C29.1705 28.2211 28.9215 28.3231 28.7355 28.4971C28.5495 28.6651 28.4565 28.9021 28.4565 29.2081ZM29.9685 33.2491C30.2925 33.2131 30.5445 33.0961 30.7245 32.8981C30.9105 32.7001 31.0035 32.4631 31.0035 32.1871C31.0035 31.8931 30.9135 31.6681 30.7335 31.5121C30.5535 31.3501 30.2985 31.2211 29.9685 31.1251V33.2491Z" fill="white"/>
<path d="M22.4495 31.08C22.4495 36.0463 26.0354 39.9739 30.344 39.9739C34.6525 39.9739 38.2384 36.0463 38.2384 31.08C38.2384 26.1136 34.6525 22.186 30.344 22.186C26.0354 22.186 22.4495 26.1136 22.4495 31.08Z" fill="#5A5A5A" stroke="white"/>
<path d="M32.8084 31.9592C32.8084 32.2472 32.7364 32.5232 32.5924 32.7872C32.4484 33.0452 32.2354 33.2612 31.9534 33.4352C31.6774 33.6092 31.3444 33.7082 30.9544 33.7322V34.4612H30.4684V33.7322C29.9224 33.6842 29.4784 33.5102 29.1364 33.2102C28.7944 32.9042 28.6204 32.5172 28.6144 32.0492H29.4874C29.5114 32.3012 29.6044 32.5202 29.7664 32.7062C29.9344 32.8922 30.1684 33.0092 30.4684 33.0572V30.8072C30.0664 30.7052 29.7424 30.6002 29.4964 30.4922C29.2504 30.3842 29.0404 30.2162 28.8664 29.9882C28.6924 29.7602 28.6054 29.4542 28.6054 29.0702C28.6054 28.5842 28.7734 28.1822 29.1094 27.8642C29.4514 27.5462 29.9044 27.3692 30.4684 27.3332V26.5862H30.9544V27.3332C31.4644 27.3752 31.8754 27.5402 32.1874 27.8282C32.4994 28.1102 32.6794 28.4792 32.7274 28.9352H31.8544C31.8244 28.7252 31.7314 28.5362 31.5754 28.3682C31.4194 28.1942 31.2124 28.0802 30.9544 28.0262V30.2222C31.3504 30.3242 31.6714 30.4292 31.9174 30.5372C32.1694 30.6392 32.3794 30.8042 32.5474 31.0322C32.7214 31.2602 32.8084 31.5692 32.8084 31.9592ZM29.4424 29.0252C29.4424 29.3192 29.5294 29.5442 29.7034 29.7002C29.8774 29.8562 30.1324 29.9852 30.4684 30.0872V28.0082C30.1564 28.0382 29.9074 28.1402 29.7214 28.3142C29.5354 28.4822 29.4424 28.7192 29.4424 29.0252ZM30.9544 33.0662C31.2784 33.0302 31.5304 32.9132 31.7104 32.7152C31.8964 32.5172 31.9894 32.2802 31.9894 32.0042C31.9894 31.7102 31.8994 31.4852 31.7194 31.3292C31.5394 31.1672 31.2844 31.0382 30.9544 30.9422V33.0662Z" fill="white"/>
<path d="M6.35986 27.0542L13.5551 19.0023L16.5531 22.3573L23.1488 14.9763" stroke="white"/>
<path d="M26.0184 12.2919C26.0184 12.0007 25.8074 11.7647 25.5472 11.7647L21.3067 11.7647C21.0465 11.7647 20.8356 12.0007 20.8356 12.2919C20.8356 12.5831 21.0465 12.8192 21.3067 12.8192L25.076 12.8192L25.076 17.0373C25.076 17.3285 25.287 17.5646 25.5472 17.5646C25.8074 17.5646 26.0184 17.3285 26.0184 17.0373L26.0184 12.2919ZM21.0835 18.0327L25.8804 12.6648L25.214 11.9191L20.4172 17.2871L21.0835 18.0327Z" fill="white"/>
</svg>
