<svg width="33" height="45" viewBox="0 0 33 45" fill="none" xmlns="http://www.w3.org/2000/svg">
<path fill-rule="evenodd" clip-rule="evenodd" d="M9.83918 0.512528C10.0986 0.41799 10.3856 0.551681 10.4801 0.811136L11.74 4.2688C11.8346 4.52826 11.7009 4.81523 11.4414 4.90977C11.182 5.00431 10.895 4.87061 10.8005 4.61116L9.54057 1.15349C9.44603 0.894036 9.57973 0.607067 9.83918 0.512528ZM16.843 2.1501C16.843 1.87396 16.6192 1.6501 16.343 1.6501C16.0669 1.6501 15.843 1.87396 15.843 2.1501V3.40694C15.843 3.68308 16.0669 3.90694 16.343 3.90694C16.6192 3.90694 16.843 3.68308 16.843 3.40694V2.1501ZM23.8161 32.8397C26.069 29.7503 27.9472 25.6001 27.9472 20.3489C27.9472 13.1033 22.6984 7.22958 16.2237 7.22958C9.74903 7.22958 4.50025 13.1033 4.50025 20.3489C4.50025 25.4256 6.25574 29.4733 8.40809 32.5282V36.7156C8.40809 37.8967 9.09067 38.9184 10.0829 39.4078V42.7134C10.0829 43.818 10.9783 44.7134 12.0829 44.7134H20.3646C21.4692 44.7134 22.3646 43.818 22.3646 42.7134V39.2855C23.2345 38.7603 23.8161 37.8058 23.8161 36.7156V32.8397ZM23.0313 32.2188C25.1776 29.2654 26.9472 25.3244 26.9472 20.3489C26.9472 13.5468 22.0433 8.22958 16.2237 8.22958C10.4041 8.22958 5.50025 13.5468 5.50025 20.3489C5.50025 25.3244 7.26988 29.2654 9.41612 32.2188H23.0313ZM6.43769 6.46566C6.25318 6.26021 5.93706 6.24323 5.7316 6.42773C5.52615 6.61224 5.50916 6.92837 5.69367 7.13382L6.66372 8.214C6.84822 8.41946 7.16435 8.43644 7.36981 8.25193C7.57526 8.06743 7.59224 7.7513 7.40774 7.54584L6.43769 6.46566ZM0.690395 11.4612C0.798142 11.2069 1.0916 11.0881 1.34586 11.1959L4.32454 12.4582C4.57879 12.5659 4.69756 12.8594 4.58981 13.1136C4.48207 13.3679 4.18861 13.4867 3.93435 13.3789L0.955672 12.1166C0.701417 12.0089 0.582649 11.7154 0.690395 11.4612ZM3.28402 19.4621C3.55926 19.4398 3.7643 19.1986 3.742 18.9233C3.71969 18.6481 3.47848 18.4431 3.20324 18.4654L1.61892 18.5938C1.34368 18.6161 1.13863 18.8573 1.16094 19.1325C1.18325 19.4078 1.42446 19.6128 1.6997 19.5905L3.28402 19.4621ZM22.8482 0.512528C23.1077 0.607067 23.2414 0.894036 23.1468 1.15349L21.887 4.61116C21.7924 4.87061 21.5055 5.00431 21.246 4.90977C20.9865 4.81523 20.8529 4.52826 20.9474 4.2688L22.2073 0.811136C22.3018 0.551681 22.5888 0.41799 22.8482 0.512528ZM26.9941 7.1337C27.1785 6.92818 27.1615 6.61206 26.9559 6.42762C26.7504 6.24319 26.4343 6.26027 26.2499 6.46579L25.2805 7.54597C25.096 7.75149 25.1131 8.06761 25.3186 8.25205C25.5242 8.43648 25.8403 8.4194 26.0247 8.21388L26.9941 7.1337ZM31.9971 11.4611C32.1049 11.7154 31.9861 12.0088 31.7319 12.1166L28.7539 13.3789C28.4996 13.4867 28.2061 13.3679 28.0984 13.1137C27.9906 12.8594 28.1093 12.566 28.3636 12.4582L31.3416 11.1959C31.5959 11.0881 31.8893 11.2069 31.9971 11.4611ZM29.4844 18.4654C29.2091 18.4431 28.9679 18.6481 28.9456 18.9234C28.9233 19.1986 29.1284 19.4398 29.4036 19.4621L30.9886 19.5905C31.2638 19.6128 31.505 19.4078 31.5273 19.1325C31.5496 18.8573 31.3446 18.6161 31.0693 18.5938L29.4844 18.4654Z" fill="white"/>
</svg>
