<svg width="43" height="45" viewBox="0 0 43 45" fill="none" xmlns="http://www.w3.org/2000/svg">
<rect x="0.185791" y="0.214111" width="1.97869" height="44.2857" fill="white"/>
<rect x="0.185791" y="42.2854" width="39.5738" height="2.21429" fill="white"/>
<rect x="6.12195" y="31.2141" width="3.95738" height="11.0714" fill="white"/>
<rect x="21.9514" y="31.2141" width="3.95738" height="11.0714" fill="white"/>
<rect x="14.0366" y="24.5713" width="3.95738" height="17.7143" fill="white"/>
<path d="M4.14319 28.9999L16.0153 15.7141L20.9621 21.2499L31.8449 9.07129" stroke="white"/>
<path d="M36.2734 4.64261C36.2734 4.35141 36.0624 4.11535 35.8022 4.11535L31.5617 4.11535C31.3015 4.11535 31.0906 4.35141 31.0906 4.64261C31.0906 4.93381 31.3015 5.16987 31.5617 5.16988L35.3311 5.16987L35.3311 9.38797C35.3311 9.67917 35.542 9.91524 35.8022 9.91524C36.0624 9.91524 36.2734 9.67917 36.2734 9.38797L36.2734 4.64261ZM28.2206 13.8726L36.1354 5.01544L35.4691 4.26978L27.5543 13.1269L28.2206 13.8726Z" fill="white"/>
<rect x="29.8662" y="20.1426" width="3.95738" height="22.1429" fill="white"/>
<path d="M39.2596 7.96415C39.2596 11.4111 36.7744 14.107 33.8235 14.107C30.8727 14.107 28.3875 11.4111 28.3875 7.96415C28.3875 4.51716 30.8727 1.82129 33.8235 1.82129C36.7744 1.82129 39.2596 4.51716 39.2596 7.96415Z" stroke="white"/>
<rect width="7.5951" height="1.0499" rx="0.524949" transform="matrix(0.666325 0.745662 -0.666325 0.745662 37.6671 11.6584)" fill="white"/>
</svg>
