<svg width="42" height="46" viewBox="0 0 42 46" fill="none" xmlns="http://www.w3.org/2000/svg">
<path d="M8.03349 15.3017C7.83822 15.1064 7.52164 15.1064 7.32638 15.3017L4.1444 18.4836C3.94914 18.6789 3.94914 18.9955 4.1444 19.1908C4.33966 19.386 4.65624 19.386 4.8515 19.1908L7.67993 16.3623L10.5084 19.1908C10.7036 19.386 11.0202 19.386 11.2155 19.1908C11.4107 18.9955 11.4107 18.6789 11.2155 18.4836L8.03349 15.3017ZM8.17993 40.6863L8.17993 15.6552H7.17993L7.17993 40.6863H8.17993Z" fill="white"/>
<rect x="7.67993" y="39.7234" width="24.0884" height="0.962733" fill="white"/>
<path d="M29.1874 33.9846C29.1874 33.4323 28.7397 32.9846 28.1874 32.9846H25.8859C25.3336 32.9846 24.8859 33.4323 24.8859 33.9846V39.7237H29.1874V33.9846Z" fill="white"/>
<path d="M22.3051 30.1333C22.3051 29.581 21.8573 29.1333 21.3051 29.1333H19.0036C18.4513 29.1333 18.0036 29.581 18.0036 30.1333V39.7234H22.3051V30.1333Z" fill="white"/>
<path d="M15.4226 25.3198C15.4226 24.7675 14.9749 24.3198 14.4226 24.3198H12.1211C11.5688 24.3198 11.1211 24.7675 11.1211 25.3198V39.7235H15.4226V25.3198Z" fill="white"/>
<rect x="1.29749" y="10.3789" width="35.1326" height="34.6211" rx="1.5" stroke="white"/>
<path d="M35.9301 11.8042C35.9301 14.5509 33.9639 16.5806 31.7682 16.5806C29.5726 16.5806 27.6064 14.5509 27.6064 11.8042C27.6064 9.05755 29.5726 7.02783 31.7682 7.02783C33.9639 7.02783 35.9301 9.05755 35.9301 11.8042Z" fill="white" stroke="#4C4C4C" stroke-width="2"/>
<path d="M30.1016 20.222V22.3942H34.2735V20.4751C35.2005 20.0113 36.7573 19.0502 37.7351 17.7488L39.5473 18.8774L41.2317 14.711L39.2507 13.586C39.3455 13.0244 39.3682 12.4447 39.3682 11.8509C39.3682 11.2572 39.3136 10.6778 39.2188 10.1159L41.164 8.99118L39.4092 4.82479L37.7356 5.95278C36.7582 4.652 35.2005 3.6903 34.2737 3.22683V1.21411H30.1016V3.22715C28.711 3.69063 27.1622 4.65232 26.1847 5.9531L24.1447 4.82511L22.3461 8.9915L24.2703 10.1162C24.176 10.6778 24.1131 11.2576 24.1131 11.8513C24.1131 12.445 24.1594 13.0247 24.2539 13.5863L22.3051 14.7114L24.0579 18.8777L26.185 17.6231" stroke="white" stroke-miterlimit="10" stroke-linecap="round" stroke-linejoin="round"/>
</svg>
