<svg width="26" height="26" viewBox="0 0 26 26" fill="none" xmlns="http://www.w3.org/2000/svg">
<rect x="12" width="1" height="5" fill="white"/>
<rect x="10" y="2" width="5" height="1" fill="white"/>
<rect x="5.40002" y="3" width="1.2" height="6" fill="white"/>
<rect x="3" y="5.39999" width="6" height="1.2" fill="white"/>
<rect x="18.4" y="3" width="1.2" height="6" fill="white"/>
<rect x="16" y="5.39999" width="6" height="1.2" fill="white"/>
<rect x="22.4" y="10" width="1.2" height="6" fill="white"/>
<rect x="20" y="12.4" width="6" height="1.2" fill="white"/>
<rect x="2.40002" y="10" width="1.2" height="6" fill="white"/>
<rect y="12.4" width="6" height="1.2" fill="white"/>
<rect x="11.5" y="8.30005" width="2" height="9" fill="white"/>
<rect x="8" y="11.5" width="9.2" height="2" fill="white"/>
<rect x="12.4" y="20" width="1.2" height="6" fill="white"/>
<rect x="10" y="22.4" width="6" height="1.2" fill="white"/>
<rect x="18.4" y="16" width="1.2" height="6" fill="white"/>
<rect x="16" y="18.4" width="6" height="1.2" fill="white"/>
<rect x="5.40002" y="16" width="1.2" height="6" fill="white"/>
<rect x="3" y="18.4" width="6" height="1.2" fill="white"/>
</svg>
