<svg width="507" height="500" viewBox="0 0 507 500" fill="none" xmlns="http://www.w3.org/2000/svg">
<path d="M5 47.147H32.1334L84.2433 494.999H5V47.147Z" stroke="white" stroke-width="10"/>
<path d="M232.805 228.837V280.489V287.704L239.561 285.17L379.146 232.826V286.586V295.929L386.92 290.746L470.61 234.953V495H289.137H82.7499L63.8992 341.036L232.805 228.837Z" stroke="white" stroke-width="10"/>
<rect x="124.415" y="366.849" width="49.9059" height="32.7899" stroke="white" stroke-width="10"/>
<path d="M206.219 366.849H256.125V399.639H206.219V366.849Z" stroke="white" stroke-width="10"/>
<rect x="291.585" y="366.849" width="49.9059" height="32.7899" stroke="white" stroke-width="10"/>
<rect x="376.951" y="366.849" width="49.9059" height="32.7899" stroke="white" stroke-width="10"/>
<circle cx="365.854" cy="103.659" r="98.6585" stroke="white" stroke-width="10"/>
<path d="M415.316 132.024C415.316 138.324 413.741 144.246 410.591 149.79C407.567 155.334 403.031 159.996 396.983 163.776C391.061 167.556 384.005 169.824 375.815 170.58V185.889H363.53V170.58C351.686 169.446 342.11 165.729 334.802 159.429C327.494 153.129 323.84 144.813 323.84 134.481H346.898C347.276 139.395 348.851 143.49 351.623 146.766C354.395 149.916 358.364 151.932 363.53 152.814V111.234C355.088 109.092 348.221 106.95 342.929 104.808C337.637 102.54 333.101 99.0122 329.321 94.2242C325.667 89.4362 323.84 82.8842 323.84 74.5682C323.84 64.1102 327.494 55.4792 334.802 48.6752C342.11 41.7452 351.686 37.7132 363.53 36.5792V21.2702H375.815V36.5792C386.903 37.5872 395.786 41.1152 402.464 47.1632C409.268 53.0852 413.111 61.2752 413.993 71.7332H390.935C390.557 67.8272 389.045 64.3622 386.399 61.3382C383.753 58.1882 380.225 56.0462 375.815 54.9122V95.7362C384.257 97.7522 391.124 99.8942 396.416 102.162C401.708 104.304 406.181 107.769 409.835 112.557C413.489 117.219 415.316 123.708 415.316 132.024ZM345.764 73.4342C345.764 78.6002 347.276 82.6322 350.3 85.5302C353.45 88.4282 357.86 90.7592 363.53 92.5232V54.3452C358.112 54.9752 353.765 56.9282 350.489 60.2042C347.339 63.4802 345.764 67.8902 345.764 73.4342ZM375.815 152.814C381.359 151.932 385.706 149.727 388.856 146.199C392.006 142.545 393.581 138.198 393.581 133.158C393.581 128.118 392.006 124.212 388.856 121.44C385.832 118.542 381.485 116.211 375.815 114.447V152.814Z" fill="white"/>
</svg>
