<svg width="40" height="40" viewBox="0 0 40 40" fill="none" xmlns="http://www.w3.org/2000/svg">
<rect x="33.6843" y="25.9648" width="4.91228" height="0.701754" rx="0.350877" transform="rotate(90 33.6843 25.9648)" fill="white"/>
<rect x="28.772" y="30.1755" width="4.91228" height="0.701754" rx="0.350877" fill="white"/>
<rect width="1.53846" height="40" rx="0.769231" fill="white"/>
<rect y="40" width="1.53846" height="40" rx="0.769231" transform="rotate(-90 0 40)" fill="white"/>
<path d="M5.16634 11.2701L10.5911 16.6948C10.9568 17.0605 11.541 17.087 11.9384 16.7559L13.1369 15.7571C13.5342 15.426 14.1185 15.4525 14.4842 15.8182L18.1745 19.5085L23.9714 25.3055C24.362 25.696 24.9951 25.696 25.3856 25.3055L26.1395 24.5517C26.53 24.1612 27.1631 24.1612 27.5537 24.5517L32.0498 29.0478" stroke="white"/>
<circle cx="25.965" cy="12.6315" r="5.81579" stroke="white"/>
<path d="M28.428 14.0724C28.428 14.3924 28.348 14.6991 28.188 14.9924C28.028 15.2791 27.7913 15.5191 27.478 15.7124C27.1713 15.9058 26.8013 16.0158 26.368 16.0424V16.8524H25.828V16.0424C25.2213 15.9891 24.728 15.7958 24.348 15.4624C23.968 15.1224 23.7746 14.6924 23.768 14.1724H24.738C24.7646 14.4524 24.868 14.6958 25.048 14.9024C25.2346 15.1091 25.4946 15.2391 25.828 15.2924V12.7924C25.3813 12.6791 25.0213 12.5624 24.748 12.4424C24.4746 12.3224 24.2413 12.1358 24.048 11.8824C23.8546 11.6291 23.758 11.2891 23.758 10.8624C23.758 10.3224 23.9446 9.87575 24.318 9.52242C24.698 9.16909 25.2013 8.97242 25.828 8.93242V8.10242H26.368V8.93242C26.9346 8.97909 27.3913 9.16242 27.738 9.48242C28.0846 9.79575 28.2846 10.2058 28.338 10.7124H27.368C27.3346 10.4791 27.2313 10.2691 27.058 10.0824C26.8846 9.88909 26.6546 9.76242 26.368 9.70242V12.1424C26.808 12.2558 27.1646 12.3724 27.438 12.4924C27.718 12.6058 27.9513 12.7891 28.138 13.0424C28.3313 13.2958 28.428 13.6391 28.428 14.0724ZM24.688 10.8124C24.688 11.1391 24.7846 11.3891 24.978 11.5624C25.1713 11.7358 25.4546 11.8791 25.828 11.9924V9.68242C25.4813 9.71576 25.2046 9.82909 24.998 10.0224C24.7913 10.2091 24.688 10.4724 24.688 10.8124ZM26.368 15.3024C26.728 15.2624 27.008 15.1324 27.208 14.9124C27.4146 14.6924 27.518 14.4291 27.518 14.1224C27.518 13.7958 27.418 13.5458 27.218 13.3724C27.018 13.1924 26.7346 13.0491 26.368 12.9424V15.3024Z" fill="white"/>
</svg>
