<?xml version="1.0" encoding="UTF-8"?>
<svg width="129px" height="140px" viewBox="0 0 129 140" version="1.1" xmlns="http://www.w3.org/2000/svg" xmlns:xlink="http://www.w3.org/1999/xlink">
    <!-- Generator: Sketch 53.2 (72643) - https://sketchapp.com -->
    <title>publish</title>
    <desc>Created with Sketch.</desc>
    <g id="Page-1" stroke="none" stroke-width="1" fill="none" fill-rule="evenodd">
        <g id="Landing2-Copy-25" transform="translate(-362.000000, -356.000000)">
            <g id="publish" transform="translate(353.000000, 353.000000)">
                <path d="M83.4488494,5.70489623 L127.101717,30.7364419 C133.318546,34.3013133 137.152867,40.9199818 137.152867,48.0863813 L137.152867,97.9136187 C137.152867,105.080018 133.318546,111.698687 127.101717,115.263558 L83.4488494,140.295104 C77.2868783,143.828518 69.7131217,143.828518 63.5511506,140.295104 L19.8982835,115.263558 C13.6814537,111.698687 9.84713282,105.080018 9.84713282,97.9136187 L9.84713282,48.0863813 C9.84713282,40.9199818 13.6814537,34.3013133 19.8982835,30.7364419 L63.5511506,5.70489623 C69.7131217,2.17148206 77.2868783,2.17148206 83.4488494,5.70489623 Z" id="Polygon-Copy-6" fill="#FFFFFF"></path>
                <g id="Publish" transform="translate(58.000000, 35.000000)">
                    <path d="M31.5033,10.9979 C31.5033,9.3889 30.6453,7.9009 29.2513,7.0969 L18.0043,0.6029 C16.6093,-0.2011 14.8933,-0.2011 13.4993,0.6029 L2.2523,7.0969 C0.8583,7.9009 0.0003,9.3889 0.0003,10.9979 L0.0003,23.9849 C0.0003,25.5949 0.8583,27.0819 2.2523,27.8869 L13.4993,34.3799 C14.8933,35.1849 16.6093,35.1849 18.0043,34.3799 L29.2513,27.8869 C30.6453,27.0819 31.5033,25.5949 31.5033,23.9849" id="Stroke-1" stroke="#343434" stroke-width="2" stroke-linecap="square"></path>
                    <path d="M38.0434,17.492 L21.7294,17.492" id="Stroke-3" stroke="#343434" stroke-width="2"></path>
                    <polyline id="Stroke-5" stroke="#343434" stroke-width="2" points="34.3383 12.2938 38.0433 17.4918 34.3383 22.6898"></polyline>
                    <path d="M15.7514,18.5067 C15.1924,18.5067 14.7374,18.0517 14.7374,17.4917 C14.7374,16.9327 15.1924,16.4777 15.7514,16.4777 C16.3114,16.4777 16.7664,16.9327 16.7664,17.4917 C16.7664,18.0517 16.3114,18.5067 15.7514,18.5067 M15.7514,14.4777 C14.0894,14.4777 12.7374,15.8297 12.7374,17.4917 C12.7374,19.1537 14.0894,20.5067 15.7514,20.5067 C17.4134,20.5067 18.7664,19.1537 18.7664,17.4917 C18.7664,15.8297 17.4134,14.4777 15.7514,14.4777" id="Fill-7" fill="#343434"></path>
                </g>
                <text id="3.-Publish-dashboard" font-family="ArialMT, Arial" font-size="15" font-weight="normal" letter-spacing="0.5357147" fill="#000000">
                    <tspan x="37.3844148" y="88">5. Publish </tspan>
                    <tspan x="35.1437272" y="106">Dashboard</tspan>
                </text>
            </g>
        </g>
    </g>
</svg>