<?xml version="1.0" encoding="UTF-8"?>
<svg width="245px" height="274px" viewBox="0 0 245 274" version="1.1" xmlns="http://www.w3.org/2000/svg" xmlns:xlink="http://www.w3.org/1999/xlink">
    <!-- Generator: Sketch 53.2 (72643) - https://sketchapp.com -->
    <title>developbig</title>
    <desc>Created with Sketch.</desc>
    <defs>
        <polygon id="path-1" points="0.000299859023 0.586 26.9763001 0.586 26.9763001 43.9995 0.000299859023 43.9995"></polygon>
    </defs>
    <g id="Page-1" stroke="none" stroke-width="1" fill="none" fill-rule="evenodd">
        <g id="Landing2-Copy-29" transform="translate(-784.000000, -289.000000)">
            <g id="developbig" transform="translate(766.000000, 286.455782)">
                <path d="M150.448849,5.70489623 L252.125419,64.0085507 C258.342248,67.5734222 262.176569,74.1920907 262.176569,81.3584901 L262.176569,197.729945 C262.176569,204.896345 258.342248,211.515013 252.125419,215.079885 L150.448849,273.383539 C144.286878,276.916953 136.713122,276.916953 130.551151,273.383539 L28.8745814,215.079885 C22.6577516,211.515013 18.8234308,204.896345 18.8234308,197.729945 L18.8234308,81.3584901 C18.8234308,74.1920907 22.6577516,67.5734222 28.8745814,64.0085507 L130.551151,5.70489623 C136.713122,2.17148206 144.286878,2.17148206 150.448849,5.70489623 Z" id="Polygon-Copy-5" fill="#FFFFFF"></path>
                <text id="1.-Develop-Value-Dri" font-family="ArialMT, Arial" font-size="15" font-weight="normal" letter-spacing="0.5357147" fill="#000000">
                    <tspan x="102.465714" y="108.544218">1. Finalize</tspan>
                    <tspan x="97.077704" y="125.544218">Value Driver</tspan>
 <tspan x="120.077704" y="145.544218">Tree</tspan>
                </text>
                <text id="Create-value-driver" font-family="ArialMT, Arial" font-size="15" font-weight="normal" letter-spacing="0.5357147" fill="#000000">
                    <tspan x="45.202283" y="180.544218">Finalize pre-configured </tspan>
<tspan x="65.202283" y="197.544218">value drivers and </tspan>
                    <tspan x="39.7762576" y="215.544218"> KPIs for my client and deal</tspan>
                </text>
                <g id="Group-6" transform="translate(127.000000, 47.544218)">
                    <g id="Group-3" transform="translate(0.000000, 0.413800)">
                        <mask id="mask-2" fill="white">
                            <use xlink:href="#path-1"></use>
                        </mask>
                        <g id="Clip-2"></g>
                        <path d="M8.8628,2.8535 C8.4828,2.8535 8.1728,3.1635 8.1728,3.5435 C8.1728,3.9245 8.4828,4.2355 8.8628,4.2355 L10.8888,4.2355 L10.8888,20.3785 L2.9618,34.0995 C2.0418,35.6935 2.0408,37.5945 2.9608,39.1885 C3.8808,40.7815 5.5268,41.7325 7.3678,41.7325 L19.6088,41.7325 C21.4498,41.7325 23.0958,40.7815 24.0158,39.1885 C24.9358,37.5945 24.9348,35.6935 24.0148,34.0995 L16.0878,20.3785 L16.0878,4.2355 L18.1138,4.2355 C18.4948,4.2355 18.8048,3.9245 18.8048,3.5435 C18.8048,3.1635 18.4948,2.8535 18.1138,2.8535 L8.8628,2.8535 Z M19.6088,43.9995 L7.3678,43.9995 C4.7078,43.9995 2.3258,42.6245 0.9968,40.3215 C-0.3322,38.0185 -0.3322,35.2685 0.9988,32.9655 L8.6218,19.7715 L8.6218,6.4935 C7.1028,6.3695 5.9048,5.0935 5.9048,3.5435 C5.9048,1.9135 7.2318,0.5855 8.8628,0.5855 L18.1138,0.5855 C19.7458,0.5855 21.0718,1.9135 21.0718,3.5435 C21.0718,5.0935 19.8738,6.3695 18.3548,6.4935 L18.3548,19.7715 L25.9778,32.9655 C27.3088,35.2685 27.3088,38.0185 25.9798,40.3215 C24.6508,42.6245 22.2688,43.9995 19.6088,43.9995 L19.6088,43.9995 Z" id="Fill-1" fill="#343434" mask="url(#mask-2)"></path>
                    </g>
                    <path d="M8.1226,40.3288 C6.8676,40.3288 5.7466,39.6808 5.1196,38.5958 C4.4926,37.5098 4.4936,36.2138 5.1206,35.1288 L7.7326,30.6068 L19.2436,30.6068 L21.8556,35.1288 C22.4826,36.2138 22.4836,37.5098 21.8566,38.5958 C21.2296,39.6808 20.1086,40.3288 18.8536,40.3288 L8.1226,40.3288 Z" id="Fill-4" fill="#343434"></path>
                </g>
            </g>
        </g>
    </g>
</svg>