<?xml version="1.0" encoding="iso-8859-1"?>
<!-- Generator: Adobe Illustrator 16.0.0, SVG Export Plug-In . SVG Version: 6.00 Build 0)  -->
<!DOCTYPE svg PUBLIC "-//W3C//DTD SVG 1.1//EN" "http://www.w3.org/Graphics/SVG/1.1/DTD/svg11.dtd">
<svg version="1.1" id="Capa_1" xmlns="http://www.w3.org/2000/svg" xmlns:xlink="http://www.w3.org/1999/xlink" x="0px" y="0px"
	 width="40.048px" height="40.047px" viewBox="15 15 45.048 45.047" style="fill:#A100FF;"
	 xml:space="preserve">
<g>
	<path d="M58.375,0H6.672C2.993,0,0,2.994,0,6.672v51.703c0,3.68,2.993,6.672,6.672,6.672h51.704c3.681,0,6.672-2.992,6.672-6.672
		V6.672C65.047,2.994,62.057,0,58.375,0z M61.711,58.375c0,1.84-1.496,3.336-3.336,3.336H6.672c-1.839,0-3.336-1.496-3.336-3.336
		V6.672c0-1.84,1.497-3.336,3.336-3.336h51.704c1.84,0,3.336,1.496,3.336,3.336L61.711,58.375L61.711,58.375z M39.383,21.99
		l3.538,3.539L26.213,42.235l-3.538-3.537L39.383,21.99z M23.265,41.645l1.81,1.812L19.109,45.8l2.344-5.967L23.265,41.645z
		 M44.17,17.202l3.539,3.538l-3.607,3.608l-3.539-3.538L44.17,17.202z"/>
</g>

</svg>
