<?xml version="1.0" encoding="UTF-8"?>
<svg width="129px" height="140px" viewBox="0 0 129 140" version="1.1" xmlns="http://www.w3.org/2000/svg" xmlns:xlink="http://www.w3.org/1999/xlink">
    <!-- Generator: Sketch 53.2 (72643) - https://sketchapp.com -->
    <title>MAnually</title>
    <desc>Created with Sketch.</desc>
    <defs>
        <polygon id="path-1" points="0.4784 0.5333 12.327 0.5333 12.327 12.3823 0.4784 12.3823"></polygon>
    </defs>
    <g id="Page-1" stroke="none" stroke-width="1" fill="none" fill-rule="evenodd">
        <g id="Landing2-Copy-25" transform="translate(-700.000000, -161.000000)">
            <g id="MAnually" transform="translate(691.000000, 158.000000)">
                <path d="M83.4488494,5.70489623 L127.101717,30.7364419 C133.318546,34.3013133 137.152867,40.9199818 137.152867,48.0863813 L137.152867,97.9136187 C137.152867,105.080018 133.318546,111.698687 127.101717,115.263558 L83.4488494,140.295104 C77.2868783,143.828518 69.7131217,143.828518 63.5511506,140.295104 L19.8982835,115.263558 C13.6814537,111.698687 9.84713282,105.080018 9.84713282,97.9136187 L9.84713282,48.0863813 C9.84713282,40.9199818 13.6814537,34.3013133 19.8982835,30.7364419 L63.5511506,5.70489623 C69.7131217,2.17148206 77.2868783,2.17148206 83.4488494,5.70489623 Z" id="Polygon-Copy-3" fill="#FFFFFF"></path>
                <g id="MAnually-select" transform="translate(53.000000, 43.000000)">
                    <path d="M26.4139,12.1195 L26.4139,12.1195 C26.4139,13.6215 25.1959,14.8395 23.6939,14.8395 L2.7199,14.8395 C1.2179,14.8395 -0.0001,13.6215 -0.0001,12.1195 C-0.0001,10.6175 1.2179,9.3995 2.7199,9.3995 L23.6939,9.3995 C25.1959,9.3995 26.4139,10.6175 26.4139,12.1195 Z" id="Stroke-1" stroke="#343434" stroke-width="2"></path>
                    <path d="M26.4139,2.7201 L26.4139,2.7201 C26.4139,4.2221 25.1959,5.4401 23.6939,5.4401 L2.7199,5.4401 C1.2179,5.4401 -0.0001,4.2221 -0.0001,2.7201 C-0.0001,1.2181 1.2179,0.0001 2.7199,0.0001 L23.6939,0.0001 C25.1959,0.0001 26.4139,1.2181 26.4139,2.7201 Z" id="Stroke-3" stroke="#343434" stroke-width="2"></path>
                    <path d="M26.4139,21.5189 L26.4139,21.5189 C26.4139,23.0209 25.1959,24.2389 23.6939,24.2389 L2.7199,24.2389 C1.2179,24.2389 -0.0001,23.0209 -0.0001,21.5189 C-0.0001,20.0169 1.2179,18.7989 2.7199,18.7989 L23.6939,18.7989 C25.1959,18.7989 26.4139,20.0169 26.4139,21.5189 Z" id="Stroke-5" stroke="#343434" stroke-width="2"></path>
                    <g id="Group-9" transform="translate(28.000000, 8.238500)">
                        <mask id="mask-2" fill="white">
                            <use xlink:href="#path-1"></use>
                        </mask>
                        <g id="Clip-8"></g>
                        <polygon id="Fill-7" fill="#343434" mask="url(#mask-2)" points="0.4784 0.5333 4.2144 11.7403 6.8364 9.1173 10.1014 12.3823 12.3274 10.1553 9.0634 6.8913 11.6854 4.2683"></polygon>
                    </g>
                </g>
                <text id="2.-Manually-Select-K" font-family="ArialMT, Arial" font-size="15" font-weight="normal" letter-spacing="0.5357147" fill="#000000">
                    <tspan x="32.7002977" y="85">2. Develop </tspan>
                    <tspan x="23.2864793" y="104">Business Case</tspan>
                </text>
            </g>
        </g>
    </g>
</svg>