<?xml version="1.0" encoding="UTF-8"?>
<svg width="211px" height="237px" viewBox="0 0 211 237" version="1.1" xmlns="http://www.w3.org/2000/svg" xmlns:xlink="http://www.w3.org/1999/xlink">
    <!-- Generator: Sketch 53.2 (72643) - https://sketchapp.com -->
    <title>Group 13</title>
    <desc>Created with Sketch.</desc>
    <g id="Page-1" stroke="none" stroke-width="1" fill="none" fill-rule="evenodd">
        <g id="Landing2-Copy-27" transform="translate(-537.000000, -307.000000)">
            <g id="Group-13" transform="translate(521.000000, 378.000000)">
                <path d="M131.5,5.77350269 L216.722087,54.9764973 C222.910108,58.5491532 226.722087,65.1516936 226.722087,72.2970054 L226.722087,170.702995 C226.722087,177.848306 222.910108,184.450847 216.722087,188.023503 L131.5,237.226497 C125.311978,240.799153 117.688022,240.799153 111.5,237.226497 L26.2779134,188.023503 C20.0898919,184.450847 16.2779134,177.848306 16.2779134,170.702995 L16.2779134,72.2970054 C16.2779134,65.1516936 20.0898919,58.5491532 26.2779134,54.9764973 L111.5,5.77350269 C117.688022,2.20084679 125.311978,2.20084679 131.5,5.77350269 Z" id="Polygon" fill="#242424"></path>
                <g id="Group-Copy-2" transform="translate(85.000000, 52.000000)">
                    <circle id="Oval-Copy-3" fill="#FF8D00" cx="36.5" cy="36.5" r="6.5"></circle>
                    <path d="M44,4.33012702 L60.6099272,13.919873 C65.2509434,16.5993649 68.1099272,21.5512702 68.1099272,26.910254 L68.1099272,46.089746 C68.1099272,51.4487298 65.2509434,56.4006351 60.6099272,59.080127 L44,68.669873 C39.3589838,71.3493649 33.6410162,71.3493649 29,68.669873 L12.3900728,59.080127 C7.74905661,56.4006351 4.89007276,51.4487298 4.89007276,46.089746 L4.89007276,26.910254 C4.89007276,21.5512702 7.74905661,16.5993649 12.3900728,13.919873 L29,4.33012702 C33.6410162,1.65063509 39.3589838,1.65063509 44,4.33012702 Z" id="Polygon-Copy-7" stroke="#FFFFFF" stroke-width="3" transform="translate(36.500000, 36.500000) rotate(-180.000000) translate(-36.500000, -36.500000) "></path>
                </g>
            </g>
        </g>
    </g>
</svg>