<?xml version="1.0" encoding="UTF-8"?>
<svg width="129px" height="140px" viewBox="0 0 129 140" version="1.1" xmlns="http://www.w3.org/2000/svg" xmlns:xlink="http://www.w3.org/1999/xlink">
    <!-- Generator: Sketch 53.2 (72643) - https://sketchapp.com -->
    <title>capture</title>
    <desc>Created with Sketch.</desc>
    <g id="Page-1" stroke="none" stroke-width="1" fill="none" fill-rule="evenodd">
        <g id="Landing2-Copy-25" transform="translate(-794.000000, -356.000000)">
            <g id="review" transform="translate(785.000000, 353.000000)">
                <path d="M83.4488494,5.70489623 L127.101717,30.7364419 C133.318546,34.3013133 137.152867,40.9199818 137.152867,48.0863813 L137.152867,97.9136187 C137.152867,105.080018 133.318546,111.698687 127.101717,115.263558 L83.4488494,140.295104 C77.2868783,143.828518 69.7131217,143.828518 63.5511506,140.295104 L19.8982835,115.263558 C13.6814537,111.698687 9.84713282,105.080018 9.84713282,97.9136187 L9.84713282,48.0863813 C9.84713282,40.9199818 13.6814537,34.3013133 19.8982835,30.7364419 L63.5511506,5.70489623 C69.7131217,2.17148206 77.2868783,2.17148206 83.4488494,5.70489623 Z" id="Polygon-Copy-5" fill="#FFFFFF"></path>
                <g id="reviuew" transform="translate(53.000000, 25.000000)" stroke="#343434" stroke-width="2">
                    <path d="M6.6388,13.57 C10.3058,13.57 13.2788,16.542 13.2788,20.209 C13.2788,23.876 10.3058,26.847 6.6388,26.847 C2.9728,26.847 -0.0002,23.876 -0.0002,20.209 C-0.0002,16.542 2.9728,13.57 6.6388,13.57 Z" id="Stroke-1"></path>
                    <path d="M19.3117,26.7507 C21.5787,26.7507 23.4157,28.5877 23.4157,30.8547 C23.4157,33.1197 21.5787,34.9567 19.3117,34.9567 C17.0457,34.9567 15.2077,33.1197 15.2077,30.8547 C15.2077,28.5877 17.0457,26.7507 19.3117,26.7507 Z" id="Stroke-3"></path>
                    <path d="M19.3117,5.4606 C21.5787,5.4606 23.4157,7.2976 23.4157,9.5646 C23.4157,11.8296 21.5787,13.6666 19.3117,13.6666 C17.0457,13.6666 15.2077,11.8296 15.2077,9.5646 C15.2077,7.2976 17.0457,5.4606 19.3117,5.4606 Z" id="Stroke-5"></path>
                    <path d="M32.1622,34.9567 C33.5622,34.9567 34.6982,36.0927 34.6982,37.4927 C34.6982,38.8937 33.5622,40.0287 32.1622,40.0287 C30.7622,40.0287 29.6262,38.8937 29.6262,37.4927 C29.6262,36.0927 30.7622,34.9567 32.1622,34.9567 Z" id="Stroke-7"></path>
                    <path d="M32.1622,21.7761 C33.5622,21.7761 34.6982,22.9111 34.6982,24.3121 C34.6982,25.7131 33.5622,26.8471 32.1622,26.8471 C30.7622,26.8471 29.6262,25.7131 29.6262,24.3121 C29.6262,22.9111 30.7622,21.7761 32.1622,21.7761 Z" id="Stroke-9"></path>
                    <path d="M15.8693,28.6257 L11.7073,24.4947" id="Stroke-11"></path>
                    <path d="M11.7072,15.9226 L15.8692,11.7926" id="Stroke-13"></path>
                    <path d="M22.7746,33.0495 L29.7506,36.7115" id="Stroke-15"></path>
                    <path d="M22.7746,28.6579 L29.8546,25.3589" id="Stroke-17"></path>
                    <path d="M32.1622,-0.0003 C33.5622,-0.0003 34.6982,1.1357 34.6982,2.5357 C34.6982,3.9367 33.5622,5.0717 32.1622,5.0717 C30.7622,5.0717 29.6262,3.9367 29.6262,2.5357 C29.6262,1.1357 30.7622,-0.0003 32.1622,-0.0003 Z" id="Stroke-19"></path>
                    <path d="M22.7746,6.8825 L29.8546,3.5835" id="Stroke-21"></path>
                </g>
                <text id="3.-Review-Value-Driv" font-family="ArialMT, Arial" font-size="15" font-weight="normal" letter-spacing="0.5357147" fill="#000000">
                    <tspan x="37.6595964" y="87">4. Capture</tspan>
                    <tspan x="51.077704" y="104">Actuals </tspan>
                </text>
            </g>
        </g>
    </g>
</svg>