<?xml version="1.0" encoding="UTF-8"?>
<svg width="245px" height="274px" viewBox="0 0 245 274" version="1.1" xmlns="http://www.w3.org/2000/svg" xmlns:xlink="http://www.w3.org/1999/xlink">
    <!-- Generator: Sketch 53.2 (72643) - https://sketchapp.com -->
    <title>Review big</title>
    <desc>Created with Sketch.</desc>
    <g id="Page-1" stroke="none" stroke-width="1" fill="none" fill-rule="evenodd">
        <g id="Landing2-Copy-26" transform="translate(-784.000000, -289.000000)">
            <g id="Review-big" transform="translate(766.000000, 286.000000)">
                <path d="M150.448849,5.70489623 L252.125419,64.0085507 C258.342248,67.5734222 262.176569,74.1920907 262.176569,81.3584901 L262.176569,197.729945 C262.176569,204.896345 258.342248,211.515013 252.125419,215.079885 L150.448849,273.383539 C144.286878,276.916953 136.713122,276.916953 130.551151,273.383539 L28.8745814,215.079885 C22.6577516,211.515013 18.8234308,204.896345 18.8234308,197.729945 L18.8234308,81.3584901 C18.8234308,74.1920907 22.6577516,67.5734222 28.8745814,64.0085507 L130.551151,5.70489623 C136.713122,2.17148206 144.286878,2.17148206 150.448849,5.70489623 Z" id="Polygon-Copy-5" fill="#FFFFFF"></path>
                <g id="Group-23" transform="translate(123.000000, 50.000000)" stroke="#343434" stroke-width="2">
                    <path d="M6.6388,13.57 C10.3058,13.57 13.2788,16.542 13.2788,20.209 C13.2788,23.876 10.3058,26.847 6.6388,26.847 C2.9728,26.847 -0.0002,23.876 -0.0002,20.209 C-0.0002,16.542 2.9728,13.57 6.6388,13.57 Z" id="Stroke-1"></path>
                    <path d="M19.3117,26.7507 C21.5787,26.7507 23.4157,28.5877 23.4157,30.8547 C23.4157,33.1197 21.5787,34.9567 19.3117,34.9567 C17.0457,34.9567 15.2077,33.1197 15.2077,30.8547 C15.2077,28.5877 17.0457,26.7507 19.3117,26.7507 Z" id="Stroke-3"></path>
                    <path d="M19.3117,5.4606 C21.5787,5.4606 23.4157,7.2976 23.4157,9.5646 C23.4157,11.8296 21.5787,13.6666 19.3117,13.6666 C17.0457,13.6666 15.2077,11.8296 15.2077,9.5646 C15.2077,7.2976 17.0457,5.4606 19.3117,5.4606 Z" id="Stroke-5"></path>
                    <path d="M32.1622,34.9567 C33.5622,34.9567 34.6982,36.0927 34.6982,37.4927 C34.6982,38.8937 33.5622,40.0287 32.1622,40.0287 C30.7622,40.0287 29.6262,38.8937 29.6262,37.4927 C29.6262,36.0927 30.7622,34.9567 32.1622,34.9567 Z" id="Stroke-7"></path>
                    <path d="M32.1622,21.7761 C33.5622,21.7761 34.6982,22.9111 34.6982,24.3121 C34.6982,25.7131 33.5622,26.8471 32.1622,26.8471 C30.7622,26.8471 29.6262,25.7131 29.6262,24.3121 C29.6262,22.9111 30.7622,21.7761 32.1622,21.7761 Z" id="Stroke-9"></path>
                    <path d="M15.8693,28.6257 L11.7073,24.4947" id="Stroke-11"></path>
                    <path d="M11.7072,15.9226 L15.8692,11.7926" id="Stroke-13"></path>
                    <path d="M22.7746,33.0495 L29.7506,36.7115" id="Stroke-15"></path>
                    <path d="M22.7746,28.6579 L29.8546,25.3589" id="Stroke-17"></path>
                    <path d="M32.1622,-0.0003 C33.5622,-0.0003 34.6982,1.1357 34.6982,2.5357 C34.6982,3.9367 33.5622,5.0717 32.1622,5.0717 C30.7622,5.0717 29.6262,3.9367 29.6262,2.5357 C29.6262,1.1357 30.7622,-0.0003 32.1622,-0.0003 Z" id="Stroke-19"></path>
                    <path d="M22.7746,6.8825 L29.8546,3.5835" id="Stroke-21"></path>
                </g>
                <text id="3.-Review-Value-Driv" font-family="ArialMT, Arial" font-size="15" font-weight="normal" letter-spacing="0.5357147" fill="#000000">
                    <tspan x="74.3432237" y="120">4. Capture Actuals </tspan>
                </text>
                <text id="Selected-and-review" font-family="ArialMT, Arial" font-size="15" font-weight="normal" letter-spacing="0.5357147" fill="#000000">
                    <tspan x="64.3982577" y="163">Track actual benefits </tspan>
                    <tspan x="49.8291659" y="186">and investments against </tspan>
                    <tspan x="99.413258" y="210"> the targets </tspan>
                </text>
            </g>
        </g>
    </g>
</svg>