<?xml version="1.0" encoding="UTF-8"?>
<svg width="245px" height="274px" viewBox="0 0 245 274" version="1.1" xmlns="http://www.w3.org/2000/svg" xmlns:xlink="http://www.w3.org/1999/xlink">
    <!-- Generator: Sketch 53.2 (72643) - https://sketchapp.com -->
    <title>Set KPI big</title>
    <desc>Created with Sketch.</desc>
    <defs>
        <polygon id="path-1" points="0 0.659983333 41.3406 0.659983333 41.3406 41.99965 0 41.99965"></polygon>
    </defs>
    <g id="Page-1" stroke="none" stroke-width="1" fill="none" fill-rule="evenodd">
        <g id="Landing2-Copy-27" transform="translate(-784.000000, -289.000000)">
            <g id="Set-kpi-big" transform="translate(766.000000, 286.455782)">
                <path d="M150.448849,5.70489623 L252.125419,64.0085507 C258.342248,67.5734222 262.176569,74.1920907 262.176569,81.3584901 L262.176569,197.729945 C262.176569,204.896345 258.342248,211.515013 252.125419,215.079885 L150.448849,273.383539 C144.286878,276.916953 136.713122,276.916953 130.551151,273.383539 L28.8745814,215.079885 C22.6577516,211.515013 18.8234308,204.896345 18.8234308,197.729945 L18.8234308,81.3584901 C18.8234308,74.1920907 22.6577516,67.5734222 28.8745814,64.0085507 L130.551151,5.70489623 C136.713122,2.17148206 144.286878,2.17148206 150.448849,5.70489623 Z" id="Polygon-Copy-5" fill="#FFFFFF"></path>
                <g id="Group-6" transform="translate(119.000000, 52.544218)">
                    <path d="M21.4183384,22.6778902 C20.7693087,22.6778902 20.2410287,22.1496102 20.2410287,21.4994195 C20.2410287,20.8503898 20.7693087,20.3221098 21.4183384,20.3221098 C22.0685291,20.3221098 22.5968091,20.8503898 22.5968091,21.4994195 C22.5968091,22.1496102 22.0685291,22.6778902 21.4183384,22.6778902 M21.4183384,18 C19.4886651,18 17.9189189,19.5697462 17.9189189,21.4994195 C17.9189189,23.4290927 19.4886651,25 21.4183384,25 C23.3480116,25 24.9189189,23.4290927 24.9189189,21.4994195 C24.9189189,19.5697462 23.3480116,18 21.4183384,18" id="Fill-1" fill="#343434"></path>
                    <g id="Group-5" transform="translate(0.918919, 0.000000)">
                        <mask id="mask-2" fill="white">
                            <use xlink:href="#path-1"></use>
                        </mask>
                        <g id="Clip-4"></g>
                        <path d="M21.8362667,36.6178167 L21.8362667,33.68715 L19.5029333,33.68715 L19.5029333,36.6178167 C11.9919333,36.0449833 5.99876667,30.0203167 5.4726,22.4964833 L8.3111,22.4964833 L8.3111,20.16315 L5.48076667,20.16315 C6.0956,12.7268167 12.0549333,6.79898333 19.5029333,6.23198333 L19.5029333,8.97131667 L21.8362667,8.97131667 L21.8362667,6.23198333 C29.2842667,6.79898333 35.2436,12.7268167 35.8584333,20.16315 L33.0281,20.16315 L33.0281,22.4964833 L35.8677667,22.4964833 C35.3404333,30.0203167 29.3461,36.0449833 21.8362667,36.6178167 L21.8362667,36.6178167 Z M41.3406,20.16315 L38.1917667,20.16315 C37.5664333,11.4423167 30.5687667,4.47615 21.8362667,3.89865 L21.8362667,0.659983333 L19.5029333,0.659983333 L19.5029333,3.89865 C10.7704333,4.47615 3.77276667,11.4423167 3.14743333,20.16315 L-0.000233333333,20.16315 L-0.000233333333,22.4964833 L3.13926667,22.4964833 C3.6736,31.3048167 10.7062667,38.37015 19.5029333,38.95115 L19.5029333,41.99965 L21.8362667,41.99965 L21.8362667,38.95115 C30.6329333,38.37015 37.6656,31.3048167 38.2011,22.4964833 L41.3406,22.4964833 L41.3406,20.16315 Z" id="Fill-3" fill="#343434" mask="url(#mask-2)"></path>
                    </g>
                </g>
                <text id="4.-Set-KPI-Targets" font-family="ArialMT, Arial" font-size="15" font-weight="normal" letter-spacing="0.5357147" fill="#000000">
                    <tspan x="56" y="128.544218">3. Define Workstreams</tspan>
                </text>
                <text id="Set-KPI-targets-like" font-family="ArialMT, Arial" font-size="15" font-weight="normal" letter-spacing="0.5357147" fill="#000000">
                    <tspan x="76.8635561" y="160.544218">Add work-streams,</tspan>
                    <tspan x="72" y="177.544218">its related activities,</tspan>
                    <tspan x="95.8019991" y="192.544218">deliverables</tspan>
<tspan x="84.8019991" y="209.544218">and milestones</tspan>
                </text>
            </g>
        </g>
    </g>
</svg>