<?xml version="1.0" encoding="UTF-8"?>
<svg width="129px" height="140px" viewBox="0 0 129 140" version="1.1" xmlns="http://www.w3.org/2000/svg" xmlns:xlink="http://www.w3.org/1999/xlink">
    <!-- Generator: Sketch 53.2 (72643) - https://sketchapp.com -->
    <title>Define Initiatives</title>
    <desc>Created with Sketch.</desc>
    <defs>
        <polygon id="path-1" points="0 0.659983333 41.3406 0.659983333 41.3406 41.99965 0 41.99965"></polygon>
    </defs>
    <g id="Page-1" stroke="none" stroke-width="1" fill="none" fill-rule="evenodd">
        <g id="Landing2-Copy-25" transform="translate(-700.000000, -550.000000)">
            <g id="set-kpi" transform="translate(691.000000, 547.000000)">
                <path d="M83.4488494,5.70489623 L127.101717,30.7364419 C133.318546,34.3013133 137.152867,40.9199818 137.152867,48.0863813 L137.152867,97.9136187 C137.152867,105.080018 133.318546,111.698687 127.101717,115.263558 L83.4488494,140.295104 C77.2868783,143.828518 69.7131217,143.828518 63.5511506,140.295104 L19.8982835,115.263558 C13.6814537,111.698687 9.84713282,105.080018 9.84713282,97.9136187 L9.84713282,48.0863813 C9.84713282,40.9199818 13.6814537,34.3013133 19.8982835,30.7364419 L63.5511506,5.70489623 C69.7131217,2.17148206 77.2868783,2.17148206 83.4488494,5.70489623 Z" id="Polygon-Copy-4" fill="#FFFFFF"></path>
                <text id="4.-Set-KPI-Targets" font-family="ArialMT, Arial" font-size="15" font-weight="normal" letter-spacing="0.5357147" fill="#000000">
                    <tspan x="36.553116" y="87">3. Define</tspan>
                    <tspan x="23" y="104">Workstreams</tspan>
                </text>
                <g id="set-kpi-targets" transform="translate(52.081081, 29.000000)">
                    <path d="M21.4183384,22.6778902 C20.7693087,22.6778902 20.2410287,22.1496102 20.2410287,21.4994195 C20.2410287,20.8503898 20.7693087,20.3221098 21.4183384,20.3221098 C22.0685291,20.3221098 22.5968091,20.8503898 22.5968091,21.4994195 C22.5968091,22.1496102 22.0685291,22.6778902 21.4183384,22.6778902 M21.4183384,18 C19.4886651,18 17.9189189,19.5697462 17.9189189,21.4994195 C17.9189189,23.4290927 19.4886651,25 21.4183384,25 C23.3480116,25 24.9189189,23.4290927 24.9189189,21.4994195 C24.9189189,19.5697462 23.3480116,18 21.4183384,18" id="Fill-1" fill="#343434"></path>
                    <g id="Group-5" transform="translate(0.918919, 0.000000)">
                        <mask id="mask-2" fill="white">
                            <use xlink:href="#path-1"></use>
                        </mask>
                        <g id="Clip-4"></g>
                        <path d="M21.8362667,36.6178167 L21.8362667,33.68715 L19.5029333,33.68715 L19.5029333,36.6178167 C11.9919333,36.0449833 5.99876667,30.0203167 5.4726,22.4964833 L8.3111,22.4964833 L8.3111,20.16315 L5.48076667,20.16315 C6.0956,12.7268167 12.0549333,6.79898333 19.5029333,6.23198333 L19.5029333,8.97131667 L21.8362667,8.97131667 L21.8362667,6.23198333 C29.2842667,6.79898333 35.2436,12.7268167 35.8584333,20.16315 L33.0281,20.16315 L33.0281,22.4964833 L35.8677667,22.4964833 C35.3404333,30.0203167 29.3461,36.0449833 21.8362667,36.6178167 L21.8362667,36.6178167 Z M41.3406,20.16315 L38.1917667,20.16315 C37.5664333,11.4423167 30.5687667,4.47615 21.8362667,3.89865 L21.8362667,0.659983333 L19.5029333,0.659983333 L19.5029333,3.89865 C10.7704333,4.47615 3.77276667,11.4423167 3.14743333,20.16315 L-0.000233333333,20.16315 L-0.000233333333,22.4964833 L3.13926667,22.4964833 C3.6736,31.3048167 10.7062667,38.37015 19.5029333,38.95115 L19.5029333,41.99965 L21.8362667,41.99965 L21.8362667,38.95115 C30.6329333,38.37015 37.6656,31.3048167 38.2011,22.4964833 L41.3406,22.4964833 L41.3406,20.16315 Z" id="Fill-3" fill="#343434" mask="url(#mask-2)"></path>
                    </g>
                </g>
            </g>
        </g>
    </g>
</svg>