<svg width="23" height="23" viewBox="0 0 23 23" fill="none" xmlns="http://www.w3.org/2000/svg">
<path d="M3.26086 5.99999C3.26086 2.96243 5.7233 0.5 8.76086 0.5H18.8216V21.0007C18.8216 21.8291 18.1501 22.5007 17.3216 22.5007H3.26086V5.99999Z" stroke="white"/>
<path d="M18.8995 0.5H20.9997C21.8281 0.5 22.4997 1.17157 22.4997 2V5.02016H18.8995V0.5Z" stroke="white"/>
<path d="M0.5 17.9805H18.8209V21.0006C18.8209 21.8291 18.1493 22.5006 17.3209 22.5006H2C1.17157 22.5006 0.5 21.8291 0.5 21.0006V17.9805Z" stroke="white"/>
<rect x="2.76086" y="17.4805" width="0.920042" height="0.920026" fill="white"/>
<rect x="6.44077" y="6.44043" width="4.60021" height="0.920026" rx="0.460013" fill="#C4C4C4"/>
<rect x="6.44077" y="9.2002" width="5.52025" height="0.920026" rx="0.460013" fill="#C4C4C4"/>
<rect x="6.44077" y="11.96" width="7.36034" height="0.920026" rx="0.460013" fill="#C4C4C4"/>
</svg>
