<svg width="30" height="30" viewBox="0 0 30 30" fill="none" xmlns="http://www.w3.org/2000/svg">
<path d="M21.2498 18.9998H22.8268C25.3118 18.9998 27.3258 16.8628 27.3258 14.3788C27.3258 11.8948 25.3118 9.75878 22.8268 9.75878C22.3408 9.75878 21.8718 9.83878 21.4318 9.98178C20.7938 6.53678 17.7788 3.92578 14.1488 3.92578C10.8998 3.92578 8.1458 6.01978 7.1438 8.92778C7.1248 8.92778 7.1078 8.92578 7.0888 8.92578C4.3748 8.92578 2.1748 11.2028 2.1748 13.9168C2.1748 16.5118 4.1868 18.4558 6.7348 18.9998H7.9168" stroke="white" stroke-miterlimit="10" stroke-linecap="round" stroke-linejoin="round"/>
<path d="M14.6182 16.9551V25.0651" stroke="white" stroke-miterlimit="10" stroke-linecap="round" stroke-linejoin="round"/>
<path d="M18.4701 21.4238L14.7661 25.1278" stroke="white" stroke-miterlimit="10" stroke-linecap="round" stroke-linejoin="round"/>
<path d="M14.4701 25.1278L10.7661 21.4238" stroke="white" stroke-miterlimit="10" stroke-linecap="round" stroke-linejoin="round"/>
</svg>
