<svg width="26" height="26" viewBox="0 0 26 26" fill="none" xmlns="http://www.w3.org/2000/svg">
<rect x="0.5" y="5.77344" width="19.538" height="19.538" rx="1.5" fill="#454545" stroke="white"/>
<rect x="14.0625" y="3" width="9.375" height="9.375" fill="#454545"/>
<path d="M23.4983 3.25898C23.5208 2.98375 23.3158 2.74246 23.0406 2.72004L18.5555 2.35468C18.2802 2.33226 18.0389 2.5372 18.0165 2.81243C17.9941 3.08766 18.199 3.32896 18.4743 3.35138L22.4611 3.67614L22.1363 7.66293C22.1139 7.93816 22.3188 8.17946 22.594 8.20188C22.8693 8.2243 23.1106 8.01935 23.133 7.74412L23.4983 3.25898ZM13.3237 12.093L23.3237 3.59948L22.6763 2.83729L12.6763 11.3308L13.3237 12.093Z" fill="white"/>
</svg>
