<?xml version="1.0" encoding="utf-8"?>
<!-- Generator: Adobe Illustrator 15.0.0, SVG Export Plug-In  -->
<!DOCTYPE svg PUBLIC "-//W3C//DTD SVG 1.1//EN" "http://www.w3.org/Graphics/SVG/1.1/DTD/svg11.dtd" [
	<!ENTITY ns_flows "http://ns.adobe.com/Flows/1.0/">
]>
<svg version="1.1"
	 xmlns="http://www.w3.org/2000/svg" xmlns:xlink="http://www.w3.org/1999/xlink" xmlns:a="http://ns.adobe.com/AdobeSVGViewerExtensions/3.0/"
	 x="0px" y="0px" width="17px" height="17px" viewBox="0.5 0.5 17 17" enable-background="new 0.5 0.5 17 17" xml:space="preserve">
<defs>
</defs>
<rect x="0.5" y="0.5" display="none" fill="#00BF92" stroke="#000000" stroke-miterlimit="10" width="17" height="17"/>
<path display="none" fill="none" stroke="#FFFFFF" d="M4.093,4.093V2.5c0-0.829,0.671-1.5,1.5-1.5h9.145c0.828,0,1.5,0.671,1.5,1.5
	v9.145c0,0.828-0.672,1.5-1.5,1.5h-1.279"/>
<path display="none" fill="none" stroke="#FFFFFF" d="M2.5,4.093h9.145c0.828,0,1.5,0.671,1.5,1.5v9.145c0,0.828-0.672,1.5-1.5,1.5
	H2.5c-0.829,0-1.5-0.672-1.5-1.5V5.593C1,4.764,1.671,4.093,2.5,4.093z"/>
<path fill="none" stroke="#FFFFFF" stroke-linecap="round" stroke-linejoin="round" d="M13.145,7.5v6.6c0,0.828-0.672,1.5-1.5,1.5
	H2.5c-0.829,0-1.5-0.672-1.5-1.5V4.955c0-0.828,0.671-1.5,1.5-1.5h7"/>
<rect x="9.5" y="1.5" display="none" fill="#454545" width="6" height="6"/>
<path fill="#FFFFFF" d="M16.999,1.029c0.017-0.275-0.194-0.512-0.47-0.528l-4.492-0.264c-0.275-0.017-0.512,0.194-0.528,0.47
	c-0.017,0.275,0.194,0.512,0.47,0.528l3.993,0.235l-0.235,3.993c-0.016,0.275,0.194,0.512,0.471,0.528
	c0.275,0.017,0.512-0.194,0.527-0.47L16.999,1.029z M7.832,9.373l9-8l-0.664-0.747l-9,8L7.832,9.373z"/>
</svg>
