<svg width="20" height="11" viewBox="0 0 20 11" fill="none" xmlns="http://www.w3.org/2000/svg">
<path fill-rule="evenodd" clip-rule="evenodd" d="M1.5 4.85129C2.96736 3.33777 5.24221 1.75883 7.94116 1.25113C10.8624 0.701623 14.3563 1.39205 17.9605 4.94993V5.2002V5.54975C14.3563 9.10763 10.8624 9.79806 7.94116 9.24855C5.24221 8.74086 2.96736 7.16192 1.5 5.64839V5.16659V4.85129ZM0.593274 4.3541C2.16145 2.66879 4.68956 0.845246 7.75629 0.26837C11.0645 -0.353921 14.921 0.489898 18.7707 4.34543C18.8122 4.36202 18.8524 4.38002 18.8912 4.39943C19.1253 4.51649 19.4605 4.77071 19.4605 5.2002C19.4605 5.5913 19.1826 5.83706 18.9561 5.96626C15.0449 9.98232 11.1176 10.8636 7.75629 10.2313C4.33384 9.58753 1.58222 7.39109 0.0869867 5.56689L0.103598 5.55327C0.0406816 5.44458 0 5.31622 0 5.16659C0 4.73711 0.33517 4.48288 0.569286 4.36583C0.577223 4.36186 0.58522 4.35795 0.593274 4.3541Z" fill="white"/>
<circle cx="9.69995" cy="5.38281" r="1" fill="white"/>
<circle cx="9.69995" cy="5.2998" r="2.5" stroke="white"/>
</svg>
