<svg width="24" height="23" viewBox="0 0 24 23" fill="none" xmlns="http://www.w3.org/2000/svg">
<path d="M11.805 17.15C11.155 17.11 10.595 16.995 10.125 16.805C9.655 16.605 9.27 16.35 8.97 16.04C8.66 15.74 8.425 15.385 8.265 14.975C8.105 14.565 8.01 14.125 7.98 13.655H10.2C10.23 13.875 10.27 14.08 10.32 14.27C10.38 14.46 10.47 14.63 10.59 14.78C10.71 14.94 10.865 15.075 11.055 15.185C11.255 15.295 11.505 15.37 11.805 15.41V12.515C11.205 12.425 10.685 12.3 10.245 12.14C9.805 11.97 9.44 11.755 9.15 11.495C8.86 11.245 8.64 10.94 8.49 10.58C8.35 10.22 8.28 9.79 8.28 9.29C8.28 8.86 8.36 8.46 8.52 8.09C8.69 7.72 8.93 7.395 9.24 7.115C9.55 6.845 9.92 6.625 10.35 6.455C10.78 6.285 11.265 6.18 11.805 6.14V4.805H12.87V6.155C13.9 6.245 14.71 6.55 15.3 7.07C15.89 7.58 16.23 8.32 16.32 9.29H14.175C14.105 8.9 13.97 8.59 13.77 8.36C13.57 8.12 13.27 7.96 12.87 7.88V10.565C13.43 10.655 13.935 10.775 14.385 10.925C14.835 11.065 15.22 11.255 15.54 11.495C15.85 11.745 16.085 12.055 16.245 12.425C16.415 12.785 16.5 13.225 16.5 13.745C16.5 14.195 16.42 14.62 16.26 15.02C16.11 15.41 15.885 15.755 15.585 16.055C15.275 16.365 14.89 16.615 14.43 16.805C13.98 16.995 13.46 17.11 12.87 17.15V19.025H11.805V17.15ZM14.28 14C14.28 13.64 14.18 13.36 13.98 13.16C13.79 12.96 13.42 12.8 12.87 12.68V15.41C13.31 15.33 13.655 15.17 13.905 14.93C14.155 14.68 14.28 14.37 14.28 14ZM10.44 9.095C10.44 9.265 10.46 9.42 10.5 9.56C10.54 9.69 10.61 9.805 10.71 9.905C10.81 10.015 10.945 10.11 11.115 10.19C11.295 10.26 11.525 10.325 11.805 10.385V7.85C11.355 7.91 11.015 8.055 10.785 8.285C10.555 8.505 10.44 8.775 10.44 9.095Z" fill="white"/>
</svg>
