<svg width="19" height="19" viewBox="0 0 19 19" fill="none" xmlns="http://www.w3.org/2000/svg">
<circle cx="9.5" cy="9.5" r="9" stroke="white"/>
<path d="M9.47922 6.684C9.15255 6.684 8.87722 6.58133 8.65322 6.376C8.43855 6.16133 8.33122 5.89533 8.33122 5.578C8.33122 5.26067 8.43855 4.99933 8.65322 4.794C8.87722 4.57933 9.15255 4.472 9.47922 4.472C9.80589 4.472 10.0812 4.57933 10.3052 4.794C10.5292 4.99933 10.6412 5.26067 10.6412 5.578C10.6412 5.89533 10.5292 6.16133 10.3052 6.376C10.0812 6.58133 9.80589 6.684 9.47922 6.684ZM8.48522 7.678H10.5012V15H8.48522V7.678Z" fill="white"/>
</svg>
