<svg width="26" height="25" viewBox="0 0 26 25" fill="none" xmlns="http://www.w3.org/2000/svg">
<path d="M22.6689 12.3989C22.6689 11.7612 22.6027 11.1388 22.4831 10.5366L24.9556 9.32879L22.7267 4.85633L20.4237 6.06767C19.1811 4.67094 17.2556 3.63873 15.8475 3.14179V1H10.9192V3.14179C8.80709 3.63873 7.17724 4.67094 5.93602 6.06767L3.33952 4.85633L1.05421 9.32879L3.49723 10.5366C3.37754 11.1388 3.29728 11.7612 3.29728 12.3989C3.29728 13.0367 3.35642 13.6584 3.47611 14.2612L1 15.4691L3.22688 19.9415L5.93672 18.7309C7.17865 20.1276 8.80709 21.1592 10.9192 21.6568V24H15.8475V21.6568C17.2556 21.1592 19.1811 20.1276 20.4237 18.7309L22.8147 19.9415L25 15.4691L22.5056 14.2619C22.6253 13.6584 22.6689 13.0374 22.6689 12.3989Z" stroke="white" stroke-miterlimit="10" stroke-linecap="round" stroke-linejoin="round"/>
</svg>
