<?xml version="1.0" encoding="UTF-8"?>
<svg width="129px" height="140px" viewBox="0 0 129 140" version="1.1" xmlns="http://www.w3.org/2000/svg" xmlns:xlink="http://www.w3.org/1999/xlink">
    <!-- Generator: Sketch 53.2 (72643) - https://sketchapp.com -->
    <title>Group 2</title>
    <desc>Created with Sketch.</desc>
    <g id="Page-1" stroke="none" stroke-width="1" fill="none" fill-rule="evenodd">
        <g id="Landing2-Copy-4" transform="translate(-720.000000, -161.000000)">
            <g id="Group-2" transform="translate(711.000000, 158.000000)">
                <path d="M83.4488494,5.70489623 L127.101717,30.7364419 C133.318546,34.3013133 137.152867,40.9199818 137.152867,48.0863813 L137.152867,97.9136187 C137.152867,105.080018 133.318546,111.698687 127.101717,115.263558 L83.4488494,140.295104 C77.2868783,143.828518 69.7131217,143.828518 63.5511506,140.295104 L19.8982835,115.263558 C13.6814537,111.698687 9.84713282,105.080018 9.84713282,97.9136187 L9.84713282,48.0863813 C9.84713282,40.9199818 13.6814537,34.3013133 19.8982835,30.7364419 L63.5511506,5.70489623 C69.7131217,2.17148206 77.2868783,2.17148206 83.4488494,5.70489623 Z" id="Polygon-Copy-3" fill="#FFFFFF"></path>
                <g id="Group-5" transform="translate(56.000000, 36.000000)">
                    <path d="M17,0 C7.61043376,0 0,7.6118023 0,16.9996147 C0,19.0368255 0.357521643,20.9885104 1.01400535,22.7984227 L1.01400535,34 L6.21193854,30.1397784 C9.14762272,32.5514538 12.904682,34 17,34 C26.3887957,34 34,26.3889682 34,16.9996147 C34,7.6118023 26.3887957,0 17,0 Z" id="Stroke-1" stroke="#343434" stroke-width="2"></path>
                    <path d="M16.8559294,26 C16.3679353,26 15.941743,25.8433538 15.5773527,25.5300614 C15.213765,25.2175642 15.0323724,24.7794319 15.0323724,24.2164598 C15.0323724,23.7171003 15.207344,23.2972567 15.559695,22.9561338 C15.912046,22.6150108 16.3438566,22.4448469 16.8559294,22.4448469 C17.3599759,22.4448469 17.7837603,22.6150108 18.1280851,22.9561338 C18.4724099,23.2972567 18.644171,23.7171003 18.644171,24.2164598 C18.644171,24.7714803 18.4643837,25.2072271 18.1040064,25.5237001 C17.7436292,25.8417635 17.327871,26 16.8559294,26 M11,12.9697398 C11,12.2167248 11.2439971,11.454168 11.7311885,10.6804789 C12.2199853,9.90838009 12.9311083,9.2682776 13.867768,8.76096656 C14.8036252,8.25445068 15.8959936,8 17.143268,8 C18.3038593,8 19.3280048,8.21230728 20.2165073,8.6361267 C21.1042071,9.05994611 21.7896462,9.63723108 22.2744298,10.3663913 C22.7584108,11.0955515 23,11.8875293 23,12.7439148 C23,13.417414 22.861949,14.0082166 22.5866497,14.5155277 C22.3097452,15.0220436 21.9822754,15.4601758 21.6018327,15.8291293 C21.2213899,16.1972876 20.5399639,16.8175112 19.5559494,17.6897999 C19.2838606,17.9347087 19.0663501,18.1509917 18.9018126,18.3370588 C18.7380777,18.523921 18.6152766,18.6940849 18.535817,18.8491408 C18.4555548,19.0034015 18.3937529,19.1584574 18.3496087,19.3127181 C18.3062671,19.4669788 18.2404521,19.7381278 18.1513611,20.1261651 C18.0004682,20.9507444 17.5237108,21.3634316 16.7242994,21.3634316 C16.3077386,21.3634316 15.9577955,21.2282546 15.6736673,20.9586959 C15.3903418,20.6891373 15.2474751,20.2891726 15.2474751,19.7580068 C15.2474751,19.0916641 15.3518159,18.5159694 15.559695,18.0285374 C15.7683767,17.5403101 16.043676,17.1125149 16.3880008,16.7443566 C16.7323256,16.3754031 17.1962411,15.938066 17.7797472,15.430755 C18.2918199,14.9862614 18.6618286,14.6522949 18.8897733,14.4256748 C19.1177179,14.1998498 19.3103471,13.9485798 19.4660558,13.6710695 C19.6217644,13.3935592 19.6996188,13.0929894 19.6996188,12.7669744 C19.6996188,12.1340284 19.4620427,11.5988868 18.9860879,11.16314 C18.5101331,10.726598 17.8961273,10.5087247 17.143268,10.5087247 C16.264397,10.5087247 15.6158785,10.7289835 15.2001204,11.1687061 C14.7835596,11.6084287 14.4312086,12.2564827 14.14387,13.1120732 C13.8717812,14.0082166 13.3556953,14.4550956 12.5956123,14.4550956 C12.1477493,14.4550956 11.7697144,14.2992446 11.4615076,13.9867474 C11.1541034,13.673455 11,13.3339223 11,12.9697398" id="Fill-3" fill="#343434"></path>
                </g>
                <text id="Contact-us" font-family="ArialMT, Arial" font-size="15" font-weight="normal" letter-spacing="0.5357147" fill="#000000">
                    <tspan x="35.4693757" y="100">Contact Us</tspan>
                </text>
            </g>
        </g>
    </g>
</svg>