<?xml version="1.0" encoding="UTF-8"?>
<svg width="129px" height="140px" viewBox="0 0 129 140" version="1.1" xmlns="http://www.w3.org/2000/svg" xmlns:xlink="http://www.w3.org/1999/xlink">
    <!-- Generator: Sketch 53.2 (72643) - https://sketchapp.com -->
    <title>Group</title>
    <desc>Created with Sketch.</desc>
    <g id="Page-1" stroke="none" stroke-width="1" fill="none" fill-rule="evenodd">
        <g id="Landing2-Copy-4" transform="translate(-436.000000, -161.000000)">
            <g id="Group" transform="translate(427.000000, 158.000000)">
                <path d="M83.4488494,5.70489623 L127.101717,30.7364419 C133.318546,34.3013133 137.152867,40.9199818 137.152867,48.0863813 L137.152867,97.9136187 C137.152867,105.080018 133.318546,111.698687 127.101717,115.263558 L83.4488494,140.295104 C77.2868783,143.828518 69.7131217,143.828518 63.5511506,140.295104 L19.8982835,115.263558 C13.6814537,111.698687 9.84713282,105.080018 9.84713282,97.9136187 L9.84713282,48.0863813 C9.84713282,40.9199818 13.6814537,34.3013133 19.8982835,30.7364419 L63.5511506,5.70489623 C69.7131217,2.17148206 77.2868783,2.17148206 83.4488494,5.70489623 Z" id="Polygon-Copy" fill="#FFFFFF"></path>
                <text id="How-to-use-Copy" font-family="ArialMT, Arial" font-size="15" font-weight="normal" letter-spacing="0.5357147" fill="#000000">
                    <tspan x="32.803116" y="100">How To Use</tspan>
                </text>
                <g id="Group-5" transform="translate(59.114660, 36.000000)">
                    <path d="M33.8700519,17 C33.8700519,26.3895662 26.5127211,34 17.4370909,34 C8.36146076,34 1.0033852,26.3895662 1.0033852,17 C1.0033852,7.61120428 8.36146076,0 17.4370909,0 C26.5127211,0 33.8700519,7.61120428 33.8700519,17 Z" id="Stroke-1" stroke="#343434" stroke-width="2"></path>
                    <path d="M23.9823847,15.4373921 L16.7188115,9.63134046 C15.8560091,8.94166958 14.5974809,9.08202035 13.9078101,9.94482268 C13.6244252,10.299347 13.4700519,10.7397162 13.4700519,11.1935823 L13.4700519,22.8061915 C13.4700519,23.910761 14.3654824,24.8061915 15.4700519,24.8061915 C15.9239471,24.8061915 16.3643428,24.6517983 16.7188778,24.3683802 L23.982451,18.5618227 C24.8452241,17.8721151 24.9855214,16.613581 24.2958138,15.750808 C24.2032726,15.6350457 24.0981508,15.5299284 23.9823847,15.4373921 Z" id="Fill-3" fill="#343434"></path>
                </g>
            </g>
        </g>
    </g>
</svg>