<?xml version="1.0" encoding="UTF-8"?>
<svg width="129px" height="140px" viewBox="0 0 129 140" version="1.1" xmlns="http://www.w3.org/2000/svg" xmlns:xlink="http://www.w3.org/1999/xlink">
    <!-- Generator: Sketch 53.2 (72643) - https://sketchapp.com -->
    <title>Group 4</title>
    <desc>Created with Sketch.</desc>
    <g id="Page-1" stroke="none" stroke-width="1" fill="none" fill-rule="evenodd">
        <g id="Landing2-Copy-4" transform="translate(-436.000000, -550.000000)">
            <g id="Group-4" transform="translate(427.000000, 547.000000)">
                <path d="M83.4488494,5.70489623 L127.101717,30.7364419 C133.318546,34.3013133 137.152867,40.9199818 137.152867,48.0863813 L137.152867,97.9136187 C137.152867,105.080018 133.318546,111.698687 127.101717,115.263558 L83.4488494,140.295104 C77.2868783,143.828518 69.7131217,143.828518 63.5511506,140.295104 L19.8982835,115.263558 C13.6814537,111.698687 9.84713282,105.080018 9.84713282,97.9136187 L9.84713282,48.0863813 C9.84713282,40.9199818 13.6814537,34.3013133 19.8982835,30.7364419 L63.5511506,5.70489623 C69.7131217,2.17148206 77.2868783,2.17148206 83.4488494,5.70489623 Z" id="Polygon-Copy-2" fill="#FFFFFF"></path>
                <text id="My-projects" font-family="ArialMT, Arial" font-size="15" font-weight="normal" letter-spacing="0.5357147" fill="#000000">
                    <tspan x="32.711284" y="95">My Projects</tspan>
                </text>
                <g id="Group-11-Copy" transform="translate(59.000000, 36.000000)" stroke="#343434">
                    <path d="M19,10.131847 C19,15.3779596 14.7467969,19.6315789 9.5,19.6315789 C4.25320314,19.6315789 0,15.3779596 0,10.131847 C0,4.88519825 4.25320314,0.631578947 9.5,0.631578947 C14.7467969,0.631578947 19,4.88519825 19,10.131847 Z" id="Stroke-1" fill="#343434"></path>
                    <path d="M24,28.6315789 C24,31.9450036 21.3134247,34.6315789 18,34.6315789 C14.6860274,34.6315789 12,31.9450036 12,28.6315789 C12,25.3176063 14.6860274,22.6315789 18,22.6315789 C21.3134247,22.6315789 24,25.3176063 24,28.6315789 Z" id="Stroke-3" fill="#343434"></path>
                    <path d="M29.4500185,15.9500185 C29.4500185,17.8830859 27.8834873,19.4500185 25.9497599,19.4500185 C24.0170669,19.4500185 22.4500185,17.8830859 22.4500185,15.9500185 C22.4500185,14.0174683 24.0170669,12.4500185 25.9497599,12.4500185 C27.8834873,12.4500185 29.4500185,14.0174683 29.4500185,15.9500185 Z" id="Stroke-5" fill="#343434"></path>
                    <path d="M11.4500185,14.4500185 L16.4500185,25.4500185" id="Stroke-7" stroke-width="2"></path>
                    <path d="M20.4500185,25.4500185 L25.9500185,15.9500185" id="Stroke-9" stroke-width="2"></path>
                </g>
            </g>
        </g>
    </g>
</svg>