<svg width="17" height="17" viewBox="0 0 17 17" fill="none" xmlns="http://www.w3.org/2000/svg">
<g clip-path="url(#clip0)">
<path d="M12.645 7.00002V13.6C12.645 14.428 11.973 15.1 11.145 15.1H2C1.171 15.1 0.5 14.428 0.5 13.6V4.45502C0.5 3.62702 1.171 2.95502 2 2.95502H9" stroke="white" stroke-linecap="round" stroke-linejoin="round"/>
<path d="M16.499 0.528982C16.516 0.253982 16.305 0.0169822 16.029 0.000982225L11.537 -0.263018C11.262 -0.280018 11.025 -0.0690177 11.009 0.206982C10.992 0.481982 11.203 0.718982 11.479 0.734982L15.472 0.969982L15.237 4.96298C15.221 5.23798 15.431 5.47498 15.708 5.49098C15.983 5.50798 16.22 5.29698 16.235 5.02098L16.499 0.528982ZM7.33197 8.87298L16.332 0.872982L15.668 0.125982L6.66797 8.12598L7.33197 8.87298Z" fill="white"/>
</g>
<defs>
<clipPath id="clip0">
<rect width="17" height="17" fill="white"/>
</clipPath>
</defs>
</svg>
