<svg width="34" height="34" viewBox="0 0 34 34" fill="none" xmlns="http://www.w3.org/2000/svg">
<rect x="0.5" y="0.5" width="33" height="33" rx="1.5" stroke="white"/>
<path d="M24.868 13.14H21.22L20.548 15H19.396L22.42 6.684H23.68L26.692 15H25.54L24.868 13.14ZM24.556 12.252L23.044 8.028L21.532 12.252H24.556Z" fill="white"/>
<path d="M21.848 26.052H25.928V27H20.552V26.136L24.608 19.584H20.6V18.636H25.904V19.5L21.848 26.052Z" fill="white"/>
<path d="M10 10C10 9.44772 10.4477 9 11 9C11.5523 9 12 9.44772 12 10V23H10V10Z" fill="white"/>
<path d="M7.1716 21.9714C6.91125 21.7111 6.91125 21.2889 7.1716 21.0286C7.6923 20.5079 8.53652 20.5079 9.05722 21.0286L12.357 24.3284L10.9428 25.7426L7.1716 21.9714Z" fill="white"/>
<path d="M13.3787 20.5714C13.639 20.3111 14.0612 20.3111 14.3215 20.5714C14.8422 21.0921 14.8422 21.9364 14.3215 22.4571L11.0217 25.7569L9.60746 24.3427L13.3787 20.5714Z" fill="white"/>
</svg>
