<svg width="37" height="38" viewBox="0 0 37 38" fill="none" xmlns="http://www.w3.org/2000/svg">
<path d="M6 1C6 0.447715 6.44772 0 7 0V0C7.55228 0 8 0.447715 8 1V4H6V1Z" fill="white"/>
<path d="M24 1C24 0.447715 24.4477 0 25 0V0C25.5523 0 26 0.447715 26 1V4H24V1Z" fill="white"/>
<rect x="19.5" y="20.5" width="17" height="17" rx="8.5" stroke="white"/>
<path d="M26.6464 35.3536C26.8417 35.5488 27.1583 35.5488 27.3536 35.3536L30.5355 32.1716C30.7308 31.9763 30.7308 31.6597 30.5355 31.4645C30.3403 31.2692 30.0237 31.2692 29.8284 31.4645L27 34.2929L24.1716 31.4645C23.9763 31.2692 23.6597 31.2692 23.4645 31.4645C23.2692 31.6597 23.2692 31.9763 23.4645 32.1716L26.6464 35.3536ZM26.5 30L26.5 35L27.5 35L27.5 30L26.5 30Z" fill="white"/>
<path d="M30.3536 23.6464C30.1583 23.4512 29.8417 23.4512 29.6464 23.6464L26.4645 26.8284C26.2692 27.0237 26.2692 27.3403 26.4645 27.5355C26.6597 27.7308 26.9763 27.7308 27.1716 27.5355L30 24.7071L32.8284 27.5355C33.0237 27.7308 33.3403 27.7308 33.5355 27.5355C33.7308 27.3403 33.7308 27.0237 33.5355 26.8284L30.3536 23.6464ZM30.5 29V24H29.5V29H30.5Z" fill="white"/>
<path d="M18.1148 30H3C1.89543 30 1 29.1046 1 28V9C1 7.89543 1.89543 7 3 7H28C29.1046 7 30 7.89543 30 9V18.9792" stroke="white"/>
</svg>
